%TF.GenerationSoftware,KiCad,Pcbnew,8.0.6*%
%TF.CreationDate,2024-11-01T11:01:27+01:00*%
%TF.ProjectId,temper,74656d70-6572-42e6-9b69-6361645f7063,1.0*%
%TF.SameCoordinates,Original*%
%TF.FileFunction,Drillmap*%
%TF.FilePolarity,Positive*%
%FSLAX45Y45*%
G04 Gerber Fmt 4.5, Leading zero omitted, Abs format (unit mm)*
G04 Created by KiCad (PCBNEW 8.0.6) date 2024-11-01 11:01:27*
%MOMM*%
%LPD*%
G01*
G04 APERTURE LIST*
%ADD10C,0.150000*%
%ADD11C,0.200000*%
%ADD12C,0.100000*%
%ADD13C,0.170180*%
%ADD14C,0.300000*%
%ADD15C,0.342900*%
G04 APERTURE END LIST*
D10*
X18762000Y-5380500D02*
X16733040Y-5381502D01*
X9451545Y-6202085D02*
X7741920Y-6197600D01*
X17576800Y-13365480D02*
X18821400Y-11201400D01*
X16047720Y-12598400D02*
X17428867Y-13395960D01*
X12537440Y-12124081D02*
X14315440Y-12125960D01*
X16636050Y-5305500D02*
G75*
G02*
X16685040Y-5345502I0J-50000D01*
G01*
X16733040Y-5381502D02*
G75*
G02*
X16685039Y-5345502I0J50002D01*
G01*
X16636050Y-5305500D02*
X14929320Y-5306902D01*
X9501545Y-6152085D02*
G75*
G02*
X9451545Y-6202085I-50005J5D01*
G01*
X9501712Y-5050682D02*
G75*
G02*
X9551712Y-5000682I49998J2D01*
G01*
X13031000Y-4403620D02*
X11353000Y-4404955D01*
X13081000Y-5005340D02*
X13081000Y-4453620D01*
X14829320Y-5056902D02*
X13131000Y-5055340D01*
X14879320Y-5256902D02*
X14879320Y-5106902D01*
X9501712Y-5050682D02*
X9501545Y-6152085D01*
X11254712Y-5000682D02*
X9551712Y-5000682D01*
X11303000Y-4454955D02*
X11304712Y-4950682D01*
X11304712Y-4950682D02*
G75*
G02*
X11254712Y-5000682I-50002J2D01*
G01*
X11303000Y-4454955D02*
G75*
G02*
X11353000Y-4404960I50000J-5D01*
G01*
X13031000Y-4403620D02*
G75*
G02*
X13081000Y-4453620I0J-50000D01*
G01*
X13131000Y-5055340D02*
G75*
G02*
X13081000Y-5005340I0J50000D01*
G01*
X14829320Y-5056902D02*
G75*
G02*
X14879318Y-5106902I0J-49998D01*
G01*
X14929320Y-5306902D02*
G75*
G02*
X14879318Y-5256902I0J50002D01*
G01*
X18762000Y-5380500D02*
G75*
G02*
X18812000Y-5430500I0J-50000D01*
G01*
X9545320Y-10086265D02*
X11262360Y-10086265D01*
X9479280Y-11074400D02*
X9484360Y-10147225D01*
X11262360Y-10086265D02*
G75*
G02*
X11329486Y-10129488I0J-73735D01*
G01*
X12537440Y-12124081D02*
G75*
G02*
X12501880Y-12110720I0J54001D01*
G01*
X17576800Y-13365480D02*
G75*
G02*
X17428867Y-13395959I-103930J130190D01*
G01*
X7701280Y-9377680D02*
X7701280Y-11074400D01*
X7696200Y-6243320D02*
X7701280Y-7670800D01*
X18812000Y-5430500D02*
X18821400Y-11201400D01*
X9479280Y-11211560D02*
X9479280Y-11074400D01*
X9484360Y-10147225D02*
G75*
G02*
X9545320Y-10086270I60960J-5D01*
G01*
X9479280Y-11211560D02*
G75*
G02*
X9413240Y-11277600I-66040J0D01*
G01*
X7701280Y-11211560D02*
X7701280Y-11074400D01*
X7701280Y-7670800D02*
X7701280Y-9377680D01*
X11329486Y-10129488D02*
X12501880Y-12110720D01*
X7696200Y-6243320D02*
G75*
G02*
X7741920Y-6197600I45720J0D01*
G01*
X7767320Y-11277600D02*
X9413240Y-11277600D01*
X14315440Y-12125960D02*
X16047720Y-12598400D01*
X7767320Y-11277600D02*
G75*
G02*
X7701280Y-11211560I0J66040D01*
G01*
D11*
D12*
X17767900Y-9868500D02*
X17842900Y-9943500D01*
X17842900Y-9868500D02*
X17767900Y-9943500D01*
X18042900Y-9868500D02*
X18117900Y-9943500D01*
X18117900Y-9868500D02*
X18042900Y-9943500D01*
X18680200Y-9765400D02*
G75*
G02*
X18590200Y-9765400I-45000J0D01*
G01*
X18590200Y-9765400D02*
G75*
G02*
X18680200Y-9765400I45000J0D01*
G01*
X18680200Y-10065400D02*
G75*
G02*
X18590200Y-10065400I-45000J0D01*
G01*
X18590200Y-10065400D02*
G75*
G02*
X18680200Y-10065400I45000J0D01*
G01*
X8069000Y-6570470D02*
X8069000Y-6669530D01*
X8019470Y-6620000D02*
X8118530Y-6620000D01*
X8069000Y-8270470D02*
X8069000Y-8369530D01*
X8019470Y-8320000D02*
X8118530Y-8320000D01*
X8069000Y-9970470D02*
X8069000Y-10069530D01*
X8019470Y-10020000D02*
X8118530Y-10020000D01*
X9113000Y-6570470D02*
X9113000Y-6669530D01*
X9063470Y-6620000D02*
X9162530Y-6620000D01*
X9113000Y-8270470D02*
X9113000Y-8369530D01*
X9063470Y-8320000D02*
X9162530Y-8320000D01*
X9113000Y-9970470D02*
X9113000Y-10069530D01*
X9063470Y-10020000D02*
X9162530Y-10020000D01*
X9869000Y-5370470D02*
X9869000Y-5469530D01*
X9819470Y-5420000D02*
X9918530Y-5420000D01*
X9869000Y-7070470D02*
X9869000Y-7169530D01*
X9819470Y-7120000D02*
X9918530Y-7120000D01*
X9869000Y-8770470D02*
X9869000Y-8869530D01*
X9819470Y-8820000D02*
X9918530Y-8820000D01*
X10913000Y-5370470D02*
X10913000Y-5469530D01*
X10863470Y-5420000D02*
X10962530Y-5420000D01*
X10913000Y-7070470D02*
X10913000Y-7169530D01*
X10863470Y-7120000D02*
X10962530Y-7120000D01*
X10913000Y-8770470D02*
X10913000Y-8869530D01*
X10863470Y-8820000D02*
X10962530Y-8820000D01*
X11669000Y-4770470D02*
X11669000Y-4869530D01*
X11619470Y-4820000D02*
X11718530Y-4820000D01*
X11669000Y-6470470D02*
X11669000Y-6569530D01*
X11619470Y-6520000D02*
X11718530Y-6520000D01*
X11669000Y-8170470D02*
X11669000Y-8269530D01*
X11619470Y-8220000D02*
X11718530Y-8220000D01*
X12713000Y-4770470D02*
X12713000Y-4869530D01*
X12663470Y-4820000D02*
X12762530Y-4820000D01*
X12713000Y-6470470D02*
X12713000Y-6569530D01*
X12663470Y-6520000D02*
X12762530Y-6520000D01*
X12713000Y-8170470D02*
X12713000Y-8269530D01*
X12663470Y-8220000D02*
X12762530Y-8220000D01*
X12879000Y-11669470D02*
X12879000Y-11768530D01*
X12829470Y-11719000D02*
X12928530Y-11719000D01*
X13469000Y-5432470D02*
X13469000Y-5531530D01*
X13419470Y-5482000D02*
X13518530Y-5482000D01*
X13469000Y-7132470D02*
X13469000Y-7231530D01*
X13419470Y-7182000D02*
X13518530Y-7182000D01*
X13469000Y-8832970D02*
X13469000Y-8932030D01*
X13419470Y-8882500D02*
X13518530Y-8882500D01*
X13923000Y-11669470D02*
X13923000Y-11768530D01*
X13873470Y-11719000D02*
X13972530Y-11719000D01*
X14513000Y-5432470D02*
X14513000Y-5531530D01*
X14463470Y-5482000D02*
X14562530Y-5482000D01*
X14513000Y-7132470D02*
X14513000Y-7231530D01*
X14463470Y-7182000D02*
X14562530Y-7182000D01*
X14513000Y-8832970D02*
X14513000Y-8932030D01*
X14463470Y-8882500D02*
X14562530Y-8882500D01*
X14793083Y-11779055D02*
X14793083Y-11878115D01*
X14743553Y-11828585D02*
X14842613Y-11828585D01*
X15269000Y-5670470D02*
X15269000Y-5769530D01*
X15219470Y-5720000D02*
X15318530Y-5720000D01*
X15269000Y-7370470D02*
X15269000Y-7469530D01*
X15219470Y-7420000D02*
X15318530Y-7420000D01*
X15269000Y-9070470D02*
X15269000Y-9169530D01*
X15219470Y-9120000D02*
X15318530Y-9120000D01*
X15801509Y-12049262D02*
X15801509Y-12148322D01*
X15751979Y-12098792D02*
X15851039Y-12098792D01*
X16313000Y-5670470D02*
X16313000Y-5769530D01*
X16263470Y-5720000D02*
X16362530Y-5720000D01*
X16313000Y-7370470D02*
X16313000Y-7469530D01*
X16263470Y-7420000D02*
X16362530Y-7420000D01*
X16313000Y-9070470D02*
X16313000Y-9169530D01*
X16263470Y-9120000D02*
X16362530Y-9120000D01*
X17568731Y-12491535D02*
X17568731Y-12590595D01*
X17519201Y-12541065D02*
X17618261Y-12541065D01*
X18090731Y-11587405D02*
X18090731Y-11686465D01*
X18041201Y-11636935D02*
X18140261Y-11636935D01*
D13*
X8101168Y-7100168D02*
X8101168Y-6979832D01*
X7980832Y-6979832D01*
X7980832Y-7100168D01*
X8101168Y-7100168D01*
X8101168Y-8800168D02*
X8101168Y-8679832D01*
X7980832Y-8679832D01*
X7980832Y-8800168D01*
X8101168Y-8800168D01*
X8101168Y-10500168D02*
X8101168Y-10379832D01*
X7980832Y-10379832D01*
X7980832Y-10500168D01*
X8101168Y-10500168D01*
X9201168Y-7100168D02*
X9201168Y-6979832D01*
X9080832Y-6979832D01*
X9080832Y-7100168D01*
X9201168Y-7100168D01*
X9201168Y-8800168D02*
X9201168Y-8679832D01*
X9080832Y-8679832D01*
X9080832Y-8800168D01*
X9201168Y-8800168D01*
X9201168Y-10500168D02*
X9201168Y-10379832D01*
X9080832Y-10379832D01*
X9080832Y-10500168D01*
X9201168Y-10500168D01*
X9901168Y-5900168D02*
X9901168Y-5779832D01*
X9780832Y-5779832D01*
X9780832Y-5900168D01*
X9901168Y-5900168D01*
X9901168Y-7600168D02*
X9901168Y-7479832D01*
X9780832Y-7479832D01*
X9780832Y-7600168D01*
X9901168Y-7600168D01*
X9901168Y-9300168D02*
X9901168Y-9179832D01*
X9780832Y-9179832D01*
X9780832Y-9300168D01*
X9901168Y-9300168D01*
X11001168Y-5900168D02*
X11001168Y-5779832D01*
X10880832Y-5779832D01*
X10880832Y-5900168D01*
X11001168Y-5900168D01*
X11001168Y-7600168D02*
X11001168Y-7479832D01*
X10880832Y-7479832D01*
X10880832Y-7600168D01*
X11001168Y-7600168D01*
X11001168Y-9300168D02*
X11001168Y-9179832D01*
X10880832Y-9179832D01*
X10880832Y-9300168D01*
X11001168Y-9300168D01*
X11701168Y-5300168D02*
X11701168Y-5179832D01*
X11580832Y-5179832D01*
X11580832Y-5300168D01*
X11701168Y-5300168D01*
X11701168Y-7000168D02*
X11701168Y-6879832D01*
X11580832Y-6879832D01*
X11580832Y-7000168D01*
X11701168Y-7000168D01*
X11701168Y-8700168D02*
X11701168Y-8579832D01*
X11580832Y-8579832D01*
X11580832Y-8700168D01*
X11701168Y-8700168D01*
X12801168Y-5300168D02*
X12801168Y-5179832D01*
X12680832Y-5179832D01*
X12680832Y-5300168D01*
X12801168Y-5300168D01*
X12801168Y-7000168D02*
X12801168Y-6879832D01*
X12680832Y-6879832D01*
X12680832Y-7000168D01*
X12801168Y-7000168D01*
X12801168Y-8700168D02*
X12801168Y-8579832D01*
X12680832Y-8579832D01*
X12680832Y-8700168D01*
X12801168Y-8700168D01*
X12911168Y-11359168D02*
X12911168Y-11238832D01*
X12790832Y-11238832D01*
X12790832Y-11359168D01*
X12911168Y-11359168D01*
X13501168Y-5962168D02*
X13501168Y-5841832D01*
X13380832Y-5841832D01*
X13380832Y-5962168D01*
X13501168Y-5962168D01*
X13501168Y-7662168D02*
X13501168Y-7541832D01*
X13380832Y-7541832D01*
X13380832Y-7662168D01*
X13501168Y-7662168D01*
X13501168Y-9362668D02*
X13501168Y-9242332D01*
X13380832Y-9242332D01*
X13380832Y-9362668D01*
X13501168Y-9362668D01*
X14011168Y-11359168D02*
X14011168Y-11238832D01*
X13890832Y-11238832D01*
X13890832Y-11359168D01*
X14011168Y-11359168D01*
X14601168Y-5962168D02*
X14601168Y-5841832D01*
X14480832Y-5841832D01*
X14480832Y-5962168D01*
X14601168Y-5962168D01*
X14601168Y-7662168D02*
X14601168Y-7541832D01*
X14480832Y-7541832D01*
X14480832Y-7662168D01*
X14601168Y-7662168D01*
X14601168Y-9362668D02*
X14601168Y-9242332D01*
X14480832Y-9242332D01*
X14480832Y-9362668D01*
X14601168Y-9362668D01*
X14934909Y-11475818D02*
X14934909Y-11355481D01*
X14814572Y-11355481D01*
X14814572Y-11475818D01*
X14934909Y-11475818D01*
X15301168Y-6200168D02*
X15301168Y-6079832D01*
X15180832Y-6079832D01*
X15180832Y-6200168D01*
X15301168Y-6200168D01*
X15301168Y-7900168D02*
X15301168Y-7779832D01*
X15180832Y-7779832D01*
X15180832Y-7900168D01*
X15301168Y-7900168D01*
X15301168Y-9600168D02*
X15301168Y-9479832D01*
X15180832Y-9479832D01*
X15180832Y-9600168D01*
X15301168Y-9600168D01*
X15997427Y-11760519D02*
X15997427Y-11640182D01*
X15877091Y-11640182D01*
X15877091Y-11760519D01*
X15997427Y-11760519D01*
X16401168Y-6200168D02*
X16401168Y-6079832D01*
X16280832Y-6079832D01*
X16280832Y-6200168D01*
X16401168Y-6200168D01*
X16401168Y-7900168D02*
X16401168Y-7779832D01*
X16280832Y-7779832D01*
X16280832Y-7900168D01*
X16401168Y-7900168D01*
X16401168Y-9600168D02*
X16401168Y-9479832D01*
X16280832Y-9479832D01*
X16280832Y-9600168D01*
X16401168Y-9600168D01*
X17251168Y-12415482D02*
X17251168Y-12295146D01*
X17130832Y-12295146D01*
X17130832Y-12415482D01*
X17251168Y-12415482D01*
X17801168Y-11462854D02*
X17801168Y-11342518D01*
X17680832Y-11342518D01*
X17680832Y-11462854D01*
X17801168Y-11462854D01*
D14*
X8091000Y-7565000D02*
X8241000Y-7415000D01*
X8091000Y-7265000D01*
X7941000Y-7415000D01*
X8091000Y-7565000D01*
X8091000Y-9265000D02*
X8241000Y-9115000D01*
X8091000Y-8965000D01*
X7941000Y-9115000D01*
X8091000Y-9265000D01*
X8091000Y-10965000D02*
X8241000Y-10815000D01*
X8091000Y-10665000D01*
X7941000Y-10815000D01*
X8091000Y-10965000D01*
X8591000Y-7785000D02*
X8741000Y-7635000D01*
X8591000Y-7485000D01*
X8441000Y-7635000D01*
X8591000Y-7785000D01*
X8591000Y-9485000D02*
X8741000Y-9335000D01*
X8591000Y-9185000D01*
X8441000Y-9335000D01*
X8591000Y-9485000D01*
X8591000Y-11185000D02*
X8741000Y-11035000D01*
X8591000Y-10885000D01*
X8441000Y-11035000D01*
X8591000Y-11185000D01*
X9091000Y-7565000D02*
X9241000Y-7415000D01*
X9091000Y-7265000D01*
X8941000Y-7415000D01*
X9091000Y-7565000D01*
X9091000Y-9265000D02*
X9241000Y-9115000D01*
X9091000Y-8965000D01*
X8941000Y-9115000D01*
X9091000Y-9265000D01*
X9091000Y-10965000D02*
X9241000Y-10815000D01*
X9091000Y-10665000D01*
X8941000Y-10815000D01*
X9091000Y-10965000D01*
X9891000Y-6365000D02*
X10041000Y-6215000D01*
X9891000Y-6065000D01*
X9741000Y-6215000D01*
X9891000Y-6365000D01*
X9891000Y-8065000D02*
X10041000Y-7915000D01*
X9891000Y-7765000D01*
X9741000Y-7915000D01*
X9891000Y-8065000D01*
X9891000Y-9765000D02*
X10041000Y-9615000D01*
X9891000Y-9465000D01*
X9741000Y-9615000D01*
X9891000Y-9765000D01*
X10391000Y-6585000D02*
X10541000Y-6435000D01*
X10391000Y-6285000D01*
X10241000Y-6435000D01*
X10391000Y-6585000D01*
X10391000Y-8285000D02*
X10541000Y-8135000D01*
X10391000Y-7985000D01*
X10241000Y-8135000D01*
X10391000Y-8285000D01*
X10391000Y-9985000D02*
X10541000Y-9835000D01*
X10391000Y-9685000D01*
X10241000Y-9835000D01*
X10391000Y-9985000D01*
X10891000Y-6365000D02*
X11041000Y-6215000D01*
X10891000Y-6065000D01*
X10741000Y-6215000D01*
X10891000Y-6365000D01*
X10891000Y-8065000D02*
X11041000Y-7915000D01*
X10891000Y-7765000D01*
X10741000Y-7915000D01*
X10891000Y-8065000D01*
X10891000Y-9765000D02*
X11041000Y-9615000D01*
X10891000Y-9465000D01*
X10741000Y-9615000D01*
X10891000Y-9765000D01*
X11691000Y-5765000D02*
X11841000Y-5615000D01*
X11691000Y-5465000D01*
X11541000Y-5615000D01*
X11691000Y-5765000D01*
X11691000Y-7465000D02*
X11841000Y-7315000D01*
X11691000Y-7165000D01*
X11541000Y-7315000D01*
X11691000Y-7465000D01*
X11691000Y-9165000D02*
X11841000Y-9015000D01*
X11691000Y-8865000D01*
X11541000Y-9015000D01*
X11691000Y-9165000D01*
X12191000Y-5985000D02*
X12341000Y-5835000D01*
X12191000Y-5685000D01*
X12041000Y-5835000D01*
X12191000Y-5985000D01*
X12191000Y-7685000D02*
X12341000Y-7535000D01*
X12191000Y-7385000D01*
X12041000Y-7535000D01*
X12191000Y-7685000D01*
X12191000Y-9385000D02*
X12341000Y-9235000D01*
X12191000Y-9085000D01*
X12041000Y-9235000D01*
X12191000Y-9385000D01*
X12691000Y-5765000D02*
X12841000Y-5615000D01*
X12691000Y-5465000D01*
X12541000Y-5615000D01*
X12691000Y-5765000D01*
X12691000Y-7465000D02*
X12841000Y-7315000D01*
X12691000Y-7165000D01*
X12541000Y-7315000D01*
X12691000Y-7465000D01*
X12691000Y-9165000D02*
X12841000Y-9015000D01*
X12691000Y-8865000D01*
X12541000Y-9015000D01*
X12691000Y-9165000D01*
X12901000Y-11074000D02*
X13051000Y-10924000D01*
X12901000Y-10774000D01*
X12751000Y-10924000D01*
X12901000Y-11074000D01*
X13401000Y-10854000D02*
X13551000Y-10704000D01*
X13401000Y-10554000D01*
X13251000Y-10704000D01*
X13401000Y-10854000D01*
X13491000Y-6427000D02*
X13641000Y-6277000D01*
X13491000Y-6127000D01*
X13341000Y-6277000D01*
X13491000Y-6427000D01*
X13491000Y-8127000D02*
X13641000Y-7977000D01*
X13491000Y-7827000D01*
X13341000Y-7977000D01*
X13491000Y-8127000D01*
X13491000Y-9827500D02*
X13641000Y-9677500D01*
X13491000Y-9527500D01*
X13341000Y-9677500D01*
X13491000Y-9827500D01*
X13901000Y-11074000D02*
X14051000Y-10924000D01*
X13901000Y-10774000D01*
X13751000Y-10924000D01*
X13901000Y-11074000D01*
X13991000Y-6647000D02*
X14141000Y-6497000D01*
X13991000Y-6347000D01*
X13841000Y-6497000D01*
X13991000Y-6647000D01*
X13991000Y-8347000D02*
X14141000Y-8197000D01*
X13991000Y-8047000D01*
X13841000Y-8197000D01*
X13991000Y-8347000D01*
X13991000Y-10047500D02*
X14141000Y-9897500D01*
X13991000Y-9747500D01*
X13841000Y-9897500D01*
X13991000Y-10047500D01*
X14491000Y-6427000D02*
X14641000Y-6277000D01*
X14491000Y-6127000D01*
X14341000Y-6277000D01*
X14491000Y-6427000D01*
X14491000Y-8127000D02*
X14641000Y-7977000D01*
X14491000Y-7827000D01*
X14341000Y-7977000D01*
X14491000Y-8127000D01*
X14491000Y-9827500D02*
X14641000Y-9677500D01*
X14491000Y-9527500D01*
X14341000Y-9677500D01*
X14491000Y-9827500D01*
X15020094Y-11216368D02*
X15170094Y-11066368D01*
X15020094Y-10916368D01*
X14870094Y-11066368D01*
X15020094Y-11216368D01*
X15291000Y-6665000D02*
X15441000Y-6515000D01*
X15291000Y-6365000D01*
X15141000Y-6515000D01*
X15291000Y-6665000D01*
X15291000Y-8365000D02*
X15441000Y-8215000D01*
X15291000Y-8065000D01*
X15141000Y-8215000D01*
X15291000Y-8365000D01*
X15291000Y-10065000D02*
X15441000Y-9915000D01*
X15291000Y-9765000D01*
X15141000Y-9915000D01*
X15291000Y-10065000D01*
X15559997Y-11133274D02*
X15709997Y-10983274D01*
X15559997Y-10833274D01*
X15409997Y-10983274D01*
X15559997Y-11133274D01*
X15791000Y-6885000D02*
X15941000Y-6735000D01*
X15791000Y-6585000D01*
X15641000Y-6735000D01*
X15791000Y-6885000D01*
X15791000Y-8585000D02*
X15941000Y-8435000D01*
X15791000Y-8285000D01*
X15641000Y-8435000D01*
X15791000Y-8585000D01*
X15791000Y-10285000D02*
X15941000Y-10135000D01*
X15791000Y-9985000D01*
X15641000Y-10135000D01*
X15791000Y-10285000D01*
X15986020Y-11475187D02*
X16136020Y-11325187D01*
X15986020Y-11175187D01*
X15836020Y-11325187D01*
X15986020Y-11475187D01*
X16291000Y-6665000D02*
X16441000Y-6515000D01*
X16291000Y-6365000D01*
X16141000Y-6515000D01*
X16291000Y-6665000D01*
X16291000Y-8365000D02*
X16441000Y-8215000D01*
X16291000Y-8065000D01*
X16141000Y-8215000D01*
X16291000Y-8365000D01*
X16291000Y-10065000D02*
X16441000Y-9915000D01*
X16291000Y-9765000D01*
X16141000Y-9915000D01*
X16291000Y-10065000D01*
X16891241Y-12274513D02*
X17041241Y-12124513D01*
X16891241Y-11974513D01*
X16741240Y-12124513D01*
X16891241Y-12274513D01*
X16950715Y-11731500D02*
X17100715Y-11581500D01*
X16950715Y-11431500D01*
X16800715Y-11581500D01*
X16950715Y-11731500D01*
X17391241Y-11408487D02*
X17541241Y-11258487D01*
X17391241Y-11108487D01*
X17241241Y-11258487D01*
X17391241Y-11408487D01*
D15*
X8419550Y-6868550D02*
X8762450Y-7211450D01*
X8762450Y-6868550D02*
X8419550Y-7211450D01*
X8762450Y-7040000D02*
G75*
G02*
X8419550Y-7040000I-171450J0D01*
G01*
X8419550Y-7040000D02*
G75*
G02*
X8762450Y-7040000I171450J0D01*
G01*
X8419550Y-8568550D02*
X8762450Y-8911450D01*
X8762450Y-8568550D02*
X8419550Y-8911450D01*
X8762450Y-8740000D02*
G75*
G02*
X8419550Y-8740000I-171450J0D01*
G01*
X8419550Y-8740000D02*
G75*
G02*
X8762450Y-8740000I171450J0D01*
G01*
X8419550Y-10268550D02*
X8762450Y-10611450D01*
X8762450Y-10268550D02*
X8419550Y-10611450D01*
X8762450Y-10440000D02*
G75*
G02*
X8419550Y-10440000I-171450J0D01*
G01*
X8419550Y-10440000D02*
G75*
G02*
X8762450Y-10440000I171450J0D01*
G01*
X10219550Y-5668550D02*
X10562450Y-6011450D01*
X10562450Y-5668550D02*
X10219550Y-6011450D01*
X10562450Y-5840000D02*
G75*
G02*
X10219550Y-5840000I-171450J0D01*
G01*
X10219550Y-5840000D02*
G75*
G02*
X10562450Y-5840000I171450J0D01*
G01*
X10219550Y-7368550D02*
X10562450Y-7711450D01*
X10562450Y-7368550D02*
X10219550Y-7711450D01*
X10562450Y-7540000D02*
G75*
G02*
X10219550Y-7540000I-171450J0D01*
G01*
X10219550Y-7540000D02*
G75*
G02*
X10562450Y-7540000I171450J0D01*
G01*
X10219550Y-9068550D02*
X10562450Y-9411450D01*
X10562450Y-9068550D02*
X10219550Y-9411450D01*
X10562450Y-9240000D02*
G75*
G02*
X10219550Y-9240000I-171450J0D01*
G01*
X10219550Y-9240000D02*
G75*
G02*
X10562450Y-9240000I171450J0D01*
G01*
X12019550Y-5068550D02*
X12362450Y-5411450D01*
X12362450Y-5068550D02*
X12019550Y-5411450D01*
X12362450Y-5240000D02*
G75*
G02*
X12019550Y-5240000I-171450J0D01*
G01*
X12019550Y-5240000D02*
G75*
G02*
X12362450Y-5240000I171450J0D01*
G01*
X12019550Y-6768550D02*
X12362450Y-7111450D01*
X12362450Y-6768550D02*
X12019550Y-7111450D01*
X12362450Y-6940000D02*
G75*
G02*
X12019550Y-6940000I-171450J0D01*
G01*
X12019550Y-6940000D02*
G75*
G02*
X12362450Y-6940000I171450J0D01*
G01*
X12019550Y-8468550D02*
X12362450Y-8811450D01*
X12362450Y-8468550D02*
X12019550Y-8811450D01*
X12362450Y-8640000D02*
G75*
G02*
X12019550Y-8640000I-171450J0D01*
G01*
X12019550Y-8640000D02*
G75*
G02*
X12362450Y-8640000I171450J0D01*
G01*
X13229550Y-11127550D02*
X13572450Y-11470450D01*
X13572450Y-11127550D02*
X13229550Y-11470450D01*
X13572450Y-11299000D02*
G75*
G02*
X13229550Y-11299000I-171450J0D01*
G01*
X13229550Y-11299000D02*
G75*
G02*
X13572450Y-11299000I171450J0D01*
G01*
X13819550Y-5730550D02*
X14162450Y-6073450D01*
X14162450Y-5730550D02*
X13819550Y-6073450D01*
X14162450Y-5902000D02*
G75*
G02*
X13819550Y-5902000I-171450J0D01*
G01*
X13819550Y-5902000D02*
G75*
G02*
X14162450Y-5902000I171450J0D01*
G01*
X13819550Y-7430550D02*
X14162450Y-7773450D01*
X14162450Y-7430550D02*
X13819550Y-7773450D01*
X14162450Y-7602000D02*
G75*
G02*
X13819550Y-7602000I-171450J0D01*
G01*
X13819550Y-7602000D02*
G75*
G02*
X14162450Y-7602000I171450J0D01*
G01*
X13819550Y-9131050D02*
X14162450Y-9473950D01*
X14162450Y-9131050D02*
X13819550Y-9473950D01*
X14162450Y-9302500D02*
G75*
G02*
X13819550Y-9302500I-171450J0D01*
G01*
X13819550Y-9302500D02*
G75*
G02*
X14162450Y-9302500I171450J0D01*
G01*
X15234550Y-11386550D02*
X15577450Y-11729450D01*
X15577450Y-11386550D02*
X15234550Y-11729450D01*
X15577450Y-11558000D02*
G75*
G02*
X15234550Y-11558000I-171450J0D01*
G01*
X15234550Y-11558000D02*
G75*
G02*
X15577450Y-11558000I171450J0D01*
G01*
X15619550Y-5968550D02*
X15962450Y-6311450D01*
X15962450Y-5968550D02*
X15619550Y-6311450D01*
X15962450Y-6140000D02*
G75*
G02*
X15619550Y-6140000I-171450J0D01*
G01*
X15619550Y-6140000D02*
G75*
G02*
X15962450Y-6140000I171450J0D01*
G01*
X15619550Y-7668550D02*
X15962450Y-8011450D01*
X15962450Y-7668550D02*
X15619550Y-8011450D01*
X15962450Y-7840000D02*
G75*
G02*
X15619550Y-7840000I-171450J0D01*
G01*
X15619550Y-7840000D02*
G75*
G02*
X15962450Y-7840000I171450J0D01*
G01*
X15619550Y-9368550D02*
X15962450Y-9711450D01*
X15962450Y-9368550D02*
X15619550Y-9711450D01*
X15962450Y-9540000D02*
G75*
G02*
X15619550Y-9540000I-171450J0D01*
G01*
X15619550Y-9540000D02*
G75*
G02*
X15962450Y-9540000I171450J0D01*
G01*
X17294550Y-11707550D02*
X17637450Y-12050450D01*
X17637450Y-11707550D02*
X17294550Y-12050450D01*
X17637450Y-11879000D02*
G75*
G02*
X17294550Y-11879000I-171450J0D01*
G01*
X17294550Y-11879000D02*
G75*
G02*
X17637450Y-11879000I171450J0D01*
G01*
D11*
X7949477Y-13720860D02*
X7949477Y-13520860D01*
X7949477Y-13520860D02*
X7997096Y-13520860D01*
X7997096Y-13520860D02*
X8025667Y-13530384D01*
X8025667Y-13530384D02*
X8044715Y-13549431D01*
X8044715Y-13549431D02*
X8054239Y-13568479D01*
X8054239Y-13568479D02*
X8063762Y-13606574D01*
X8063762Y-13606574D02*
X8063762Y-13635145D01*
X8063762Y-13635145D02*
X8054239Y-13673241D01*
X8054239Y-13673241D02*
X8044715Y-13692288D01*
X8044715Y-13692288D02*
X8025667Y-13711336D01*
X8025667Y-13711336D02*
X7997096Y-13720860D01*
X7997096Y-13720860D02*
X7949477Y-13720860D01*
X8149477Y-13720860D02*
X8149477Y-13587526D01*
X8149477Y-13625622D02*
X8159001Y-13606574D01*
X8159001Y-13606574D02*
X8168524Y-13597050D01*
X8168524Y-13597050D02*
X8187572Y-13587526D01*
X8187572Y-13587526D02*
X8206620Y-13587526D01*
X8273286Y-13720860D02*
X8273286Y-13587526D01*
X8273286Y-13520860D02*
X8263762Y-13530384D01*
X8263762Y-13530384D02*
X8273286Y-13539907D01*
X8273286Y-13539907D02*
X8282810Y-13530384D01*
X8282810Y-13530384D02*
X8273286Y-13520860D01*
X8273286Y-13520860D02*
X8273286Y-13539907D01*
X8397096Y-13720860D02*
X8378048Y-13711336D01*
X8378048Y-13711336D02*
X8368524Y-13692288D01*
X8368524Y-13692288D02*
X8368524Y-13520860D01*
X8501858Y-13720860D02*
X8482810Y-13711336D01*
X8482810Y-13711336D02*
X8473286Y-13692288D01*
X8473286Y-13692288D02*
X8473286Y-13520860D01*
X8730429Y-13720860D02*
X8730429Y-13520860D01*
X8730429Y-13520860D02*
X8797096Y-13663717D01*
X8797096Y-13663717D02*
X8863763Y-13520860D01*
X8863763Y-13520860D02*
X8863763Y-13720860D01*
X9044715Y-13720860D02*
X9044715Y-13616098D01*
X9044715Y-13616098D02*
X9035191Y-13597050D01*
X9035191Y-13597050D02*
X9016144Y-13587526D01*
X9016144Y-13587526D02*
X8978048Y-13587526D01*
X8978048Y-13587526D02*
X8959001Y-13597050D01*
X9044715Y-13711336D02*
X9025667Y-13720860D01*
X9025667Y-13720860D02*
X8978048Y-13720860D01*
X8978048Y-13720860D02*
X8959001Y-13711336D01*
X8959001Y-13711336D02*
X8949477Y-13692288D01*
X8949477Y-13692288D02*
X8949477Y-13673241D01*
X8949477Y-13673241D02*
X8959001Y-13654193D01*
X8959001Y-13654193D02*
X8978048Y-13644669D01*
X8978048Y-13644669D02*
X9025667Y-13644669D01*
X9025667Y-13644669D02*
X9044715Y-13635145D01*
X9139953Y-13587526D02*
X9139953Y-13787526D01*
X9139953Y-13597050D02*
X9159001Y-13587526D01*
X9159001Y-13587526D02*
X9197096Y-13587526D01*
X9197096Y-13587526D02*
X9216144Y-13597050D01*
X9216144Y-13597050D02*
X9225667Y-13606574D01*
X9225667Y-13606574D02*
X9235191Y-13625622D01*
X9235191Y-13625622D02*
X9235191Y-13682764D01*
X9235191Y-13682764D02*
X9225667Y-13701812D01*
X9225667Y-13701812D02*
X9216144Y-13711336D01*
X9216144Y-13711336D02*
X9197096Y-13720860D01*
X9197096Y-13720860D02*
X9159001Y-13720860D01*
X9159001Y-13720860D02*
X9139953Y-13711336D01*
X9320905Y-13701812D02*
X9330429Y-13711336D01*
X9330429Y-13711336D02*
X9320905Y-13720860D01*
X9320905Y-13720860D02*
X9311382Y-13711336D01*
X9311382Y-13711336D02*
X9320905Y-13701812D01*
X9320905Y-13701812D02*
X9320905Y-13720860D01*
X9320905Y-13597050D02*
X9330429Y-13606574D01*
X9330429Y-13606574D02*
X9320905Y-13616098D01*
X9320905Y-13616098D02*
X9311382Y-13606574D01*
X9311382Y-13606574D02*
X9320905Y-13597050D01*
X9320905Y-13597050D02*
X9320905Y-13616098D01*
D12*
X7613700Y-14011876D02*
X7688700Y-14086876D01*
X7688700Y-14011876D02*
X7613700Y-14086876D01*
D11*
X7987572Y-13940860D02*
X8006620Y-13940860D01*
X8006620Y-13940860D02*
X8025667Y-13950384D01*
X8025667Y-13950384D02*
X8035191Y-13959907D01*
X8035191Y-13959907D02*
X8044715Y-13978955D01*
X8044715Y-13978955D02*
X8054239Y-14017050D01*
X8054239Y-14017050D02*
X8054239Y-14064669D01*
X8054239Y-14064669D02*
X8044715Y-14102764D01*
X8044715Y-14102764D02*
X8035191Y-14121812D01*
X8035191Y-14121812D02*
X8025667Y-14131336D01*
X8025667Y-14131336D02*
X8006620Y-14140860D01*
X8006620Y-14140860D02*
X7987572Y-14140860D01*
X7987572Y-14140860D02*
X7968524Y-14131336D01*
X7968524Y-14131336D02*
X7959001Y-14121812D01*
X7959001Y-14121812D02*
X7949477Y-14102764D01*
X7949477Y-14102764D02*
X7939953Y-14064669D01*
X7939953Y-14064669D02*
X7939953Y-14017050D01*
X7939953Y-14017050D02*
X7949477Y-13978955D01*
X7949477Y-13978955D02*
X7959001Y-13959907D01*
X7959001Y-13959907D02*
X7968524Y-13950384D01*
X7968524Y-13950384D02*
X7987572Y-13940860D01*
X8139953Y-14121812D02*
X8149477Y-14131336D01*
X8149477Y-14131336D02*
X8139953Y-14140860D01*
X8139953Y-14140860D02*
X8130429Y-14131336D01*
X8130429Y-14131336D02*
X8139953Y-14121812D01*
X8139953Y-14121812D02*
X8139953Y-14140860D01*
X8216143Y-13940860D02*
X8349477Y-13940860D01*
X8349477Y-13940860D02*
X8263762Y-14140860D01*
X8520905Y-13940860D02*
X8425667Y-13940860D01*
X8425667Y-13940860D02*
X8416144Y-14036098D01*
X8416144Y-14036098D02*
X8425667Y-14026574D01*
X8425667Y-14026574D02*
X8444715Y-14017050D01*
X8444715Y-14017050D02*
X8492334Y-14017050D01*
X8492334Y-14017050D02*
X8511382Y-14026574D01*
X8511382Y-14026574D02*
X8520905Y-14036098D01*
X8520905Y-14036098D02*
X8530429Y-14055145D01*
X8530429Y-14055145D02*
X8530429Y-14102764D01*
X8530429Y-14102764D02*
X8520905Y-14121812D01*
X8520905Y-14121812D02*
X8511382Y-14131336D01*
X8511382Y-14131336D02*
X8492334Y-14140860D01*
X8492334Y-14140860D02*
X8444715Y-14140860D01*
X8444715Y-14140860D02*
X8425667Y-14131336D01*
X8425667Y-14131336D02*
X8416144Y-14121812D01*
X8654239Y-13940860D02*
X8673286Y-13940860D01*
X8673286Y-13940860D02*
X8692334Y-13950384D01*
X8692334Y-13950384D02*
X8701858Y-13959907D01*
X8701858Y-13959907D02*
X8711382Y-13978955D01*
X8711382Y-13978955D02*
X8720905Y-14017050D01*
X8720905Y-14017050D02*
X8720905Y-14064669D01*
X8720905Y-14064669D02*
X8711382Y-14102764D01*
X8711382Y-14102764D02*
X8701858Y-14121812D01*
X8701858Y-14121812D02*
X8692334Y-14131336D01*
X8692334Y-14131336D02*
X8673286Y-14140860D01*
X8673286Y-14140860D02*
X8654239Y-14140860D01*
X8654239Y-14140860D02*
X8635191Y-14131336D01*
X8635191Y-14131336D02*
X8625667Y-14121812D01*
X8625667Y-14121812D02*
X8616144Y-14102764D01*
X8616144Y-14102764D02*
X8606620Y-14064669D01*
X8606620Y-14064669D02*
X8606620Y-14017050D01*
X8606620Y-14017050D02*
X8616144Y-13978955D01*
X8616144Y-13978955D02*
X8625667Y-13959907D01*
X8625667Y-13959907D02*
X8635191Y-13950384D01*
X8635191Y-13950384D02*
X8654239Y-13940860D01*
X8806620Y-14140860D02*
X8806620Y-14007526D01*
X8806620Y-14026574D02*
X8816144Y-14017050D01*
X8816144Y-14017050D02*
X8835191Y-14007526D01*
X8835191Y-14007526D02*
X8863763Y-14007526D01*
X8863763Y-14007526D02*
X8882810Y-14017050D01*
X8882810Y-14017050D02*
X8892334Y-14036098D01*
X8892334Y-14036098D02*
X8892334Y-14140860D01*
X8892334Y-14036098D02*
X8901858Y-14017050D01*
X8901858Y-14017050D02*
X8920905Y-14007526D01*
X8920905Y-14007526D02*
X8949477Y-14007526D01*
X8949477Y-14007526D02*
X8968525Y-14017050D01*
X8968525Y-14017050D02*
X8978048Y-14036098D01*
X8978048Y-14036098D02*
X8978048Y-14140860D01*
X9073286Y-14140860D02*
X9073286Y-14007526D01*
X9073286Y-14026574D02*
X9082810Y-14017050D01*
X9082810Y-14017050D02*
X9101858Y-14007526D01*
X9101858Y-14007526D02*
X9130429Y-14007526D01*
X9130429Y-14007526D02*
X9149477Y-14017050D01*
X9149477Y-14017050D02*
X9159001Y-14036098D01*
X9159001Y-14036098D02*
X9159001Y-14140860D01*
X9159001Y-14036098D02*
X9168525Y-14017050D01*
X9168525Y-14017050D02*
X9187572Y-14007526D01*
X9187572Y-14007526D02*
X9216144Y-14007526D01*
X9216144Y-14007526D02*
X9235191Y-14017050D01*
X9235191Y-14017050D02*
X9244715Y-14036098D01*
X9244715Y-14036098D02*
X9244715Y-14140860D01*
X9635191Y-13931336D02*
X9463763Y-14188479D01*
X9892334Y-13940860D02*
X9911382Y-13940860D01*
X9911382Y-13940860D02*
X9930429Y-13950384D01*
X9930429Y-13950384D02*
X9939953Y-13959907D01*
X9939953Y-13959907D02*
X9949477Y-13978955D01*
X9949477Y-13978955D02*
X9959001Y-14017050D01*
X9959001Y-14017050D02*
X9959001Y-14064669D01*
X9959001Y-14064669D02*
X9949477Y-14102764D01*
X9949477Y-14102764D02*
X9939953Y-14121812D01*
X9939953Y-14121812D02*
X9930429Y-14131336D01*
X9930429Y-14131336D02*
X9911382Y-14140860D01*
X9911382Y-14140860D02*
X9892334Y-14140860D01*
X9892334Y-14140860D02*
X9873287Y-14131336D01*
X9873287Y-14131336D02*
X9863763Y-14121812D01*
X9863763Y-14121812D02*
X9854239Y-14102764D01*
X9854239Y-14102764D02*
X9844715Y-14064669D01*
X9844715Y-14064669D02*
X9844715Y-14017050D01*
X9844715Y-14017050D02*
X9854239Y-13978955D01*
X9854239Y-13978955D02*
X9863763Y-13959907D01*
X9863763Y-13959907D02*
X9873287Y-13950384D01*
X9873287Y-13950384D02*
X9892334Y-13940860D01*
X10044715Y-14121812D02*
X10054239Y-14131336D01*
X10054239Y-14131336D02*
X10044715Y-14140860D01*
X10044715Y-14140860D02*
X10035191Y-14131336D01*
X10035191Y-14131336D02*
X10044715Y-14121812D01*
X10044715Y-14121812D02*
X10044715Y-14140860D01*
X10178048Y-13940860D02*
X10197096Y-13940860D01*
X10197096Y-13940860D02*
X10216144Y-13950384D01*
X10216144Y-13950384D02*
X10225668Y-13959907D01*
X10225668Y-13959907D02*
X10235191Y-13978955D01*
X10235191Y-13978955D02*
X10244715Y-14017050D01*
X10244715Y-14017050D02*
X10244715Y-14064669D01*
X10244715Y-14064669D02*
X10235191Y-14102764D01*
X10235191Y-14102764D02*
X10225668Y-14121812D01*
X10225668Y-14121812D02*
X10216144Y-14131336D01*
X10216144Y-14131336D02*
X10197096Y-14140860D01*
X10197096Y-14140860D02*
X10178048Y-14140860D01*
X10178048Y-14140860D02*
X10159001Y-14131336D01*
X10159001Y-14131336D02*
X10149477Y-14121812D01*
X10149477Y-14121812D02*
X10139953Y-14102764D01*
X10139953Y-14102764D02*
X10130429Y-14064669D01*
X10130429Y-14064669D02*
X10130429Y-14017050D01*
X10130429Y-14017050D02*
X10139953Y-13978955D01*
X10139953Y-13978955D02*
X10149477Y-13959907D01*
X10149477Y-13959907D02*
X10159001Y-13950384D01*
X10159001Y-13950384D02*
X10178048Y-13940860D01*
X10320906Y-13959907D02*
X10330429Y-13950384D01*
X10330429Y-13950384D02*
X10349477Y-13940860D01*
X10349477Y-13940860D02*
X10397096Y-13940860D01*
X10397096Y-13940860D02*
X10416144Y-13950384D01*
X10416144Y-13950384D02*
X10425668Y-13959907D01*
X10425668Y-13959907D02*
X10435191Y-13978955D01*
X10435191Y-13978955D02*
X10435191Y-13998003D01*
X10435191Y-13998003D02*
X10425668Y-14026574D01*
X10425668Y-14026574D02*
X10311382Y-14140860D01*
X10311382Y-14140860D02*
X10435191Y-14140860D01*
X10530429Y-14140860D02*
X10568525Y-14140860D01*
X10568525Y-14140860D02*
X10587572Y-14131336D01*
X10587572Y-14131336D02*
X10597096Y-14121812D01*
X10597096Y-14121812D02*
X10616144Y-14093241D01*
X10616144Y-14093241D02*
X10625668Y-14055145D01*
X10625668Y-14055145D02*
X10625668Y-13978955D01*
X10625668Y-13978955D02*
X10616144Y-13959907D01*
X10616144Y-13959907D02*
X10606620Y-13950384D01*
X10606620Y-13950384D02*
X10587572Y-13940860D01*
X10587572Y-13940860D02*
X10549477Y-13940860D01*
X10549477Y-13940860D02*
X10530429Y-13950384D01*
X10530429Y-13950384D02*
X10520906Y-13959907D01*
X10520906Y-13959907D02*
X10511382Y-13978955D01*
X10511382Y-13978955D02*
X10511382Y-14026574D01*
X10511382Y-14026574D02*
X10520906Y-14045622D01*
X10520906Y-14045622D02*
X10530429Y-14055145D01*
X10530429Y-14055145D02*
X10549477Y-14064669D01*
X10549477Y-14064669D02*
X10587572Y-14064669D01*
X10587572Y-14064669D02*
X10606620Y-14055145D01*
X10606620Y-14055145D02*
X10616144Y-14045622D01*
X10616144Y-14045622D02*
X10625668Y-14026574D01*
X10806620Y-13940860D02*
X10711382Y-13940860D01*
X10711382Y-13940860D02*
X10701858Y-14036098D01*
X10701858Y-14036098D02*
X10711382Y-14026574D01*
X10711382Y-14026574D02*
X10730429Y-14017050D01*
X10730429Y-14017050D02*
X10778049Y-14017050D01*
X10778049Y-14017050D02*
X10797096Y-14026574D01*
X10797096Y-14026574D02*
X10806620Y-14036098D01*
X10806620Y-14036098D02*
X10816144Y-14055145D01*
X10816144Y-14055145D02*
X10816144Y-14102764D01*
X10816144Y-14102764D02*
X10806620Y-14121812D01*
X10806620Y-14121812D02*
X10797096Y-14131336D01*
X10797096Y-14131336D02*
X10778049Y-14140860D01*
X10778049Y-14140860D02*
X10730429Y-14140860D01*
X10730429Y-14140860D02*
X10711382Y-14131336D01*
X10711382Y-14131336D02*
X10701858Y-14121812D01*
X10892334Y-13940860D02*
X10892334Y-13978955D01*
X10968525Y-13940860D02*
X10968525Y-13978955D01*
X11263763Y-14217050D02*
X11254239Y-14207526D01*
X11254239Y-14207526D02*
X11235191Y-14178955D01*
X11235191Y-14178955D02*
X11225668Y-14159907D01*
X11225668Y-14159907D02*
X11216144Y-14131336D01*
X11216144Y-14131336D02*
X11206620Y-14083717D01*
X11206620Y-14083717D02*
X11206620Y-14045622D01*
X11206620Y-14045622D02*
X11216144Y-13998003D01*
X11216144Y-13998003D02*
X11225668Y-13969431D01*
X11225668Y-13969431D02*
X11235191Y-13950384D01*
X11235191Y-13950384D02*
X11254239Y-13921812D01*
X11254239Y-13921812D02*
X11263763Y-13912288D01*
X11330429Y-13959907D02*
X11339953Y-13950384D01*
X11339953Y-13950384D02*
X11359001Y-13940860D01*
X11359001Y-13940860D02*
X11406620Y-13940860D01*
X11406620Y-13940860D02*
X11425668Y-13950384D01*
X11425668Y-13950384D02*
X11435191Y-13959907D01*
X11435191Y-13959907D02*
X11444715Y-13978955D01*
X11444715Y-13978955D02*
X11444715Y-13998003D01*
X11444715Y-13998003D02*
X11435191Y-14026574D01*
X11435191Y-14026574D02*
X11320906Y-14140860D01*
X11320906Y-14140860D02*
X11444715Y-14140860D01*
X11682810Y-14140860D02*
X11682810Y-13940860D01*
X11768525Y-14140860D02*
X11768525Y-14036098D01*
X11768525Y-14036098D02*
X11759001Y-14017050D01*
X11759001Y-14017050D02*
X11739953Y-14007526D01*
X11739953Y-14007526D02*
X11711382Y-14007526D01*
X11711382Y-14007526D02*
X11692334Y-14017050D01*
X11692334Y-14017050D02*
X11682810Y-14026574D01*
X11892334Y-14140860D02*
X11873287Y-14131336D01*
X11873287Y-14131336D02*
X11863763Y-14121812D01*
X11863763Y-14121812D02*
X11854239Y-14102764D01*
X11854239Y-14102764D02*
X11854239Y-14045622D01*
X11854239Y-14045622D02*
X11863763Y-14026574D01*
X11863763Y-14026574D02*
X11873287Y-14017050D01*
X11873287Y-14017050D02*
X11892334Y-14007526D01*
X11892334Y-14007526D02*
X11920906Y-14007526D01*
X11920906Y-14007526D02*
X11939953Y-14017050D01*
X11939953Y-14017050D02*
X11949477Y-14026574D01*
X11949477Y-14026574D02*
X11959001Y-14045622D01*
X11959001Y-14045622D02*
X11959001Y-14102764D01*
X11959001Y-14102764D02*
X11949477Y-14121812D01*
X11949477Y-14121812D02*
X11939953Y-14131336D01*
X11939953Y-14131336D02*
X11920906Y-14140860D01*
X11920906Y-14140860D02*
X11892334Y-14140860D01*
X12073287Y-14140860D02*
X12054239Y-14131336D01*
X12054239Y-14131336D02*
X12044715Y-14112288D01*
X12044715Y-14112288D02*
X12044715Y-13940860D01*
X12225668Y-14131336D02*
X12206620Y-14140860D01*
X12206620Y-14140860D02*
X12168525Y-14140860D01*
X12168525Y-14140860D02*
X12149477Y-14131336D01*
X12149477Y-14131336D02*
X12139953Y-14112288D01*
X12139953Y-14112288D02*
X12139953Y-14036098D01*
X12139953Y-14036098D02*
X12149477Y-14017050D01*
X12149477Y-14017050D02*
X12168525Y-14007526D01*
X12168525Y-14007526D02*
X12206620Y-14007526D01*
X12206620Y-14007526D02*
X12225668Y-14017050D01*
X12225668Y-14017050D02*
X12235191Y-14036098D01*
X12235191Y-14036098D02*
X12235191Y-14055145D01*
X12235191Y-14055145D02*
X12139953Y-14074193D01*
X12311382Y-14131336D02*
X12330430Y-14140860D01*
X12330430Y-14140860D02*
X12368525Y-14140860D01*
X12368525Y-14140860D02*
X12387572Y-14131336D01*
X12387572Y-14131336D02*
X12397096Y-14112288D01*
X12397096Y-14112288D02*
X12397096Y-14102764D01*
X12397096Y-14102764D02*
X12387572Y-14083717D01*
X12387572Y-14083717D02*
X12368525Y-14074193D01*
X12368525Y-14074193D02*
X12339953Y-14074193D01*
X12339953Y-14074193D02*
X12320906Y-14064669D01*
X12320906Y-14064669D02*
X12311382Y-14045622D01*
X12311382Y-14045622D02*
X12311382Y-14036098D01*
X12311382Y-14036098D02*
X12320906Y-14017050D01*
X12320906Y-14017050D02*
X12339953Y-14007526D01*
X12339953Y-14007526D02*
X12368525Y-14007526D01*
X12368525Y-14007526D02*
X12387572Y-14017050D01*
X12463763Y-14217050D02*
X12473287Y-14207526D01*
X12473287Y-14207526D02*
X12492334Y-14178955D01*
X12492334Y-14178955D02*
X12501858Y-14159907D01*
X12501858Y-14159907D02*
X12511382Y-14131336D01*
X12511382Y-14131336D02*
X12520906Y-14083717D01*
X12520906Y-14083717D02*
X12520906Y-14045622D01*
X12520906Y-14045622D02*
X12511382Y-13998003D01*
X12511382Y-13998003D02*
X12501858Y-13969431D01*
X12501858Y-13969431D02*
X12492334Y-13950384D01*
X12492334Y-13950384D02*
X12473287Y-13921812D01*
X12473287Y-13921812D02*
X12463763Y-13912288D01*
X12825668Y-14217050D02*
X12816144Y-14207526D01*
X12816144Y-14207526D02*
X12797096Y-14178955D01*
X12797096Y-14178955D02*
X12787572Y-14159907D01*
X12787572Y-14159907D02*
X12778049Y-14131336D01*
X12778049Y-14131336D02*
X12768525Y-14083717D01*
X12768525Y-14083717D02*
X12768525Y-14045622D01*
X12768525Y-14045622D02*
X12778049Y-13998003D01*
X12778049Y-13998003D02*
X12787572Y-13969431D01*
X12787572Y-13969431D02*
X12797096Y-13950384D01*
X12797096Y-13950384D02*
X12816144Y-13921812D01*
X12816144Y-13921812D02*
X12825668Y-13912288D01*
X12901858Y-14007526D02*
X12901858Y-14140860D01*
X12901858Y-14026574D02*
X12911382Y-14017050D01*
X12911382Y-14017050D02*
X12930430Y-14007526D01*
X12930430Y-14007526D02*
X12959001Y-14007526D01*
X12959001Y-14007526D02*
X12978049Y-14017050D01*
X12978049Y-14017050D02*
X12987572Y-14036098D01*
X12987572Y-14036098D02*
X12987572Y-14140860D01*
X13111382Y-14140860D02*
X13092334Y-14131336D01*
X13092334Y-14131336D02*
X13082811Y-14121812D01*
X13082811Y-14121812D02*
X13073287Y-14102764D01*
X13073287Y-14102764D02*
X13073287Y-14045622D01*
X13073287Y-14045622D02*
X13082811Y-14026574D01*
X13082811Y-14026574D02*
X13092334Y-14017050D01*
X13092334Y-14017050D02*
X13111382Y-14007526D01*
X13111382Y-14007526D02*
X13139953Y-14007526D01*
X13139953Y-14007526D02*
X13159001Y-14017050D01*
X13159001Y-14017050D02*
X13168525Y-14026574D01*
X13168525Y-14026574D02*
X13178049Y-14045622D01*
X13178049Y-14045622D02*
X13178049Y-14102764D01*
X13178049Y-14102764D02*
X13168525Y-14121812D01*
X13168525Y-14121812D02*
X13159001Y-14131336D01*
X13159001Y-14131336D02*
X13139953Y-14140860D01*
X13139953Y-14140860D02*
X13111382Y-14140860D01*
X13235192Y-14007526D02*
X13311382Y-14007526D01*
X13263763Y-13940860D02*
X13263763Y-14112288D01*
X13263763Y-14112288D02*
X13273287Y-14131336D01*
X13273287Y-14131336D02*
X13292334Y-14140860D01*
X13292334Y-14140860D02*
X13311382Y-14140860D01*
X13530430Y-14007526D02*
X13530430Y-14207526D01*
X13530430Y-14017050D02*
X13549477Y-14007526D01*
X13549477Y-14007526D02*
X13587573Y-14007526D01*
X13587573Y-14007526D02*
X13606620Y-14017050D01*
X13606620Y-14017050D02*
X13616144Y-14026574D01*
X13616144Y-14026574D02*
X13625668Y-14045622D01*
X13625668Y-14045622D02*
X13625668Y-14102764D01*
X13625668Y-14102764D02*
X13616144Y-14121812D01*
X13616144Y-14121812D02*
X13606620Y-14131336D01*
X13606620Y-14131336D02*
X13587573Y-14140860D01*
X13587573Y-14140860D02*
X13549477Y-14140860D01*
X13549477Y-14140860D02*
X13530430Y-14131336D01*
X13739953Y-14140860D02*
X13720906Y-14131336D01*
X13720906Y-14131336D02*
X13711382Y-14112288D01*
X13711382Y-14112288D02*
X13711382Y-13940860D01*
X13901858Y-14140860D02*
X13901858Y-14036098D01*
X13901858Y-14036098D02*
X13892334Y-14017050D01*
X13892334Y-14017050D02*
X13873287Y-14007526D01*
X13873287Y-14007526D02*
X13835192Y-14007526D01*
X13835192Y-14007526D02*
X13816144Y-14017050D01*
X13901858Y-14131336D02*
X13882811Y-14140860D01*
X13882811Y-14140860D02*
X13835192Y-14140860D01*
X13835192Y-14140860D02*
X13816144Y-14131336D01*
X13816144Y-14131336D02*
X13806620Y-14112288D01*
X13806620Y-14112288D02*
X13806620Y-14093241D01*
X13806620Y-14093241D02*
X13816144Y-14074193D01*
X13816144Y-14074193D02*
X13835192Y-14064669D01*
X13835192Y-14064669D02*
X13882811Y-14064669D01*
X13882811Y-14064669D02*
X13901858Y-14055145D01*
X13968525Y-14007526D02*
X14044715Y-14007526D01*
X13997096Y-13940860D02*
X13997096Y-14112288D01*
X13997096Y-14112288D02*
X14006620Y-14131336D01*
X14006620Y-14131336D02*
X14025668Y-14140860D01*
X14025668Y-14140860D02*
X14044715Y-14140860D01*
X14187573Y-14131336D02*
X14168525Y-14140860D01*
X14168525Y-14140860D02*
X14130430Y-14140860D01*
X14130430Y-14140860D02*
X14111382Y-14131336D01*
X14111382Y-14131336D02*
X14101858Y-14112288D01*
X14101858Y-14112288D02*
X14101858Y-14036098D01*
X14101858Y-14036098D02*
X14111382Y-14017050D01*
X14111382Y-14017050D02*
X14130430Y-14007526D01*
X14130430Y-14007526D02*
X14168525Y-14007526D01*
X14168525Y-14007526D02*
X14187573Y-14017050D01*
X14187573Y-14017050D02*
X14197096Y-14036098D01*
X14197096Y-14036098D02*
X14197096Y-14055145D01*
X14197096Y-14055145D02*
X14101858Y-14074193D01*
X14368525Y-14140860D02*
X14368525Y-13940860D01*
X14368525Y-14131336D02*
X14349477Y-14140860D01*
X14349477Y-14140860D02*
X14311382Y-14140860D01*
X14311382Y-14140860D02*
X14292334Y-14131336D01*
X14292334Y-14131336D02*
X14282811Y-14121812D01*
X14282811Y-14121812D02*
X14273287Y-14102764D01*
X14273287Y-14102764D02*
X14273287Y-14045622D01*
X14273287Y-14045622D02*
X14282811Y-14026574D01*
X14282811Y-14026574D02*
X14292334Y-14017050D01*
X14292334Y-14017050D02*
X14311382Y-14007526D01*
X14311382Y-14007526D02*
X14349477Y-14007526D01*
X14349477Y-14007526D02*
X14368525Y-14017050D01*
X14444715Y-14217050D02*
X14454239Y-14207526D01*
X14454239Y-14207526D02*
X14473287Y-14178955D01*
X14473287Y-14178955D02*
X14482811Y-14159907D01*
X14482811Y-14159907D02*
X14492334Y-14131336D01*
X14492334Y-14131336D02*
X14501858Y-14083717D01*
X14501858Y-14083717D02*
X14501858Y-14045622D01*
X14501858Y-14045622D02*
X14492334Y-13998003D01*
X14492334Y-13998003D02*
X14482811Y-13969431D01*
X14482811Y-13969431D02*
X14473287Y-13950384D01*
X14473287Y-13950384D02*
X14454239Y-13921812D01*
X14454239Y-13921812D02*
X14444715Y-13912288D01*
D12*
X7688700Y-14313376D02*
G75*
G02*
X7598700Y-14313376I-45000J0D01*
G01*
X7598700Y-14313376D02*
G75*
G02*
X7688700Y-14313376I45000J0D01*
G01*
D11*
X7987572Y-14204860D02*
X8006620Y-14204860D01*
X8006620Y-14204860D02*
X8025667Y-14214384D01*
X8025667Y-14214384D02*
X8035191Y-14223907D01*
X8035191Y-14223907D02*
X8044715Y-14242955D01*
X8044715Y-14242955D02*
X8054239Y-14281050D01*
X8054239Y-14281050D02*
X8054239Y-14328669D01*
X8054239Y-14328669D02*
X8044715Y-14366764D01*
X8044715Y-14366764D02*
X8035191Y-14385812D01*
X8035191Y-14385812D02*
X8025667Y-14395336D01*
X8025667Y-14395336D02*
X8006620Y-14404860D01*
X8006620Y-14404860D02*
X7987572Y-14404860D01*
X7987572Y-14404860D02*
X7968524Y-14395336D01*
X7968524Y-14395336D02*
X7959001Y-14385812D01*
X7959001Y-14385812D02*
X7949477Y-14366764D01*
X7949477Y-14366764D02*
X7939953Y-14328669D01*
X7939953Y-14328669D02*
X7939953Y-14281050D01*
X7939953Y-14281050D02*
X7949477Y-14242955D01*
X7949477Y-14242955D02*
X7959001Y-14223907D01*
X7959001Y-14223907D02*
X7968524Y-14214384D01*
X7968524Y-14214384D02*
X7987572Y-14204860D01*
X8139953Y-14385812D02*
X8149477Y-14395336D01*
X8149477Y-14395336D02*
X8139953Y-14404860D01*
X8139953Y-14404860D02*
X8130429Y-14395336D01*
X8130429Y-14395336D02*
X8139953Y-14385812D01*
X8139953Y-14385812D02*
X8139953Y-14404860D01*
X8244715Y-14404860D02*
X8282810Y-14404860D01*
X8282810Y-14404860D02*
X8301858Y-14395336D01*
X8301858Y-14395336D02*
X8311382Y-14385812D01*
X8311382Y-14385812D02*
X8330429Y-14357241D01*
X8330429Y-14357241D02*
X8339953Y-14319145D01*
X8339953Y-14319145D02*
X8339953Y-14242955D01*
X8339953Y-14242955D02*
X8330429Y-14223907D01*
X8330429Y-14223907D02*
X8320905Y-14214384D01*
X8320905Y-14214384D02*
X8301858Y-14204860D01*
X8301858Y-14204860D02*
X8263762Y-14204860D01*
X8263762Y-14204860D02*
X8244715Y-14214384D01*
X8244715Y-14214384D02*
X8235191Y-14223907D01*
X8235191Y-14223907D02*
X8225667Y-14242955D01*
X8225667Y-14242955D02*
X8225667Y-14290574D01*
X8225667Y-14290574D02*
X8235191Y-14309622D01*
X8235191Y-14309622D02*
X8244715Y-14319145D01*
X8244715Y-14319145D02*
X8263762Y-14328669D01*
X8263762Y-14328669D02*
X8301858Y-14328669D01*
X8301858Y-14328669D02*
X8320905Y-14319145D01*
X8320905Y-14319145D02*
X8330429Y-14309622D01*
X8330429Y-14309622D02*
X8339953Y-14290574D01*
X8463763Y-14204860D02*
X8482810Y-14204860D01*
X8482810Y-14204860D02*
X8501858Y-14214384D01*
X8501858Y-14214384D02*
X8511382Y-14223907D01*
X8511382Y-14223907D02*
X8520905Y-14242955D01*
X8520905Y-14242955D02*
X8530429Y-14281050D01*
X8530429Y-14281050D02*
X8530429Y-14328669D01*
X8530429Y-14328669D02*
X8520905Y-14366764D01*
X8520905Y-14366764D02*
X8511382Y-14385812D01*
X8511382Y-14385812D02*
X8501858Y-14395336D01*
X8501858Y-14395336D02*
X8482810Y-14404860D01*
X8482810Y-14404860D02*
X8463763Y-14404860D01*
X8463763Y-14404860D02*
X8444715Y-14395336D01*
X8444715Y-14395336D02*
X8435191Y-14385812D01*
X8435191Y-14385812D02*
X8425667Y-14366764D01*
X8425667Y-14366764D02*
X8416144Y-14328669D01*
X8416144Y-14328669D02*
X8416144Y-14281050D01*
X8416144Y-14281050D02*
X8425667Y-14242955D01*
X8425667Y-14242955D02*
X8435191Y-14223907D01*
X8435191Y-14223907D02*
X8444715Y-14214384D01*
X8444715Y-14214384D02*
X8463763Y-14204860D01*
X8654239Y-14204860D02*
X8673286Y-14204860D01*
X8673286Y-14204860D02*
X8692334Y-14214384D01*
X8692334Y-14214384D02*
X8701858Y-14223907D01*
X8701858Y-14223907D02*
X8711382Y-14242955D01*
X8711382Y-14242955D02*
X8720905Y-14281050D01*
X8720905Y-14281050D02*
X8720905Y-14328669D01*
X8720905Y-14328669D02*
X8711382Y-14366764D01*
X8711382Y-14366764D02*
X8701858Y-14385812D01*
X8701858Y-14385812D02*
X8692334Y-14395336D01*
X8692334Y-14395336D02*
X8673286Y-14404860D01*
X8673286Y-14404860D02*
X8654239Y-14404860D01*
X8654239Y-14404860D02*
X8635191Y-14395336D01*
X8635191Y-14395336D02*
X8625667Y-14385812D01*
X8625667Y-14385812D02*
X8616144Y-14366764D01*
X8616144Y-14366764D02*
X8606620Y-14328669D01*
X8606620Y-14328669D02*
X8606620Y-14281050D01*
X8606620Y-14281050D02*
X8616144Y-14242955D01*
X8616144Y-14242955D02*
X8625667Y-14223907D01*
X8625667Y-14223907D02*
X8635191Y-14214384D01*
X8635191Y-14214384D02*
X8654239Y-14204860D01*
X8806620Y-14404860D02*
X8806620Y-14271526D01*
X8806620Y-14290574D02*
X8816144Y-14281050D01*
X8816144Y-14281050D02*
X8835191Y-14271526D01*
X8835191Y-14271526D02*
X8863763Y-14271526D01*
X8863763Y-14271526D02*
X8882810Y-14281050D01*
X8882810Y-14281050D02*
X8892334Y-14300098D01*
X8892334Y-14300098D02*
X8892334Y-14404860D01*
X8892334Y-14300098D02*
X8901858Y-14281050D01*
X8901858Y-14281050D02*
X8920905Y-14271526D01*
X8920905Y-14271526D02*
X8949477Y-14271526D01*
X8949477Y-14271526D02*
X8968525Y-14281050D01*
X8968525Y-14281050D02*
X8978048Y-14300098D01*
X8978048Y-14300098D02*
X8978048Y-14404860D01*
X9073286Y-14404860D02*
X9073286Y-14271526D01*
X9073286Y-14290574D02*
X9082810Y-14281050D01*
X9082810Y-14281050D02*
X9101858Y-14271526D01*
X9101858Y-14271526D02*
X9130429Y-14271526D01*
X9130429Y-14271526D02*
X9149477Y-14281050D01*
X9149477Y-14281050D02*
X9159001Y-14300098D01*
X9159001Y-14300098D02*
X9159001Y-14404860D01*
X9159001Y-14300098D02*
X9168525Y-14281050D01*
X9168525Y-14281050D02*
X9187572Y-14271526D01*
X9187572Y-14271526D02*
X9216144Y-14271526D01*
X9216144Y-14271526D02*
X9235191Y-14281050D01*
X9235191Y-14281050D02*
X9244715Y-14300098D01*
X9244715Y-14300098D02*
X9244715Y-14404860D01*
X9635191Y-14195336D02*
X9463763Y-14452479D01*
X9892334Y-14204860D02*
X9911382Y-14204860D01*
X9911382Y-14204860D02*
X9930429Y-14214384D01*
X9930429Y-14214384D02*
X9939953Y-14223907D01*
X9939953Y-14223907D02*
X9949477Y-14242955D01*
X9949477Y-14242955D02*
X9959001Y-14281050D01*
X9959001Y-14281050D02*
X9959001Y-14328669D01*
X9959001Y-14328669D02*
X9949477Y-14366764D01*
X9949477Y-14366764D02*
X9939953Y-14385812D01*
X9939953Y-14385812D02*
X9930429Y-14395336D01*
X9930429Y-14395336D02*
X9911382Y-14404860D01*
X9911382Y-14404860D02*
X9892334Y-14404860D01*
X9892334Y-14404860D02*
X9873287Y-14395336D01*
X9873287Y-14395336D02*
X9863763Y-14385812D01*
X9863763Y-14385812D02*
X9854239Y-14366764D01*
X9854239Y-14366764D02*
X9844715Y-14328669D01*
X9844715Y-14328669D02*
X9844715Y-14281050D01*
X9844715Y-14281050D02*
X9854239Y-14242955D01*
X9854239Y-14242955D02*
X9863763Y-14223907D01*
X9863763Y-14223907D02*
X9873287Y-14214384D01*
X9873287Y-14214384D02*
X9892334Y-14204860D01*
X10044715Y-14385812D02*
X10054239Y-14395336D01*
X10054239Y-14395336D02*
X10044715Y-14404860D01*
X10044715Y-14404860D02*
X10035191Y-14395336D01*
X10035191Y-14395336D02*
X10044715Y-14385812D01*
X10044715Y-14385812D02*
X10044715Y-14404860D01*
X10178048Y-14204860D02*
X10197096Y-14204860D01*
X10197096Y-14204860D02*
X10216144Y-14214384D01*
X10216144Y-14214384D02*
X10225668Y-14223907D01*
X10225668Y-14223907D02*
X10235191Y-14242955D01*
X10235191Y-14242955D02*
X10244715Y-14281050D01*
X10244715Y-14281050D02*
X10244715Y-14328669D01*
X10244715Y-14328669D02*
X10235191Y-14366764D01*
X10235191Y-14366764D02*
X10225668Y-14385812D01*
X10225668Y-14385812D02*
X10216144Y-14395336D01*
X10216144Y-14395336D02*
X10197096Y-14404860D01*
X10197096Y-14404860D02*
X10178048Y-14404860D01*
X10178048Y-14404860D02*
X10159001Y-14395336D01*
X10159001Y-14395336D02*
X10149477Y-14385812D01*
X10149477Y-14385812D02*
X10139953Y-14366764D01*
X10139953Y-14366764D02*
X10130429Y-14328669D01*
X10130429Y-14328669D02*
X10130429Y-14281050D01*
X10130429Y-14281050D02*
X10139953Y-14242955D01*
X10139953Y-14242955D02*
X10149477Y-14223907D01*
X10149477Y-14223907D02*
X10159001Y-14214384D01*
X10159001Y-14214384D02*
X10178048Y-14204860D01*
X10311382Y-14204860D02*
X10435191Y-14204860D01*
X10435191Y-14204860D02*
X10368525Y-14281050D01*
X10368525Y-14281050D02*
X10397096Y-14281050D01*
X10397096Y-14281050D02*
X10416144Y-14290574D01*
X10416144Y-14290574D02*
X10425668Y-14300098D01*
X10425668Y-14300098D02*
X10435191Y-14319145D01*
X10435191Y-14319145D02*
X10435191Y-14366764D01*
X10435191Y-14366764D02*
X10425668Y-14385812D01*
X10425668Y-14385812D02*
X10416144Y-14395336D01*
X10416144Y-14395336D02*
X10397096Y-14404860D01*
X10397096Y-14404860D02*
X10339953Y-14404860D01*
X10339953Y-14404860D02*
X10320906Y-14395336D01*
X10320906Y-14395336D02*
X10311382Y-14385812D01*
X10616144Y-14204860D02*
X10520906Y-14204860D01*
X10520906Y-14204860D02*
X10511382Y-14300098D01*
X10511382Y-14300098D02*
X10520906Y-14290574D01*
X10520906Y-14290574D02*
X10539953Y-14281050D01*
X10539953Y-14281050D02*
X10587572Y-14281050D01*
X10587572Y-14281050D02*
X10606620Y-14290574D01*
X10606620Y-14290574D02*
X10616144Y-14300098D01*
X10616144Y-14300098D02*
X10625668Y-14319145D01*
X10625668Y-14319145D02*
X10625668Y-14366764D01*
X10625668Y-14366764D02*
X10616144Y-14385812D01*
X10616144Y-14385812D02*
X10606620Y-14395336D01*
X10606620Y-14395336D02*
X10587572Y-14404860D01*
X10587572Y-14404860D02*
X10539953Y-14404860D01*
X10539953Y-14404860D02*
X10520906Y-14395336D01*
X10520906Y-14395336D02*
X10511382Y-14385812D01*
X10797096Y-14271526D02*
X10797096Y-14404860D01*
X10749477Y-14195336D02*
X10701858Y-14338193D01*
X10701858Y-14338193D02*
X10825668Y-14338193D01*
X10892334Y-14204860D02*
X10892334Y-14242955D01*
X10968525Y-14204860D02*
X10968525Y-14242955D01*
X11263763Y-14481050D02*
X11254239Y-14471526D01*
X11254239Y-14471526D02*
X11235191Y-14442955D01*
X11235191Y-14442955D02*
X11225668Y-14423907D01*
X11225668Y-14423907D02*
X11216144Y-14395336D01*
X11216144Y-14395336D02*
X11206620Y-14347717D01*
X11206620Y-14347717D02*
X11206620Y-14309622D01*
X11206620Y-14309622D02*
X11216144Y-14262003D01*
X11216144Y-14262003D02*
X11225668Y-14233431D01*
X11225668Y-14233431D02*
X11235191Y-14214384D01*
X11235191Y-14214384D02*
X11254239Y-14185812D01*
X11254239Y-14185812D02*
X11263763Y-14176288D01*
X11330429Y-14223907D02*
X11339953Y-14214384D01*
X11339953Y-14214384D02*
X11359001Y-14204860D01*
X11359001Y-14204860D02*
X11406620Y-14204860D01*
X11406620Y-14204860D02*
X11425668Y-14214384D01*
X11425668Y-14214384D02*
X11435191Y-14223907D01*
X11435191Y-14223907D02*
X11444715Y-14242955D01*
X11444715Y-14242955D02*
X11444715Y-14262003D01*
X11444715Y-14262003D02*
X11435191Y-14290574D01*
X11435191Y-14290574D02*
X11320906Y-14404860D01*
X11320906Y-14404860D02*
X11444715Y-14404860D01*
X11682810Y-14404860D02*
X11682810Y-14204860D01*
X11768525Y-14404860D02*
X11768525Y-14300098D01*
X11768525Y-14300098D02*
X11759001Y-14281050D01*
X11759001Y-14281050D02*
X11739953Y-14271526D01*
X11739953Y-14271526D02*
X11711382Y-14271526D01*
X11711382Y-14271526D02*
X11692334Y-14281050D01*
X11692334Y-14281050D02*
X11682810Y-14290574D01*
X11892334Y-14404860D02*
X11873287Y-14395336D01*
X11873287Y-14395336D02*
X11863763Y-14385812D01*
X11863763Y-14385812D02*
X11854239Y-14366764D01*
X11854239Y-14366764D02*
X11854239Y-14309622D01*
X11854239Y-14309622D02*
X11863763Y-14290574D01*
X11863763Y-14290574D02*
X11873287Y-14281050D01*
X11873287Y-14281050D02*
X11892334Y-14271526D01*
X11892334Y-14271526D02*
X11920906Y-14271526D01*
X11920906Y-14271526D02*
X11939953Y-14281050D01*
X11939953Y-14281050D02*
X11949477Y-14290574D01*
X11949477Y-14290574D02*
X11959001Y-14309622D01*
X11959001Y-14309622D02*
X11959001Y-14366764D01*
X11959001Y-14366764D02*
X11949477Y-14385812D01*
X11949477Y-14385812D02*
X11939953Y-14395336D01*
X11939953Y-14395336D02*
X11920906Y-14404860D01*
X11920906Y-14404860D02*
X11892334Y-14404860D01*
X12073287Y-14404860D02*
X12054239Y-14395336D01*
X12054239Y-14395336D02*
X12044715Y-14376288D01*
X12044715Y-14376288D02*
X12044715Y-14204860D01*
X12225668Y-14395336D02*
X12206620Y-14404860D01*
X12206620Y-14404860D02*
X12168525Y-14404860D01*
X12168525Y-14404860D02*
X12149477Y-14395336D01*
X12149477Y-14395336D02*
X12139953Y-14376288D01*
X12139953Y-14376288D02*
X12139953Y-14300098D01*
X12139953Y-14300098D02*
X12149477Y-14281050D01*
X12149477Y-14281050D02*
X12168525Y-14271526D01*
X12168525Y-14271526D02*
X12206620Y-14271526D01*
X12206620Y-14271526D02*
X12225668Y-14281050D01*
X12225668Y-14281050D02*
X12235191Y-14300098D01*
X12235191Y-14300098D02*
X12235191Y-14319145D01*
X12235191Y-14319145D02*
X12139953Y-14338193D01*
X12311382Y-14395336D02*
X12330430Y-14404860D01*
X12330430Y-14404860D02*
X12368525Y-14404860D01*
X12368525Y-14404860D02*
X12387572Y-14395336D01*
X12387572Y-14395336D02*
X12397096Y-14376288D01*
X12397096Y-14376288D02*
X12397096Y-14366764D01*
X12397096Y-14366764D02*
X12387572Y-14347717D01*
X12387572Y-14347717D02*
X12368525Y-14338193D01*
X12368525Y-14338193D02*
X12339953Y-14338193D01*
X12339953Y-14338193D02*
X12320906Y-14328669D01*
X12320906Y-14328669D02*
X12311382Y-14309622D01*
X12311382Y-14309622D02*
X12311382Y-14300098D01*
X12311382Y-14300098D02*
X12320906Y-14281050D01*
X12320906Y-14281050D02*
X12339953Y-14271526D01*
X12339953Y-14271526D02*
X12368525Y-14271526D01*
X12368525Y-14271526D02*
X12387572Y-14281050D01*
X12463763Y-14481050D02*
X12473287Y-14471526D01*
X12473287Y-14471526D02*
X12492334Y-14442955D01*
X12492334Y-14442955D02*
X12501858Y-14423907D01*
X12501858Y-14423907D02*
X12511382Y-14395336D01*
X12511382Y-14395336D02*
X12520906Y-14347717D01*
X12520906Y-14347717D02*
X12520906Y-14309622D01*
X12520906Y-14309622D02*
X12511382Y-14262003D01*
X12511382Y-14262003D02*
X12501858Y-14233431D01*
X12501858Y-14233431D02*
X12492334Y-14214384D01*
X12492334Y-14214384D02*
X12473287Y-14185812D01*
X12473287Y-14185812D02*
X12463763Y-14176288D01*
X12825668Y-14481050D02*
X12816144Y-14471526D01*
X12816144Y-14471526D02*
X12797096Y-14442955D01*
X12797096Y-14442955D02*
X12787572Y-14423907D01*
X12787572Y-14423907D02*
X12778049Y-14395336D01*
X12778049Y-14395336D02*
X12768525Y-14347717D01*
X12768525Y-14347717D02*
X12768525Y-14309622D01*
X12768525Y-14309622D02*
X12778049Y-14262003D01*
X12778049Y-14262003D02*
X12787572Y-14233431D01*
X12787572Y-14233431D02*
X12797096Y-14214384D01*
X12797096Y-14214384D02*
X12816144Y-14185812D01*
X12816144Y-14185812D02*
X12825668Y-14176288D01*
X12901858Y-14271526D02*
X12901858Y-14404860D01*
X12901858Y-14290574D02*
X12911382Y-14281050D01*
X12911382Y-14281050D02*
X12930430Y-14271526D01*
X12930430Y-14271526D02*
X12959001Y-14271526D01*
X12959001Y-14271526D02*
X12978049Y-14281050D01*
X12978049Y-14281050D02*
X12987572Y-14300098D01*
X12987572Y-14300098D02*
X12987572Y-14404860D01*
X13111382Y-14404860D02*
X13092334Y-14395336D01*
X13092334Y-14395336D02*
X13082811Y-14385812D01*
X13082811Y-14385812D02*
X13073287Y-14366764D01*
X13073287Y-14366764D02*
X13073287Y-14309622D01*
X13073287Y-14309622D02*
X13082811Y-14290574D01*
X13082811Y-14290574D02*
X13092334Y-14281050D01*
X13092334Y-14281050D02*
X13111382Y-14271526D01*
X13111382Y-14271526D02*
X13139953Y-14271526D01*
X13139953Y-14271526D02*
X13159001Y-14281050D01*
X13159001Y-14281050D02*
X13168525Y-14290574D01*
X13168525Y-14290574D02*
X13178049Y-14309622D01*
X13178049Y-14309622D02*
X13178049Y-14366764D01*
X13178049Y-14366764D02*
X13168525Y-14385812D01*
X13168525Y-14385812D02*
X13159001Y-14395336D01*
X13159001Y-14395336D02*
X13139953Y-14404860D01*
X13139953Y-14404860D02*
X13111382Y-14404860D01*
X13235192Y-14271526D02*
X13311382Y-14271526D01*
X13263763Y-14204860D02*
X13263763Y-14376288D01*
X13263763Y-14376288D02*
X13273287Y-14395336D01*
X13273287Y-14395336D02*
X13292334Y-14404860D01*
X13292334Y-14404860D02*
X13311382Y-14404860D01*
X13530430Y-14271526D02*
X13530430Y-14471526D01*
X13530430Y-14281050D02*
X13549477Y-14271526D01*
X13549477Y-14271526D02*
X13587573Y-14271526D01*
X13587573Y-14271526D02*
X13606620Y-14281050D01*
X13606620Y-14281050D02*
X13616144Y-14290574D01*
X13616144Y-14290574D02*
X13625668Y-14309622D01*
X13625668Y-14309622D02*
X13625668Y-14366764D01*
X13625668Y-14366764D02*
X13616144Y-14385812D01*
X13616144Y-14385812D02*
X13606620Y-14395336D01*
X13606620Y-14395336D02*
X13587573Y-14404860D01*
X13587573Y-14404860D02*
X13549477Y-14404860D01*
X13549477Y-14404860D02*
X13530430Y-14395336D01*
X13739953Y-14404860D02*
X13720906Y-14395336D01*
X13720906Y-14395336D02*
X13711382Y-14376288D01*
X13711382Y-14376288D02*
X13711382Y-14204860D01*
X13901858Y-14404860D02*
X13901858Y-14300098D01*
X13901858Y-14300098D02*
X13892334Y-14281050D01*
X13892334Y-14281050D02*
X13873287Y-14271526D01*
X13873287Y-14271526D02*
X13835192Y-14271526D01*
X13835192Y-14271526D02*
X13816144Y-14281050D01*
X13901858Y-14395336D02*
X13882811Y-14404860D01*
X13882811Y-14404860D02*
X13835192Y-14404860D01*
X13835192Y-14404860D02*
X13816144Y-14395336D01*
X13816144Y-14395336D02*
X13806620Y-14376288D01*
X13806620Y-14376288D02*
X13806620Y-14357241D01*
X13806620Y-14357241D02*
X13816144Y-14338193D01*
X13816144Y-14338193D02*
X13835192Y-14328669D01*
X13835192Y-14328669D02*
X13882811Y-14328669D01*
X13882811Y-14328669D02*
X13901858Y-14319145D01*
X13968525Y-14271526D02*
X14044715Y-14271526D01*
X13997096Y-14204860D02*
X13997096Y-14376288D01*
X13997096Y-14376288D02*
X14006620Y-14395336D01*
X14006620Y-14395336D02*
X14025668Y-14404860D01*
X14025668Y-14404860D02*
X14044715Y-14404860D01*
X14187573Y-14395336D02*
X14168525Y-14404860D01*
X14168525Y-14404860D02*
X14130430Y-14404860D01*
X14130430Y-14404860D02*
X14111382Y-14395336D01*
X14111382Y-14395336D02*
X14101858Y-14376288D01*
X14101858Y-14376288D02*
X14101858Y-14300098D01*
X14101858Y-14300098D02*
X14111382Y-14281050D01*
X14111382Y-14281050D02*
X14130430Y-14271526D01*
X14130430Y-14271526D02*
X14168525Y-14271526D01*
X14168525Y-14271526D02*
X14187573Y-14281050D01*
X14187573Y-14281050D02*
X14197096Y-14300098D01*
X14197096Y-14300098D02*
X14197096Y-14319145D01*
X14197096Y-14319145D02*
X14101858Y-14338193D01*
X14368525Y-14404860D02*
X14368525Y-14204860D01*
X14368525Y-14395336D02*
X14349477Y-14404860D01*
X14349477Y-14404860D02*
X14311382Y-14404860D01*
X14311382Y-14404860D02*
X14292334Y-14395336D01*
X14292334Y-14395336D02*
X14282811Y-14385812D01*
X14282811Y-14385812D02*
X14273287Y-14366764D01*
X14273287Y-14366764D02*
X14273287Y-14309622D01*
X14273287Y-14309622D02*
X14282811Y-14290574D01*
X14282811Y-14290574D02*
X14292334Y-14281050D01*
X14292334Y-14281050D02*
X14311382Y-14271526D01*
X14311382Y-14271526D02*
X14349477Y-14271526D01*
X14349477Y-14271526D02*
X14368525Y-14281050D01*
X14444715Y-14481050D02*
X14454239Y-14471526D01*
X14454239Y-14471526D02*
X14473287Y-14442955D01*
X14473287Y-14442955D02*
X14482811Y-14423907D01*
X14482811Y-14423907D02*
X14492334Y-14395336D01*
X14492334Y-14395336D02*
X14501858Y-14347717D01*
X14501858Y-14347717D02*
X14501858Y-14309622D01*
X14501858Y-14309622D02*
X14492334Y-14262003D01*
X14492334Y-14262003D02*
X14482811Y-14233431D01*
X14482811Y-14233431D02*
X14473287Y-14214384D01*
X14473287Y-14214384D02*
X14454239Y-14185812D01*
X14454239Y-14185812D02*
X14444715Y-14176288D01*
D12*
X7639170Y-14527846D02*
X7639170Y-14626906D01*
X7589640Y-14577376D02*
X7688700Y-14577376D01*
D11*
X7987572Y-14468860D02*
X8006620Y-14468860D01*
X8006620Y-14468860D02*
X8025667Y-14478384D01*
X8025667Y-14478384D02*
X8035191Y-14487907D01*
X8035191Y-14487907D02*
X8044715Y-14506955D01*
X8044715Y-14506955D02*
X8054239Y-14545050D01*
X8054239Y-14545050D02*
X8054239Y-14592669D01*
X8054239Y-14592669D02*
X8044715Y-14630764D01*
X8044715Y-14630764D02*
X8035191Y-14649812D01*
X8035191Y-14649812D02*
X8025667Y-14659336D01*
X8025667Y-14659336D02*
X8006620Y-14668860D01*
X8006620Y-14668860D02*
X7987572Y-14668860D01*
X7987572Y-14668860D02*
X7968524Y-14659336D01*
X7968524Y-14659336D02*
X7959001Y-14649812D01*
X7959001Y-14649812D02*
X7949477Y-14630764D01*
X7949477Y-14630764D02*
X7939953Y-14592669D01*
X7939953Y-14592669D02*
X7939953Y-14545050D01*
X7939953Y-14545050D02*
X7949477Y-14506955D01*
X7949477Y-14506955D02*
X7959001Y-14487907D01*
X7959001Y-14487907D02*
X7968524Y-14478384D01*
X7968524Y-14478384D02*
X7987572Y-14468860D01*
X8139953Y-14649812D02*
X8149477Y-14659336D01*
X8149477Y-14659336D02*
X8139953Y-14668860D01*
X8139953Y-14668860D02*
X8130429Y-14659336D01*
X8130429Y-14659336D02*
X8139953Y-14649812D01*
X8139953Y-14649812D02*
X8139953Y-14668860D01*
X8244715Y-14668860D02*
X8282810Y-14668860D01*
X8282810Y-14668860D02*
X8301858Y-14659336D01*
X8301858Y-14659336D02*
X8311382Y-14649812D01*
X8311382Y-14649812D02*
X8330429Y-14621241D01*
X8330429Y-14621241D02*
X8339953Y-14583145D01*
X8339953Y-14583145D02*
X8339953Y-14506955D01*
X8339953Y-14506955D02*
X8330429Y-14487907D01*
X8330429Y-14487907D02*
X8320905Y-14478384D01*
X8320905Y-14478384D02*
X8301858Y-14468860D01*
X8301858Y-14468860D02*
X8263762Y-14468860D01*
X8263762Y-14468860D02*
X8244715Y-14478384D01*
X8244715Y-14478384D02*
X8235191Y-14487907D01*
X8235191Y-14487907D02*
X8225667Y-14506955D01*
X8225667Y-14506955D02*
X8225667Y-14554574D01*
X8225667Y-14554574D02*
X8235191Y-14573622D01*
X8235191Y-14573622D02*
X8244715Y-14583145D01*
X8244715Y-14583145D02*
X8263762Y-14592669D01*
X8263762Y-14592669D02*
X8301858Y-14592669D01*
X8301858Y-14592669D02*
X8320905Y-14583145D01*
X8320905Y-14583145D02*
X8330429Y-14573622D01*
X8330429Y-14573622D02*
X8339953Y-14554574D01*
X8435191Y-14668860D02*
X8473286Y-14668860D01*
X8473286Y-14668860D02*
X8492334Y-14659336D01*
X8492334Y-14659336D02*
X8501858Y-14649812D01*
X8501858Y-14649812D02*
X8520905Y-14621241D01*
X8520905Y-14621241D02*
X8530429Y-14583145D01*
X8530429Y-14583145D02*
X8530429Y-14506955D01*
X8530429Y-14506955D02*
X8520905Y-14487907D01*
X8520905Y-14487907D02*
X8511382Y-14478384D01*
X8511382Y-14478384D02*
X8492334Y-14468860D01*
X8492334Y-14468860D02*
X8454239Y-14468860D01*
X8454239Y-14468860D02*
X8435191Y-14478384D01*
X8435191Y-14478384D02*
X8425667Y-14487907D01*
X8425667Y-14487907D02*
X8416144Y-14506955D01*
X8416144Y-14506955D02*
X8416144Y-14554574D01*
X8416144Y-14554574D02*
X8425667Y-14573622D01*
X8425667Y-14573622D02*
X8435191Y-14583145D01*
X8435191Y-14583145D02*
X8454239Y-14592669D01*
X8454239Y-14592669D02*
X8492334Y-14592669D01*
X8492334Y-14592669D02*
X8511382Y-14583145D01*
X8511382Y-14583145D02*
X8520905Y-14573622D01*
X8520905Y-14573622D02*
X8530429Y-14554574D01*
X8720905Y-14668860D02*
X8606620Y-14668860D01*
X8663763Y-14668860D02*
X8663763Y-14468860D01*
X8663763Y-14468860D02*
X8644715Y-14497431D01*
X8644715Y-14497431D02*
X8625667Y-14516479D01*
X8625667Y-14516479D02*
X8606620Y-14526003D01*
X8806620Y-14668860D02*
X8806620Y-14535526D01*
X8806620Y-14554574D02*
X8816144Y-14545050D01*
X8816144Y-14545050D02*
X8835191Y-14535526D01*
X8835191Y-14535526D02*
X8863763Y-14535526D01*
X8863763Y-14535526D02*
X8882810Y-14545050D01*
X8882810Y-14545050D02*
X8892334Y-14564098D01*
X8892334Y-14564098D02*
X8892334Y-14668860D01*
X8892334Y-14564098D02*
X8901858Y-14545050D01*
X8901858Y-14545050D02*
X8920905Y-14535526D01*
X8920905Y-14535526D02*
X8949477Y-14535526D01*
X8949477Y-14535526D02*
X8968525Y-14545050D01*
X8968525Y-14545050D02*
X8978048Y-14564098D01*
X8978048Y-14564098D02*
X8978048Y-14668860D01*
X9073286Y-14668860D02*
X9073286Y-14535526D01*
X9073286Y-14554574D02*
X9082810Y-14545050D01*
X9082810Y-14545050D02*
X9101858Y-14535526D01*
X9101858Y-14535526D02*
X9130429Y-14535526D01*
X9130429Y-14535526D02*
X9149477Y-14545050D01*
X9149477Y-14545050D02*
X9159001Y-14564098D01*
X9159001Y-14564098D02*
X9159001Y-14668860D01*
X9159001Y-14564098D02*
X9168525Y-14545050D01*
X9168525Y-14545050D02*
X9187572Y-14535526D01*
X9187572Y-14535526D02*
X9216144Y-14535526D01*
X9216144Y-14535526D02*
X9235191Y-14545050D01*
X9235191Y-14545050D02*
X9244715Y-14564098D01*
X9244715Y-14564098D02*
X9244715Y-14668860D01*
X9635191Y-14459336D02*
X9463763Y-14716479D01*
X9892334Y-14468860D02*
X9911382Y-14468860D01*
X9911382Y-14468860D02*
X9930429Y-14478384D01*
X9930429Y-14478384D02*
X9939953Y-14487907D01*
X9939953Y-14487907D02*
X9949477Y-14506955D01*
X9949477Y-14506955D02*
X9959001Y-14545050D01*
X9959001Y-14545050D02*
X9959001Y-14592669D01*
X9959001Y-14592669D02*
X9949477Y-14630764D01*
X9949477Y-14630764D02*
X9939953Y-14649812D01*
X9939953Y-14649812D02*
X9930429Y-14659336D01*
X9930429Y-14659336D02*
X9911382Y-14668860D01*
X9911382Y-14668860D02*
X9892334Y-14668860D01*
X9892334Y-14668860D02*
X9873287Y-14659336D01*
X9873287Y-14659336D02*
X9863763Y-14649812D01*
X9863763Y-14649812D02*
X9854239Y-14630764D01*
X9854239Y-14630764D02*
X9844715Y-14592669D01*
X9844715Y-14592669D02*
X9844715Y-14545050D01*
X9844715Y-14545050D02*
X9854239Y-14506955D01*
X9854239Y-14506955D02*
X9863763Y-14487907D01*
X9863763Y-14487907D02*
X9873287Y-14478384D01*
X9873287Y-14478384D02*
X9892334Y-14468860D01*
X10044715Y-14649812D02*
X10054239Y-14659336D01*
X10054239Y-14659336D02*
X10044715Y-14668860D01*
X10044715Y-14668860D02*
X10035191Y-14659336D01*
X10035191Y-14659336D02*
X10044715Y-14649812D01*
X10044715Y-14649812D02*
X10044715Y-14668860D01*
X10178048Y-14468860D02*
X10197096Y-14468860D01*
X10197096Y-14468860D02*
X10216144Y-14478384D01*
X10216144Y-14478384D02*
X10225668Y-14487907D01*
X10225668Y-14487907D02*
X10235191Y-14506955D01*
X10235191Y-14506955D02*
X10244715Y-14545050D01*
X10244715Y-14545050D02*
X10244715Y-14592669D01*
X10244715Y-14592669D02*
X10235191Y-14630764D01*
X10235191Y-14630764D02*
X10225668Y-14649812D01*
X10225668Y-14649812D02*
X10216144Y-14659336D01*
X10216144Y-14659336D02*
X10197096Y-14668860D01*
X10197096Y-14668860D02*
X10178048Y-14668860D01*
X10178048Y-14668860D02*
X10159001Y-14659336D01*
X10159001Y-14659336D02*
X10149477Y-14649812D01*
X10149477Y-14649812D02*
X10139953Y-14630764D01*
X10139953Y-14630764D02*
X10130429Y-14592669D01*
X10130429Y-14592669D02*
X10130429Y-14545050D01*
X10130429Y-14545050D02*
X10139953Y-14506955D01*
X10139953Y-14506955D02*
X10149477Y-14487907D01*
X10149477Y-14487907D02*
X10159001Y-14478384D01*
X10159001Y-14478384D02*
X10178048Y-14468860D01*
X10311382Y-14468860D02*
X10435191Y-14468860D01*
X10435191Y-14468860D02*
X10368525Y-14545050D01*
X10368525Y-14545050D02*
X10397096Y-14545050D01*
X10397096Y-14545050D02*
X10416144Y-14554574D01*
X10416144Y-14554574D02*
X10425668Y-14564098D01*
X10425668Y-14564098D02*
X10435191Y-14583145D01*
X10435191Y-14583145D02*
X10435191Y-14630764D01*
X10435191Y-14630764D02*
X10425668Y-14649812D01*
X10425668Y-14649812D02*
X10416144Y-14659336D01*
X10416144Y-14659336D02*
X10397096Y-14668860D01*
X10397096Y-14668860D02*
X10339953Y-14668860D01*
X10339953Y-14668860D02*
X10320906Y-14659336D01*
X10320906Y-14659336D02*
X10311382Y-14649812D01*
X10530429Y-14668860D02*
X10568525Y-14668860D01*
X10568525Y-14668860D02*
X10587572Y-14659336D01*
X10587572Y-14659336D02*
X10597096Y-14649812D01*
X10597096Y-14649812D02*
X10616144Y-14621241D01*
X10616144Y-14621241D02*
X10625668Y-14583145D01*
X10625668Y-14583145D02*
X10625668Y-14506955D01*
X10625668Y-14506955D02*
X10616144Y-14487907D01*
X10616144Y-14487907D02*
X10606620Y-14478384D01*
X10606620Y-14478384D02*
X10587572Y-14468860D01*
X10587572Y-14468860D02*
X10549477Y-14468860D01*
X10549477Y-14468860D02*
X10530429Y-14478384D01*
X10530429Y-14478384D02*
X10520906Y-14487907D01*
X10520906Y-14487907D02*
X10511382Y-14506955D01*
X10511382Y-14506955D02*
X10511382Y-14554574D01*
X10511382Y-14554574D02*
X10520906Y-14573622D01*
X10520906Y-14573622D02*
X10530429Y-14583145D01*
X10530429Y-14583145D02*
X10549477Y-14592669D01*
X10549477Y-14592669D02*
X10587572Y-14592669D01*
X10587572Y-14592669D02*
X10606620Y-14583145D01*
X10606620Y-14583145D02*
X10616144Y-14573622D01*
X10616144Y-14573622D02*
X10625668Y-14554574D01*
X10749477Y-14468860D02*
X10768525Y-14468860D01*
X10768525Y-14468860D02*
X10787572Y-14478384D01*
X10787572Y-14478384D02*
X10797096Y-14487907D01*
X10797096Y-14487907D02*
X10806620Y-14506955D01*
X10806620Y-14506955D02*
X10816144Y-14545050D01*
X10816144Y-14545050D02*
X10816144Y-14592669D01*
X10816144Y-14592669D02*
X10806620Y-14630764D01*
X10806620Y-14630764D02*
X10797096Y-14649812D01*
X10797096Y-14649812D02*
X10787572Y-14659336D01*
X10787572Y-14659336D02*
X10768525Y-14668860D01*
X10768525Y-14668860D02*
X10749477Y-14668860D01*
X10749477Y-14668860D02*
X10730429Y-14659336D01*
X10730429Y-14659336D02*
X10720906Y-14649812D01*
X10720906Y-14649812D02*
X10711382Y-14630764D01*
X10711382Y-14630764D02*
X10701858Y-14592669D01*
X10701858Y-14592669D02*
X10701858Y-14545050D01*
X10701858Y-14545050D02*
X10711382Y-14506955D01*
X10711382Y-14506955D02*
X10720906Y-14487907D01*
X10720906Y-14487907D02*
X10730429Y-14478384D01*
X10730429Y-14478384D02*
X10749477Y-14468860D01*
X10892334Y-14468860D02*
X10892334Y-14506955D01*
X10968525Y-14468860D02*
X10968525Y-14506955D01*
X11263763Y-14745050D02*
X11254239Y-14735526D01*
X11254239Y-14735526D02*
X11235191Y-14706955D01*
X11235191Y-14706955D02*
X11225668Y-14687907D01*
X11225668Y-14687907D02*
X11216144Y-14659336D01*
X11216144Y-14659336D02*
X11206620Y-14611717D01*
X11206620Y-14611717D02*
X11206620Y-14573622D01*
X11206620Y-14573622D02*
X11216144Y-14526003D01*
X11216144Y-14526003D02*
X11225668Y-14497431D01*
X11225668Y-14497431D02*
X11235191Y-14478384D01*
X11235191Y-14478384D02*
X11254239Y-14449812D01*
X11254239Y-14449812D02*
X11263763Y-14440288D01*
X11320906Y-14468860D02*
X11444715Y-14468860D01*
X11444715Y-14468860D02*
X11378048Y-14545050D01*
X11378048Y-14545050D02*
X11406620Y-14545050D01*
X11406620Y-14545050D02*
X11425668Y-14554574D01*
X11425668Y-14554574D02*
X11435191Y-14564098D01*
X11435191Y-14564098D02*
X11444715Y-14583145D01*
X11444715Y-14583145D02*
X11444715Y-14630764D01*
X11444715Y-14630764D02*
X11435191Y-14649812D01*
X11435191Y-14649812D02*
X11425668Y-14659336D01*
X11425668Y-14659336D02*
X11406620Y-14668860D01*
X11406620Y-14668860D02*
X11349477Y-14668860D01*
X11349477Y-14668860D02*
X11330429Y-14659336D01*
X11330429Y-14659336D02*
X11320906Y-14649812D01*
X11616144Y-14468860D02*
X11578048Y-14468860D01*
X11578048Y-14468860D02*
X11559001Y-14478384D01*
X11559001Y-14478384D02*
X11549477Y-14487907D01*
X11549477Y-14487907D02*
X11530429Y-14516479D01*
X11530429Y-14516479D02*
X11520906Y-14554574D01*
X11520906Y-14554574D02*
X11520906Y-14630764D01*
X11520906Y-14630764D02*
X11530429Y-14649812D01*
X11530429Y-14649812D02*
X11539953Y-14659336D01*
X11539953Y-14659336D02*
X11559001Y-14668860D01*
X11559001Y-14668860D02*
X11597096Y-14668860D01*
X11597096Y-14668860D02*
X11616144Y-14659336D01*
X11616144Y-14659336D02*
X11625668Y-14649812D01*
X11625668Y-14649812D02*
X11635191Y-14630764D01*
X11635191Y-14630764D02*
X11635191Y-14583145D01*
X11635191Y-14583145D02*
X11625668Y-14564098D01*
X11625668Y-14564098D02*
X11616144Y-14554574D01*
X11616144Y-14554574D02*
X11597096Y-14545050D01*
X11597096Y-14545050D02*
X11559001Y-14545050D01*
X11559001Y-14545050D02*
X11539953Y-14554574D01*
X11539953Y-14554574D02*
X11530429Y-14564098D01*
X11530429Y-14564098D02*
X11520906Y-14583145D01*
X11873287Y-14668860D02*
X11873287Y-14468860D01*
X11959001Y-14668860D02*
X11959001Y-14564098D01*
X11959001Y-14564098D02*
X11949477Y-14545050D01*
X11949477Y-14545050D02*
X11930430Y-14535526D01*
X11930430Y-14535526D02*
X11901858Y-14535526D01*
X11901858Y-14535526D02*
X11882810Y-14545050D01*
X11882810Y-14545050D02*
X11873287Y-14554574D01*
X12082810Y-14668860D02*
X12063763Y-14659336D01*
X12063763Y-14659336D02*
X12054239Y-14649812D01*
X12054239Y-14649812D02*
X12044715Y-14630764D01*
X12044715Y-14630764D02*
X12044715Y-14573622D01*
X12044715Y-14573622D02*
X12054239Y-14554574D01*
X12054239Y-14554574D02*
X12063763Y-14545050D01*
X12063763Y-14545050D02*
X12082810Y-14535526D01*
X12082810Y-14535526D02*
X12111382Y-14535526D01*
X12111382Y-14535526D02*
X12130430Y-14545050D01*
X12130430Y-14545050D02*
X12139953Y-14554574D01*
X12139953Y-14554574D02*
X12149477Y-14573622D01*
X12149477Y-14573622D02*
X12149477Y-14630764D01*
X12149477Y-14630764D02*
X12139953Y-14649812D01*
X12139953Y-14649812D02*
X12130430Y-14659336D01*
X12130430Y-14659336D02*
X12111382Y-14668860D01*
X12111382Y-14668860D02*
X12082810Y-14668860D01*
X12263763Y-14668860D02*
X12244715Y-14659336D01*
X12244715Y-14659336D02*
X12235191Y-14640288D01*
X12235191Y-14640288D02*
X12235191Y-14468860D01*
X12416144Y-14659336D02*
X12397096Y-14668860D01*
X12397096Y-14668860D02*
X12359001Y-14668860D01*
X12359001Y-14668860D02*
X12339953Y-14659336D01*
X12339953Y-14659336D02*
X12330430Y-14640288D01*
X12330430Y-14640288D02*
X12330430Y-14564098D01*
X12330430Y-14564098D02*
X12339953Y-14545050D01*
X12339953Y-14545050D02*
X12359001Y-14535526D01*
X12359001Y-14535526D02*
X12397096Y-14535526D01*
X12397096Y-14535526D02*
X12416144Y-14545050D01*
X12416144Y-14545050D02*
X12425668Y-14564098D01*
X12425668Y-14564098D02*
X12425668Y-14583145D01*
X12425668Y-14583145D02*
X12330430Y-14602193D01*
X12501858Y-14659336D02*
X12520906Y-14668860D01*
X12520906Y-14668860D02*
X12559001Y-14668860D01*
X12559001Y-14668860D02*
X12578049Y-14659336D01*
X12578049Y-14659336D02*
X12587572Y-14640288D01*
X12587572Y-14640288D02*
X12587572Y-14630764D01*
X12587572Y-14630764D02*
X12578049Y-14611717D01*
X12578049Y-14611717D02*
X12559001Y-14602193D01*
X12559001Y-14602193D02*
X12530430Y-14602193D01*
X12530430Y-14602193D02*
X12511382Y-14592669D01*
X12511382Y-14592669D02*
X12501858Y-14573622D01*
X12501858Y-14573622D02*
X12501858Y-14564098D01*
X12501858Y-14564098D02*
X12511382Y-14545050D01*
X12511382Y-14545050D02*
X12530430Y-14535526D01*
X12530430Y-14535526D02*
X12559001Y-14535526D01*
X12559001Y-14535526D02*
X12578049Y-14545050D01*
X12654239Y-14745050D02*
X12663763Y-14735526D01*
X12663763Y-14735526D02*
X12682811Y-14706955D01*
X12682811Y-14706955D02*
X12692334Y-14687907D01*
X12692334Y-14687907D02*
X12701858Y-14659336D01*
X12701858Y-14659336D02*
X12711382Y-14611717D01*
X12711382Y-14611717D02*
X12711382Y-14573622D01*
X12711382Y-14573622D02*
X12701858Y-14526003D01*
X12701858Y-14526003D02*
X12692334Y-14497431D01*
X12692334Y-14497431D02*
X12682811Y-14478384D01*
X12682811Y-14478384D02*
X12663763Y-14449812D01*
X12663763Y-14449812D02*
X12654239Y-14440288D01*
X13016144Y-14745050D02*
X13006620Y-14735526D01*
X13006620Y-14735526D02*
X12987572Y-14706955D01*
X12987572Y-14706955D02*
X12978049Y-14687907D01*
X12978049Y-14687907D02*
X12968525Y-14659336D01*
X12968525Y-14659336D02*
X12959001Y-14611717D01*
X12959001Y-14611717D02*
X12959001Y-14573622D01*
X12959001Y-14573622D02*
X12968525Y-14526003D01*
X12968525Y-14526003D02*
X12978049Y-14497431D01*
X12978049Y-14497431D02*
X12987572Y-14478384D01*
X12987572Y-14478384D02*
X13006620Y-14449812D01*
X13006620Y-14449812D02*
X13016144Y-14440288D01*
X13092334Y-14535526D02*
X13092334Y-14668860D01*
X13092334Y-14554574D02*
X13101858Y-14545050D01*
X13101858Y-14545050D02*
X13120906Y-14535526D01*
X13120906Y-14535526D02*
X13149477Y-14535526D01*
X13149477Y-14535526D02*
X13168525Y-14545050D01*
X13168525Y-14545050D02*
X13178049Y-14564098D01*
X13178049Y-14564098D02*
X13178049Y-14668860D01*
X13301858Y-14668860D02*
X13282811Y-14659336D01*
X13282811Y-14659336D02*
X13273287Y-14649812D01*
X13273287Y-14649812D02*
X13263763Y-14630764D01*
X13263763Y-14630764D02*
X13263763Y-14573622D01*
X13263763Y-14573622D02*
X13273287Y-14554574D01*
X13273287Y-14554574D02*
X13282811Y-14545050D01*
X13282811Y-14545050D02*
X13301858Y-14535526D01*
X13301858Y-14535526D02*
X13330430Y-14535526D01*
X13330430Y-14535526D02*
X13349477Y-14545050D01*
X13349477Y-14545050D02*
X13359001Y-14554574D01*
X13359001Y-14554574D02*
X13368525Y-14573622D01*
X13368525Y-14573622D02*
X13368525Y-14630764D01*
X13368525Y-14630764D02*
X13359001Y-14649812D01*
X13359001Y-14649812D02*
X13349477Y-14659336D01*
X13349477Y-14659336D02*
X13330430Y-14668860D01*
X13330430Y-14668860D02*
X13301858Y-14668860D01*
X13425668Y-14535526D02*
X13501858Y-14535526D01*
X13454239Y-14468860D02*
X13454239Y-14640288D01*
X13454239Y-14640288D02*
X13463763Y-14659336D01*
X13463763Y-14659336D02*
X13482811Y-14668860D01*
X13482811Y-14668860D02*
X13501858Y-14668860D01*
X13720906Y-14535526D02*
X13720906Y-14735526D01*
X13720906Y-14545050D02*
X13739953Y-14535526D01*
X13739953Y-14535526D02*
X13778049Y-14535526D01*
X13778049Y-14535526D02*
X13797096Y-14545050D01*
X13797096Y-14545050D02*
X13806620Y-14554574D01*
X13806620Y-14554574D02*
X13816144Y-14573622D01*
X13816144Y-14573622D02*
X13816144Y-14630764D01*
X13816144Y-14630764D02*
X13806620Y-14649812D01*
X13806620Y-14649812D02*
X13797096Y-14659336D01*
X13797096Y-14659336D02*
X13778049Y-14668860D01*
X13778049Y-14668860D02*
X13739953Y-14668860D01*
X13739953Y-14668860D02*
X13720906Y-14659336D01*
X13930430Y-14668860D02*
X13911382Y-14659336D01*
X13911382Y-14659336D02*
X13901858Y-14640288D01*
X13901858Y-14640288D02*
X13901858Y-14468860D01*
X14092334Y-14668860D02*
X14092334Y-14564098D01*
X14092334Y-14564098D02*
X14082811Y-14545050D01*
X14082811Y-14545050D02*
X14063763Y-14535526D01*
X14063763Y-14535526D02*
X14025668Y-14535526D01*
X14025668Y-14535526D02*
X14006620Y-14545050D01*
X14092334Y-14659336D02*
X14073287Y-14668860D01*
X14073287Y-14668860D02*
X14025668Y-14668860D01*
X14025668Y-14668860D02*
X14006620Y-14659336D01*
X14006620Y-14659336D02*
X13997096Y-14640288D01*
X13997096Y-14640288D02*
X13997096Y-14621241D01*
X13997096Y-14621241D02*
X14006620Y-14602193D01*
X14006620Y-14602193D02*
X14025668Y-14592669D01*
X14025668Y-14592669D02*
X14073287Y-14592669D01*
X14073287Y-14592669D02*
X14092334Y-14583145D01*
X14159001Y-14535526D02*
X14235192Y-14535526D01*
X14187573Y-14468860D02*
X14187573Y-14640288D01*
X14187573Y-14640288D02*
X14197096Y-14659336D01*
X14197096Y-14659336D02*
X14216144Y-14668860D01*
X14216144Y-14668860D02*
X14235192Y-14668860D01*
X14378049Y-14659336D02*
X14359001Y-14668860D01*
X14359001Y-14668860D02*
X14320906Y-14668860D01*
X14320906Y-14668860D02*
X14301858Y-14659336D01*
X14301858Y-14659336D02*
X14292334Y-14640288D01*
X14292334Y-14640288D02*
X14292334Y-14564098D01*
X14292334Y-14564098D02*
X14301858Y-14545050D01*
X14301858Y-14545050D02*
X14320906Y-14535526D01*
X14320906Y-14535526D02*
X14359001Y-14535526D01*
X14359001Y-14535526D02*
X14378049Y-14545050D01*
X14378049Y-14545050D02*
X14387573Y-14564098D01*
X14387573Y-14564098D02*
X14387573Y-14583145D01*
X14387573Y-14583145D02*
X14292334Y-14602193D01*
X14559001Y-14668860D02*
X14559001Y-14468860D01*
X14559001Y-14659336D02*
X14539954Y-14668860D01*
X14539954Y-14668860D02*
X14501858Y-14668860D01*
X14501858Y-14668860D02*
X14482811Y-14659336D01*
X14482811Y-14659336D02*
X14473287Y-14649812D01*
X14473287Y-14649812D02*
X14463763Y-14630764D01*
X14463763Y-14630764D02*
X14463763Y-14573622D01*
X14463763Y-14573622D02*
X14473287Y-14554574D01*
X14473287Y-14554574D02*
X14482811Y-14545050D01*
X14482811Y-14545050D02*
X14501858Y-14535526D01*
X14501858Y-14535526D02*
X14539954Y-14535526D01*
X14539954Y-14535526D02*
X14559001Y-14545050D01*
X14635192Y-14745050D02*
X14644715Y-14735526D01*
X14644715Y-14735526D02*
X14663763Y-14706955D01*
X14663763Y-14706955D02*
X14673287Y-14687907D01*
X14673287Y-14687907D02*
X14682811Y-14659336D01*
X14682811Y-14659336D02*
X14692334Y-14611717D01*
X14692334Y-14611717D02*
X14692334Y-14573622D01*
X14692334Y-14573622D02*
X14682811Y-14526003D01*
X14682811Y-14526003D02*
X14673287Y-14497431D01*
X14673287Y-14497431D02*
X14663763Y-14478384D01*
X14663763Y-14478384D02*
X14644715Y-14449812D01*
X14644715Y-14449812D02*
X14635192Y-14440288D01*
D13*
X7663778Y-14901544D02*
X7663778Y-14781208D01*
X7543442Y-14781208D01*
X7543442Y-14901544D01*
X7663778Y-14901544D01*
D11*
X8054239Y-14932860D02*
X7939953Y-14932860D01*
X7997096Y-14932860D02*
X7997096Y-14732860D01*
X7997096Y-14732860D02*
X7978048Y-14761431D01*
X7978048Y-14761431D02*
X7959001Y-14780479D01*
X7959001Y-14780479D02*
X7939953Y-14790003D01*
X8139953Y-14913812D02*
X8149477Y-14923336D01*
X8149477Y-14923336D02*
X8139953Y-14932860D01*
X8139953Y-14932860D02*
X8130429Y-14923336D01*
X8130429Y-14923336D02*
X8139953Y-14913812D01*
X8139953Y-14913812D02*
X8139953Y-14932860D01*
X8216143Y-14732860D02*
X8349477Y-14732860D01*
X8349477Y-14732860D02*
X8263762Y-14932860D01*
X8463763Y-14732860D02*
X8482810Y-14732860D01*
X8482810Y-14732860D02*
X8501858Y-14742384D01*
X8501858Y-14742384D02*
X8511382Y-14751907D01*
X8511382Y-14751907D02*
X8520905Y-14770955D01*
X8520905Y-14770955D02*
X8530429Y-14809050D01*
X8530429Y-14809050D02*
X8530429Y-14856669D01*
X8530429Y-14856669D02*
X8520905Y-14894764D01*
X8520905Y-14894764D02*
X8511382Y-14913812D01*
X8511382Y-14913812D02*
X8501858Y-14923336D01*
X8501858Y-14923336D02*
X8482810Y-14932860D01*
X8482810Y-14932860D02*
X8463763Y-14932860D01*
X8463763Y-14932860D02*
X8444715Y-14923336D01*
X8444715Y-14923336D02*
X8435191Y-14913812D01*
X8435191Y-14913812D02*
X8425667Y-14894764D01*
X8425667Y-14894764D02*
X8416144Y-14856669D01*
X8416144Y-14856669D02*
X8416144Y-14809050D01*
X8416144Y-14809050D02*
X8425667Y-14770955D01*
X8425667Y-14770955D02*
X8435191Y-14751907D01*
X8435191Y-14751907D02*
X8444715Y-14742384D01*
X8444715Y-14742384D02*
X8463763Y-14732860D01*
X8606620Y-14751907D02*
X8616144Y-14742384D01*
X8616144Y-14742384D02*
X8635191Y-14732860D01*
X8635191Y-14732860D02*
X8682810Y-14732860D01*
X8682810Y-14732860D02*
X8701858Y-14742384D01*
X8701858Y-14742384D02*
X8711382Y-14751907D01*
X8711382Y-14751907D02*
X8720905Y-14770955D01*
X8720905Y-14770955D02*
X8720905Y-14790003D01*
X8720905Y-14790003D02*
X8711382Y-14818574D01*
X8711382Y-14818574D02*
X8597096Y-14932860D01*
X8597096Y-14932860D02*
X8720905Y-14932860D01*
X8806620Y-14932860D02*
X8806620Y-14799526D01*
X8806620Y-14818574D02*
X8816144Y-14809050D01*
X8816144Y-14809050D02*
X8835191Y-14799526D01*
X8835191Y-14799526D02*
X8863763Y-14799526D01*
X8863763Y-14799526D02*
X8882810Y-14809050D01*
X8882810Y-14809050D02*
X8892334Y-14828098D01*
X8892334Y-14828098D02*
X8892334Y-14932860D01*
X8892334Y-14828098D02*
X8901858Y-14809050D01*
X8901858Y-14809050D02*
X8920905Y-14799526D01*
X8920905Y-14799526D02*
X8949477Y-14799526D01*
X8949477Y-14799526D02*
X8968525Y-14809050D01*
X8968525Y-14809050D02*
X8978048Y-14828098D01*
X8978048Y-14828098D02*
X8978048Y-14932860D01*
X9073286Y-14932860D02*
X9073286Y-14799526D01*
X9073286Y-14818574D02*
X9082810Y-14809050D01*
X9082810Y-14809050D02*
X9101858Y-14799526D01*
X9101858Y-14799526D02*
X9130429Y-14799526D01*
X9130429Y-14799526D02*
X9149477Y-14809050D01*
X9149477Y-14809050D02*
X9159001Y-14828098D01*
X9159001Y-14828098D02*
X9159001Y-14932860D01*
X9159001Y-14828098D02*
X9168525Y-14809050D01*
X9168525Y-14809050D02*
X9187572Y-14799526D01*
X9187572Y-14799526D02*
X9216144Y-14799526D01*
X9216144Y-14799526D02*
X9235191Y-14809050D01*
X9235191Y-14809050D02*
X9244715Y-14828098D01*
X9244715Y-14828098D02*
X9244715Y-14932860D01*
X9635191Y-14723336D02*
X9463763Y-14980479D01*
X9892334Y-14732860D02*
X9911382Y-14732860D01*
X9911382Y-14732860D02*
X9930429Y-14742384D01*
X9930429Y-14742384D02*
X9939953Y-14751907D01*
X9939953Y-14751907D02*
X9949477Y-14770955D01*
X9949477Y-14770955D02*
X9959001Y-14809050D01*
X9959001Y-14809050D02*
X9959001Y-14856669D01*
X9959001Y-14856669D02*
X9949477Y-14894764D01*
X9949477Y-14894764D02*
X9939953Y-14913812D01*
X9939953Y-14913812D02*
X9930429Y-14923336D01*
X9930429Y-14923336D02*
X9911382Y-14932860D01*
X9911382Y-14932860D02*
X9892334Y-14932860D01*
X9892334Y-14932860D02*
X9873287Y-14923336D01*
X9873287Y-14923336D02*
X9863763Y-14913812D01*
X9863763Y-14913812D02*
X9854239Y-14894764D01*
X9854239Y-14894764D02*
X9844715Y-14856669D01*
X9844715Y-14856669D02*
X9844715Y-14809050D01*
X9844715Y-14809050D02*
X9854239Y-14770955D01*
X9854239Y-14770955D02*
X9863763Y-14751907D01*
X9863763Y-14751907D02*
X9873287Y-14742384D01*
X9873287Y-14742384D02*
X9892334Y-14732860D01*
X10044715Y-14913812D02*
X10054239Y-14923336D01*
X10054239Y-14923336D02*
X10044715Y-14932860D01*
X10044715Y-14932860D02*
X10035191Y-14923336D01*
X10035191Y-14923336D02*
X10044715Y-14913812D01*
X10044715Y-14913812D02*
X10044715Y-14932860D01*
X10178048Y-14732860D02*
X10197096Y-14732860D01*
X10197096Y-14732860D02*
X10216144Y-14742384D01*
X10216144Y-14742384D02*
X10225668Y-14751907D01*
X10225668Y-14751907D02*
X10235191Y-14770955D01*
X10235191Y-14770955D02*
X10244715Y-14809050D01*
X10244715Y-14809050D02*
X10244715Y-14856669D01*
X10244715Y-14856669D02*
X10235191Y-14894764D01*
X10235191Y-14894764D02*
X10225668Y-14913812D01*
X10225668Y-14913812D02*
X10216144Y-14923336D01*
X10216144Y-14923336D02*
X10197096Y-14932860D01*
X10197096Y-14932860D02*
X10178048Y-14932860D01*
X10178048Y-14932860D02*
X10159001Y-14923336D01*
X10159001Y-14923336D02*
X10149477Y-14913812D01*
X10149477Y-14913812D02*
X10139953Y-14894764D01*
X10139953Y-14894764D02*
X10130429Y-14856669D01*
X10130429Y-14856669D02*
X10130429Y-14809050D01*
X10130429Y-14809050D02*
X10139953Y-14770955D01*
X10139953Y-14770955D02*
X10149477Y-14751907D01*
X10149477Y-14751907D02*
X10159001Y-14742384D01*
X10159001Y-14742384D02*
X10178048Y-14732860D01*
X10416144Y-14732860D02*
X10378048Y-14732860D01*
X10378048Y-14732860D02*
X10359001Y-14742384D01*
X10359001Y-14742384D02*
X10349477Y-14751907D01*
X10349477Y-14751907D02*
X10330429Y-14780479D01*
X10330429Y-14780479D02*
X10320906Y-14818574D01*
X10320906Y-14818574D02*
X10320906Y-14894764D01*
X10320906Y-14894764D02*
X10330429Y-14913812D01*
X10330429Y-14913812D02*
X10339953Y-14923336D01*
X10339953Y-14923336D02*
X10359001Y-14932860D01*
X10359001Y-14932860D02*
X10397096Y-14932860D01*
X10397096Y-14932860D02*
X10416144Y-14923336D01*
X10416144Y-14923336D02*
X10425668Y-14913812D01*
X10425668Y-14913812D02*
X10435191Y-14894764D01*
X10435191Y-14894764D02*
X10435191Y-14847145D01*
X10435191Y-14847145D02*
X10425668Y-14828098D01*
X10425668Y-14828098D02*
X10416144Y-14818574D01*
X10416144Y-14818574D02*
X10397096Y-14809050D01*
X10397096Y-14809050D02*
X10359001Y-14809050D01*
X10359001Y-14809050D02*
X10339953Y-14818574D01*
X10339953Y-14818574D02*
X10330429Y-14828098D01*
X10330429Y-14828098D02*
X10320906Y-14847145D01*
X10501858Y-14732860D02*
X10635191Y-14732860D01*
X10635191Y-14732860D02*
X10549477Y-14932860D01*
X10749477Y-14732860D02*
X10768525Y-14732860D01*
X10768525Y-14732860D02*
X10787572Y-14742384D01*
X10787572Y-14742384D02*
X10797096Y-14751907D01*
X10797096Y-14751907D02*
X10806620Y-14770955D01*
X10806620Y-14770955D02*
X10816144Y-14809050D01*
X10816144Y-14809050D02*
X10816144Y-14856669D01*
X10816144Y-14856669D02*
X10806620Y-14894764D01*
X10806620Y-14894764D02*
X10797096Y-14913812D01*
X10797096Y-14913812D02*
X10787572Y-14923336D01*
X10787572Y-14923336D02*
X10768525Y-14932860D01*
X10768525Y-14932860D02*
X10749477Y-14932860D01*
X10749477Y-14932860D02*
X10730429Y-14923336D01*
X10730429Y-14923336D02*
X10720906Y-14913812D01*
X10720906Y-14913812D02*
X10711382Y-14894764D01*
X10711382Y-14894764D02*
X10701858Y-14856669D01*
X10701858Y-14856669D02*
X10701858Y-14809050D01*
X10701858Y-14809050D02*
X10711382Y-14770955D01*
X10711382Y-14770955D02*
X10720906Y-14751907D01*
X10720906Y-14751907D02*
X10730429Y-14742384D01*
X10730429Y-14742384D02*
X10749477Y-14732860D01*
X10892334Y-14732860D02*
X10892334Y-14770955D01*
X10968525Y-14732860D02*
X10968525Y-14770955D01*
X11263763Y-15009050D02*
X11254239Y-14999526D01*
X11254239Y-14999526D02*
X11235191Y-14970955D01*
X11235191Y-14970955D02*
X11225668Y-14951907D01*
X11225668Y-14951907D02*
X11216144Y-14923336D01*
X11216144Y-14923336D02*
X11206620Y-14875717D01*
X11206620Y-14875717D02*
X11206620Y-14837622D01*
X11206620Y-14837622D02*
X11216144Y-14790003D01*
X11216144Y-14790003D02*
X11225668Y-14761431D01*
X11225668Y-14761431D02*
X11235191Y-14742384D01*
X11235191Y-14742384D02*
X11254239Y-14713812D01*
X11254239Y-14713812D02*
X11263763Y-14704288D01*
X11320906Y-14732860D02*
X11444715Y-14732860D01*
X11444715Y-14732860D02*
X11378048Y-14809050D01*
X11378048Y-14809050D02*
X11406620Y-14809050D01*
X11406620Y-14809050D02*
X11425668Y-14818574D01*
X11425668Y-14818574D02*
X11435191Y-14828098D01*
X11435191Y-14828098D02*
X11444715Y-14847145D01*
X11444715Y-14847145D02*
X11444715Y-14894764D01*
X11444715Y-14894764D02*
X11435191Y-14913812D01*
X11435191Y-14913812D02*
X11425668Y-14923336D01*
X11425668Y-14923336D02*
X11406620Y-14932860D01*
X11406620Y-14932860D02*
X11349477Y-14932860D01*
X11349477Y-14932860D02*
X11330429Y-14923336D01*
X11330429Y-14923336D02*
X11320906Y-14913812D01*
X11616144Y-14732860D02*
X11578048Y-14732860D01*
X11578048Y-14732860D02*
X11559001Y-14742384D01*
X11559001Y-14742384D02*
X11549477Y-14751907D01*
X11549477Y-14751907D02*
X11530429Y-14780479D01*
X11530429Y-14780479D02*
X11520906Y-14818574D01*
X11520906Y-14818574D02*
X11520906Y-14894764D01*
X11520906Y-14894764D02*
X11530429Y-14913812D01*
X11530429Y-14913812D02*
X11539953Y-14923336D01*
X11539953Y-14923336D02*
X11559001Y-14932860D01*
X11559001Y-14932860D02*
X11597096Y-14932860D01*
X11597096Y-14932860D02*
X11616144Y-14923336D01*
X11616144Y-14923336D02*
X11625668Y-14913812D01*
X11625668Y-14913812D02*
X11635191Y-14894764D01*
X11635191Y-14894764D02*
X11635191Y-14847145D01*
X11635191Y-14847145D02*
X11625668Y-14828098D01*
X11625668Y-14828098D02*
X11616144Y-14818574D01*
X11616144Y-14818574D02*
X11597096Y-14809050D01*
X11597096Y-14809050D02*
X11559001Y-14809050D01*
X11559001Y-14809050D02*
X11539953Y-14818574D01*
X11539953Y-14818574D02*
X11530429Y-14828098D01*
X11530429Y-14828098D02*
X11520906Y-14847145D01*
X11873287Y-14932860D02*
X11873287Y-14732860D01*
X11959001Y-14932860D02*
X11959001Y-14828098D01*
X11959001Y-14828098D02*
X11949477Y-14809050D01*
X11949477Y-14809050D02*
X11930430Y-14799526D01*
X11930430Y-14799526D02*
X11901858Y-14799526D01*
X11901858Y-14799526D02*
X11882810Y-14809050D01*
X11882810Y-14809050D02*
X11873287Y-14818574D01*
X12082810Y-14932860D02*
X12063763Y-14923336D01*
X12063763Y-14923336D02*
X12054239Y-14913812D01*
X12054239Y-14913812D02*
X12044715Y-14894764D01*
X12044715Y-14894764D02*
X12044715Y-14837622D01*
X12044715Y-14837622D02*
X12054239Y-14818574D01*
X12054239Y-14818574D02*
X12063763Y-14809050D01*
X12063763Y-14809050D02*
X12082810Y-14799526D01*
X12082810Y-14799526D02*
X12111382Y-14799526D01*
X12111382Y-14799526D02*
X12130430Y-14809050D01*
X12130430Y-14809050D02*
X12139953Y-14818574D01*
X12139953Y-14818574D02*
X12149477Y-14837622D01*
X12149477Y-14837622D02*
X12149477Y-14894764D01*
X12149477Y-14894764D02*
X12139953Y-14913812D01*
X12139953Y-14913812D02*
X12130430Y-14923336D01*
X12130430Y-14923336D02*
X12111382Y-14932860D01*
X12111382Y-14932860D02*
X12082810Y-14932860D01*
X12263763Y-14932860D02*
X12244715Y-14923336D01*
X12244715Y-14923336D02*
X12235191Y-14904288D01*
X12235191Y-14904288D02*
X12235191Y-14732860D01*
X12416144Y-14923336D02*
X12397096Y-14932860D01*
X12397096Y-14932860D02*
X12359001Y-14932860D01*
X12359001Y-14932860D02*
X12339953Y-14923336D01*
X12339953Y-14923336D02*
X12330430Y-14904288D01*
X12330430Y-14904288D02*
X12330430Y-14828098D01*
X12330430Y-14828098D02*
X12339953Y-14809050D01*
X12339953Y-14809050D02*
X12359001Y-14799526D01*
X12359001Y-14799526D02*
X12397096Y-14799526D01*
X12397096Y-14799526D02*
X12416144Y-14809050D01*
X12416144Y-14809050D02*
X12425668Y-14828098D01*
X12425668Y-14828098D02*
X12425668Y-14847145D01*
X12425668Y-14847145D02*
X12330430Y-14866193D01*
X12501858Y-14923336D02*
X12520906Y-14932860D01*
X12520906Y-14932860D02*
X12559001Y-14932860D01*
X12559001Y-14932860D02*
X12578049Y-14923336D01*
X12578049Y-14923336D02*
X12587572Y-14904288D01*
X12587572Y-14904288D02*
X12587572Y-14894764D01*
X12587572Y-14894764D02*
X12578049Y-14875717D01*
X12578049Y-14875717D02*
X12559001Y-14866193D01*
X12559001Y-14866193D02*
X12530430Y-14866193D01*
X12530430Y-14866193D02*
X12511382Y-14856669D01*
X12511382Y-14856669D02*
X12501858Y-14837622D01*
X12501858Y-14837622D02*
X12501858Y-14828098D01*
X12501858Y-14828098D02*
X12511382Y-14809050D01*
X12511382Y-14809050D02*
X12530430Y-14799526D01*
X12530430Y-14799526D02*
X12559001Y-14799526D01*
X12559001Y-14799526D02*
X12578049Y-14809050D01*
X12654239Y-15009050D02*
X12663763Y-14999526D01*
X12663763Y-14999526D02*
X12682811Y-14970955D01*
X12682811Y-14970955D02*
X12692334Y-14951907D01*
X12692334Y-14951907D02*
X12701858Y-14923336D01*
X12701858Y-14923336D02*
X12711382Y-14875717D01*
X12711382Y-14875717D02*
X12711382Y-14837622D01*
X12711382Y-14837622D02*
X12701858Y-14790003D01*
X12701858Y-14790003D02*
X12692334Y-14761431D01*
X12692334Y-14761431D02*
X12682811Y-14742384D01*
X12682811Y-14742384D02*
X12663763Y-14713812D01*
X12663763Y-14713812D02*
X12654239Y-14704288D01*
X13016144Y-15009050D02*
X13006620Y-14999526D01*
X13006620Y-14999526D02*
X12987572Y-14970955D01*
X12987572Y-14970955D02*
X12978049Y-14951907D01*
X12978049Y-14951907D02*
X12968525Y-14923336D01*
X12968525Y-14923336D02*
X12959001Y-14875717D01*
X12959001Y-14875717D02*
X12959001Y-14837622D01*
X12959001Y-14837622D02*
X12968525Y-14790003D01*
X12968525Y-14790003D02*
X12978049Y-14761431D01*
X12978049Y-14761431D02*
X12987572Y-14742384D01*
X12987572Y-14742384D02*
X13006620Y-14713812D01*
X13006620Y-14713812D02*
X13016144Y-14704288D01*
X13092334Y-14799526D02*
X13092334Y-14932860D01*
X13092334Y-14818574D02*
X13101858Y-14809050D01*
X13101858Y-14809050D02*
X13120906Y-14799526D01*
X13120906Y-14799526D02*
X13149477Y-14799526D01*
X13149477Y-14799526D02*
X13168525Y-14809050D01*
X13168525Y-14809050D02*
X13178049Y-14828098D01*
X13178049Y-14828098D02*
X13178049Y-14932860D01*
X13301858Y-14932860D02*
X13282811Y-14923336D01*
X13282811Y-14923336D02*
X13273287Y-14913812D01*
X13273287Y-14913812D02*
X13263763Y-14894764D01*
X13263763Y-14894764D02*
X13263763Y-14837622D01*
X13263763Y-14837622D02*
X13273287Y-14818574D01*
X13273287Y-14818574D02*
X13282811Y-14809050D01*
X13282811Y-14809050D02*
X13301858Y-14799526D01*
X13301858Y-14799526D02*
X13330430Y-14799526D01*
X13330430Y-14799526D02*
X13349477Y-14809050D01*
X13349477Y-14809050D02*
X13359001Y-14818574D01*
X13359001Y-14818574D02*
X13368525Y-14837622D01*
X13368525Y-14837622D02*
X13368525Y-14894764D01*
X13368525Y-14894764D02*
X13359001Y-14913812D01*
X13359001Y-14913812D02*
X13349477Y-14923336D01*
X13349477Y-14923336D02*
X13330430Y-14932860D01*
X13330430Y-14932860D02*
X13301858Y-14932860D01*
X13425668Y-14799526D02*
X13501858Y-14799526D01*
X13454239Y-14732860D02*
X13454239Y-14904288D01*
X13454239Y-14904288D02*
X13463763Y-14923336D01*
X13463763Y-14923336D02*
X13482811Y-14932860D01*
X13482811Y-14932860D02*
X13501858Y-14932860D01*
X13720906Y-14799526D02*
X13720906Y-14999526D01*
X13720906Y-14809050D02*
X13739953Y-14799526D01*
X13739953Y-14799526D02*
X13778049Y-14799526D01*
X13778049Y-14799526D02*
X13797096Y-14809050D01*
X13797096Y-14809050D02*
X13806620Y-14818574D01*
X13806620Y-14818574D02*
X13816144Y-14837622D01*
X13816144Y-14837622D02*
X13816144Y-14894764D01*
X13816144Y-14894764D02*
X13806620Y-14913812D01*
X13806620Y-14913812D02*
X13797096Y-14923336D01*
X13797096Y-14923336D02*
X13778049Y-14932860D01*
X13778049Y-14932860D02*
X13739953Y-14932860D01*
X13739953Y-14932860D02*
X13720906Y-14923336D01*
X13930430Y-14932860D02*
X13911382Y-14923336D01*
X13911382Y-14923336D02*
X13901858Y-14904288D01*
X13901858Y-14904288D02*
X13901858Y-14732860D01*
X14092334Y-14932860D02*
X14092334Y-14828098D01*
X14092334Y-14828098D02*
X14082811Y-14809050D01*
X14082811Y-14809050D02*
X14063763Y-14799526D01*
X14063763Y-14799526D02*
X14025668Y-14799526D01*
X14025668Y-14799526D02*
X14006620Y-14809050D01*
X14092334Y-14923336D02*
X14073287Y-14932860D01*
X14073287Y-14932860D02*
X14025668Y-14932860D01*
X14025668Y-14932860D02*
X14006620Y-14923336D01*
X14006620Y-14923336D02*
X13997096Y-14904288D01*
X13997096Y-14904288D02*
X13997096Y-14885241D01*
X13997096Y-14885241D02*
X14006620Y-14866193D01*
X14006620Y-14866193D02*
X14025668Y-14856669D01*
X14025668Y-14856669D02*
X14073287Y-14856669D01*
X14073287Y-14856669D02*
X14092334Y-14847145D01*
X14159001Y-14799526D02*
X14235192Y-14799526D01*
X14187573Y-14732860D02*
X14187573Y-14904288D01*
X14187573Y-14904288D02*
X14197096Y-14923336D01*
X14197096Y-14923336D02*
X14216144Y-14932860D01*
X14216144Y-14932860D02*
X14235192Y-14932860D01*
X14378049Y-14923336D02*
X14359001Y-14932860D01*
X14359001Y-14932860D02*
X14320906Y-14932860D01*
X14320906Y-14932860D02*
X14301858Y-14923336D01*
X14301858Y-14923336D02*
X14292334Y-14904288D01*
X14292334Y-14904288D02*
X14292334Y-14828098D01*
X14292334Y-14828098D02*
X14301858Y-14809050D01*
X14301858Y-14809050D02*
X14320906Y-14799526D01*
X14320906Y-14799526D02*
X14359001Y-14799526D01*
X14359001Y-14799526D02*
X14378049Y-14809050D01*
X14378049Y-14809050D02*
X14387573Y-14828098D01*
X14387573Y-14828098D02*
X14387573Y-14847145D01*
X14387573Y-14847145D02*
X14292334Y-14866193D01*
X14559001Y-14932860D02*
X14559001Y-14732860D01*
X14559001Y-14923336D02*
X14539954Y-14932860D01*
X14539954Y-14932860D02*
X14501858Y-14932860D01*
X14501858Y-14932860D02*
X14482811Y-14923336D01*
X14482811Y-14923336D02*
X14473287Y-14913812D01*
X14473287Y-14913812D02*
X14463763Y-14894764D01*
X14463763Y-14894764D02*
X14463763Y-14837622D01*
X14463763Y-14837622D02*
X14473287Y-14818574D01*
X14473287Y-14818574D02*
X14482811Y-14809050D01*
X14482811Y-14809050D02*
X14501858Y-14799526D01*
X14501858Y-14799526D02*
X14539954Y-14799526D01*
X14539954Y-14799526D02*
X14559001Y-14809050D01*
X14635192Y-15009050D02*
X14644715Y-14999526D01*
X14644715Y-14999526D02*
X14663763Y-14970955D01*
X14663763Y-14970955D02*
X14673287Y-14951907D01*
X14673287Y-14951907D02*
X14682811Y-14923336D01*
X14682811Y-14923336D02*
X14692334Y-14875717D01*
X14692334Y-14875717D02*
X14692334Y-14837622D01*
X14692334Y-14837622D02*
X14682811Y-14790003D01*
X14682811Y-14790003D02*
X14673287Y-14761431D01*
X14673287Y-14761431D02*
X14663763Y-14742384D01*
X14663763Y-14742384D02*
X14644715Y-14713812D01*
X14644715Y-14713812D02*
X14635192Y-14704288D01*
X7588700Y-15231556D02*
X7688700Y-15131556D01*
X7588700Y-15031556D01*
X7488700Y-15131556D01*
X7588700Y-15231556D01*
X7930429Y-15023040D02*
X8054239Y-15023040D01*
X8054239Y-15023040D02*
X7987572Y-15099230D01*
X7987572Y-15099230D02*
X8016143Y-15099230D01*
X8016143Y-15099230D02*
X8035191Y-15108754D01*
X8035191Y-15108754D02*
X8044715Y-15118278D01*
X8044715Y-15118278D02*
X8054239Y-15137325D01*
X8054239Y-15137325D02*
X8054239Y-15184944D01*
X8054239Y-15184944D02*
X8044715Y-15203992D01*
X8044715Y-15203992D02*
X8035191Y-15213516D01*
X8035191Y-15213516D02*
X8016143Y-15223040D01*
X8016143Y-15223040D02*
X7959001Y-15223040D01*
X7959001Y-15223040D02*
X7939953Y-15213516D01*
X7939953Y-15213516D02*
X7930429Y-15203992D01*
X8139953Y-15203992D02*
X8149477Y-15213516D01*
X8149477Y-15213516D02*
X8139953Y-15223040D01*
X8139953Y-15223040D02*
X8130429Y-15213516D01*
X8130429Y-15213516D02*
X8139953Y-15203992D01*
X8139953Y-15203992D02*
X8139953Y-15223040D01*
X8273286Y-15023040D02*
X8292334Y-15023040D01*
X8292334Y-15023040D02*
X8311382Y-15032564D01*
X8311382Y-15032564D02*
X8320905Y-15042087D01*
X8320905Y-15042087D02*
X8330429Y-15061135D01*
X8330429Y-15061135D02*
X8339953Y-15099230D01*
X8339953Y-15099230D02*
X8339953Y-15146849D01*
X8339953Y-15146849D02*
X8330429Y-15184944D01*
X8330429Y-15184944D02*
X8320905Y-15203992D01*
X8320905Y-15203992D02*
X8311382Y-15213516D01*
X8311382Y-15213516D02*
X8292334Y-15223040D01*
X8292334Y-15223040D02*
X8273286Y-15223040D01*
X8273286Y-15223040D02*
X8254239Y-15213516D01*
X8254239Y-15213516D02*
X8244715Y-15203992D01*
X8244715Y-15203992D02*
X8235191Y-15184944D01*
X8235191Y-15184944D02*
X8225667Y-15146849D01*
X8225667Y-15146849D02*
X8225667Y-15099230D01*
X8225667Y-15099230D02*
X8235191Y-15061135D01*
X8235191Y-15061135D02*
X8244715Y-15042087D01*
X8244715Y-15042087D02*
X8254239Y-15032564D01*
X8254239Y-15032564D02*
X8273286Y-15023040D01*
X8463763Y-15023040D02*
X8482810Y-15023040D01*
X8482810Y-15023040D02*
X8501858Y-15032564D01*
X8501858Y-15032564D02*
X8511382Y-15042087D01*
X8511382Y-15042087D02*
X8520905Y-15061135D01*
X8520905Y-15061135D02*
X8530429Y-15099230D01*
X8530429Y-15099230D02*
X8530429Y-15146849D01*
X8530429Y-15146849D02*
X8520905Y-15184944D01*
X8520905Y-15184944D02*
X8511382Y-15203992D01*
X8511382Y-15203992D02*
X8501858Y-15213516D01*
X8501858Y-15213516D02*
X8482810Y-15223040D01*
X8482810Y-15223040D02*
X8463763Y-15223040D01*
X8463763Y-15223040D02*
X8444715Y-15213516D01*
X8444715Y-15213516D02*
X8435191Y-15203992D01*
X8435191Y-15203992D02*
X8425667Y-15184944D01*
X8425667Y-15184944D02*
X8416144Y-15146849D01*
X8416144Y-15146849D02*
X8416144Y-15099230D01*
X8416144Y-15099230D02*
X8425667Y-15061135D01*
X8425667Y-15061135D02*
X8435191Y-15042087D01*
X8435191Y-15042087D02*
X8444715Y-15032564D01*
X8444715Y-15032564D02*
X8463763Y-15023040D01*
X8654239Y-15023040D02*
X8673286Y-15023040D01*
X8673286Y-15023040D02*
X8692334Y-15032564D01*
X8692334Y-15032564D02*
X8701858Y-15042087D01*
X8701858Y-15042087D02*
X8711382Y-15061135D01*
X8711382Y-15061135D02*
X8720905Y-15099230D01*
X8720905Y-15099230D02*
X8720905Y-15146849D01*
X8720905Y-15146849D02*
X8711382Y-15184944D01*
X8711382Y-15184944D02*
X8701858Y-15203992D01*
X8701858Y-15203992D02*
X8692334Y-15213516D01*
X8692334Y-15213516D02*
X8673286Y-15223040D01*
X8673286Y-15223040D02*
X8654239Y-15223040D01*
X8654239Y-15223040D02*
X8635191Y-15213516D01*
X8635191Y-15213516D02*
X8625667Y-15203992D01*
X8625667Y-15203992D02*
X8616144Y-15184944D01*
X8616144Y-15184944D02*
X8606620Y-15146849D01*
X8606620Y-15146849D02*
X8606620Y-15099230D01*
X8606620Y-15099230D02*
X8616144Y-15061135D01*
X8616144Y-15061135D02*
X8625667Y-15042087D01*
X8625667Y-15042087D02*
X8635191Y-15032564D01*
X8635191Y-15032564D02*
X8654239Y-15023040D01*
X8806620Y-15223040D02*
X8806620Y-15089706D01*
X8806620Y-15108754D02*
X8816144Y-15099230D01*
X8816144Y-15099230D02*
X8835191Y-15089706D01*
X8835191Y-15089706D02*
X8863763Y-15089706D01*
X8863763Y-15089706D02*
X8882810Y-15099230D01*
X8882810Y-15099230D02*
X8892334Y-15118278D01*
X8892334Y-15118278D02*
X8892334Y-15223040D01*
X8892334Y-15118278D02*
X8901858Y-15099230D01*
X8901858Y-15099230D02*
X8920905Y-15089706D01*
X8920905Y-15089706D02*
X8949477Y-15089706D01*
X8949477Y-15089706D02*
X8968525Y-15099230D01*
X8968525Y-15099230D02*
X8978048Y-15118278D01*
X8978048Y-15118278D02*
X8978048Y-15223040D01*
X9073286Y-15223040D02*
X9073286Y-15089706D01*
X9073286Y-15108754D02*
X9082810Y-15099230D01*
X9082810Y-15099230D02*
X9101858Y-15089706D01*
X9101858Y-15089706D02*
X9130429Y-15089706D01*
X9130429Y-15089706D02*
X9149477Y-15099230D01*
X9149477Y-15099230D02*
X9159001Y-15118278D01*
X9159001Y-15118278D02*
X9159001Y-15223040D01*
X9159001Y-15118278D02*
X9168525Y-15099230D01*
X9168525Y-15099230D02*
X9187572Y-15089706D01*
X9187572Y-15089706D02*
X9216144Y-15089706D01*
X9216144Y-15089706D02*
X9235191Y-15099230D01*
X9235191Y-15099230D02*
X9244715Y-15118278D01*
X9244715Y-15118278D02*
X9244715Y-15223040D01*
X9635191Y-15013516D02*
X9463763Y-15270659D01*
X9892334Y-15023040D02*
X9911382Y-15023040D01*
X9911382Y-15023040D02*
X9930429Y-15032564D01*
X9930429Y-15032564D02*
X9939953Y-15042087D01*
X9939953Y-15042087D02*
X9949477Y-15061135D01*
X9949477Y-15061135D02*
X9959001Y-15099230D01*
X9959001Y-15099230D02*
X9959001Y-15146849D01*
X9959001Y-15146849D02*
X9949477Y-15184944D01*
X9949477Y-15184944D02*
X9939953Y-15203992D01*
X9939953Y-15203992D02*
X9930429Y-15213516D01*
X9930429Y-15213516D02*
X9911382Y-15223040D01*
X9911382Y-15223040D02*
X9892334Y-15223040D01*
X9892334Y-15223040D02*
X9873287Y-15213516D01*
X9873287Y-15213516D02*
X9863763Y-15203992D01*
X9863763Y-15203992D02*
X9854239Y-15184944D01*
X9854239Y-15184944D02*
X9844715Y-15146849D01*
X9844715Y-15146849D02*
X9844715Y-15099230D01*
X9844715Y-15099230D02*
X9854239Y-15061135D01*
X9854239Y-15061135D02*
X9863763Y-15042087D01*
X9863763Y-15042087D02*
X9873287Y-15032564D01*
X9873287Y-15032564D02*
X9892334Y-15023040D01*
X10044715Y-15203992D02*
X10054239Y-15213516D01*
X10054239Y-15213516D02*
X10044715Y-15223040D01*
X10044715Y-15223040D02*
X10035191Y-15213516D01*
X10035191Y-15213516D02*
X10044715Y-15203992D01*
X10044715Y-15203992D02*
X10044715Y-15223040D01*
X10244715Y-15223040D02*
X10130429Y-15223040D01*
X10187572Y-15223040D02*
X10187572Y-15023040D01*
X10187572Y-15023040D02*
X10168525Y-15051611D01*
X10168525Y-15051611D02*
X10149477Y-15070659D01*
X10149477Y-15070659D02*
X10130429Y-15080183D01*
X10435191Y-15223040D02*
X10320906Y-15223040D01*
X10378048Y-15223040D02*
X10378048Y-15023040D01*
X10378048Y-15023040D02*
X10359001Y-15051611D01*
X10359001Y-15051611D02*
X10339953Y-15070659D01*
X10339953Y-15070659D02*
X10320906Y-15080183D01*
X10549477Y-15108754D02*
X10530429Y-15099230D01*
X10530429Y-15099230D02*
X10520906Y-15089706D01*
X10520906Y-15089706D02*
X10511382Y-15070659D01*
X10511382Y-15070659D02*
X10511382Y-15061135D01*
X10511382Y-15061135D02*
X10520906Y-15042087D01*
X10520906Y-15042087D02*
X10530429Y-15032564D01*
X10530429Y-15032564D02*
X10549477Y-15023040D01*
X10549477Y-15023040D02*
X10587572Y-15023040D01*
X10587572Y-15023040D02*
X10606620Y-15032564D01*
X10606620Y-15032564D02*
X10616144Y-15042087D01*
X10616144Y-15042087D02*
X10625668Y-15061135D01*
X10625668Y-15061135D02*
X10625668Y-15070659D01*
X10625668Y-15070659D02*
X10616144Y-15089706D01*
X10616144Y-15089706D02*
X10606620Y-15099230D01*
X10606620Y-15099230D02*
X10587572Y-15108754D01*
X10587572Y-15108754D02*
X10549477Y-15108754D01*
X10549477Y-15108754D02*
X10530429Y-15118278D01*
X10530429Y-15118278D02*
X10520906Y-15127802D01*
X10520906Y-15127802D02*
X10511382Y-15146849D01*
X10511382Y-15146849D02*
X10511382Y-15184944D01*
X10511382Y-15184944D02*
X10520906Y-15203992D01*
X10520906Y-15203992D02*
X10530429Y-15213516D01*
X10530429Y-15213516D02*
X10549477Y-15223040D01*
X10549477Y-15223040D02*
X10587572Y-15223040D01*
X10587572Y-15223040D02*
X10606620Y-15213516D01*
X10606620Y-15213516D02*
X10616144Y-15203992D01*
X10616144Y-15203992D02*
X10625668Y-15184944D01*
X10625668Y-15184944D02*
X10625668Y-15146849D01*
X10625668Y-15146849D02*
X10616144Y-15127802D01*
X10616144Y-15127802D02*
X10606620Y-15118278D01*
X10606620Y-15118278D02*
X10587572Y-15108754D01*
X10816144Y-15223040D02*
X10701858Y-15223040D01*
X10759001Y-15223040D02*
X10759001Y-15023040D01*
X10759001Y-15023040D02*
X10739953Y-15051611D01*
X10739953Y-15051611D02*
X10720906Y-15070659D01*
X10720906Y-15070659D02*
X10701858Y-15080183D01*
X10892334Y-15023040D02*
X10892334Y-15061135D01*
X10968525Y-15023040D02*
X10968525Y-15061135D01*
X11263763Y-15299230D02*
X11254239Y-15289706D01*
X11254239Y-15289706D02*
X11235191Y-15261135D01*
X11235191Y-15261135D02*
X11225668Y-15242087D01*
X11225668Y-15242087D02*
X11216144Y-15213516D01*
X11216144Y-15213516D02*
X11206620Y-15165897D01*
X11206620Y-15165897D02*
X11206620Y-15127802D01*
X11206620Y-15127802D02*
X11216144Y-15080183D01*
X11216144Y-15080183D02*
X11225668Y-15051611D01*
X11225668Y-15051611D02*
X11235191Y-15032564D01*
X11235191Y-15032564D02*
X11254239Y-15003992D01*
X11254239Y-15003992D02*
X11263763Y-14994468D01*
X11435191Y-15023040D02*
X11339953Y-15023040D01*
X11339953Y-15023040D02*
X11330429Y-15118278D01*
X11330429Y-15118278D02*
X11339953Y-15108754D01*
X11339953Y-15108754D02*
X11359001Y-15099230D01*
X11359001Y-15099230D02*
X11406620Y-15099230D01*
X11406620Y-15099230D02*
X11425668Y-15108754D01*
X11425668Y-15108754D02*
X11435191Y-15118278D01*
X11435191Y-15118278D02*
X11444715Y-15137325D01*
X11444715Y-15137325D02*
X11444715Y-15184944D01*
X11444715Y-15184944D02*
X11435191Y-15203992D01*
X11435191Y-15203992D02*
X11425668Y-15213516D01*
X11425668Y-15213516D02*
X11406620Y-15223040D01*
X11406620Y-15223040D02*
X11359001Y-15223040D01*
X11359001Y-15223040D02*
X11339953Y-15213516D01*
X11339953Y-15213516D02*
X11330429Y-15203992D01*
X11616144Y-15089706D02*
X11616144Y-15223040D01*
X11568525Y-15013516D02*
X11520906Y-15156373D01*
X11520906Y-15156373D02*
X11644715Y-15156373D01*
X11873287Y-15223040D02*
X11873287Y-15023040D01*
X11959001Y-15223040D02*
X11959001Y-15118278D01*
X11959001Y-15118278D02*
X11949477Y-15099230D01*
X11949477Y-15099230D02*
X11930430Y-15089706D01*
X11930430Y-15089706D02*
X11901858Y-15089706D01*
X11901858Y-15089706D02*
X11882810Y-15099230D01*
X11882810Y-15099230D02*
X11873287Y-15108754D01*
X12082810Y-15223040D02*
X12063763Y-15213516D01*
X12063763Y-15213516D02*
X12054239Y-15203992D01*
X12054239Y-15203992D02*
X12044715Y-15184944D01*
X12044715Y-15184944D02*
X12044715Y-15127802D01*
X12044715Y-15127802D02*
X12054239Y-15108754D01*
X12054239Y-15108754D02*
X12063763Y-15099230D01*
X12063763Y-15099230D02*
X12082810Y-15089706D01*
X12082810Y-15089706D02*
X12111382Y-15089706D01*
X12111382Y-15089706D02*
X12130430Y-15099230D01*
X12130430Y-15099230D02*
X12139953Y-15108754D01*
X12139953Y-15108754D02*
X12149477Y-15127802D01*
X12149477Y-15127802D02*
X12149477Y-15184944D01*
X12149477Y-15184944D02*
X12139953Y-15203992D01*
X12139953Y-15203992D02*
X12130430Y-15213516D01*
X12130430Y-15213516D02*
X12111382Y-15223040D01*
X12111382Y-15223040D02*
X12082810Y-15223040D01*
X12263763Y-15223040D02*
X12244715Y-15213516D01*
X12244715Y-15213516D02*
X12235191Y-15194468D01*
X12235191Y-15194468D02*
X12235191Y-15023040D01*
X12416144Y-15213516D02*
X12397096Y-15223040D01*
X12397096Y-15223040D02*
X12359001Y-15223040D01*
X12359001Y-15223040D02*
X12339953Y-15213516D01*
X12339953Y-15213516D02*
X12330430Y-15194468D01*
X12330430Y-15194468D02*
X12330430Y-15118278D01*
X12330430Y-15118278D02*
X12339953Y-15099230D01*
X12339953Y-15099230D02*
X12359001Y-15089706D01*
X12359001Y-15089706D02*
X12397096Y-15089706D01*
X12397096Y-15089706D02*
X12416144Y-15099230D01*
X12416144Y-15099230D02*
X12425668Y-15118278D01*
X12425668Y-15118278D02*
X12425668Y-15137325D01*
X12425668Y-15137325D02*
X12330430Y-15156373D01*
X12501858Y-15213516D02*
X12520906Y-15223040D01*
X12520906Y-15223040D02*
X12559001Y-15223040D01*
X12559001Y-15223040D02*
X12578049Y-15213516D01*
X12578049Y-15213516D02*
X12587572Y-15194468D01*
X12587572Y-15194468D02*
X12587572Y-15184944D01*
X12587572Y-15184944D02*
X12578049Y-15165897D01*
X12578049Y-15165897D02*
X12559001Y-15156373D01*
X12559001Y-15156373D02*
X12530430Y-15156373D01*
X12530430Y-15156373D02*
X12511382Y-15146849D01*
X12511382Y-15146849D02*
X12501858Y-15127802D01*
X12501858Y-15127802D02*
X12501858Y-15118278D01*
X12501858Y-15118278D02*
X12511382Y-15099230D01*
X12511382Y-15099230D02*
X12530430Y-15089706D01*
X12530430Y-15089706D02*
X12559001Y-15089706D01*
X12559001Y-15089706D02*
X12578049Y-15099230D01*
X12654239Y-15299230D02*
X12663763Y-15289706D01*
X12663763Y-15289706D02*
X12682811Y-15261135D01*
X12682811Y-15261135D02*
X12692334Y-15242087D01*
X12692334Y-15242087D02*
X12701858Y-15213516D01*
X12701858Y-15213516D02*
X12711382Y-15165897D01*
X12711382Y-15165897D02*
X12711382Y-15127802D01*
X12711382Y-15127802D02*
X12701858Y-15080183D01*
X12701858Y-15080183D02*
X12692334Y-15051611D01*
X12692334Y-15051611D02*
X12682811Y-15032564D01*
X12682811Y-15032564D02*
X12663763Y-15003992D01*
X12663763Y-15003992D02*
X12654239Y-14994468D01*
X13016144Y-15299230D02*
X13006620Y-15289706D01*
X13006620Y-15289706D02*
X12987572Y-15261135D01*
X12987572Y-15261135D02*
X12978049Y-15242087D01*
X12978049Y-15242087D02*
X12968525Y-15213516D01*
X12968525Y-15213516D02*
X12959001Y-15165897D01*
X12959001Y-15165897D02*
X12959001Y-15127802D01*
X12959001Y-15127802D02*
X12968525Y-15080183D01*
X12968525Y-15080183D02*
X12978049Y-15051611D01*
X12978049Y-15051611D02*
X12987572Y-15032564D01*
X12987572Y-15032564D02*
X13006620Y-15003992D01*
X13006620Y-15003992D02*
X13016144Y-14994468D01*
X13092334Y-15089706D02*
X13092334Y-15223040D01*
X13092334Y-15108754D02*
X13101858Y-15099230D01*
X13101858Y-15099230D02*
X13120906Y-15089706D01*
X13120906Y-15089706D02*
X13149477Y-15089706D01*
X13149477Y-15089706D02*
X13168525Y-15099230D01*
X13168525Y-15099230D02*
X13178049Y-15118278D01*
X13178049Y-15118278D02*
X13178049Y-15223040D01*
X13301858Y-15223040D02*
X13282811Y-15213516D01*
X13282811Y-15213516D02*
X13273287Y-15203992D01*
X13273287Y-15203992D02*
X13263763Y-15184944D01*
X13263763Y-15184944D02*
X13263763Y-15127802D01*
X13263763Y-15127802D02*
X13273287Y-15108754D01*
X13273287Y-15108754D02*
X13282811Y-15099230D01*
X13282811Y-15099230D02*
X13301858Y-15089706D01*
X13301858Y-15089706D02*
X13330430Y-15089706D01*
X13330430Y-15089706D02*
X13349477Y-15099230D01*
X13349477Y-15099230D02*
X13359001Y-15108754D01*
X13359001Y-15108754D02*
X13368525Y-15127802D01*
X13368525Y-15127802D02*
X13368525Y-15184944D01*
X13368525Y-15184944D02*
X13359001Y-15203992D01*
X13359001Y-15203992D02*
X13349477Y-15213516D01*
X13349477Y-15213516D02*
X13330430Y-15223040D01*
X13330430Y-15223040D02*
X13301858Y-15223040D01*
X13425668Y-15089706D02*
X13501858Y-15089706D01*
X13454239Y-15023040D02*
X13454239Y-15194468D01*
X13454239Y-15194468D02*
X13463763Y-15213516D01*
X13463763Y-15213516D02*
X13482811Y-15223040D01*
X13482811Y-15223040D02*
X13501858Y-15223040D01*
X13720906Y-15089706D02*
X13720906Y-15289706D01*
X13720906Y-15099230D02*
X13739953Y-15089706D01*
X13739953Y-15089706D02*
X13778049Y-15089706D01*
X13778049Y-15089706D02*
X13797096Y-15099230D01*
X13797096Y-15099230D02*
X13806620Y-15108754D01*
X13806620Y-15108754D02*
X13816144Y-15127802D01*
X13816144Y-15127802D02*
X13816144Y-15184944D01*
X13816144Y-15184944D02*
X13806620Y-15203992D01*
X13806620Y-15203992D02*
X13797096Y-15213516D01*
X13797096Y-15213516D02*
X13778049Y-15223040D01*
X13778049Y-15223040D02*
X13739953Y-15223040D01*
X13739953Y-15223040D02*
X13720906Y-15213516D01*
X13930430Y-15223040D02*
X13911382Y-15213516D01*
X13911382Y-15213516D02*
X13901858Y-15194468D01*
X13901858Y-15194468D02*
X13901858Y-15023040D01*
X14092334Y-15223040D02*
X14092334Y-15118278D01*
X14092334Y-15118278D02*
X14082811Y-15099230D01*
X14082811Y-15099230D02*
X14063763Y-15089706D01*
X14063763Y-15089706D02*
X14025668Y-15089706D01*
X14025668Y-15089706D02*
X14006620Y-15099230D01*
X14092334Y-15213516D02*
X14073287Y-15223040D01*
X14073287Y-15223040D02*
X14025668Y-15223040D01*
X14025668Y-15223040D02*
X14006620Y-15213516D01*
X14006620Y-15213516D02*
X13997096Y-15194468D01*
X13997096Y-15194468D02*
X13997096Y-15175421D01*
X13997096Y-15175421D02*
X14006620Y-15156373D01*
X14006620Y-15156373D02*
X14025668Y-15146849D01*
X14025668Y-15146849D02*
X14073287Y-15146849D01*
X14073287Y-15146849D02*
X14092334Y-15137325D01*
X14159001Y-15089706D02*
X14235192Y-15089706D01*
X14187573Y-15023040D02*
X14187573Y-15194468D01*
X14187573Y-15194468D02*
X14197096Y-15213516D01*
X14197096Y-15213516D02*
X14216144Y-15223040D01*
X14216144Y-15223040D02*
X14235192Y-15223040D01*
X14378049Y-15213516D02*
X14359001Y-15223040D01*
X14359001Y-15223040D02*
X14320906Y-15223040D01*
X14320906Y-15223040D02*
X14301858Y-15213516D01*
X14301858Y-15213516D02*
X14292334Y-15194468D01*
X14292334Y-15194468D02*
X14292334Y-15118278D01*
X14292334Y-15118278D02*
X14301858Y-15099230D01*
X14301858Y-15099230D02*
X14320906Y-15089706D01*
X14320906Y-15089706D02*
X14359001Y-15089706D01*
X14359001Y-15089706D02*
X14378049Y-15099230D01*
X14378049Y-15099230D02*
X14387573Y-15118278D01*
X14387573Y-15118278D02*
X14387573Y-15137325D01*
X14387573Y-15137325D02*
X14292334Y-15156373D01*
X14559001Y-15223040D02*
X14559001Y-15023040D01*
X14559001Y-15213516D02*
X14539954Y-15223040D01*
X14539954Y-15223040D02*
X14501858Y-15223040D01*
X14501858Y-15223040D02*
X14482811Y-15213516D01*
X14482811Y-15213516D02*
X14473287Y-15203992D01*
X14473287Y-15203992D02*
X14463763Y-15184944D01*
X14463763Y-15184944D02*
X14463763Y-15127802D01*
X14463763Y-15127802D02*
X14473287Y-15108754D01*
X14473287Y-15108754D02*
X14482811Y-15099230D01*
X14482811Y-15099230D02*
X14501858Y-15089706D01*
X14501858Y-15089706D02*
X14539954Y-15089706D01*
X14539954Y-15089706D02*
X14559001Y-15099230D01*
X14635192Y-15299230D02*
X14644715Y-15289706D01*
X14644715Y-15289706D02*
X14663763Y-15261135D01*
X14663763Y-15261135D02*
X14673287Y-15242087D01*
X14673287Y-15242087D02*
X14682811Y-15213516D01*
X14682811Y-15213516D02*
X14692334Y-15165897D01*
X14692334Y-15165897D02*
X14692334Y-15127802D01*
X14692334Y-15127802D02*
X14682811Y-15080183D01*
X14682811Y-15080183D02*
X14673287Y-15051611D01*
X14673287Y-15051611D02*
X14663763Y-15032564D01*
X14663763Y-15032564D02*
X14644715Y-15003992D01*
X14644715Y-15003992D02*
X14635192Y-14994468D01*
X7488700Y-15351556D02*
X7688700Y-15551556D01*
X7688700Y-15351556D02*
X7488700Y-15551556D01*
X7688700Y-15451556D02*
G75*
G02*
X7488700Y-15451556I-100000J0D01*
G01*
X7488700Y-15451556D02*
G75*
G02*
X7688700Y-15451556I100000J0D01*
G01*
X7930429Y-15343040D02*
X8054239Y-15343040D01*
X8054239Y-15343040D02*
X7987572Y-15419230D01*
X7987572Y-15419230D02*
X8016143Y-15419230D01*
X8016143Y-15419230D02*
X8035191Y-15428754D01*
X8035191Y-15428754D02*
X8044715Y-15438278D01*
X8044715Y-15438278D02*
X8054239Y-15457325D01*
X8054239Y-15457325D02*
X8054239Y-15504944D01*
X8054239Y-15504944D02*
X8044715Y-15523992D01*
X8044715Y-15523992D02*
X8035191Y-15533516D01*
X8035191Y-15533516D02*
X8016143Y-15543040D01*
X8016143Y-15543040D02*
X7959001Y-15543040D01*
X7959001Y-15543040D02*
X7939953Y-15533516D01*
X7939953Y-15533516D02*
X7930429Y-15523992D01*
X8139953Y-15523992D02*
X8149477Y-15533516D01*
X8149477Y-15533516D02*
X8139953Y-15543040D01*
X8139953Y-15543040D02*
X8130429Y-15533516D01*
X8130429Y-15533516D02*
X8139953Y-15523992D01*
X8139953Y-15523992D02*
X8139953Y-15543040D01*
X8320905Y-15409706D02*
X8320905Y-15543040D01*
X8273286Y-15333516D02*
X8225667Y-15476373D01*
X8225667Y-15476373D02*
X8349477Y-15476373D01*
X8416144Y-15362087D02*
X8425667Y-15352564D01*
X8425667Y-15352564D02*
X8444715Y-15343040D01*
X8444715Y-15343040D02*
X8492334Y-15343040D01*
X8492334Y-15343040D02*
X8511382Y-15352564D01*
X8511382Y-15352564D02*
X8520905Y-15362087D01*
X8520905Y-15362087D02*
X8530429Y-15381135D01*
X8530429Y-15381135D02*
X8530429Y-15400183D01*
X8530429Y-15400183D02*
X8520905Y-15428754D01*
X8520905Y-15428754D02*
X8406620Y-15543040D01*
X8406620Y-15543040D02*
X8530429Y-15543040D01*
X8625667Y-15543040D02*
X8663763Y-15543040D01*
X8663763Y-15543040D02*
X8682810Y-15533516D01*
X8682810Y-15533516D02*
X8692334Y-15523992D01*
X8692334Y-15523992D02*
X8711382Y-15495421D01*
X8711382Y-15495421D02*
X8720905Y-15457325D01*
X8720905Y-15457325D02*
X8720905Y-15381135D01*
X8720905Y-15381135D02*
X8711382Y-15362087D01*
X8711382Y-15362087D02*
X8701858Y-15352564D01*
X8701858Y-15352564D02*
X8682810Y-15343040D01*
X8682810Y-15343040D02*
X8644715Y-15343040D01*
X8644715Y-15343040D02*
X8625667Y-15352564D01*
X8625667Y-15352564D02*
X8616144Y-15362087D01*
X8616144Y-15362087D02*
X8606620Y-15381135D01*
X8606620Y-15381135D02*
X8606620Y-15428754D01*
X8606620Y-15428754D02*
X8616144Y-15447802D01*
X8616144Y-15447802D02*
X8625667Y-15457325D01*
X8625667Y-15457325D02*
X8644715Y-15466849D01*
X8644715Y-15466849D02*
X8682810Y-15466849D01*
X8682810Y-15466849D02*
X8701858Y-15457325D01*
X8701858Y-15457325D02*
X8711382Y-15447802D01*
X8711382Y-15447802D02*
X8720905Y-15428754D01*
X8806620Y-15543040D02*
X8806620Y-15409706D01*
X8806620Y-15428754D02*
X8816144Y-15419230D01*
X8816144Y-15419230D02*
X8835191Y-15409706D01*
X8835191Y-15409706D02*
X8863763Y-15409706D01*
X8863763Y-15409706D02*
X8882810Y-15419230D01*
X8882810Y-15419230D02*
X8892334Y-15438278D01*
X8892334Y-15438278D02*
X8892334Y-15543040D01*
X8892334Y-15438278D02*
X8901858Y-15419230D01*
X8901858Y-15419230D02*
X8920905Y-15409706D01*
X8920905Y-15409706D02*
X8949477Y-15409706D01*
X8949477Y-15409706D02*
X8968525Y-15419230D01*
X8968525Y-15419230D02*
X8978048Y-15438278D01*
X8978048Y-15438278D02*
X8978048Y-15543040D01*
X9073286Y-15543040D02*
X9073286Y-15409706D01*
X9073286Y-15428754D02*
X9082810Y-15419230D01*
X9082810Y-15419230D02*
X9101858Y-15409706D01*
X9101858Y-15409706D02*
X9130429Y-15409706D01*
X9130429Y-15409706D02*
X9149477Y-15419230D01*
X9149477Y-15419230D02*
X9159001Y-15438278D01*
X9159001Y-15438278D02*
X9159001Y-15543040D01*
X9159001Y-15438278D02*
X9168525Y-15419230D01*
X9168525Y-15419230D02*
X9187572Y-15409706D01*
X9187572Y-15409706D02*
X9216144Y-15409706D01*
X9216144Y-15409706D02*
X9235191Y-15419230D01*
X9235191Y-15419230D02*
X9244715Y-15438278D01*
X9244715Y-15438278D02*
X9244715Y-15543040D01*
X9635191Y-15333516D02*
X9463763Y-15590659D01*
X9892334Y-15343040D02*
X9911382Y-15343040D01*
X9911382Y-15343040D02*
X9930429Y-15352564D01*
X9930429Y-15352564D02*
X9939953Y-15362087D01*
X9939953Y-15362087D02*
X9949477Y-15381135D01*
X9949477Y-15381135D02*
X9959001Y-15419230D01*
X9959001Y-15419230D02*
X9959001Y-15466849D01*
X9959001Y-15466849D02*
X9949477Y-15504944D01*
X9949477Y-15504944D02*
X9939953Y-15523992D01*
X9939953Y-15523992D02*
X9930429Y-15533516D01*
X9930429Y-15533516D02*
X9911382Y-15543040D01*
X9911382Y-15543040D02*
X9892334Y-15543040D01*
X9892334Y-15543040D02*
X9873287Y-15533516D01*
X9873287Y-15533516D02*
X9863763Y-15523992D01*
X9863763Y-15523992D02*
X9854239Y-15504944D01*
X9854239Y-15504944D02*
X9844715Y-15466849D01*
X9844715Y-15466849D02*
X9844715Y-15419230D01*
X9844715Y-15419230D02*
X9854239Y-15381135D01*
X9854239Y-15381135D02*
X9863763Y-15362087D01*
X9863763Y-15362087D02*
X9873287Y-15352564D01*
X9873287Y-15352564D02*
X9892334Y-15343040D01*
X10044715Y-15523992D02*
X10054239Y-15533516D01*
X10054239Y-15533516D02*
X10044715Y-15543040D01*
X10044715Y-15543040D02*
X10035191Y-15533516D01*
X10035191Y-15533516D02*
X10044715Y-15523992D01*
X10044715Y-15523992D02*
X10044715Y-15543040D01*
X10244715Y-15543040D02*
X10130429Y-15543040D01*
X10187572Y-15543040D02*
X10187572Y-15343040D01*
X10187572Y-15343040D02*
X10168525Y-15371611D01*
X10168525Y-15371611D02*
X10149477Y-15390659D01*
X10149477Y-15390659D02*
X10130429Y-15400183D01*
X10311382Y-15343040D02*
X10435191Y-15343040D01*
X10435191Y-15343040D02*
X10368525Y-15419230D01*
X10368525Y-15419230D02*
X10397096Y-15419230D01*
X10397096Y-15419230D02*
X10416144Y-15428754D01*
X10416144Y-15428754D02*
X10425668Y-15438278D01*
X10425668Y-15438278D02*
X10435191Y-15457325D01*
X10435191Y-15457325D02*
X10435191Y-15504944D01*
X10435191Y-15504944D02*
X10425668Y-15523992D01*
X10425668Y-15523992D02*
X10416144Y-15533516D01*
X10416144Y-15533516D02*
X10397096Y-15543040D01*
X10397096Y-15543040D02*
X10339953Y-15543040D01*
X10339953Y-15543040D02*
X10320906Y-15533516D01*
X10320906Y-15533516D02*
X10311382Y-15523992D01*
X10616144Y-15343040D02*
X10520906Y-15343040D01*
X10520906Y-15343040D02*
X10511382Y-15438278D01*
X10511382Y-15438278D02*
X10520906Y-15428754D01*
X10520906Y-15428754D02*
X10539953Y-15419230D01*
X10539953Y-15419230D02*
X10587572Y-15419230D01*
X10587572Y-15419230D02*
X10606620Y-15428754D01*
X10606620Y-15428754D02*
X10616144Y-15438278D01*
X10616144Y-15438278D02*
X10625668Y-15457325D01*
X10625668Y-15457325D02*
X10625668Y-15504944D01*
X10625668Y-15504944D02*
X10616144Y-15523992D01*
X10616144Y-15523992D02*
X10606620Y-15533516D01*
X10606620Y-15533516D02*
X10587572Y-15543040D01*
X10587572Y-15543040D02*
X10539953Y-15543040D01*
X10539953Y-15543040D02*
X10520906Y-15533516D01*
X10520906Y-15533516D02*
X10511382Y-15523992D01*
X10749477Y-15343040D02*
X10768525Y-15343040D01*
X10768525Y-15343040D02*
X10787572Y-15352564D01*
X10787572Y-15352564D02*
X10797096Y-15362087D01*
X10797096Y-15362087D02*
X10806620Y-15381135D01*
X10806620Y-15381135D02*
X10816144Y-15419230D01*
X10816144Y-15419230D02*
X10816144Y-15466849D01*
X10816144Y-15466849D02*
X10806620Y-15504944D01*
X10806620Y-15504944D02*
X10797096Y-15523992D01*
X10797096Y-15523992D02*
X10787572Y-15533516D01*
X10787572Y-15533516D02*
X10768525Y-15543040D01*
X10768525Y-15543040D02*
X10749477Y-15543040D01*
X10749477Y-15543040D02*
X10730429Y-15533516D01*
X10730429Y-15533516D02*
X10720906Y-15523992D01*
X10720906Y-15523992D02*
X10711382Y-15504944D01*
X10711382Y-15504944D02*
X10701858Y-15466849D01*
X10701858Y-15466849D02*
X10701858Y-15419230D01*
X10701858Y-15419230D02*
X10711382Y-15381135D01*
X10711382Y-15381135D02*
X10720906Y-15362087D01*
X10720906Y-15362087D02*
X10730429Y-15352564D01*
X10730429Y-15352564D02*
X10749477Y-15343040D01*
X10892334Y-15343040D02*
X10892334Y-15381135D01*
X10968525Y-15343040D02*
X10968525Y-15381135D01*
X11263763Y-15619230D02*
X11254239Y-15609706D01*
X11254239Y-15609706D02*
X11235191Y-15581135D01*
X11235191Y-15581135D02*
X11225668Y-15562087D01*
X11225668Y-15562087D02*
X11216144Y-15533516D01*
X11216144Y-15533516D02*
X11206620Y-15485897D01*
X11206620Y-15485897D02*
X11206620Y-15447802D01*
X11206620Y-15447802D02*
X11216144Y-15400183D01*
X11216144Y-15400183D02*
X11225668Y-15371611D01*
X11225668Y-15371611D02*
X11235191Y-15352564D01*
X11235191Y-15352564D02*
X11254239Y-15323992D01*
X11254239Y-15323992D02*
X11263763Y-15314468D01*
X11444715Y-15543040D02*
X11330429Y-15543040D01*
X11387572Y-15543040D02*
X11387572Y-15343040D01*
X11387572Y-15343040D02*
X11368525Y-15371611D01*
X11368525Y-15371611D02*
X11349477Y-15390659D01*
X11349477Y-15390659D02*
X11330429Y-15400183D01*
X11559001Y-15428754D02*
X11539953Y-15419230D01*
X11539953Y-15419230D02*
X11530429Y-15409706D01*
X11530429Y-15409706D02*
X11520906Y-15390659D01*
X11520906Y-15390659D02*
X11520906Y-15381135D01*
X11520906Y-15381135D02*
X11530429Y-15362087D01*
X11530429Y-15362087D02*
X11539953Y-15352564D01*
X11539953Y-15352564D02*
X11559001Y-15343040D01*
X11559001Y-15343040D02*
X11597096Y-15343040D01*
X11597096Y-15343040D02*
X11616144Y-15352564D01*
X11616144Y-15352564D02*
X11625668Y-15362087D01*
X11625668Y-15362087D02*
X11635191Y-15381135D01*
X11635191Y-15381135D02*
X11635191Y-15390659D01*
X11635191Y-15390659D02*
X11625668Y-15409706D01*
X11625668Y-15409706D02*
X11616144Y-15419230D01*
X11616144Y-15419230D02*
X11597096Y-15428754D01*
X11597096Y-15428754D02*
X11559001Y-15428754D01*
X11559001Y-15428754D02*
X11539953Y-15438278D01*
X11539953Y-15438278D02*
X11530429Y-15447802D01*
X11530429Y-15447802D02*
X11520906Y-15466849D01*
X11520906Y-15466849D02*
X11520906Y-15504944D01*
X11520906Y-15504944D02*
X11530429Y-15523992D01*
X11530429Y-15523992D02*
X11539953Y-15533516D01*
X11539953Y-15533516D02*
X11559001Y-15543040D01*
X11559001Y-15543040D02*
X11597096Y-15543040D01*
X11597096Y-15543040D02*
X11616144Y-15533516D01*
X11616144Y-15533516D02*
X11625668Y-15523992D01*
X11625668Y-15523992D02*
X11635191Y-15504944D01*
X11635191Y-15504944D02*
X11635191Y-15466849D01*
X11635191Y-15466849D02*
X11625668Y-15447802D01*
X11625668Y-15447802D02*
X11616144Y-15438278D01*
X11616144Y-15438278D02*
X11597096Y-15428754D01*
X11873287Y-15543040D02*
X11873287Y-15343040D01*
X11959001Y-15543040D02*
X11959001Y-15438278D01*
X11959001Y-15438278D02*
X11949477Y-15419230D01*
X11949477Y-15419230D02*
X11930430Y-15409706D01*
X11930430Y-15409706D02*
X11901858Y-15409706D01*
X11901858Y-15409706D02*
X11882810Y-15419230D01*
X11882810Y-15419230D02*
X11873287Y-15428754D01*
X12082810Y-15543040D02*
X12063763Y-15533516D01*
X12063763Y-15533516D02*
X12054239Y-15523992D01*
X12054239Y-15523992D02*
X12044715Y-15504944D01*
X12044715Y-15504944D02*
X12044715Y-15447802D01*
X12044715Y-15447802D02*
X12054239Y-15428754D01*
X12054239Y-15428754D02*
X12063763Y-15419230D01*
X12063763Y-15419230D02*
X12082810Y-15409706D01*
X12082810Y-15409706D02*
X12111382Y-15409706D01*
X12111382Y-15409706D02*
X12130430Y-15419230D01*
X12130430Y-15419230D02*
X12139953Y-15428754D01*
X12139953Y-15428754D02*
X12149477Y-15447802D01*
X12149477Y-15447802D02*
X12149477Y-15504944D01*
X12149477Y-15504944D02*
X12139953Y-15523992D01*
X12139953Y-15523992D02*
X12130430Y-15533516D01*
X12130430Y-15533516D02*
X12111382Y-15543040D01*
X12111382Y-15543040D02*
X12082810Y-15543040D01*
X12263763Y-15543040D02*
X12244715Y-15533516D01*
X12244715Y-15533516D02*
X12235191Y-15514468D01*
X12235191Y-15514468D02*
X12235191Y-15343040D01*
X12416144Y-15533516D02*
X12397096Y-15543040D01*
X12397096Y-15543040D02*
X12359001Y-15543040D01*
X12359001Y-15543040D02*
X12339953Y-15533516D01*
X12339953Y-15533516D02*
X12330430Y-15514468D01*
X12330430Y-15514468D02*
X12330430Y-15438278D01*
X12330430Y-15438278D02*
X12339953Y-15419230D01*
X12339953Y-15419230D02*
X12359001Y-15409706D01*
X12359001Y-15409706D02*
X12397096Y-15409706D01*
X12397096Y-15409706D02*
X12416144Y-15419230D01*
X12416144Y-15419230D02*
X12425668Y-15438278D01*
X12425668Y-15438278D02*
X12425668Y-15457325D01*
X12425668Y-15457325D02*
X12330430Y-15476373D01*
X12501858Y-15533516D02*
X12520906Y-15543040D01*
X12520906Y-15543040D02*
X12559001Y-15543040D01*
X12559001Y-15543040D02*
X12578049Y-15533516D01*
X12578049Y-15533516D02*
X12587572Y-15514468D01*
X12587572Y-15514468D02*
X12587572Y-15504944D01*
X12587572Y-15504944D02*
X12578049Y-15485897D01*
X12578049Y-15485897D02*
X12559001Y-15476373D01*
X12559001Y-15476373D02*
X12530430Y-15476373D01*
X12530430Y-15476373D02*
X12511382Y-15466849D01*
X12511382Y-15466849D02*
X12501858Y-15447802D01*
X12501858Y-15447802D02*
X12501858Y-15438278D01*
X12501858Y-15438278D02*
X12511382Y-15419230D01*
X12511382Y-15419230D02*
X12530430Y-15409706D01*
X12530430Y-15409706D02*
X12559001Y-15409706D01*
X12559001Y-15409706D02*
X12578049Y-15419230D01*
X12654239Y-15619230D02*
X12663763Y-15609706D01*
X12663763Y-15609706D02*
X12682811Y-15581135D01*
X12682811Y-15581135D02*
X12692334Y-15562087D01*
X12692334Y-15562087D02*
X12701858Y-15533516D01*
X12701858Y-15533516D02*
X12711382Y-15485897D01*
X12711382Y-15485897D02*
X12711382Y-15447802D01*
X12711382Y-15447802D02*
X12701858Y-15400183D01*
X12701858Y-15400183D02*
X12692334Y-15371611D01*
X12692334Y-15371611D02*
X12682811Y-15352564D01*
X12682811Y-15352564D02*
X12663763Y-15323992D01*
X12663763Y-15323992D02*
X12654239Y-15314468D01*
X13016144Y-15619230D02*
X13006620Y-15609706D01*
X13006620Y-15609706D02*
X12987572Y-15581135D01*
X12987572Y-15581135D02*
X12978049Y-15562087D01*
X12978049Y-15562087D02*
X12968525Y-15533516D01*
X12968525Y-15533516D02*
X12959001Y-15485897D01*
X12959001Y-15485897D02*
X12959001Y-15447802D01*
X12959001Y-15447802D02*
X12968525Y-15400183D01*
X12968525Y-15400183D02*
X12978049Y-15371611D01*
X12978049Y-15371611D02*
X12987572Y-15352564D01*
X12987572Y-15352564D02*
X13006620Y-15323992D01*
X13006620Y-15323992D02*
X13016144Y-15314468D01*
X13092334Y-15409706D02*
X13092334Y-15543040D01*
X13092334Y-15428754D02*
X13101858Y-15419230D01*
X13101858Y-15419230D02*
X13120906Y-15409706D01*
X13120906Y-15409706D02*
X13149477Y-15409706D01*
X13149477Y-15409706D02*
X13168525Y-15419230D01*
X13168525Y-15419230D02*
X13178049Y-15438278D01*
X13178049Y-15438278D02*
X13178049Y-15543040D01*
X13301858Y-15543040D02*
X13282811Y-15533516D01*
X13282811Y-15533516D02*
X13273287Y-15523992D01*
X13273287Y-15523992D02*
X13263763Y-15504944D01*
X13263763Y-15504944D02*
X13263763Y-15447802D01*
X13263763Y-15447802D02*
X13273287Y-15428754D01*
X13273287Y-15428754D02*
X13282811Y-15419230D01*
X13282811Y-15419230D02*
X13301858Y-15409706D01*
X13301858Y-15409706D02*
X13330430Y-15409706D01*
X13330430Y-15409706D02*
X13349477Y-15419230D01*
X13349477Y-15419230D02*
X13359001Y-15428754D01*
X13359001Y-15428754D02*
X13368525Y-15447802D01*
X13368525Y-15447802D02*
X13368525Y-15504944D01*
X13368525Y-15504944D02*
X13359001Y-15523992D01*
X13359001Y-15523992D02*
X13349477Y-15533516D01*
X13349477Y-15533516D02*
X13330430Y-15543040D01*
X13330430Y-15543040D02*
X13301858Y-15543040D01*
X13425668Y-15409706D02*
X13501858Y-15409706D01*
X13454239Y-15343040D02*
X13454239Y-15514468D01*
X13454239Y-15514468D02*
X13463763Y-15533516D01*
X13463763Y-15533516D02*
X13482811Y-15543040D01*
X13482811Y-15543040D02*
X13501858Y-15543040D01*
X13720906Y-15409706D02*
X13720906Y-15609706D01*
X13720906Y-15419230D02*
X13739953Y-15409706D01*
X13739953Y-15409706D02*
X13778049Y-15409706D01*
X13778049Y-15409706D02*
X13797096Y-15419230D01*
X13797096Y-15419230D02*
X13806620Y-15428754D01*
X13806620Y-15428754D02*
X13816144Y-15447802D01*
X13816144Y-15447802D02*
X13816144Y-15504944D01*
X13816144Y-15504944D02*
X13806620Y-15523992D01*
X13806620Y-15523992D02*
X13797096Y-15533516D01*
X13797096Y-15533516D02*
X13778049Y-15543040D01*
X13778049Y-15543040D02*
X13739953Y-15543040D01*
X13739953Y-15543040D02*
X13720906Y-15533516D01*
X13930430Y-15543040D02*
X13911382Y-15533516D01*
X13911382Y-15533516D02*
X13901858Y-15514468D01*
X13901858Y-15514468D02*
X13901858Y-15343040D01*
X14092334Y-15543040D02*
X14092334Y-15438278D01*
X14092334Y-15438278D02*
X14082811Y-15419230D01*
X14082811Y-15419230D02*
X14063763Y-15409706D01*
X14063763Y-15409706D02*
X14025668Y-15409706D01*
X14025668Y-15409706D02*
X14006620Y-15419230D01*
X14092334Y-15533516D02*
X14073287Y-15543040D01*
X14073287Y-15543040D02*
X14025668Y-15543040D01*
X14025668Y-15543040D02*
X14006620Y-15533516D01*
X14006620Y-15533516D02*
X13997096Y-15514468D01*
X13997096Y-15514468D02*
X13997096Y-15495421D01*
X13997096Y-15495421D02*
X14006620Y-15476373D01*
X14006620Y-15476373D02*
X14025668Y-15466849D01*
X14025668Y-15466849D02*
X14073287Y-15466849D01*
X14073287Y-15466849D02*
X14092334Y-15457325D01*
X14159001Y-15409706D02*
X14235192Y-15409706D01*
X14187573Y-15343040D02*
X14187573Y-15514468D01*
X14187573Y-15514468D02*
X14197096Y-15533516D01*
X14197096Y-15533516D02*
X14216144Y-15543040D01*
X14216144Y-15543040D02*
X14235192Y-15543040D01*
X14378049Y-15533516D02*
X14359001Y-15543040D01*
X14359001Y-15543040D02*
X14320906Y-15543040D01*
X14320906Y-15543040D02*
X14301858Y-15533516D01*
X14301858Y-15533516D02*
X14292334Y-15514468D01*
X14292334Y-15514468D02*
X14292334Y-15438278D01*
X14292334Y-15438278D02*
X14301858Y-15419230D01*
X14301858Y-15419230D02*
X14320906Y-15409706D01*
X14320906Y-15409706D02*
X14359001Y-15409706D01*
X14359001Y-15409706D02*
X14378049Y-15419230D01*
X14378049Y-15419230D02*
X14387573Y-15438278D01*
X14387573Y-15438278D02*
X14387573Y-15457325D01*
X14387573Y-15457325D02*
X14292334Y-15476373D01*
X14559001Y-15543040D02*
X14559001Y-15343040D01*
X14559001Y-15533516D02*
X14539954Y-15543040D01*
X14539954Y-15543040D02*
X14501858Y-15543040D01*
X14501858Y-15543040D02*
X14482811Y-15533516D01*
X14482811Y-15533516D02*
X14473287Y-15523992D01*
X14473287Y-15523992D02*
X14463763Y-15504944D01*
X14463763Y-15504944D02*
X14463763Y-15447802D01*
X14463763Y-15447802D02*
X14473287Y-15428754D01*
X14473287Y-15428754D02*
X14482811Y-15419230D01*
X14482811Y-15419230D02*
X14501858Y-15409706D01*
X14501858Y-15409706D02*
X14539954Y-15409706D01*
X14539954Y-15409706D02*
X14559001Y-15419230D01*
X14635192Y-15619230D02*
X14644715Y-15609706D01*
X14644715Y-15609706D02*
X14663763Y-15581135D01*
X14663763Y-15581135D02*
X14673287Y-15562087D01*
X14673287Y-15562087D02*
X14682811Y-15533516D01*
X14682811Y-15533516D02*
X14692334Y-15485897D01*
X14692334Y-15485897D02*
X14692334Y-15447802D01*
X14692334Y-15447802D02*
X14682811Y-15400183D01*
X14682811Y-15400183D02*
X14673287Y-15371611D01*
X14673287Y-15371611D02*
X14663763Y-15352564D01*
X14663763Y-15352564D02*
X14644715Y-15323992D01*
X14644715Y-15323992D02*
X14635192Y-15314468D01*
M02*
