%TF.GenerationSoftware,KiCad,Pcbnew,8.0.6*%
%TF.CreationDate,2024-11-01T11:01:27+01:00*%
%TF.ProjectId,temper,74656d70-6572-42e6-9b69-6361645f7063,1.0*%
%TF.SameCoordinates,Original*%
%TF.FileFunction,Drillmap*%
%TF.FilePolarity,Positive*%
%FSLAX45Y45*%
G04 Gerber Fmt 4.5, Leading zero omitted, Abs format (unit mm)*
G04 Created by KiCad (PCBNEW 8.0.6) date 2024-11-01 11:01:27*
%MOMM*%
%LPD*%
G01*
G04 APERTURE LIST*
%ADD10C,0.150000*%
%ADD11C,0.200000*%
%ADD12C,0.100000*%
%ADD13C,0.110000*%
%ADD14C,0.220000*%
G04 APERTURE END LIST*
D10*
X18762000Y-5380500D02*
X16733040Y-5381502D01*
X9451545Y-6202085D02*
X7741920Y-6197600D01*
X17576800Y-13365480D02*
X18821400Y-11201400D01*
X16047720Y-12598400D02*
X17428867Y-13395960D01*
X12537440Y-12124081D02*
X14315440Y-12125960D01*
X16636050Y-5305500D02*
G75*
G02*
X16685040Y-5345502I0J-50000D01*
G01*
X16733040Y-5381502D02*
G75*
G02*
X16685039Y-5345502I0J50002D01*
G01*
X16636050Y-5305500D02*
X14929320Y-5306902D01*
X9501545Y-6152085D02*
G75*
G02*
X9451545Y-6202085I-50005J5D01*
G01*
X9501712Y-5050682D02*
G75*
G02*
X9551712Y-5000682I49998J2D01*
G01*
X13031000Y-4403620D02*
X11353000Y-4404955D01*
X13081000Y-5005340D02*
X13081000Y-4453620D01*
X14829320Y-5056902D02*
X13131000Y-5055340D01*
X14879320Y-5256902D02*
X14879320Y-5106902D01*
X9501712Y-5050682D02*
X9501545Y-6152085D01*
X11254712Y-5000682D02*
X9551712Y-5000682D01*
X11303000Y-4454955D02*
X11304712Y-4950682D01*
X11304712Y-4950682D02*
G75*
G02*
X11254712Y-5000682I-50002J2D01*
G01*
X11303000Y-4454955D02*
G75*
G02*
X11353000Y-4404960I50000J-5D01*
G01*
X13031000Y-4403620D02*
G75*
G02*
X13081000Y-4453620I0J-50000D01*
G01*
X13131000Y-5055340D02*
G75*
G02*
X13081000Y-5005340I0J50000D01*
G01*
X14829320Y-5056902D02*
G75*
G02*
X14879318Y-5106902I0J-49998D01*
G01*
X14929320Y-5306902D02*
G75*
G02*
X14879318Y-5256902I0J50002D01*
G01*
X18762000Y-5380500D02*
G75*
G02*
X18812000Y-5430500I0J-50000D01*
G01*
X9545320Y-10086265D02*
X11262360Y-10086265D01*
X9479280Y-11074400D02*
X9484360Y-10147225D01*
X11262360Y-10086265D02*
G75*
G02*
X11329486Y-10129488I0J-73735D01*
G01*
X12537440Y-12124081D02*
G75*
G02*
X12501880Y-12110720I0J54001D01*
G01*
X17576800Y-13365480D02*
G75*
G02*
X17428867Y-13395959I-103930J130190D01*
G01*
X7701280Y-9377680D02*
X7701280Y-11074400D01*
X7696200Y-6243320D02*
X7701280Y-7670800D01*
X18812000Y-5430500D02*
X18821400Y-11201400D01*
X9479280Y-11211560D02*
X9479280Y-11074400D01*
X9484360Y-10147225D02*
G75*
G02*
X9545320Y-10086270I60960J-5D01*
G01*
X9479280Y-11211560D02*
G75*
G02*
X9413240Y-11277600I-66040J0D01*
G01*
X7701280Y-11211560D02*
X7701280Y-11074400D01*
X7701280Y-7670800D02*
X7701280Y-9377680D01*
X11329486Y-10129488D02*
X12501880Y-12110720D01*
X7696200Y-6243320D02*
G75*
G02*
X7741920Y-6197600I45720J0D01*
G01*
X7767320Y-11277600D02*
X9413240Y-11277600D01*
X14315440Y-12125960D02*
X16047720Y-12598400D01*
X7767320Y-11277600D02*
G75*
G02*
X7701280Y-11211560I0J66040D01*
G01*
D11*
D12*
X17697160Y-6265720D02*
X17727640Y-6296200D01*
X17727640Y-6265720D02*
X17697160Y-6296200D01*
X17917200Y-6265720D02*
X17947680Y-6296200D01*
X17947680Y-6265720D02*
X17917200Y-6296200D01*
X7792400Y-6273800D02*
G75*
G02*
X7752400Y-6273800I-20000J0D01*
G01*
X7752400Y-6273800D02*
G75*
G02*
X7792400Y-6273800I20000J0D01*
G01*
X8283500Y-7635000D02*
G75*
G02*
X8243500Y-7635000I-20000J0D01*
G01*
X8243500Y-7635000D02*
G75*
G02*
X8283500Y-7635000I20000J0D01*
G01*
X8283500Y-9335000D02*
G75*
G02*
X8243500Y-9335000I-20000J0D01*
G01*
X8243500Y-9335000D02*
G75*
G02*
X8283500Y-9335000I20000J0D01*
G01*
X8283500Y-11035000D02*
G75*
G02*
X8243500Y-11035000I-20000J0D01*
G01*
X8243500Y-11035000D02*
G75*
G02*
X8283500Y-11035000I20000J0D01*
G01*
X8986200Y-8445500D02*
G75*
G02*
X8946200Y-8445500I-20000J0D01*
G01*
X8946200Y-8445500D02*
G75*
G02*
X8986200Y-8445500I20000J0D01*
G01*
X9240200Y-11099800D02*
G75*
G02*
X9200200Y-11099800I-20000J0D01*
G01*
X9200200Y-11099800D02*
G75*
G02*
X9240200Y-11099800I20000J0D01*
G01*
X9245280Y-9387840D02*
G75*
G02*
X9205280Y-9387840I-20000J0D01*
G01*
X9205280Y-9387840D02*
G75*
G02*
X9245280Y-9387840I20000J0D01*
G01*
X9407840Y-9860280D02*
G75*
G02*
X9367840Y-9860280I-20000J0D01*
G01*
X9367840Y-9860280D02*
G75*
G02*
X9407840Y-9860280I20000J0D01*
G01*
X9438500Y-7415000D02*
G75*
G02*
X9398500Y-7415000I-20000J0D01*
G01*
X9398500Y-7415000D02*
G75*
G02*
X9438500Y-7415000I20000J0D01*
G01*
X9438500Y-9115000D02*
G75*
G02*
X9398500Y-9115000I-20000J0D01*
G01*
X9398500Y-9115000D02*
G75*
G02*
X9438500Y-9115000I20000J0D01*
G01*
X9438500Y-10815000D02*
G75*
G02*
X9398500Y-10815000I-20000J0D01*
G01*
X9398500Y-10815000D02*
G75*
G02*
X9438500Y-10815000I20000J0D01*
G01*
X9478960Y-9377680D02*
G75*
G02*
X9438960Y-9377680I-20000J0D01*
G01*
X9438960Y-9377680D02*
G75*
G02*
X9478960Y-9377680I20000J0D01*
G01*
X10083500Y-6435000D02*
G75*
G02*
X10043500Y-6435000I-20000J0D01*
G01*
X10043500Y-6435000D02*
G75*
G02*
X10083500Y-6435000I20000J0D01*
G01*
X10083500Y-8135000D02*
G75*
G02*
X10043500Y-8135000I-20000J0D01*
G01*
X10043500Y-8135000D02*
G75*
G02*
X10083500Y-8135000I20000J0D01*
G01*
X10083500Y-9835000D02*
G75*
G02*
X10043500Y-9835000I-20000J0D01*
G01*
X10043500Y-9835000D02*
G75*
G02*
X10083500Y-9835000I20000J0D01*
G01*
X10713400Y-9245600D02*
G75*
G02*
X10673400Y-9245600I-20000J0D01*
G01*
X10673400Y-9245600D02*
G75*
G02*
X10713400Y-9245600I20000J0D01*
G01*
X11135040Y-5237480D02*
G75*
G02*
X11095040Y-5237480I-20000J0D01*
G01*
X11095040Y-5237480D02*
G75*
G02*
X11135040Y-5237480I20000J0D01*
G01*
X11150280Y-8661400D02*
G75*
G02*
X11110280Y-8661400I-20000J0D01*
G01*
X11110280Y-8661400D02*
G75*
G02*
X11150280Y-8661400I20000J0D01*
G01*
X11196000Y-7020560D02*
G75*
G02*
X11156000Y-7020560I-20000J0D01*
G01*
X11156000Y-7020560D02*
G75*
G02*
X11196000Y-7020560I20000J0D01*
G01*
X11238500Y-6215000D02*
G75*
G02*
X11198500Y-6215000I-20000J0D01*
G01*
X11198500Y-6215000D02*
G75*
G02*
X11238500Y-6215000I20000J0D01*
G01*
X11238500Y-7915000D02*
G75*
G02*
X11198500Y-7915000I-20000J0D01*
G01*
X11198500Y-7915000D02*
G75*
G02*
X11238500Y-7915000I20000J0D01*
G01*
X11238500Y-9615000D02*
G75*
G02*
X11198500Y-9615000I-20000J0D01*
G01*
X11198500Y-9615000D02*
G75*
G02*
X11238500Y-9615000I20000J0D01*
G01*
X11272200Y-9982200D02*
G75*
G02*
X11232200Y-9982200I-20000J0D01*
G01*
X11232200Y-9982200D02*
G75*
G02*
X11272200Y-9982200I20000J0D01*
G01*
X11831000Y-6883400D02*
G75*
G02*
X11791000Y-6883400I-20000J0D01*
G01*
X11791000Y-6883400D02*
G75*
G02*
X11831000Y-6883400I20000J0D01*
G01*
X11868000Y-9633450D02*
G75*
G02*
X11828000Y-9633450I-20000J0D01*
G01*
X11828000Y-9633450D02*
G75*
G02*
X11868000Y-9633450I20000J0D01*
G01*
X11883500Y-5835000D02*
G75*
G02*
X11843500Y-5835000I-20000J0D01*
G01*
X11843500Y-5835000D02*
G75*
G02*
X11883500Y-5835000I20000J0D01*
G01*
X11883500Y-7535000D02*
G75*
G02*
X11843500Y-7535000I-20000J0D01*
G01*
X11843500Y-7535000D02*
G75*
G02*
X11883500Y-7535000I20000J0D01*
G01*
X11883500Y-9235000D02*
G75*
G02*
X11843500Y-9235000I-20000J0D01*
G01*
X11843500Y-9235000D02*
G75*
G02*
X11883500Y-9235000I20000J0D01*
G01*
X12196760Y-6543040D02*
G75*
G02*
X12156760Y-6543040I-20000J0D01*
G01*
X12156760Y-6543040D02*
G75*
G02*
X12196760Y-6543040I20000J0D01*
G01*
X12542200Y-8610600D02*
G75*
G02*
X12502200Y-8610600I-20000J0D01*
G01*
X12502200Y-8610600D02*
G75*
G02*
X12542200Y-8610600I20000J0D01*
G01*
X12593500Y-10924000D02*
G75*
G02*
X12553500Y-10924000I-20000J0D01*
G01*
X12553500Y-10924000D02*
G75*
G02*
X12593500Y-10924000I20000J0D01*
G01*
X12928280Y-8087360D02*
G75*
G02*
X12888280Y-8087360I-20000J0D01*
G01*
X12888280Y-8087360D02*
G75*
G02*
X12928280Y-8087360I20000J0D01*
G01*
X12958760Y-4632960D02*
G75*
G02*
X12918760Y-4632960I-20000J0D01*
G01*
X12918760Y-4632960D02*
G75*
G02*
X12958760Y-4632960I20000J0D01*
G01*
X12968920Y-6365240D02*
G75*
G02*
X12928920Y-6365240I-20000J0D01*
G01*
X12928920Y-6365240D02*
G75*
G02*
X12968920Y-6365240I20000J0D01*
G01*
X13038500Y-5615000D02*
G75*
G02*
X12998500Y-5615000I-20000J0D01*
G01*
X12998500Y-5615000D02*
G75*
G02*
X13038500Y-5615000I20000J0D01*
G01*
X13038500Y-7315000D02*
G75*
G02*
X12998500Y-7315000I-20000J0D01*
G01*
X12998500Y-7315000D02*
G75*
G02*
X13038500Y-7315000I20000J0D01*
G01*
X13038500Y-9015000D02*
G75*
G02*
X12998500Y-9015000I-20000J0D01*
G01*
X12998500Y-9015000D02*
G75*
G02*
X13038500Y-9015000I20000J0D01*
G01*
X13177200Y-6502400D02*
G75*
G02*
X13137200Y-6502400I-20000J0D01*
G01*
X13137200Y-6502400D02*
G75*
G02*
X13177200Y-6502400I20000J0D01*
G01*
X13380400Y-9956800D02*
G75*
G02*
X13340400Y-9956800I-20000J0D01*
G01*
X13340400Y-9956800D02*
G75*
G02*
X13380400Y-9956800I20000J0D01*
G01*
X13683500Y-6497000D02*
G75*
G02*
X13643500Y-6497000I-20000J0D01*
G01*
X13643500Y-6497000D02*
G75*
G02*
X13683500Y-6497000I20000J0D01*
G01*
X13683500Y-8197000D02*
G75*
G02*
X13643500Y-8197000I-20000J0D01*
G01*
X13643500Y-8197000D02*
G75*
G02*
X13683500Y-8197000I20000J0D01*
G01*
X13683500Y-9897500D02*
G75*
G02*
X13643500Y-9897500I-20000J0D01*
G01*
X13643500Y-9897500D02*
G75*
G02*
X13683500Y-9897500I20000J0D01*
G01*
X13748500Y-10704000D02*
G75*
G02*
X13708500Y-10704000I-20000J0D01*
G01*
X13708500Y-10704000D02*
G75*
G02*
X13748500Y-10704000I20000J0D01*
G01*
X13873160Y-7274560D02*
G75*
G02*
X13833160Y-7274560I-20000J0D01*
G01*
X13833160Y-7274560D02*
G75*
G02*
X13873160Y-7274560I20000J0D01*
G01*
X14723753Y-10981605D02*
G75*
G02*
X14683753Y-10981605I-20000J0D01*
G01*
X14683753Y-10981605D02*
G75*
G02*
X14723753Y-10981605I20000J0D01*
G01*
X14741840Y-10099040D02*
G75*
G02*
X14701840Y-10099040I-20000J0D01*
G01*
X14701840Y-10099040D02*
G75*
G02*
X14741840Y-10099040I20000J0D01*
G01*
X14802800Y-5156200D02*
G75*
G02*
X14762800Y-5156200I-20000J0D01*
G01*
X14762800Y-5156200D02*
G75*
G02*
X14802800Y-5156200I20000J0D01*
G01*
X14818040Y-10774680D02*
G75*
G02*
X14778040Y-10774680I-20000J0D01*
G01*
X14778040Y-10774680D02*
G75*
G02*
X14818040Y-10774680I20000J0D01*
G01*
X14823120Y-5344160D02*
G75*
G02*
X14783120Y-5344160I-20000J0D01*
G01*
X14783120Y-5344160D02*
G75*
G02*
X14823120Y-5344160I20000J0D01*
G01*
X14833280Y-8707120D02*
G75*
G02*
X14793280Y-8707120I-20000J0D01*
G01*
X14793280Y-8707120D02*
G75*
G02*
X14833280Y-8707120I20000J0D01*
G01*
X14838500Y-6277000D02*
G75*
G02*
X14798500Y-6277000I-20000J0D01*
G01*
X14798500Y-6277000D02*
G75*
G02*
X14838500Y-6277000I20000J0D01*
G01*
X14838500Y-7977000D02*
G75*
G02*
X14798500Y-7977000I-20000J0D01*
G01*
X14798500Y-7977000D02*
G75*
G02*
X14838500Y-7977000I20000J0D01*
G01*
X14838500Y-9677500D02*
G75*
G02*
X14798500Y-9677500I-20000J0D01*
G01*
X14798500Y-9677500D02*
G75*
G02*
X14838500Y-9677500I20000J0D01*
G01*
X14955200Y-10185400D02*
G75*
G02*
X14915200Y-10185400I-20000J0D01*
G01*
X14915200Y-10185400D02*
G75*
G02*
X14955200Y-10185400I20000J0D01*
G01*
X15483500Y-6735000D02*
G75*
G02*
X15443500Y-6735000I-20000J0D01*
G01*
X15443500Y-6735000D02*
G75*
G02*
X15483500Y-6735000I20000J0D01*
G01*
X15483500Y-8435000D02*
G75*
G02*
X15443500Y-8435000I-20000J0D01*
G01*
X15443500Y-8435000D02*
G75*
G02*
X15483500Y-8435000I20000J0D01*
G01*
X15483500Y-10135000D02*
G75*
G02*
X15443500Y-10135000I-20000J0D01*
G01*
X15443500Y-10135000D02*
G75*
G02*
X15483500Y-10135000I20000J0D01*
G01*
X15691800Y-7594600D02*
G75*
G02*
X15651800Y-7594600I-20000J0D01*
G01*
X15651800Y-7594600D02*
G75*
G02*
X15691800Y-7594600I20000J0D01*
G01*
X15745140Y-11529060D02*
G75*
G02*
X15705140Y-11529060I-20000J0D01*
G01*
X15705140Y-11529060D02*
G75*
G02*
X15745140Y-11529060I20000J0D01*
G01*
X15896338Y-11068037D02*
G75*
G02*
X15856338Y-11068037I-20000J0D01*
G01*
X15856338Y-11068037D02*
G75*
G02*
X15896338Y-11068037I20000J0D01*
G01*
X16123600Y-7848600D02*
G75*
G02*
X16083600Y-7848600I-20000J0D01*
G01*
X16083600Y-7848600D02*
G75*
G02*
X16123600Y-7848600I20000J0D01*
G01*
X16530000Y-7848600D02*
G75*
G02*
X16490000Y-7848600I-20000J0D01*
G01*
X16490000Y-7848600D02*
G75*
G02*
X16530000Y-7848600I20000J0D01*
G01*
X16611280Y-8940800D02*
G75*
G02*
X16571280Y-8940800I-20000J0D01*
G01*
X16571280Y-8940800D02*
G75*
G02*
X16611280Y-8940800I20000J0D01*
G01*
X16631600Y-5552440D02*
G75*
G02*
X16591600Y-5552440I-20000J0D01*
G01*
X16591600Y-5552440D02*
G75*
G02*
X16631600Y-5552440I20000J0D01*
G01*
X16631600Y-7188200D02*
G75*
G02*
X16591600Y-7188200I-20000J0D01*
G01*
X16591600Y-7188200D02*
G75*
G02*
X16631600Y-7188200I20000J0D01*
G01*
X16631600Y-7386320D02*
G75*
G02*
X16591600Y-7386320I-20000J0D01*
G01*
X16591600Y-7386320D02*
G75*
G02*
X16631600Y-7386320I20000J0D01*
G01*
X16638500Y-6515000D02*
G75*
G02*
X16598500Y-6515000I-20000J0D01*
G01*
X16598500Y-6515000D02*
G75*
G02*
X16638500Y-6515000I20000J0D01*
G01*
X16638500Y-8215000D02*
G75*
G02*
X16598500Y-8215000I-20000J0D01*
G01*
X16598500Y-8215000D02*
G75*
G02*
X16638500Y-8215000I20000J0D01*
G01*
X16638500Y-9915000D02*
G75*
G02*
X16598500Y-9915000I-20000J0D01*
G01*
X16598500Y-9915000D02*
G75*
G02*
X16638500Y-9915000I20000J0D01*
G01*
X16703000Y-10449560D02*
G75*
G02*
X16663000Y-10449560I-20000J0D01*
G01*
X16663000Y-10449560D02*
G75*
G02*
X16703000Y-10449560I20000J0D01*
G01*
X16743360Y-6781800D02*
G75*
G02*
X16703360Y-6781800I-20000J0D01*
G01*
X16703360Y-6781800D02*
G75*
G02*
X16743360Y-6781800I20000J0D01*
G01*
X16784000Y-5892800D02*
G75*
G02*
X16744000Y-5892800I-20000J0D01*
G01*
X16744000Y-5892800D02*
G75*
G02*
X16784000Y-5892800I20000J0D01*
G01*
X16834800Y-7696200D02*
G75*
G02*
X16794800Y-7696200I-20000J0D01*
G01*
X16794800Y-7696200D02*
G75*
G02*
X16834800Y-7696200I20000J0D01*
G01*
X17134465Y-11297877D02*
G75*
G02*
X17094465Y-11297877I-20000J0D01*
G01*
X17094465Y-11297877D02*
G75*
G02*
X17134465Y-11297877I20000J0D01*
G01*
X17241200Y-9271000D02*
G75*
G02*
X17201200Y-9271000I-20000J0D01*
G01*
X17201200Y-9271000D02*
G75*
G02*
X17241200Y-9271000I20000J0D01*
G01*
X17444400Y-6400800D02*
G75*
G02*
X17404400Y-6400800I-20000J0D01*
G01*
X17404400Y-6400800D02*
G75*
G02*
X17444400Y-6400800I20000J0D01*
G01*
X17444400Y-6604000D02*
G75*
G02*
X17404400Y-6604000I-20000J0D01*
G01*
X17404400Y-6604000D02*
G75*
G02*
X17444400Y-6604000I20000J0D01*
G01*
X17444400Y-6781800D02*
G75*
G02*
X17404400Y-6781800I-20000J0D01*
G01*
X17404400Y-6781800D02*
G75*
G02*
X17444400Y-6781800I20000J0D01*
G01*
X17444400Y-7035800D02*
G75*
G02*
X17404400Y-7035800I-20000J0D01*
G01*
X17404400Y-7035800D02*
G75*
G02*
X17444400Y-7035800I20000J0D01*
G01*
X17444400Y-7289800D02*
G75*
G02*
X17404400Y-7289800I-20000J0D01*
G01*
X17404400Y-7289800D02*
G75*
G02*
X17444400Y-7289800I20000J0D01*
G01*
X17444400Y-7416800D02*
G75*
G02*
X17404400Y-7416800I-20000J0D01*
G01*
X17404400Y-7416800D02*
G75*
G02*
X17444400Y-7416800I20000J0D01*
G01*
X17444400Y-7543800D02*
G75*
G02*
X17404400Y-7543800I-20000J0D01*
G01*
X17404400Y-7543800D02*
G75*
G02*
X17444400Y-7543800I20000J0D01*
G01*
X17444400Y-7670800D02*
G75*
G02*
X17404400Y-7670800I-20000J0D01*
G01*
X17404400Y-7670800D02*
G75*
G02*
X17444400Y-7670800I20000J0D01*
G01*
X17444400Y-7797800D02*
G75*
G02*
X17404400Y-7797800I-20000J0D01*
G01*
X17404400Y-7797800D02*
G75*
G02*
X17444400Y-7797800I20000J0D01*
G01*
X17444400Y-8051800D02*
G75*
G02*
X17404400Y-8051800I-20000J0D01*
G01*
X17404400Y-8051800D02*
G75*
G02*
X17444400Y-8051800I20000J0D01*
G01*
X17444400Y-8178800D02*
G75*
G02*
X17404400Y-8178800I-20000J0D01*
G01*
X17404400Y-8178800D02*
G75*
G02*
X17444400Y-8178800I20000J0D01*
G01*
X17444400Y-8305800D02*
G75*
G02*
X17404400Y-8305800I-20000J0D01*
G01*
X17404400Y-8305800D02*
G75*
G02*
X17444400Y-8305800I20000J0D01*
G01*
X17444400Y-8559800D02*
G75*
G02*
X17404400Y-8559800I-20000J0D01*
G01*
X17404400Y-8559800D02*
G75*
G02*
X17444400Y-8559800I20000J0D01*
G01*
X17444400Y-9220200D02*
G75*
G02*
X17404400Y-9220200I-20000J0D01*
G01*
X17404400Y-9220200D02*
G75*
G02*
X17444400Y-9220200I20000J0D01*
G01*
X17506630Y-11479530D02*
G75*
G02*
X17466630Y-11479530I-20000J0D01*
G01*
X17466630Y-11479530D02*
G75*
G02*
X17506630Y-11479530I20000J0D01*
G01*
X17520600Y-6502400D02*
G75*
G02*
X17480600Y-6502400I-20000J0D01*
G01*
X17480600Y-6502400D02*
G75*
G02*
X17520600Y-6502400I20000J0D01*
G01*
X17520600Y-6908800D02*
G75*
G02*
X17480600Y-6908800I-20000J0D01*
G01*
X17480600Y-6908800D02*
G75*
G02*
X17520600Y-6908800I20000J0D01*
G01*
X17571400Y-5842000D02*
G75*
G02*
X17531400Y-5842000I-20000J0D01*
G01*
X17531400Y-5842000D02*
G75*
G02*
X17571400Y-5842000I20000J0D01*
G01*
X17574991Y-10974864D02*
G75*
G02*
X17534991Y-10974864I-20000J0D01*
G01*
X17534991Y-10974864D02*
G75*
G02*
X17574991Y-10974864I20000J0D01*
G01*
X17593050Y-7162800D02*
G75*
G02*
X17553050Y-7162800I-20000J0D01*
G01*
X17553050Y-7162800D02*
G75*
G02*
X17593050Y-7162800I20000J0D01*
G01*
X17749200Y-9220200D02*
G75*
G02*
X17709200Y-9220200I-20000J0D01*
G01*
X17709200Y-9220200D02*
G75*
G02*
X17749200Y-9220200I20000J0D01*
G01*
X17825400Y-8810050D02*
G75*
G02*
X17785400Y-8810050I-20000J0D01*
G01*
X17785400Y-8810050D02*
G75*
G02*
X17825400Y-8810050I20000J0D01*
G01*
X17876200Y-9728200D02*
G75*
G02*
X17836200Y-9728200I-20000J0D01*
G01*
X17836200Y-9728200D02*
G75*
G02*
X17876200Y-9728200I20000J0D01*
G01*
X17876200Y-10083800D02*
G75*
G02*
X17836200Y-10083800I-20000J0D01*
G01*
X17836200Y-10083800D02*
G75*
G02*
X17876200Y-10083800I20000J0D01*
G01*
X18181000Y-8737600D02*
G75*
G02*
X18141000Y-8737600I-20000J0D01*
G01*
X18141000Y-8737600D02*
G75*
G02*
X18181000Y-8737600I20000J0D01*
G01*
X18206303Y-8636762D02*
G75*
G02*
X18166303Y-8636762I-20000J0D01*
G01*
X18166303Y-8636762D02*
G75*
G02*
X18206303Y-8636762I20000J0D01*
G01*
X18206400Y-5715000D02*
G75*
G02*
X18166400Y-5715000I-20000J0D01*
G01*
X18166400Y-5715000D02*
G75*
G02*
X18206400Y-5715000I20000J0D01*
G01*
X18206400Y-5943600D02*
G75*
G02*
X18166400Y-5943600I-20000J0D01*
G01*
X18166400Y-5943600D02*
G75*
G02*
X18206400Y-5943600I20000J0D01*
G01*
X18206400Y-6096000D02*
G75*
G02*
X18166400Y-6096000I-20000J0D01*
G01*
X18166400Y-6096000D02*
G75*
G02*
X18206400Y-6096000I20000J0D01*
G01*
X18206400Y-6400800D02*
G75*
G02*
X18166400Y-6400800I-20000J0D01*
G01*
X18166400Y-6400800D02*
G75*
G02*
X18206400Y-6400800I20000J0D01*
G01*
X18206400Y-6527800D02*
G75*
G02*
X18166400Y-6527800I-20000J0D01*
G01*
X18166400Y-6527800D02*
G75*
G02*
X18206400Y-6527800I20000J0D01*
G01*
X18206400Y-6908800D02*
G75*
G02*
X18166400Y-6908800I-20000J0D01*
G01*
X18166400Y-6908800D02*
G75*
G02*
X18206400Y-6908800I20000J0D01*
G01*
X18206400Y-7162800D02*
G75*
G02*
X18166400Y-7162800I-20000J0D01*
G01*
X18166400Y-7162800D02*
G75*
G02*
X18206400Y-7162800I20000J0D01*
G01*
X18206400Y-7416800D02*
G75*
G02*
X18166400Y-7416800I-20000J0D01*
G01*
X18166400Y-7416800D02*
G75*
G02*
X18206400Y-7416800I20000J0D01*
G01*
X18206400Y-7670800D02*
G75*
G02*
X18166400Y-7670800I-20000J0D01*
G01*
X18166400Y-7670800D02*
G75*
G02*
X18206400Y-7670800I20000J0D01*
G01*
X18206400Y-7924800D02*
G75*
G02*
X18166400Y-7924800I-20000J0D01*
G01*
X18166400Y-7924800D02*
G75*
G02*
X18206400Y-7924800I20000J0D01*
G01*
X18206400Y-8178800D02*
G75*
G02*
X18166400Y-8178800I-20000J0D01*
G01*
X18166400Y-8178800D02*
G75*
G02*
X18206400Y-8178800I20000J0D01*
G01*
X18206400Y-8432800D02*
G75*
G02*
X18166400Y-8432800I-20000J0D01*
G01*
X18166400Y-8432800D02*
G75*
G02*
X18206400Y-8432800I20000J0D01*
G01*
X18473100Y-9690100D02*
G75*
G02*
X18433100Y-9690100I-20000J0D01*
G01*
X18433100Y-9690100D02*
G75*
G02*
X18473100Y-9690100I20000J0D01*
G01*
X18485800Y-9956800D02*
G75*
G02*
X18445800Y-9956800I-20000J0D01*
G01*
X18445800Y-9956800D02*
G75*
G02*
X18485800Y-9956800I20000J0D01*
G01*
X18485800Y-10134600D02*
G75*
G02*
X18445800Y-10134600I-20000J0D01*
G01*
X18445800Y-10134600D02*
G75*
G02*
X18485800Y-10134600I20000J0D01*
G01*
X18689000Y-5969000D02*
G75*
G02*
X18649000Y-5969000I-20000J0D01*
G01*
X18649000Y-5969000D02*
G75*
G02*
X18689000Y-5969000I20000J0D01*
G01*
X8232680Y-8072920D02*
X8232680Y-8172920D01*
X8182680Y-8122920D02*
X8282680Y-8122920D01*
X8232680Y-9774720D02*
X8232680Y-9874720D01*
X8182680Y-9824720D02*
X8282680Y-9824720D01*
X8242840Y-6381280D02*
X8242840Y-6481280D01*
X8192840Y-6431280D02*
X8292840Y-6431280D01*
X8947880Y-8072920D02*
X8947880Y-8172920D01*
X8897880Y-8122920D02*
X8997880Y-8122920D01*
X8947880Y-9774720D02*
X8947880Y-9874720D01*
X8897880Y-9824720D02*
X8997880Y-9824720D01*
X8958040Y-6381280D02*
X8958040Y-6481280D01*
X8908040Y-6431280D02*
X9008040Y-6431280D01*
X10031000Y-6884200D02*
X10031000Y-6984200D01*
X9981000Y-6934200D02*
X10081000Y-6934200D01*
X10041160Y-8580920D02*
X10041160Y-8680920D01*
X9991160Y-8630920D02*
X10091160Y-8630920D01*
X10051320Y-5177320D02*
X10051320Y-5277320D01*
X10001320Y-5227320D02*
X10101320Y-5227320D01*
X10746200Y-6884200D02*
X10746200Y-6984200D01*
X10696200Y-6934200D02*
X10796200Y-6934200D01*
X10756360Y-8580920D02*
X10756360Y-8680920D01*
X10706360Y-8630920D02*
X10806360Y-8630920D01*
X10766520Y-5177320D02*
X10766520Y-5277320D01*
X10716520Y-5227320D02*
X10816520Y-5227320D01*
X11839480Y-6284760D02*
X11839480Y-6384760D01*
X11789480Y-6334760D02*
X11889480Y-6334760D01*
X11839480Y-7981480D02*
X11839480Y-8081480D01*
X11789480Y-8031480D02*
X11889480Y-8031480D01*
X11849640Y-4572800D02*
X11849640Y-4672800D01*
X11799640Y-4622800D02*
X11899640Y-4622800D01*
X12554680Y-6284760D02*
X12554680Y-6384760D01*
X12504680Y-6334760D02*
X12604680Y-6334760D01*
X12554680Y-7981480D02*
X12554680Y-8081480D01*
X12504680Y-8031480D02*
X12604680Y-8031480D01*
X12564840Y-4572800D02*
X12564840Y-4672800D01*
X12514840Y-4622800D02*
X12614840Y-4622800D01*
X13038360Y-11857520D02*
X13038360Y-11957520D01*
X12988360Y-11907520D02*
X13088360Y-11907520D01*
X13637800Y-6940080D02*
X13637800Y-7040080D01*
X13587800Y-6990080D02*
X13687800Y-6990080D01*
X13642880Y-5278920D02*
X13642880Y-5378920D01*
X13592880Y-5328920D02*
X13692880Y-5328920D01*
X13647960Y-8646960D02*
X13647960Y-8746960D01*
X13597960Y-8696960D02*
X13697960Y-8696960D01*
X13753560Y-11857520D02*
X13753560Y-11957520D01*
X13703560Y-11907520D02*
X13803560Y-11907520D01*
X14353000Y-6940080D02*
X14353000Y-7040080D01*
X14303000Y-6990080D02*
X14403000Y-6990080D01*
X14358080Y-5278920D02*
X14358080Y-5378920D01*
X14308080Y-5328920D02*
X14408080Y-5328920D01*
X14363160Y-8646960D02*
X14363160Y-8746960D01*
X14313160Y-8696960D02*
X14413160Y-8696960D01*
X14906013Y-12003506D02*
X14906013Y-12103506D01*
X14856013Y-12053506D02*
X14956013Y-12053506D01*
X15441200Y-5492280D02*
X15441200Y-5592280D01*
X15391200Y-5542280D02*
X15491200Y-5542280D01*
X15451360Y-8885720D02*
X15451360Y-8985720D01*
X15401360Y-8935720D02*
X15501360Y-8935720D01*
X15471680Y-7199160D02*
X15471680Y-7299160D01*
X15421680Y-7249160D02*
X15521680Y-7249160D01*
X15596843Y-12188613D02*
X15596843Y-12288613D01*
X15546843Y-12238613D02*
X15646843Y-12238613D01*
X16156400Y-5492280D02*
X16156400Y-5592280D01*
X16106400Y-5542280D02*
X16206400Y-5542280D01*
X16166560Y-8885720D02*
X16166560Y-8985720D01*
X16116560Y-8935720D02*
X16216560Y-8935720D01*
X16186880Y-7199160D02*
X16186880Y-7299160D01*
X16136880Y-7249160D02*
X16236880Y-7249160D01*
X17817017Y-12449234D02*
X17817017Y-12549234D01*
X17767017Y-12499234D02*
X17867017Y-12499234D01*
X18174617Y-11829853D02*
X18174617Y-11929853D01*
X18124617Y-11879853D02*
X18224617Y-11879853D01*
D13*
X17082291Y-5880891D02*
X17082291Y-5803109D01*
X17004509Y-5803109D01*
X17004509Y-5880891D01*
X17082291Y-5880891D01*
X17082291Y-6134891D02*
X17082291Y-6057109D01*
X17004509Y-6057109D01*
X17004509Y-6134891D01*
X17082291Y-6134891D01*
X17082291Y-6388891D02*
X17082291Y-6311109D01*
X17004509Y-6311109D01*
X17004509Y-6388891D01*
X17082291Y-6388891D01*
X17082291Y-6642891D02*
X17082291Y-6565109D01*
X17004509Y-6565109D01*
X17004509Y-6642891D01*
X17082291Y-6642891D01*
X17082291Y-6896891D02*
X17082291Y-6819109D01*
X17004509Y-6819109D01*
X17004509Y-6896891D01*
X17082291Y-6896891D01*
X17082291Y-7150891D02*
X17082291Y-7073109D01*
X17004509Y-7073109D01*
X17004509Y-7150891D01*
X17082291Y-7150891D01*
X17082291Y-7404891D02*
X17082291Y-7327109D01*
X17004509Y-7327109D01*
X17004509Y-7404891D01*
X17082291Y-7404891D01*
X17082291Y-7658891D02*
X17082291Y-7581109D01*
X17004509Y-7581109D01*
X17004509Y-7658891D01*
X17082291Y-7658891D01*
X17082291Y-7912891D02*
X17082291Y-7835109D01*
X17004509Y-7835109D01*
X17004509Y-7912891D01*
X17082291Y-7912891D01*
X17082291Y-8166891D02*
X17082291Y-8089109D01*
X17004509Y-8089109D01*
X17004509Y-8166891D01*
X17082291Y-8166891D01*
X17082291Y-8420891D02*
X17082291Y-8343109D01*
X17004509Y-8343109D01*
X17004509Y-8420891D01*
X17082291Y-8420891D01*
X17082291Y-8674891D02*
X17082291Y-8597109D01*
X17004509Y-8597109D01*
X17004509Y-8674891D01*
X17082291Y-8674891D01*
X17336291Y-9132091D02*
X17336291Y-9054309D01*
X17258509Y-9054309D01*
X17258509Y-9132091D01*
X17336291Y-9132091D01*
X17590291Y-9132091D02*
X17590291Y-9054309D01*
X17512509Y-9054309D01*
X17512509Y-9132091D01*
X17590291Y-9132091D01*
X17844291Y-9132091D02*
X17844291Y-9054309D01*
X17766509Y-9054309D01*
X17766509Y-9132091D01*
X17844291Y-9132091D01*
X18098291Y-9132091D02*
X18098291Y-9054309D01*
X18020509Y-9054309D01*
X18020509Y-9132091D01*
X18098291Y-9132091D01*
X18352291Y-9132091D02*
X18352291Y-9054309D01*
X18274509Y-9054309D01*
X18274509Y-9132091D01*
X18352291Y-9132091D01*
X18606291Y-5880891D02*
X18606291Y-5803109D01*
X18528509Y-5803109D01*
X18528509Y-5880891D01*
X18606291Y-5880891D01*
X18606291Y-6134891D02*
X18606291Y-6057109D01*
X18528509Y-6057109D01*
X18528509Y-6134891D01*
X18606291Y-6134891D01*
X18606291Y-6388891D02*
X18606291Y-6311109D01*
X18528509Y-6311109D01*
X18528509Y-6388891D01*
X18606291Y-6388891D01*
X18606291Y-6642891D02*
X18606291Y-6565109D01*
X18528509Y-6565109D01*
X18528509Y-6642891D01*
X18606291Y-6642891D01*
X18606291Y-6896891D02*
X18606291Y-6819109D01*
X18528509Y-6819109D01*
X18528509Y-6896891D01*
X18606291Y-6896891D01*
X18606291Y-7150891D02*
X18606291Y-7073109D01*
X18528509Y-7073109D01*
X18528509Y-7150891D01*
X18606291Y-7150891D01*
X18606291Y-7404891D02*
X18606291Y-7327109D01*
X18528509Y-7327109D01*
X18528509Y-7404891D01*
X18606291Y-7404891D01*
X18606291Y-7658891D02*
X18606291Y-7581109D01*
X18528509Y-7581109D01*
X18528509Y-7658891D01*
X18606291Y-7658891D01*
X18606291Y-7912891D02*
X18606291Y-7835109D01*
X18528509Y-7835109D01*
X18528509Y-7912891D01*
X18606291Y-7912891D01*
X18606291Y-8166891D02*
X18606291Y-8089109D01*
X18528509Y-8089109D01*
X18528509Y-8166891D01*
X18606291Y-8166891D01*
X18606291Y-8420891D02*
X18606291Y-8343109D01*
X18528509Y-8343109D01*
X18528509Y-8420891D01*
X18606291Y-8420891D01*
X18606291Y-8674891D02*
X18606291Y-8597109D01*
X18528509Y-8597109D01*
X18528509Y-8674891D01*
X18606291Y-8674891D01*
D14*
X9500000Y-6790200D02*
X9610000Y-6680200D01*
X9500000Y-6570200D01*
X9390000Y-6680200D01*
X9500000Y-6790200D01*
X9500000Y-8492000D02*
X9610000Y-8382000D01*
X9500000Y-8272000D01*
X9390000Y-8382000D01*
X9500000Y-8492000D01*
X12395200Y-10524000D02*
X12505200Y-10414000D01*
X12395200Y-10304000D01*
X12285200Y-10414000D01*
X12395200Y-10524000D01*
X14897100Y-7095000D02*
X15007100Y-6985000D01*
X14897100Y-6875000D01*
X14787100Y-6985000D01*
X14897100Y-7095000D01*
X16700500Y-11146300D02*
X16810500Y-11036300D01*
X16700500Y-10926300D01*
X16590500Y-11036300D01*
X16700500Y-11146300D01*
X17132300Y-9800100D02*
X17242300Y-9690100D01*
X17132300Y-9580100D01*
X17022300Y-9690100D01*
X17132300Y-9800100D01*
X18542000Y-10752600D02*
X18652000Y-10642600D01*
X18542000Y-10532600D01*
X18432000Y-10642600D01*
X18542000Y-10752600D01*
D11*
X7949477Y-13720860D02*
X7949477Y-13520860D01*
X7949477Y-13520860D02*
X7997096Y-13520860D01*
X7997096Y-13520860D02*
X8025667Y-13530384D01*
X8025667Y-13530384D02*
X8044715Y-13549431D01*
X8044715Y-13549431D02*
X8054239Y-13568479D01*
X8054239Y-13568479D02*
X8063762Y-13606574D01*
X8063762Y-13606574D02*
X8063762Y-13635145D01*
X8063762Y-13635145D02*
X8054239Y-13673241D01*
X8054239Y-13673241D02*
X8044715Y-13692288D01*
X8044715Y-13692288D02*
X8025667Y-13711336D01*
X8025667Y-13711336D02*
X7997096Y-13720860D01*
X7997096Y-13720860D02*
X7949477Y-13720860D01*
X8149477Y-13720860D02*
X8149477Y-13587526D01*
X8149477Y-13625622D02*
X8159001Y-13606574D01*
X8159001Y-13606574D02*
X8168524Y-13597050D01*
X8168524Y-13597050D02*
X8187572Y-13587526D01*
X8187572Y-13587526D02*
X8206620Y-13587526D01*
X8273286Y-13720860D02*
X8273286Y-13587526D01*
X8273286Y-13520860D02*
X8263762Y-13530384D01*
X8263762Y-13530384D02*
X8273286Y-13539907D01*
X8273286Y-13539907D02*
X8282810Y-13530384D01*
X8282810Y-13530384D02*
X8273286Y-13520860D01*
X8273286Y-13520860D02*
X8273286Y-13539907D01*
X8397096Y-13720860D02*
X8378048Y-13711336D01*
X8378048Y-13711336D02*
X8368524Y-13692288D01*
X8368524Y-13692288D02*
X8368524Y-13520860D01*
X8501858Y-13720860D02*
X8482810Y-13711336D01*
X8482810Y-13711336D02*
X8473286Y-13692288D01*
X8473286Y-13692288D02*
X8473286Y-13520860D01*
X8730429Y-13720860D02*
X8730429Y-13520860D01*
X8730429Y-13520860D02*
X8797096Y-13663717D01*
X8797096Y-13663717D02*
X8863763Y-13520860D01*
X8863763Y-13520860D02*
X8863763Y-13720860D01*
X9044715Y-13720860D02*
X9044715Y-13616098D01*
X9044715Y-13616098D02*
X9035191Y-13597050D01*
X9035191Y-13597050D02*
X9016144Y-13587526D01*
X9016144Y-13587526D02*
X8978048Y-13587526D01*
X8978048Y-13587526D02*
X8959001Y-13597050D01*
X9044715Y-13711336D02*
X9025667Y-13720860D01*
X9025667Y-13720860D02*
X8978048Y-13720860D01*
X8978048Y-13720860D02*
X8959001Y-13711336D01*
X8959001Y-13711336D02*
X8949477Y-13692288D01*
X8949477Y-13692288D02*
X8949477Y-13673241D01*
X8949477Y-13673241D02*
X8959001Y-13654193D01*
X8959001Y-13654193D02*
X8978048Y-13644669D01*
X8978048Y-13644669D02*
X9025667Y-13644669D01*
X9025667Y-13644669D02*
X9044715Y-13635145D01*
X9139953Y-13587526D02*
X9139953Y-13787526D01*
X9139953Y-13597050D02*
X9159001Y-13587526D01*
X9159001Y-13587526D02*
X9197096Y-13587526D01*
X9197096Y-13587526D02*
X9216144Y-13597050D01*
X9216144Y-13597050D02*
X9225667Y-13606574D01*
X9225667Y-13606574D02*
X9235191Y-13625622D01*
X9235191Y-13625622D02*
X9235191Y-13682764D01*
X9235191Y-13682764D02*
X9225667Y-13701812D01*
X9225667Y-13701812D02*
X9216144Y-13711336D01*
X9216144Y-13711336D02*
X9197096Y-13720860D01*
X9197096Y-13720860D02*
X9159001Y-13720860D01*
X9159001Y-13720860D02*
X9139953Y-13711336D01*
X9320905Y-13701812D02*
X9330429Y-13711336D01*
X9330429Y-13711336D02*
X9320905Y-13720860D01*
X9320905Y-13720860D02*
X9311382Y-13711336D01*
X9311382Y-13711336D02*
X9320905Y-13701812D01*
X9320905Y-13701812D02*
X9320905Y-13720860D01*
X9320905Y-13597050D02*
X9330429Y-13606574D01*
X9330429Y-13606574D02*
X9320905Y-13616098D01*
X9320905Y-13616098D02*
X9311382Y-13606574D01*
X9311382Y-13606574D02*
X9320905Y-13597050D01*
X9320905Y-13597050D02*
X9320905Y-13616098D01*
D12*
X7658220Y-14034136D02*
X7688700Y-14064616D01*
X7688700Y-14034136D02*
X7658220Y-14064616D01*
D11*
X7987572Y-13940860D02*
X8006620Y-13940860D01*
X8006620Y-13940860D02*
X8025667Y-13950384D01*
X8025667Y-13950384D02*
X8035191Y-13959907D01*
X8035191Y-13959907D02*
X8044715Y-13978955D01*
X8044715Y-13978955D02*
X8054239Y-14017050D01*
X8054239Y-14017050D02*
X8054239Y-14064669D01*
X8054239Y-14064669D02*
X8044715Y-14102764D01*
X8044715Y-14102764D02*
X8035191Y-14121812D01*
X8035191Y-14121812D02*
X8025667Y-14131336D01*
X8025667Y-14131336D02*
X8006620Y-14140860D01*
X8006620Y-14140860D02*
X7987572Y-14140860D01*
X7987572Y-14140860D02*
X7968524Y-14131336D01*
X7968524Y-14131336D02*
X7959001Y-14121812D01*
X7959001Y-14121812D02*
X7949477Y-14102764D01*
X7949477Y-14102764D02*
X7939953Y-14064669D01*
X7939953Y-14064669D02*
X7939953Y-14017050D01*
X7939953Y-14017050D02*
X7949477Y-13978955D01*
X7949477Y-13978955D02*
X7959001Y-13959907D01*
X7959001Y-13959907D02*
X7968524Y-13950384D01*
X7968524Y-13950384D02*
X7987572Y-13940860D01*
X8139953Y-14121812D02*
X8149477Y-14131336D01*
X8149477Y-14131336D02*
X8139953Y-14140860D01*
X8139953Y-14140860D02*
X8130429Y-14131336D01*
X8130429Y-14131336D02*
X8139953Y-14121812D01*
X8139953Y-14121812D02*
X8139953Y-14140860D01*
X8216143Y-13940860D02*
X8339953Y-13940860D01*
X8339953Y-13940860D02*
X8273286Y-14017050D01*
X8273286Y-14017050D02*
X8301858Y-14017050D01*
X8301858Y-14017050D02*
X8320905Y-14026574D01*
X8320905Y-14026574D02*
X8330429Y-14036098D01*
X8330429Y-14036098D02*
X8339953Y-14055145D01*
X8339953Y-14055145D02*
X8339953Y-14102764D01*
X8339953Y-14102764D02*
X8330429Y-14121812D01*
X8330429Y-14121812D02*
X8320905Y-14131336D01*
X8320905Y-14131336D02*
X8301858Y-14140860D01*
X8301858Y-14140860D02*
X8244715Y-14140860D01*
X8244715Y-14140860D02*
X8225667Y-14131336D01*
X8225667Y-14131336D02*
X8216143Y-14121812D01*
X8463763Y-13940860D02*
X8482810Y-13940860D01*
X8482810Y-13940860D02*
X8501858Y-13950384D01*
X8501858Y-13950384D02*
X8511382Y-13959907D01*
X8511382Y-13959907D02*
X8520905Y-13978955D01*
X8520905Y-13978955D02*
X8530429Y-14017050D01*
X8530429Y-14017050D02*
X8530429Y-14064669D01*
X8530429Y-14064669D02*
X8520905Y-14102764D01*
X8520905Y-14102764D02*
X8511382Y-14121812D01*
X8511382Y-14121812D02*
X8501858Y-14131336D01*
X8501858Y-14131336D02*
X8482810Y-14140860D01*
X8482810Y-14140860D02*
X8463763Y-14140860D01*
X8463763Y-14140860D02*
X8444715Y-14131336D01*
X8444715Y-14131336D02*
X8435191Y-14121812D01*
X8435191Y-14121812D02*
X8425667Y-14102764D01*
X8425667Y-14102764D02*
X8416144Y-14064669D01*
X8416144Y-14064669D02*
X8416144Y-14017050D01*
X8416144Y-14017050D02*
X8425667Y-13978955D01*
X8425667Y-13978955D02*
X8435191Y-13959907D01*
X8435191Y-13959907D02*
X8444715Y-13950384D01*
X8444715Y-13950384D02*
X8463763Y-13940860D01*
X8711382Y-13940860D02*
X8616144Y-13940860D01*
X8616144Y-13940860D02*
X8606620Y-14036098D01*
X8606620Y-14036098D02*
X8616144Y-14026574D01*
X8616144Y-14026574D02*
X8635191Y-14017050D01*
X8635191Y-14017050D02*
X8682810Y-14017050D01*
X8682810Y-14017050D02*
X8701858Y-14026574D01*
X8701858Y-14026574D02*
X8711382Y-14036098D01*
X8711382Y-14036098D02*
X8720905Y-14055145D01*
X8720905Y-14055145D02*
X8720905Y-14102764D01*
X8720905Y-14102764D02*
X8711382Y-14121812D01*
X8711382Y-14121812D02*
X8701858Y-14131336D01*
X8701858Y-14131336D02*
X8682810Y-14140860D01*
X8682810Y-14140860D02*
X8635191Y-14140860D01*
X8635191Y-14140860D02*
X8616144Y-14131336D01*
X8616144Y-14131336D02*
X8606620Y-14121812D01*
X8806620Y-14140860D02*
X8806620Y-14007526D01*
X8806620Y-14026574D02*
X8816144Y-14017050D01*
X8816144Y-14017050D02*
X8835191Y-14007526D01*
X8835191Y-14007526D02*
X8863763Y-14007526D01*
X8863763Y-14007526D02*
X8882810Y-14017050D01*
X8882810Y-14017050D02*
X8892334Y-14036098D01*
X8892334Y-14036098D02*
X8892334Y-14140860D01*
X8892334Y-14036098D02*
X8901858Y-14017050D01*
X8901858Y-14017050D02*
X8920905Y-14007526D01*
X8920905Y-14007526D02*
X8949477Y-14007526D01*
X8949477Y-14007526D02*
X8968525Y-14017050D01*
X8968525Y-14017050D02*
X8978048Y-14036098D01*
X8978048Y-14036098D02*
X8978048Y-14140860D01*
X9073286Y-14140860D02*
X9073286Y-14007526D01*
X9073286Y-14026574D02*
X9082810Y-14017050D01*
X9082810Y-14017050D02*
X9101858Y-14007526D01*
X9101858Y-14007526D02*
X9130429Y-14007526D01*
X9130429Y-14007526D02*
X9149477Y-14017050D01*
X9149477Y-14017050D02*
X9159001Y-14036098D01*
X9159001Y-14036098D02*
X9159001Y-14140860D01*
X9159001Y-14036098D02*
X9168525Y-14017050D01*
X9168525Y-14017050D02*
X9187572Y-14007526D01*
X9187572Y-14007526D02*
X9216144Y-14007526D01*
X9216144Y-14007526D02*
X9235191Y-14017050D01*
X9235191Y-14017050D02*
X9244715Y-14036098D01*
X9244715Y-14036098D02*
X9244715Y-14140860D01*
X9635191Y-13931336D02*
X9463763Y-14188479D01*
X9892334Y-13940860D02*
X9911382Y-13940860D01*
X9911382Y-13940860D02*
X9930429Y-13950384D01*
X9930429Y-13950384D02*
X9939953Y-13959907D01*
X9939953Y-13959907D02*
X9949477Y-13978955D01*
X9949477Y-13978955D02*
X9959001Y-14017050D01*
X9959001Y-14017050D02*
X9959001Y-14064669D01*
X9959001Y-14064669D02*
X9949477Y-14102764D01*
X9949477Y-14102764D02*
X9939953Y-14121812D01*
X9939953Y-14121812D02*
X9930429Y-14131336D01*
X9930429Y-14131336D02*
X9911382Y-14140860D01*
X9911382Y-14140860D02*
X9892334Y-14140860D01*
X9892334Y-14140860D02*
X9873287Y-14131336D01*
X9873287Y-14131336D02*
X9863763Y-14121812D01*
X9863763Y-14121812D02*
X9854239Y-14102764D01*
X9854239Y-14102764D02*
X9844715Y-14064669D01*
X9844715Y-14064669D02*
X9844715Y-14017050D01*
X9844715Y-14017050D02*
X9854239Y-13978955D01*
X9854239Y-13978955D02*
X9863763Y-13959907D01*
X9863763Y-13959907D02*
X9873287Y-13950384D01*
X9873287Y-13950384D02*
X9892334Y-13940860D01*
X10044715Y-14121812D02*
X10054239Y-14131336D01*
X10054239Y-14131336D02*
X10044715Y-14140860D01*
X10044715Y-14140860D02*
X10035191Y-14131336D01*
X10035191Y-14131336D02*
X10044715Y-14121812D01*
X10044715Y-14121812D02*
X10044715Y-14140860D01*
X10178048Y-13940860D02*
X10197096Y-13940860D01*
X10197096Y-13940860D02*
X10216144Y-13950384D01*
X10216144Y-13950384D02*
X10225668Y-13959907D01*
X10225668Y-13959907D02*
X10235191Y-13978955D01*
X10235191Y-13978955D02*
X10244715Y-14017050D01*
X10244715Y-14017050D02*
X10244715Y-14064669D01*
X10244715Y-14064669D02*
X10235191Y-14102764D01*
X10235191Y-14102764D02*
X10225668Y-14121812D01*
X10225668Y-14121812D02*
X10216144Y-14131336D01*
X10216144Y-14131336D02*
X10197096Y-14140860D01*
X10197096Y-14140860D02*
X10178048Y-14140860D01*
X10178048Y-14140860D02*
X10159001Y-14131336D01*
X10159001Y-14131336D02*
X10149477Y-14121812D01*
X10149477Y-14121812D02*
X10139953Y-14102764D01*
X10139953Y-14102764D02*
X10130429Y-14064669D01*
X10130429Y-14064669D02*
X10130429Y-14017050D01*
X10130429Y-14017050D02*
X10139953Y-13978955D01*
X10139953Y-13978955D02*
X10149477Y-13959907D01*
X10149477Y-13959907D02*
X10159001Y-13950384D01*
X10159001Y-13950384D02*
X10178048Y-13940860D01*
X10435191Y-14140860D02*
X10320906Y-14140860D01*
X10378048Y-14140860D02*
X10378048Y-13940860D01*
X10378048Y-13940860D02*
X10359001Y-13969431D01*
X10359001Y-13969431D02*
X10339953Y-13988479D01*
X10339953Y-13988479D02*
X10320906Y-13998003D01*
X10511382Y-13959907D02*
X10520906Y-13950384D01*
X10520906Y-13950384D02*
X10539953Y-13940860D01*
X10539953Y-13940860D02*
X10587572Y-13940860D01*
X10587572Y-13940860D02*
X10606620Y-13950384D01*
X10606620Y-13950384D02*
X10616144Y-13959907D01*
X10616144Y-13959907D02*
X10625668Y-13978955D01*
X10625668Y-13978955D02*
X10625668Y-13998003D01*
X10625668Y-13998003D02*
X10616144Y-14026574D01*
X10616144Y-14026574D02*
X10501858Y-14140860D01*
X10501858Y-14140860D02*
X10625668Y-14140860D01*
X10749477Y-13940860D02*
X10768525Y-13940860D01*
X10768525Y-13940860D02*
X10787572Y-13950384D01*
X10787572Y-13950384D02*
X10797096Y-13959907D01*
X10797096Y-13959907D02*
X10806620Y-13978955D01*
X10806620Y-13978955D02*
X10816144Y-14017050D01*
X10816144Y-14017050D02*
X10816144Y-14064669D01*
X10816144Y-14064669D02*
X10806620Y-14102764D01*
X10806620Y-14102764D02*
X10797096Y-14121812D01*
X10797096Y-14121812D02*
X10787572Y-14131336D01*
X10787572Y-14131336D02*
X10768525Y-14140860D01*
X10768525Y-14140860D02*
X10749477Y-14140860D01*
X10749477Y-14140860D02*
X10730429Y-14131336D01*
X10730429Y-14131336D02*
X10720906Y-14121812D01*
X10720906Y-14121812D02*
X10711382Y-14102764D01*
X10711382Y-14102764D02*
X10701858Y-14064669D01*
X10701858Y-14064669D02*
X10701858Y-14017050D01*
X10701858Y-14017050D02*
X10711382Y-13978955D01*
X10711382Y-13978955D02*
X10720906Y-13959907D01*
X10720906Y-13959907D02*
X10730429Y-13950384D01*
X10730429Y-13950384D02*
X10749477Y-13940860D01*
X10892334Y-13940860D02*
X10892334Y-13978955D01*
X10968525Y-13940860D02*
X10968525Y-13978955D01*
X11263763Y-14217050D02*
X11254239Y-14207526D01*
X11254239Y-14207526D02*
X11235191Y-14178955D01*
X11235191Y-14178955D02*
X11225668Y-14159907D01*
X11225668Y-14159907D02*
X11216144Y-14131336D01*
X11216144Y-14131336D02*
X11206620Y-14083717D01*
X11206620Y-14083717D02*
X11206620Y-14045622D01*
X11206620Y-14045622D02*
X11216144Y-13998003D01*
X11216144Y-13998003D02*
X11225668Y-13969431D01*
X11225668Y-13969431D02*
X11235191Y-13950384D01*
X11235191Y-13950384D02*
X11254239Y-13921812D01*
X11254239Y-13921812D02*
X11263763Y-13912288D01*
X11330429Y-13959907D02*
X11339953Y-13950384D01*
X11339953Y-13950384D02*
X11359001Y-13940860D01*
X11359001Y-13940860D02*
X11406620Y-13940860D01*
X11406620Y-13940860D02*
X11425668Y-13950384D01*
X11425668Y-13950384D02*
X11435191Y-13959907D01*
X11435191Y-13959907D02*
X11444715Y-13978955D01*
X11444715Y-13978955D02*
X11444715Y-13998003D01*
X11444715Y-13998003D02*
X11435191Y-14026574D01*
X11435191Y-14026574D02*
X11320906Y-14140860D01*
X11320906Y-14140860D02*
X11444715Y-14140860D01*
X11682810Y-14140860D02*
X11682810Y-13940860D01*
X11768525Y-14140860D02*
X11768525Y-14036098D01*
X11768525Y-14036098D02*
X11759001Y-14017050D01*
X11759001Y-14017050D02*
X11739953Y-14007526D01*
X11739953Y-14007526D02*
X11711382Y-14007526D01*
X11711382Y-14007526D02*
X11692334Y-14017050D01*
X11692334Y-14017050D02*
X11682810Y-14026574D01*
X11892334Y-14140860D02*
X11873287Y-14131336D01*
X11873287Y-14131336D02*
X11863763Y-14121812D01*
X11863763Y-14121812D02*
X11854239Y-14102764D01*
X11854239Y-14102764D02*
X11854239Y-14045622D01*
X11854239Y-14045622D02*
X11863763Y-14026574D01*
X11863763Y-14026574D02*
X11873287Y-14017050D01*
X11873287Y-14017050D02*
X11892334Y-14007526D01*
X11892334Y-14007526D02*
X11920906Y-14007526D01*
X11920906Y-14007526D02*
X11939953Y-14017050D01*
X11939953Y-14017050D02*
X11949477Y-14026574D01*
X11949477Y-14026574D02*
X11959001Y-14045622D01*
X11959001Y-14045622D02*
X11959001Y-14102764D01*
X11959001Y-14102764D02*
X11949477Y-14121812D01*
X11949477Y-14121812D02*
X11939953Y-14131336D01*
X11939953Y-14131336D02*
X11920906Y-14140860D01*
X11920906Y-14140860D02*
X11892334Y-14140860D01*
X12073287Y-14140860D02*
X12054239Y-14131336D01*
X12054239Y-14131336D02*
X12044715Y-14112288D01*
X12044715Y-14112288D02*
X12044715Y-13940860D01*
X12225668Y-14131336D02*
X12206620Y-14140860D01*
X12206620Y-14140860D02*
X12168525Y-14140860D01*
X12168525Y-14140860D02*
X12149477Y-14131336D01*
X12149477Y-14131336D02*
X12139953Y-14112288D01*
X12139953Y-14112288D02*
X12139953Y-14036098D01*
X12139953Y-14036098D02*
X12149477Y-14017050D01*
X12149477Y-14017050D02*
X12168525Y-14007526D01*
X12168525Y-14007526D02*
X12206620Y-14007526D01*
X12206620Y-14007526D02*
X12225668Y-14017050D01*
X12225668Y-14017050D02*
X12235191Y-14036098D01*
X12235191Y-14036098D02*
X12235191Y-14055145D01*
X12235191Y-14055145D02*
X12139953Y-14074193D01*
X12311382Y-14131336D02*
X12330430Y-14140860D01*
X12330430Y-14140860D02*
X12368525Y-14140860D01*
X12368525Y-14140860D02*
X12387572Y-14131336D01*
X12387572Y-14131336D02*
X12397096Y-14112288D01*
X12397096Y-14112288D02*
X12397096Y-14102764D01*
X12397096Y-14102764D02*
X12387572Y-14083717D01*
X12387572Y-14083717D02*
X12368525Y-14074193D01*
X12368525Y-14074193D02*
X12339953Y-14074193D01*
X12339953Y-14074193D02*
X12320906Y-14064669D01*
X12320906Y-14064669D02*
X12311382Y-14045622D01*
X12311382Y-14045622D02*
X12311382Y-14036098D01*
X12311382Y-14036098D02*
X12320906Y-14017050D01*
X12320906Y-14017050D02*
X12339953Y-14007526D01*
X12339953Y-14007526D02*
X12368525Y-14007526D01*
X12368525Y-14007526D02*
X12387572Y-14017050D01*
X12463763Y-14217050D02*
X12473287Y-14207526D01*
X12473287Y-14207526D02*
X12492334Y-14178955D01*
X12492334Y-14178955D02*
X12501858Y-14159907D01*
X12501858Y-14159907D02*
X12511382Y-14131336D01*
X12511382Y-14131336D02*
X12520906Y-14083717D01*
X12520906Y-14083717D02*
X12520906Y-14045622D01*
X12520906Y-14045622D02*
X12511382Y-13998003D01*
X12511382Y-13998003D02*
X12501858Y-13969431D01*
X12501858Y-13969431D02*
X12492334Y-13950384D01*
X12492334Y-13950384D02*
X12473287Y-13921812D01*
X12473287Y-13921812D02*
X12463763Y-13912288D01*
D12*
X7688700Y-14313376D02*
G75*
G02*
X7648700Y-14313376I-20000J0D01*
G01*
X7648700Y-14313376D02*
G75*
G02*
X7688700Y-14313376I20000J0D01*
G01*
D11*
X7987572Y-14204860D02*
X8006620Y-14204860D01*
X8006620Y-14204860D02*
X8025667Y-14214384D01*
X8025667Y-14214384D02*
X8035191Y-14223907D01*
X8035191Y-14223907D02*
X8044715Y-14242955D01*
X8044715Y-14242955D02*
X8054239Y-14281050D01*
X8054239Y-14281050D02*
X8054239Y-14328669D01*
X8054239Y-14328669D02*
X8044715Y-14366764D01*
X8044715Y-14366764D02*
X8035191Y-14385812D01*
X8035191Y-14385812D02*
X8025667Y-14395336D01*
X8025667Y-14395336D02*
X8006620Y-14404860D01*
X8006620Y-14404860D02*
X7987572Y-14404860D01*
X7987572Y-14404860D02*
X7968524Y-14395336D01*
X7968524Y-14395336D02*
X7959001Y-14385812D01*
X7959001Y-14385812D02*
X7949477Y-14366764D01*
X7949477Y-14366764D02*
X7939953Y-14328669D01*
X7939953Y-14328669D02*
X7939953Y-14281050D01*
X7939953Y-14281050D02*
X7949477Y-14242955D01*
X7949477Y-14242955D02*
X7959001Y-14223907D01*
X7959001Y-14223907D02*
X7968524Y-14214384D01*
X7968524Y-14214384D02*
X7987572Y-14204860D01*
X8139953Y-14385812D02*
X8149477Y-14395336D01*
X8149477Y-14395336D02*
X8139953Y-14404860D01*
X8139953Y-14404860D02*
X8130429Y-14395336D01*
X8130429Y-14395336D02*
X8139953Y-14385812D01*
X8139953Y-14385812D02*
X8139953Y-14404860D01*
X8320905Y-14271526D02*
X8320905Y-14404860D01*
X8273286Y-14195336D02*
X8225667Y-14338193D01*
X8225667Y-14338193D02*
X8349477Y-14338193D01*
X8463763Y-14204860D02*
X8482810Y-14204860D01*
X8482810Y-14204860D02*
X8501858Y-14214384D01*
X8501858Y-14214384D02*
X8511382Y-14223907D01*
X8511382Y-14223907D02*
X8520905Y-14242955D01*
X8520905Y-14242955D02*
X8530429Y-14281050D01*
X8530429Y-14281050D02*
X8530429Y-14328669D01*
X8530429Y-14328669D02*
X8520905Y-14366764D01*
X8520905Y-14366764D02*
X8511382Y-14385812D01*
X8511382Y-14385812D02*
X8501858Y-14395336D01*
X8501858Y-14395336D02*
X8482810Y-14404860D01*
X8482810Y-14404860D02*
X8463763Y-14404860D01*
X8463763Y-14404860D02*
X8444715Y-14395336D01*
X8444715Y-14395336D02*
X8435191Y-14385812D01*
X8435191Y-14385812D02*
X8425667Y-14366764D01*
X8425667Y-14366764D02*
X8416144Y-14328669D01*
X8416144Y-14328669D02*
X8416144Y-14281050D01*
X8416144Y-14281050D02*
X8425667Y-14242955D01*
X8425667Y-14242955D02*
X8435191Y-14223907D01*
X8435191Y-14223907D02*
X8444715Y-14214384D01*
X8444715Y-14214384D02*
X8463763Y-14204860D01*
X8654239Y-14204860D02*
X8673286Y-14204860D01*
X8673286Y-14204860D02*
X8692334Y-14214384D01*
X8692334Y-14214384D02*
X8701858Y-14223907D01*
X8701858Y-14223907D02*
X8711382Y-14242955D01*
X8711382Y-14242955D02*
X8720905Y-14281050D01*
X8720905Y-14281050D02*
X8720905Y-14328669D01*
X8720905Y-14328669D02*
X8711382Y-14366764D01*
X8711382Y-14366764D02*
X8701858Y-14385812D01*
X8701858Y-14385812D02*
X8692334Y-14395336D01*
X8692334Y-14395336D02*
X8673286Y-14404860D01*
X8673286Y-14404860D02*
X8654239Y-14404860D01*
X8654239Y-14404860D02*
X8635191Y-14395336D01*
X8635191Y-14395336D02*
X8625667Y-14385812D01*
X8625667Y-14385812D02*
X8616144Y-14366764D01*
X8616144Y-14366764D02*
X8606620Y-14328669D01*
X8606620Y-14328669D02*
X8606620Y-14281050D01*
X8606620Y-14281050D02*
X8616144Y-14242955D01*
X8616144Y-14242955D02*
X8625667Y-14223907D01*
X8625667Y-14223907D02*
X8635191Y-14214384D01*
X8635191Y-14214384D02*
X8654239Y-14204860D01*
X8806620Y-14404860D02*
X8806620Y-14271526D01*
X8806620Y-14290574D02*
X8816144Y-14281050D01*
X8816144Y-14281050D02*
X8835191Y-14271526D01*
X8835191Y-14271526D02*
X8863763Y-14271526D01*
X8863763Y-14271526D02*
X8882810Y-14281050D01*
X8882810Y-14281050D02*
X8892334Y-14300098D01*
X8892334Y-14300098D02*
X8892334Y-14404860D01*
X8892334Y-14300098D02*
X8901858Y-14281050D01*
X8901858Y-14281050D02*
X8920905Y-14271526D01*
X8920905Y-14271526D02*
X8949477Y-14271526D01*
X8949477Y-14271526D02*
X8968525Y-14281050D01*
X8968525Y-14281050D02*
X8978048Y-14300098D01*
X8978048Y-14300098D02*
X8978048Y-14404860D01*
X9073286Y-14404860D02*
X9073286Y-14271526D01*
X9073286Y-14290574D02*
X9082810Y-14281050D01*
X9082810Y-14281050D02*
X9101858Y-14271526D01*
X9101858Y-14271526D02*
X9130429Y-14271526D01*
X9130429Y-14271526D02*
X9149477Y-14281050D01*
X9149477Y-14281050D02*
X9159001Y-14300098D01*
X9159001Y-14300098D02*
X9159001Y-14404860D01*
X9159001Y-14300098D02*
X9168525Y-14281050D01*
X9168525Y-14281050D02*
X9187572Y-14271526D01*
X9187572Y-14271526D02*
X9216144Y-14271526D01*
X9216144Y-14271526D02*
X9235191Y-14281050D01*
X9235191Y-14281050D02*
X9244715Y-14300098D01*
X9244715Y-14300098D02*
X9244715Y-14404860D01*
X9635191Y-14195336D02*
X9463763Y-14452479D01*
X9892334Y-14204860D02*
X9911382Y-14204860D01*
X9911382Y-14204860D02*
X9930429Y-14214384D01*
X9930429Y-14214384D02*
X9939953Y-14223907D01*
X9939953Y-14223907D02*
X9949477Y-14242955D01*
X9949477Y-14242955D02*
X9959001Y-14281050D01*
X9959001Y-14281050D02*
X9959001Y-14328669D01*
X9959001Y-14328669D02*
X9949477Y-14366764D01*
X9949477Y-14366764D02*
X9939953Y-14385812D01*
X9939953Y-14385812D02*
X9930429Y-14395336D01*
X9930429Y-14395336D02*
X9911382Y-14404860D01*
X9911382Y-14404860D02*
X9892334Y-14404860D01*
X9892334Y-14404860D02*
X9873287Y-14395336D01*
X9873287Y-14395336D02*
X9863763Y-14385812D01*
X9863763Y-14385812D02*
X9854239Y-14366764D01*
X9854239Y-14366764D02*
X9844715Y-14328669D01*
X9844715Y-14328669D02*
X9844715Y-14281050D01*
X9844715Y-14281050D02*
X9854239Y-14242955D01*
X9854239Y-14242955D02*
X9863763Y-14223907D01*
X9863763Y-14223907D02*
X9873287Y-14214384D01*
X9873287Y-14214384D02*
X9892334Y-14204860D01*
X10044715Y-14385812D02*
X10054239Y-14395336D01*
X10054239Y-14395336D02*
X10044715Y-14404860D01*
X10044715Y-14404860D02*
X10035191Y-14395336D01*
X10035191Y-14395336D02*
X10044715Y-14385812D01*
X10044715Y-14385812D02*
X10044715Y-14404860D01*
X10178048Y-14204860D02*
X10197096Y-14204860D01*
X10197096Y-14204860D02*
X10216144Y-14214384D01*
X10216144Y-14214384D02*
X10225668Y-14223907D01*
X10225668Y-14223907D02*
X10235191Y-14242955D01*
X10235191Y-14242955D02*
X10244715Y-14281050D01*
X10244715Y-14281050D02*
X10244715Y-14328669D01*
X10244715Y-14328669D02*
X10235191Y-14366764D01*
X10235191Y-14366764D02*
X10225668Y-14385812D01*
X10225668Y-14385812D02*
X10216144Y-14395336D01*
X10216144Y-14395336D02*
X10197096Y-14404860D01*
X10197096Y-14404860D02*
X10178048Y-14404860D01*
X10178048Y-14404860D02*
X10159001Y-14395336D01*
X10159001Y-14395336D02*
X10149477Y-14385812D01*
X10149477Y-14385812D02*
X10139953Y-14366764D01*
X10139953Y-14366764D02*
X10130429Y-14328669D01*
X10130429Y-14328669D02*
X10130429Y-14281050D01*
X10130429Y-14281050D02*
X10139953Y-14242955D01*
X10139953Y-14242955D02*
X10149477Y-14223907D01*
X10149477Y-14223907D02*
X10159001Y-14214384D01*
X10159001Y-14214384D02*
X10178048Y-14204860D01*
X10435191Y-14404860D02*
X10320906Y-14404860D01*
X10378048Y-14404860D02*
X10378048Y-14204860D01*
X10378048Y-14204860D02*
X10359001Y-14233431D01*
X10359001Y-14233431D02*
X10339953Y-14252479D01*
X10339953Y-14252479D02*
X10320906Y-14262003D01*
X10616144Y-14204860D02*
X10520906Y-14204860D01*
X10520906Y-14204860D02*
X10511382Y-14300098D01*
X10511382Y-14300098D02*
X10520906Y-14290574D01*
X10520906Y-14290574D02*
X10539953Y-14281050D01*
X10539953Y-14281050D02*
X10587572Y-14281050D01*
X10587572Y-14281050D02*
X10606620Y-14290574D01*
X10606620Y-14290574D02*
X10616144Y-14300098D01*
X10616144Y-14300098D02*
X10625668Y-14319145D01*
X10625668Y-14319145D02*
X10625668Y-14366764D01*
X10625668Y-14366764D02*
X10616144Y-14385812D01*
X10616144Y-14385812D02*
X10606620Y-14395336D01*
X10606620Y-14395336D02*
X10587572Y-14404860D01*
X10587572Y-14404860D02*
X10539953Y-14404860D01*
X10539953Y-14404860D02*
X10520906Y-14395336D01*
X10520906Y-14395336D02*
X10511382Y-14385812D01*
X10692334Y-14204860D02*
X10825668Y-14204860D01*
X10825668Y-14204860D02*
X10739953Y-14404860D01*
X10892334Y-14204860D02*
X10892334Y-14242955D01*
X10968525Y-14204860D02*
X10968525Y-14242955D01*
X11263763Y-14481050D02*
X11254239Y-14471526D01*
X11254239Y-14471526D02*
X11235191Y-14442955D01*
X11235191Y-14442955D02*
X11225668Y-14423907D01*
X11225668Y-14423907D02*
X11216144Y-14395336D01*
X11216144Y-14395336D02*
X11206620Y-14347717D01*
X11206620Y-14347717D02*
X11206620Y-14309622D01*
X11206620Y-14309622D02*
X11216144Y-14262003D01*
X11216144Y-14262003D02*
X11225668Y-14233431D01*
X11225668Y-14233431D02*
X11235191Y-14214384D01*
X11235191Y-14214384D02*
X11254239Y-14185812D01*
X11254239Y-14185812D02*
X11263763Y-14176288D01*
X11444715Y-14404860D02*
X11330429Y-14404860D01*
X11387572Y-14404860D02*
X11387572Y-14204860D01*
X11387572Y-14204860D02*
X11368525Y-14233431D01*
X11368525Y-14233431D02*
X11349477Y-14252479D01*
X11349477Y-14252479D02*
X11330429Y-14262003D01*
X11635191Y-14404860D02*
X11520906Y-14404860D01*
X11578048Y-14404860D02*
X11578048Y-14204860D01*
X11578048Y-14204860D02*
X11559001Y-14233431D01*
X11559001Y-14233431D02*
X11539953Y-14252479D01*
X11539953Y-14252479D02*
X11520906Y-14262003D01*
X11701858Y-14204860D02*
X11835191Y-14204860D01*
X11835191Y-14204860D02*
X11749477Y-14404860D01*
X12063763Y-14404860D02*
X12063763Y-14204860D01*
X12149477Y-14404860D02*
X12149477Y-14300098D01*
X12149477Y-14300098D02*
X12139953Y-14281050D01*
X12139953Y-14281050D02*
X12120906Y-14271526D01*
X12120906Y-14271526D02*
X12092334Y-14271526D01*
X12092334Y-14271526D02*
X12073287Y-14281050D01*
X12073287Y-14281050D02*
X12063763Y-14290574D01*
X12273287Y-14404860D02*
X12254239Y-14395336D01*
X12254239Y-14395336D02*
X12244715Y-14385812D01*
X12244715Y-14385812D02*
X12235191Y-14366764D01*
X12235191Y-14366764D02*
X12235191Y-14309622D01*
X12235191Y-14309622D02*
X12244715Y-14290574D01*
X12244715Y-14290574D02*
X12254239Y-14281050D01*
X12254239Y-14281050D02*
X12273287Y-14271526D01*
X12273287Y-14271526D02*
X12301858Y-14271526D01*
X12301858Y-14271526D02*
X12320906Y-14281050D01*
X12320906Y-14281050D02*
X12330430Y-14290574D01*
X12330430Y-14290574D02*
X12339953Y-14309622D01*
X12339953Y-14309622D02*
X12339953Y-14366764D01*
X12339953Y-14366764D02*
X12330430Y-14385812D01*
X12330430Y-14385812D02*
X12320906Y-14395336D01*
X12320906Y-14395336D02*
X12301858Y-14404860D01*
X12301858Y-14404860D02*
X12273287Y-14404860D01*
X12454239Y-14404860D02*
X12435191Y-14395336D01*
X12435191Y-14395336D02*
X12425668Y-14376288D01*
X12425668Y-14376288D02*
X12425668Y-14204860D01*
X12606620Y-14395336D02*
X12587572Y-14404860D01*
X12587572Y-14404860D02*
X12549477Y-14404860D01*
X12549477Y-14404860D02*
X12530430Y-14395336D01*
X12530430Y-14395336D02*
X12520906Y-14376288D01*
X12520906Y-14376288D02*
X12520906Y-14300098D01*
X12520906Y-14300098D02*
X12530430Y-14281050D01*
X12530430Y-14281050D02*
X12549477Y-14271526D01*
X12549477Y-14271526D02*
X12587572Y-14271526D01*
X12587572Y-14271526D02*
X12606620Y-14281050D01*
X12606620Y-14281050D02*
X12616144Y-14300098D01*
X12616144Y-14300098D02*
X12616144Y-14319145D01*
X12616144Y-14319145D02*
X12520906Y-14338193D01*
X12692334Y-14395336D02*
X12711382Y-14404860D01*
X12711382Y-14404860D02*
X12749477Y-14404860D01*
X12749477Y-14404860D02*
X12768525Y-14395336D01*
X12768525Y-14395336D02*
X12778049Y-14376288D01*
X12778049Y-14376288D02*
X12778049Y-14366764D01*
X12778049Y-14366764D02*
X12768525Y-14347717D01*
X12768525Y-14347717D02*
X12749477Y-14338193D01*
X12749477Y-14338193D02*
X12720906Y-14338193D01*
X12720906Y-14338193D02*
X12701858Y-14328669D01*
X12701858Y-14328669D02*
X12692334Y-14309622D01*
X12692334Y-14309622D02*
X12692334Y-14300098D01*
X12692334Y-14300098D02*
X12701858Y-14281050D01*
X12701858Y-14281050D02*
X12720906Y-14271526D01*
X12720906Y-14271526D02*
X12749477Y-14271526D01*
X12749477Y-14271526D02*
X12768525Y-14281050D01*
X12844715Y-14481050D02*
X12854239Y-14471526D01*
X12854239Y-14471526D02*
X12873287Y-14442955D01*
X12873287Y-14442955D02*
X12882811Y-14423907D01*
X12882811Y-14423907D02*
X12892334Y-14395336D01*
X12892334Y-14395336D02*
X12901858Y-14347717D01*
X12901858Y-14347717D02*
X12901858Y-14309622D01*
X12901858Y-14309622D02*
X12892334Y-14262003D01*
X12892334Y-14262003D02*
X12882811Y-14233431D01*
X12882811Y-14233431D02*
X12873287Y-14214384D01*
X12873287Y-14214384D02*
X12854239Y-14185812D01*
X12854239Y-14185812D02*
X12844715Y-14176288D01*
D12*
X7638700Y-14527376D02*
X7638700Y-14627376D01*
X7588700Y-14577376D02*
X7688700Y-14577376D01*
D11*
X8054239Y-14668860D02*
X7939953Y-14668860D01*
X7997096Y-14668860D02*
X7997096Y-14468860D01*
X7997096Y-14468860D02*
X7978048Y-14497431D01*
X7978048Y-14497431D02*
X7959001Y-14516479D01*
X7959001Y-14516479D02*
X7939953Y-14526003D01*
X8139953Y-14649812D02*
X8149477Y-14659336D01*
X8149477Y-14659336D02*
X8139953Y-14668860D01*
X8139953Y-14668860D02*
X8130429Y-14659336D01*
X8130429Y-14659336D02*
X8139953Y-14649812D01*
X8139953Y-14649812D02*
X8139953Y-14668860D01*
X8273286Y-14468860D02*
X8292334Y-14468860D01*
X8292334Y-14468860D02*
X8311382Y-14478384D01*
X8311382Y-14478384D02*
X8320905Y-14487907D01*
X8320905Y-14487907D02*
X8330429Y-14506955D01*
X8330429Y-14506955D02*
X8339953Y-14545050D01*
X8339953Y-14545050D02*
X8339953Y-14592669D01*
X8339953Y-14592669D02*
X8330429Y-14630764D01*
X8330429Y-14630764D02*
X8320905Y-14649812D01*
X8320905Y-14649812D02*
X8311382Y-14659336D01*
X8311382Y-14659336D02*
X8292334Y-14668860D01*
X8292334Y-14668860D02*
X8273286Y-14668860D01*
X8273286Y-14668860D02*
X8254239Y-14659336D01*
X8254239Y-14659336D02*
X8244715Y-14649812D01*
X8244715Y-14649812D02*
X8235191Y-14630764D01*
X8235191Y-14630764D02*
X8225667Y-14592669D01*
X8225667Y-14592669D02*
X8225667Y-14545050D01*
X8225667Y-14545050D02*
X8235191Y-14506955D01*
X8235191Y-14506955D02*
X8244715Y-14487907D01*
X8244715Y-14487907D02*
X8254239Y-14478384D01*
X8254239Y-14478384D02*
X8273286Y-14468860D01*
X8463763Y-14468860D02*
X8482810Y-14468860D01*
X8482810Y-14468860D02*
X8501858Y-14478384D01*
X8501858Y-14478384D02*
X8511382Y-14487907D01*
X8511382Y-14487907D02*
X8520905Y-14506955D01*
X8520905Y-14506955D02*
X8530429Y-14545050D01*
X8530429Y-14545050D02*
X8530429Y-14592669D01*
X8530429Y-14592669D02*
X8520905Y-14630764D01*
X8520905Y-14630764D02*
X8511382Y-14649812D01*
X8511382Y-14649812D02*
X8501858Y-14659336D01*
X8501858Y-14659336D02*
X8482810Y-14668860D01*
X8482810Y-14668860D02*
X8463763Y-14668860D01*
X8463763Y-14668860D02*
X8444715Y-14659336D01*
X8444715Y-14659336D02*
X8435191Y-14649812D01*
X8435191Y-14649812D02*
X8425667Y-14630764D01*
X8425667Y-14630764D02*
X8416144Y-14592669D01*
X8416144Y-14592669D02*
X8416144Y-14545050D01*
X8416144Y-14545050D02*
X8425667Y-14506955D01*
X8425667Y-14506955D02*
X8435191Y-14487907D01*
X8435191Y-14487907D02*
X8444715Y-14478384D01*
X8444715Y-14478384D02*
X8463763Y-14468860D01*
X8654239Y-14468860D02*
X8673286Y-14468860D01*
X8673286Y-14468860D02*
X8692334Y-14478384D01*
X8692334Y-14478384D02*
X8701858Y-14487907D01*
X8701858Y-14487907D02*
X8711382Y-14506955D01*
X8711382Y-14506955D02*
X8720905Y-14545050D01*
X8720905Y-14545050D02*
X8720905Y-14592669D01*
X8720905Y-14592669D02*
X8711382Y-14630764D01*
X8711382Y-14630764D02*
X8701858Y-14649812D01*
X8701858Y-14649812D02*
X8692334Y-14659336D01*
X8692334Y-14659336D02*
X8673286Y-14668860D01*
X8673286Y-14668860D02*
X8654239Y-14668860D01*
X8654239Y-14668860D02*
X8635191Y-14659336D01*
X8635191Y-14659336D02*
X8625667Y-14649812D01*
X8625667Y-14649812D02*
X8616144Y-14630764D01*
X8616144Y-14630764D02*
X8606620Y-14592669D01*
X8606620Y-14592669D02*
X8606620Y-14545050D01*
X8606620Y-14545050D02*
X8616144Y-14506955D01*
X8616144Y-14506955D02*
X8625667Y-14487907D01*
X8625667Y-14487907D02*
X8635191Y-14478384D01*
X8635191Y-14478384D02*
X8654239Y-14468860D01*
X8806620Y-14668860D02*
X8806620Y-14535526D01*
X8806620Y-14554574D02*
X8816144Y-14545050D01*
X8816144Y-14545050D02*
X8835191Y-14535526D01*
X8835191Y-14535526D02*
X8863763Y-14535526D01*
X8863763Y-14535526D02*
X8882810Y-14545050D01*
X8882810Y-14545050D02*
X8892334Y-14564098D01*
X8892334Y-14564098D02*
X8892334Y-14668860D01*
X8892334Y-14564098D02*
X8901858Y-14545050D01*
X8901858Y-14545050D02*
X8920905Y-14535526D01*
X8920905Y-14535526D02*
X8949477Y-14535526D01*
X8949477Y-14535526D02*
X8968525Y-14545050D01*
X8968525Y-14545050D02*
X8978048Y-14564098D01*
X8978048Y-14564098D02*
X8978048Y-14668860D01*
X9073286Y-14668860D02*
X9073286Y-14535526D01*
X9073286Y-14554574D02*
X9082810Y-14545050D01*
X9082810Y-14545050D02*
X9101858Y-14535526D01*
X9101858Y-14535526D02*
X9130429Y-14535526D01*
X9130429Y-14535526D02*
X9149477Y-14545050D01*
X9149477Y-14545050D02*
X9159001Y-14564098D01*
X9159001Y-14564098D02*
X9159001Y-14668860D01*
X9159001Y-14564098D02*
X9168525Y-14545050D01*
X9168525Y-14545050D02*
X9187572Y-14535526D01*
X9187572Y-14535526D02*
X9216144Y-14535526D01*
X9216144Y-14535526D02*
X9235191Y-14545050D01*
X9235191Y-14545050D02*
X9244715Y-14564098D01*
X9244715Y-14564098D02*
X9244715Y-14668860D01*
X9635191Y-14459336D02*
X9463763Y-14716479D01*
X9892334Y-14468860D02*
X9911382Y-14468860D01*
X9911382Y-14468860D02*
X9930429Y-14478384D01*
X9930429Y-14478384D02*
X9939953Y-14487907D01*
X9939953Y-14487907D02*
X9949477Y-14506955D01*
X9949477Y-14506955D02*
X9959001Y-14545050D01*
X9959001Y-14545050D02*
X9959001Y-14592669D01*
X9959001Y-14592669D02*
X9949477Y-14630764D01*
X9949477Y-14630764D02*
X9939953Y-14649812D01*
X9939953Y-14649812D02*
X9930429Y-14659336D01*
X9930429Y-14659336D02*
X9911382Y-14668860D01*
X9911382Y-14668860D02*
X9892334Y-14668860D01*
X9892334Y-14668860D02*
X9873287Y-14659336D01*
X9873287Y-14659336D02*
X9863763Y-14649812D01*
X9863763Y-14649812D02*
X9854239Y-14630764D01*
X9854239Y-14630764D02*
X9844715Y-14592669D01*
X9844715Y-14592669D02*
X9844715Y-14545050D01*
X9844715Y-14545050D02*
X9854239Y-14506955D01*
X9854239Y-14506955D02*
X9863763Y-14487907D01*
X9863763Y-14487907D02*
X9873287Y-14478384D01*
X9873287Y-14478384D02*
X9892334Y-14468860D01*
X10044715Y-14649812D02*
X10054239Y-14659336D01*
X10054239Y-14659336D02*
X10044715Y-14668860D01*
X10044715Y-14668860D02*
X10035191Y-14659336D01*
X10035191Y-14659336D02*
X10044715Y-14649812D01*
X10044715Y-14649812D02*
X10044715Y-14668860D01*
X10178048Y-14468860D02*
X10197096Y-14468860D01*
X10197096Y-14468860D02*
X10216144Y-14478384D01*
X10216144Y-14478384D02*
X10225668Y-14487907D01*
X10225668Y-14487907D02*
X10235191Y-14506955D01*
X10235191Y-14506955D02*
X10244715Y-14545050D01*
X10244715Y-14545050D02*
X10244715Y-14592669D01*
X10244715Y-14592669D02*
X10235191Y-14630764D01*
X10235191Y-14630764D02*
X10225668Y-14649812D01*
X10225668Y-14649812D02*
X10216144Y-14659336D01*
X10216144Y-14659336D02*
X10197096Y-14668860D01*
X10197096Y-14668860D02*
X10178048Y-14668860D01*
X10178048Y-14668860D02*
X10159001Y-14659336D01*
X10159001Y-14659336D02*
X10149477Y-14649812D01*
X10149477Y-14649812D02*
X10139953Y-14630764D01*
X10139953Y-14630764D02*
X10130429Y-14592669D01*
X10130429Y-14592669D02*
X10130429Y-14545050D01*
X10130429Y-14545050D02*
X10139953Y-14506955D01*
X10139953Y-14506955D02*
X10149477Y-14487907D01*
X10149477Y-14487907D02*
X10159001Y-14478384D01*
X10159001Y-14478384D02*
X10178048Y-14468860D01*
X10311382Y-14468860D02*
X10435191Y-14468860D01*
X10435191Y-14468860D02*
X10368525Y-14545050D01*
X10368525Y-14545050D02*
X10397096Y-14545050D01*
X10397096Y-14545050D02*
X10416144Y-14554574D01*
X10416144Y-14554574D02*
X10425668Y-14564098D01*
X10425668Y-14564098D02*
X10435191Y-14583145D01*
X10435191Y-14583145D02*
X10435191Y-14630764D01*
X10435191Y-14630764D02*
X10425668Y-14649812D01*
X10425668Y-14649812D02*
X10416144Y-14659336D01*
X10416144Y-14659336D02*
X10397096Y-14668860D01*
X10397096Y-14668860D02*
X10339953Y-14668860D01*
X10339953Y-14668860D02*
X10320906Y-14659336D01*
X10320906Y-14659336D02*
X10311382Y-14649812D01*
X10530429Y-14668860D02*
X10568525Y-14668860D01*
X10568525Y-14668860D02*
X10587572Y-14659336D01*
X10587572Y-14659336D02*
X10597096Y-14649812D01*
X10597096Y-14649812D02*
X10616144Y-14621241D01*
X10616144Y-14621241D02*
X10625668Y-14583145D01*
X10625668Y-14583145D02*
X10625668Y-14506955D01*
X10625668Y-14506955D02*
X10616144Y-14487907D01*
X10616144Y-14487907D02*
X10606620Y-14478384D01*
X10606620Y-14478384D02*
X10587572Y-14468860D01*
X10587572Y-14468860D02*
X10549477Y-14468860D01*
X10549477Y-14468860D02*
X10530429Y-14478384D01*
X10530429Y-14478384D02*
X10520906Y-14487907D01*
X10520906Y-14487907D02*
X10511382Y-14506955D01*
X10511382Y-14506955D02*
X10511382Y-14554574D01*
X10511382Y-14554574D02*
X10520906Y-14573622D01*
X10520906Y-14573622D02*
X10530429Y-14583145D01*
X10530429Y-14583145D02*
X10549477Y-14592669D01*
X10549477Y-14592669D02*
X10587572Y-14592669D01*
X10587572Y-14592669D02*
X10606620Y-14583145D01*
X10606620Y-14583145D02*
X10616144Y-14573622D01*
X10616144Y-14573622D02*
X10625668Y-14554574D01*
X10797096Y-14535526D02*
X10797096Y-14668860D01*
X10749477Y-14459336D02*
X10701858Y-14602193D01*
X10701858Y-14602193D02*
X10825668Y-14602193D01*
X10892334Y-14468860D02*
X10892334Y-14506955D01*
X10968525Y-14468860D02*
X10968525Y-14506955D01*
X11263763Y-14745050D02*
X11254239Y-14735526D01*
X11254239Y-14735526D02*
X11235191Y-14706955D01*
X11235191Y-14706955D02*
X11225668Y-14687907D01*
X11225668Y-14687907D02*
X11216144Y-14659336D01*
X11216144Y-14659336D02*
X11206620Y-14611717D01*
X11206620Y-14611717D02*
X11206620Y-14573622D01*
X11206620Y-14573622D02*
X11216144Y-14526003D01*
X11216144Y-14526003D02*
X11225668Y-14497431D01*
X11225668Y-14497431D02*
X11235191Y-14478384D01*
X11235191Y-14478384D02*
X11254239Y-14449812D01*
X11254239Y-14449812D02*
X11263763Y-14440288D01*
X11320906Y-14468860D02*
X11444715Y-14468860D01*
X11444715Y-14468860D02*
X11378048Y-14545050D01*
X11378048Y-14545050D02*
X11406620Y-14545050D01*
X11406620Y-14545050D02*
X11425668Y-14554574D01*
X11425668Y-14554574D02*
X11435191Y-14564098D01*
X11435191Y-14564098D02*
X11444715Y-14583145D01*
X11444715Y-14583145D02*
X11444715Y-14630764D01*
X11444715Y-14630764D02*
X11435191Y-14649812D01*
X11435191Y-14649812D02*
X11425668Y-14659336D01*
X11425668Y-14659336D02*
X11406620Y-14668860D01*
X11406620Y-14668860D02*
X11349477Y-14668860D01*
X11349477Y-14668860D02*
X11330429Y-14659336D01*
X11330429Y-14659336D02*
X11320906Y-14649812D01*
X11616144Y-14468860D02*
X11578048Y-14468860D01*
X11578048Y-14468860D02*
X11559001Y-14478384D01*
X11559001Y-14478384D02*
X11549477Y-14487907D01*
X11549477Y-14487907D02*
X11530429Y-14516479D01*
X11530429Y-14516479D02*
X11520906Y-14554574D01*
X11520906Y-14554574D02*
X11520906Y-14630764D01*
X11520906Y-14630764D02*
X11530429Y-14649812D01*
X11530429Y-14649812D02*
X11539953Y-14659336D01*
X11539953Y-14659336D02*
X11559001Y-14668860D01*
X11559001Y-14668860D02*
X11597096Y-14668860D01*
X11597096Y-14668860D02*
X11616144Y-14659336D01*
X11616144Y-14659336D02*
X11625668Y-14649812D01*
X11625668Y-14649812D02*
X11635191Y-14630764D01*
X11635191Y-14630764D02*
X11635191Y-14583145D01*
X11635191Y-14583145D02*
X11625668Y-14564098D01*
X11625668Y-14564098D02*
X11616144Y-14554574D01*
X11616144Y-14554574D02*
X11597096Y-14545050D01*
X11597096Y-14545050D02*
X11559001Y-14545050D01*
X11559001Y-14545050D02*
X11539953Y-14554574D01*
X11539953Y-14554574D02*
X11530429Y-14564098D01*
X11530429Y-14564098D02*
X11520906Y-14583145D01*
X11873287Y-14668860D02*
X11873287Y-14468860D01*
X11959001Y-14668860D02*
X11959001Y-14564098D01*
X11959001Y-14564098D02*
X11949477Y-14545050D01*
X11949477Y-14545050D02*
X11930430Y-14535526D01*
X11930430Y-14535526D02*
X11901858Y-14535526D01*
X11901858Y-14535526D02*
X11882810Y-14545050D01*
X11882810Y-14545050D02*
X11873287Y-14554574D01*
X12082810Y-14668860D02*
X12063763Y-14659336D01*
X12063763Y-14659336D02*
X12054239Y-14649812D01*
X12054239Y-14649812D02*
X12044715Y-14630764D01*
X12044715Y-14630764D02*
X12044715Y-14573622D01*
X12044715Y-14573622D02*
X12054239Y-14554574D01*
X12054239Y-14554574D02*
X12063763Y-14545050D01*
X12063763Y-14545050D02*
X12082810Y-14535526D01*
X12082810Y-14535526D02*
X12111382Y-14535526D01*
X12111382Y-14535526D02*
X12130430Y-14545050D01*
X12130430Y-14545050D02*
X12139953Y-14554574D01*
X12139953Y-14554574D02*
X12149477Y-14573622D01*
X12149477Y-14573622D02*
X12149477Y-14630764D01*
X12149477Y-14630764D02*
X12139953Y-14649812D01*
X12139953Y-14649812D02*
X12130430Y-14659336D01*
X12130430Y-14659336D02*
X12111382Y-14668860D01*
X12111382Y-14668860D02*
X12082810Y-14668860D01*
X12263763Y-14668860D02*
X12244715Y-14659336D01*
X12244715Y-14659336D02*
X12235191Y-14640288D01*
X12235191Y-14640288D02*
X12235191Y-14468860D01*
X12416144Y-14659336D02*
X12397096Y-14668860D01*
X12397096Y-14668860D02*
X12359001Y-14668860D01*
X12359001Y-14668860D02*
X12339953Y-14659336D01*
X12339953Y-14659336D02*
X12330430Y-14640288D01*
X12330430Y-14640288D02*
X12330430Y-14564098D01*
X12330430Y-14564098D02*
X12339953Y-14545050D01*
X12339953Y-14545050D02*
X12359001Y-14535526D01*
X12359001Y-14535526D02*
X12397096Y-14535526D01*
X12397096Y-14535526D02*
X12416144Y-14545050D01*
X12416144Y-14545050D02*
X12425668Y-14564098D01*
X12425668Y-14564098D02*
X12425668Y-14583145D01*
X12425668Y-14583145D02*
X12330430Y-14602193D01*
X12501858Y-14659336D02*
X12520906Y-14668860D01*
X12520906Y-14668860D02*
X12559001Y-14668860D01*
X12559001Y-14668860D02*
X12578049Y-14659336D01*
X12578049Y-14659336D02*
X12587572Y-14640288D01*
X12587572Y-14640288D02*
X12587572Y-14630764D01*
X12587572Y-14630764D02*
X12578049Y-14611717D01*
X12578049Y-14611717D02*
X12559001Y-14602193D01*
X12559001Y-14602193D02*
X12530430Y-14602193D01*
X12530430Y-14602193D02*
X12511382Y-14592669D01*
X12511382Y-14592669D02*
X12501858Y-14573622D01*
X12501858Y-14573622D02*
X12501858Y-14564098D01*
X12501858Y-14564098D02*
X12511382Y-14545050D01*
X12511382Y-14545050D02*
X12530430Y-14535526D01*
X12530430Y-14535526D02*
X12559001Y-14535526D01*
X12559001Y-14535526D02*
X12578049Y-14545050D01*
X12654239Y-14745050D02*
X12663763Y-14735526D01*
X12663763Y-14735526D02*
X12682811Y-14706955D01*
X12682811Y-14706955D02*
X12692334Y-14687907D01*
X12692334Y-14687907D02*
X12701858Y-14659336D01*
X12701858Y-14659336D02*
X12711382Y-14611717D01*
X12711382Y-14611717D02*
X12711382Y-14573622D01*
X12711382Y-14573622D02*
X12701858Y-14526003D01*
X12701858Y-14526003D02*
X12692334Y-14497431D01*
X12692334Y-14497431D02*
X12682811Y-14478384D01*
X12682811Y-14478384D02*
X12663763Y-14449812D01*
X12663763Y-14449812D02*
X12654239Y-14440288D01*
D13*
X7672591Y-14880267D02*
X7672591Y-14802485D01*
X7594809Y-14802485D01*
X7594809Y-14880267D01*
X7672591Y-14880267D01*
D11*
X8054239Y-14932860D02*
X7939953Y-14932860D01*
X7997096Y-14932860D02*
X7997096Y-14732860D01*
X7997096Y-14732860D02*
X7978048Y-14761431D01*
X7978048Y-14761431D02*
X7959001Y-14780479D01*
X7959001Y-14780479D02*
X7939953Y-14790003D01*
X8139953Y-14913812D02*
X8149477Y-14923336D01*
X8149477Y-14923336D02*
X8139953Y-14932860D01*
X8139953Y-14932860D02*
X8130429Y-14923336D01*
X8130429Y-14923336D02*
X8139953Y-14913812D01*
X8139953Y-14913812D02*
X8139953Y-14932860D01*
X8339953Y-14932860D02*
X8225667Y-14932860D01*
X8282810Y-14932860D02*
X8282810Y-14732860D01*
X8282810Y-14732860D02*
X8263762Y-14761431D01*
X8263762Y-14761431D02*
X8244715Y-14780479D01*
X8244715Y-14780479D02*
X8225667Y-14790003D01*
X8463763Y-14732860D02*
X8482810Y-14732860D01*
X8482810Y-14732860D02*
X8501858Y-14742384D01*
X8501858Y-14742384D02*
X8511382Y-14751907D01*
X8511382Y-14751907D02*
X8520905Y-14770955D01*
X8520905Y-14770955D02*
X8530429Y-14809050D01*
X8530429Y-14809050D02*
X8530429Y-14856669D01*
X8530429Y-14856669D02*
X8520905Y-14894764D01*
X8520905Y-14894764D02*
X8511382Y-14913812D01*
X8511382Y-14913812D02*
X8501858Y-14923336D01*
X8501858Y-14923336D02*
X8482810Y-14932860D01*
X8482810Y-14932860D02*
X8463763Y-14932860D01*
X8463763Y-14932860D02*
X8444715Y-14923336D01*
X8444715Y-14923336D02*
X8435191Y-14913812D01*
X8435191Y-14913812D02*
X8425667Y-14894764D01*
X8425667Y-14894764D02*
X8416144Y-14856669D01*
X8416144Y-14856669D02*
X8416144Y-14809050D01*
X8416144Y-14809050D02*
X8425667Y-14770955D01*
X8425667Y-14770955D02*
X8435191Y-14751907D01*
X8435191Y-14751907D02*
X8444715Y-14742384D01*
X8444715Y-14742384D02*
X8463763Y-14732860D01*
X8654239Y-14732860D02*
X8673286Y-14732860D01*
X8673286Y-14732860D02*
X8692334Y-14742384D01*
X8692334Y-14742384D02*
X8701858Y-14751907D01*
X8701858Y-14751907D02*
X8711382Y-14770955D01*
X8711382Y-14770955D02*
X8720905Y-14809050D01*
X8720905Y-14809050D02*
X8720905Y-14856669D01*
X8720905Y-14856669D02*
X8711382Y-14894764D01*
X8711382Y-14894764D02*
X8701858Y-14913812D01*
X8701858Y-14913812D02*
X8692334Y-14923336D01*
X8692334Y-14923336D02*
X8673286Y-14932860D01*
X8673286Y-14932860D02*
X8654239Y-14932860D01*
X8654239Y-14932860D02*
X8635191Y-14923336D01*
X8635191Y-14923336D02*
X8625667Y-14913812D01*
X8625667Y-14913812D02*
X8616144Y-14894764D01*
X8616144Y-14894764D02*
X8606620Y-14856669D01*
X8606620Y-14856669D02*
X8606620Y-14809050D01*
X8606620Y-14809050D02*
X8616144Y-14770955D01*
X8616144Y-14770955D02*
X8625667Y-14751907D01*
X8625667Y-14751907D02*
X8635191Y-14742384D01*
X8635191Y-14742384D02*
X8654239Y-14732860D01*
X8806620Y-14932860D02*
X8806620Y-14799526D01*
X8806620Y-14818574D02*
X8816144Y-14809050D01*
X8816144Y-14809050D02*
X8835191Y-14799526D01*
X8835191Y-14799526D02*
X8863763Y-14799526D01*
X8863763Y-14799526D02*
X8882810Y-14809050D01*
X8882810Y-14809050D02*
X8892334Y-14828098D01*
X8892334Y-14828098D02*
X8892334Y-14932860D01*
X8892334Y-14828098D02*
X8901858Y-14809050D01*
X8901858Y-14809050D02*
X8920905Y-14799526D01*
X8920905Y-14799526D02*
X8949477Y-14799526D01*
X8949477Y-14799526D02*
X8968525Y-14809050D01*
X8968525Y-14809050D02*
X8978048Y-14828098D01*
X8978048Y-14828098D02*
X8978048Y-14932860D01*
X9073286Y-14932860D02*
X9073286Y-14799526D01*
X9073286Y-14818574D02*
X9082810Y-14809050D01*
X9082810Y-14809050D02*
X9101858Y-14799526D01*
X9101858Y-14799526D02*
X9130429Y-14799526D01*
X9130429Y-14799526D02*
X9149477Y-14809050D01*
X9149477Y-14809050D02*
X9159001Y-14828098D01*
X9159001Y-14828098D02*
X9159001Y-14932860D01*
X9159001Y-14828098D02*
X9168525Y-14809050D01*
X9168525Y-14809050D02*
X9187572Y-14799526D01*
X9187572Y-14799526D02*
X9216144Y-14799526D01*
X9216144Y-14799526D02*
X9235191Y-14809050D01*
X9235191Y-14809050D02*
X9244715Y-14828098D01*
X9244715Y-14828098D02*
X9244715Y-14932860D01*
X9635191Y-14723336D02*
X9463763Y-14980479D01*
X9892334Y-14732860D02*
X9911382Y-14732860D01*
X9911382Y-14732860D02*
X9930429Y-14742384D01*
X9930429Y-14742384D02*
X9939953Y-14751907D01*
X9939953Y-14751907D02*
X9949477Y-14770955D01*
X9949477Y-14770955D02*
X9959001Y-14809050D01*
X9959001Y-14809050D02*
X9959001Y-14856669D01*
X9959001Y-14856669D02*
X9949477Y-14894764D01*
X9949477Y-14894764D02*
X9939953Y-14913812D01*
X9939953Y-14913812D02*
X9930429Y-14923336D01*
X9930429Y-14923336D02*
X9911382Y-14932860D01*
X9911382Y-14932860D02*
X9892334Y-14932860D01*
X9892334Y-14932860D02*
X9873287Y-14923336D01*
X9873287Y-14923336D02*
X9863763Y-14913812D01*
X9863763Y-14913812D02*
X9854239Y-14894764D01*
X9854239Y-14894764D02*
X9844715Y-14856669D01*
X9844715Y-14856669D02*
X9844715Y-14809050D01*
X9844715Y-14809050D02*
X9854239Y-14770955D01*
X9854239Y-14770955D02*
X9863763Y-14751907D01*
X9863763Y-14751907D02*
X9873287Y-14742384D01*
X9873287Y-14742384D02*
X9892334Y-14732860D01*
X10044715Y-14913812D02*
X10054239Y-14923336D01*
X10054239Y-14923336D02*
X10044715Y-14932860D01*
X10044715Y-14932860D02*
X10035191Y-14923336D01*
X10035191Y-14923336D02*
X10044715Y-14913812D01*
X10044715Y-14913812D02*
X10044715Y-14932860D01*
X10178048Y-14732860D02*
X10197096Y-14732860D01*
X10197096Y-14732860D02*
X10216144Y-14742384D01*
X10216144Y-14742384D02*
X10225668Y-14751907D01*
X10225668Y-14751907D02*
X10235191Y-14770955D01*
X10235191Y-14770955D02*
X10244715Y-14809050D01*
X10244715Y-14809050D02*
X10244715Y-14856669D01*
X10244715Y-14856669D02*
X10235191Y-14894764D01*
X10235191Y-14894764D02*
X10225668Y-14913812D01*
X10225668Y-14913812D02*
X10216144Y-14923336D01*
X10216144Y-14923336D02*
X10197096Y-14932860D01*
X10197096Y-14932860D02*
X10178048Y-14932860D01*
X10178048Y-14932860D02*
X10159001Y-14923336D01*
X10159001Y-14923336D02*
X10149477Y-14913812D01*
X10149477Y-14913812D02*
X10139953Y-14894764D01*
X10139953Y-14894764D02*
X10130429Y-14856669D01*
X10130429Y-14856669D02*
X10130429Y-14809050D01*
X10130429Y-14809050D02*
X10139953Y-14770955D01*
X10139953Y-14770955D02*
X10149477Y-14751907D01*
X10149477Y-14751907D02*
X10159001Y-14742384D01*
X10159001Y-14742384D02*
X10178048Y-14732860D01*
X10416144Y-14799526D02*
X10416144Y-14932860D01*
X10368525Y-14723336D02*
X10320906Y-14866193D01*
X10320906Y-14866193D02*
X10444715Y-14866193D01*
X10501858Y-14732860D02*
X10625668Y-14732860D01*
X10625668Y-14732860D02*
X10559001Y-14809050D01*
X10559001Y-14809050D02*
X10587572Y-14809050D01*
X10587572Y-14809050D02*
X10606620Y-14818574D01*
X10606620Y-14818574D02*
X10616144Y-14828098D01*
X10616144Y-14828098D02*
X10625668Y-14847145D01*
X10625668Y-14847145D02*
X10625668Y-14894764D01*
X10625668Y-14894764D02*
X10616144Y-14913812D01*
X10616144Y-14913812D02*
X10606620Y-14923336D01*
X10606620Y-14923336D02*
X10587572Y-14932860D01*
X10587572Y-14932860D02*
X10530429Y-14932860D01*
X10530429Y-14932860D02*
X10511382Y-14923336D01*
X10511382Y-14923336D02*
X10501858Y-14913812D01*
X10692334Y-14732860D02*
X10816144Y-14732860D01*
X10816144Y-14732860D02*
X10749477Y-14809050D01*
X10749477Y-14809050D02*
X10778049Y-14809050D01*
X10778049Y-14809050D02*
X10797096Y-14818574D01*
X10797096Y-14818574D02*
X10806620Y-14828098D01*
X10806620Y-14828098D02*
X10816144Y-14847145D01*
X10816144Y-14847145D02*
X10816144Y-14894764D01*
X10816144Y-14894764D02*
X10806620Y-14913812D01*
X10806620Y-14913812D02*
X10797096Y-14923336D01*
X10797096Y-14923336D02*
X10778049Y-14932860D01*
X10778049Y-14932860D02*
X10720906Y-14932860D01*
X10720906Y-14932860D02*
X10701858Y-14923336D01*
X10701858Y-14923336D02*
X10692334Y-14913812D01*
X10892334Y-14732860D02*
X10892334Y-14770955D01*
X10968525Y-14732860D02*
X10968525Y-14770955D01*
X11263763Y-15009050D02*
X11254239Y-14999526D01*
X11254239Y-14999526D02*
X11235191Y-14970955D01*
X11235191Y-14970955D02*
X11225668Y-14951907D01*
X11225668Y-14951907D02*
X11216144Y-14923336D01*
X11216144Y-14923336D02*
X11206620Y-14875717D01*
X11206620Y-14875717D02*
X11206620Y-14837622D01*
X11206620Y-14837622D02*
X11216144Y-14790003D01*
X11216144Y-14790003D02*
X11225668Y-14761431D01*
X11225668Y-14761431D02*
X11235191Y-14742384D01*
X11235191Y-14742384D02*
X11254239Y-14713812D01*
X11254239Y-14713812D02*
X11263763Y-14704288D01*
X11330429Y-14751907D02*
X11339953Y-14742384D01*
X11339953Y-14742384D02*
X11359001Y-14732860D01*
X11359001Y-14732860D02*
X11406620Y-14732860D01*
X11406620Y-14732860D02*
X11425668Y-14742384D01*
X11425668Y-14742384D02*
X11435191Y-14751907D01*
X11435191Y-14751907D02*
X11444715Y-14770955D01*
X11444715Y-14770955D02*
X11444715Y-14790003D01*
X11444715Y-14790003D02*
X11435191Y-14818574D01*
X11435191Y-14818574D02*
X11320906Y-14932860D01*
X11320906Y-14932860D02*
X11444715Y-14932860D01*
X11539953Y-14932860D02*
X11578048Y-14932860D01*
X11578048Y-14932860D02*
X11597096Y-14923336D01*
X11597096Y-14923336D02*
X11606620Y-14913812D01*
X11606620Y-14913812D02*
X11625668Y-14885241D01*
X11625668Y-14885241D02*
X11635191Y-14847145D01*
X11635191Y-14847145D02*
X11635191Y-14770955D01*
X11635191Y-14770955D02*
X11625668Y-14751907D01*
X11625668Y-14751907D02*
X11616144Y-14742384D01*
X11616144Y-14742384D02*
X11597096Y-14732860D01*
X11597096Y-14732860D02*
X11559001Y-14732860D01*
X11559001Y-14732860D02*
X11539953Y-14742384D01*
X11539953Y-14742384D02*
X11530429Y-14751907D01*
X11530429Y-14751907D02*
X11520906Y-14770955D01*
X11520906Y-14770955D02*
X11520906Y-14818574D01*
X11520906Y-14818574D02*
X11530429Y-14837622D01*
X11530429Y-14837622D02*
X11539953Y-14847145D01*
X11539953Y-14847145D02*
X11559001Y-14856669D01*
X11559001Y-14856669D02*
X11597096Y-14856669D01*
X11597096Y-14856669D02*
X11616144Y-14847145D01*
X11616144Y-14847145D02*
X11625668Y-14837622D01*
X11625668Y-14837622D02*
X11635191Y-14818574D01*
X11873287Y-14932860D02*
X11873287Y-14732860D01*
X11959001Y-14932860D02*
X11959001Y-14828098D01*
X11959001Y-14828098D02*
X11949477Y-14809050D01*
X11949477Y-14809050D02*
X11930430Y-14799526D01*
X11930430Y-14799526D02*
X11901858Y-14799526D01*
X11901858Y-14799526D02*
X11882810Y-14809050D01*
X11882810Y-14809050D02*
X11873287Y-14818574D01*
X12082810Y-14932860D02*
X12063763Y-14923336D01*
X12063763Y-14923336D02*
X12054239Y-14913812D01*
X12054239Y-14913812D02*
X12044715Y-14894764D01*
X12044715Y-14894764D02*
X12044715Y-14837622D01*
X12044715Y-14837622D02*
X12054239Y-14818574D01*
X12054239Y-14818574D02*
X12063763Y-14809050D01*
X12063763Y-14809050D02*
X12082810Y-14799526D01*
X12082810Y-14799526D02*
X12111382Y-14799526D01*
X12111382Y-14799526D02*
X12130430Y-14809050D01*
X12130430Y-14809050D02*
X12139953Y-14818574D01*
X12139953Y-14818574D02*
X12149477Y-14837622D01*
X12149477Y-14837622D02*
X12149477Y-14894764D01*
X12149477Y-14894764D02*
X12139953Y-14913812D01*
X12139953Y-14913812D02*
X12130430Y-14923336D01*
X12130430Y-14923336D02*
X12111382Y-14932860D01*
X12111382Y-14932860D02*
X12082810Y-14932860D01*
X12263763Y-14932860D02*
X12244715Y-14923336D01*
X12244715Y-14923336D02*
X12235191Y-14904288D01*
X12235191Y-14904288D02*
X12235191Y-14732860D01*
X12416144Y-14923336D02*
X12397096Y-14932860D01*
X12397096Y-14932860D02*
X12359001Y-14932860D01*
X12359001Y-14932860D02*
X12339953Y-14923336D01*
X12339953Y-14923336D02*
X12330430Y-14904288D01*
X12330430Y-14904288D02*
X12330430Y-14828098D01*
X12330430Y-14828098D02*
X12339953Y-14809050D01*
X12339953Y-14809050D02*
X12359001Y-14799526D01*
X12359001Y-14799526D02*
X12397096Y-14799526D01*
X12397096Y-14799526D02*
X12416144Y-14809050D01*
X12416144Y-14809050D02*
X12425668Y-14828098D01*
X12425668Y-14828098D02*
X12425668Y-14847145D01*
X12425668Y-14847145D02*
X12330430Y-14866193D01*
X12501858Y-14923336D02*
X12520906Y-14932860D01*
X12520906Y-14932860D02*
X12559001Y-14932860D01*
X12559001Y-14932860D02*
X12578049Y-14923336D01*
X12578049Y-14923336D02*
X12587572Y-14904288D01*
X12587572Y-14904288D02*
X12587572Y-14894764D01*
X12587572Y-14894764D02*
X12578049Y-14875717D01*
X12578049Y-14875717D02*
X12559001Y-14866193D01*
X12559001Y-14866193D02*
X12530430Y-14866193D01*
X12530430Y-14866193D02*
X12511382Y-14856669D01*
X12511382Y-14856669D02*
X12501858Y-14837622D01*
X12501858Y-14837622D02*
X12501858Y-14828098D01*
X12501858Y-14828098D02*
X12511382Y-14809050D01*
X12511382Y-14809050D02*
X12530430Y-14799526D01*
X12530430Y-14799526D02*
X12559001Y-14799526D01*
X12559001Y-14799526D02*
X12578049Y-14809050D01*
X12654239Y-15009050D02*
X12663763Y-14999526D01*
X12663763Y-14999526D02*
X12682811Y-14970955D01*
X12682811Y-14970955D02*
X12692334Y-14951907D01*
X12692334Y-14951907D02*
X12701858Y-14923336D01*
X12701858Y-14923336D02*
X12711382Y-14875717D01*
X12711382Y-14875717D02*
X12711382Y-14837622D01*
X12711382Y-14837622D02*
X12701858Y-14790003D01*
X12701858Y-14790003D02*
X12692334Y-14761431D01*
X12692334Y-14761431D02*
X12682811Y-14742384D01*
X12682811Y-14742384D02*
X12663763Y-14713812D01*
X12663763Y-14713812D02*
X12654239Y-14704288D01*
X7588700Y-15205376D02*
X7688700Y-15105376D01*
X7588700Y-15005376D01*
X7488700Y-15105376D01*
X7588700Y-15205376D01*
X7939953Y-15015907D02*
X7949477Y-15006384D01*
X7949477Y-15006384D02*
X7968524Y-14996860D01*
X7968524Y-14996860D02*
X8016143Y-14996860D01*
X8016143Y-14996860D02*
X8035191Y-15006384D01*
X8035191Y-15006384D02*
X8044715Y-15015907D01*
X8044715Y-15015907D02*
X8054239Y-15034955D01*
X8054239Y-15034955D02*
X8054239Y-15054003D01*
X8054239Y-15054003D02*
X8044715Y-15082574D01*
X8044715Y-15082574D02*
X7930429Y-15196860D01*
X7930429Y-15196860D02*
X8054239Y-15196860D01*
X8139953Y-15177812D02*
X8149477Y-15187336D01*
X8149477Y-15187336D02*
X8139953Y-15196860D01*
X8139953Y-15196860D02*
X8130429Y-15187336D01*
X8130429Y-15187336D02*
X8139953Y-15177812D01*
X8139953Y-15177812D02*
X8139953Y-15196860D01*
X8225667Y-15015907D02*
X8235191Y-15006384D01*
X8235191Y-15006384D02*
X8254239Y-14996860D01*
X8254239Y-14996860D02*
X8301858Y-14996860D01*
X8301858Y-14996860D02*
X8320905Y-15006384D01*
X8320905Y-15006384D02*
X8330429Y-15015907D01*
X8330429Y-15015907D02*
X8339953Y-15034955D01*
X8339953Y-15034955D02*
X8339953Y-15054003D01*
X8339953Y-15054003D02*
X8330429Y-15082574D01*
X8330429Y-15082574D02*
X8216143Y-15196860D01*
X8216143Y-15196860D02*
X8339953Y-15196860D01*
X8463763Y-14996860D02*
X8482810Y-14996860D01*
X8482810Y-14996860D02*
X8501858Y-15006384D01*
X8501858Y-15006384D02*
X8511382Y-15015907D01*
X8511382Y-15015907D02*
X8520905Y-15034955D01*
X8520905Y-15034955D02*
X8530429Y-15073050D01*
X8530429Y-15073050D02*
X8530429Y-15120669D01*
X8530429Y-15120669D02*
X8520905Y-15158764D01*
X8520905Y-15158764D02*
X8511382Y-15177812D01*
X8511382Y-15177812D02*
X8501858Y-15187336D01*
X8501858Y-15187336D02*
X8482810Y-15196860D01*
X8482810Y-15196860D02*
X8463763Y-15196860D01*
X8463763Y-15196860D02*
X8444715Y-15187336D01*
X8444715Y-15187336D02*
X8435191Y-15177812D01*
X8435191Y-15177812D02*
X8425667Y-15158764D01*
X8425667Y-15158764D02*
X8416144Y-15120669D01*
X8416144Y-15120669D02*
X8416144Y-15073050D01*
X8416144Y-15073050D02*
X8425667Y-15034955D01*
X8425667Y-15034955D02*
X8435191Y-15015907D01*
X8435191Y-15015907D02*
X8444715Y-15006384D01*
X8444715Y-15006384D02*
X8463763Y-14996860D01*
X8654239Y-14996860D02*
X8673286Y-14996860D01*
X8673286Y-14996860D02*
X8692334Y-15006384D01*
X8692334Y-15006384D02*
X8701858Y-15015907D01*
X8701858Y-15015907D02*
X8711382Y-15034955D01*
X8711382Y-15034955D02*
X8720905Y-15073050D01*
X8720905Y-15073050D02*
X8720905Y-15120669D01*
X8720905Y-15120669D02*
X8711382Y-15158764D01*
X8711382Y-15158764D02*
X8701858Y-15177812D01*
X8701858Y-15177812D02*
X8692334Y-15187336D01*
X8692334Y-15187336D02*
X8673286Y-15196860D01*
X8673286Y-15196860D02*
X8654239Y-15196860D01*
X8654239Y-15196860D02*
X8635191Y-15187336D01*
X8635191Y-15187336D02*
X8625667Y-15177812D01*
X8625667Y-15177812D02*
X8616144Y-15158764D01*
X8616144Y-15158764D02*
X8606620Y-15120669D01*
X8606620Y-15120669D02*
X8606620Y-15073050D01*
X8606620Y-15073050D02*
X8616144Y-15034955D01*
X8616144Y-15034955D02*
X8625667Y-15015907D01*
X8625667Y-15015907D02*
X8635191Y-15006384D01*
X8635191Y-15006384D02*
X8654239Y-14996860D01*
X8806620Y-15196860D02*
X8806620Y-15063526D01*
X8806620Y-15082574D02*
X8816144Y-15073050D01*
X8816144Y-15073050D02*
X8835191Y-15063526D01*
X8835191Y-15063526D02*
X8863763Y-15063526D01*
X8863763Y-15063526D02*
X8882810Y-15073050D01*
X8882810Y-15073050D02*
X8892334Y-15092098D01*
X8892334Y-15092098D02*
X8892334Y-15196860D01*
X8892334Y-15092098D02*
X8901858Y-15073050D01*
X8901858Y-15073050D02*
X8920905Y-15063526D01*
X8920905Y-15063526D02*
X8949477Y-15063526D01*
X8949477Y-15063526D02*
X8968525Y-15073050D01*
X8968525Y-15073050D02*
X8978048Y-15092098D01*
X8978048Y-15092098D02*
X8978048Y-15196860D01*
X9073286Y-15196860D02*
X9073286Y-15063526D01*
X9073286Y-15082574D02*
X9082810Y-15073050D01*
X9082810Y-15073050D02*
X9101858Y-15063526D01*
X9101858Y-15063526D02*
X9130429Y-15063526D01*
X9130429Y-15063526D02*
X9149477Y-15073050D01*
X9149477Y-15073050D02*
X9159001Y-15092098D01*
X9159001Y-15092098D02*
X9159001Y-15196860D01*
X9159001Y-15092098D02*
X9168525Y-15073050D01*
X9168525Y-15073050D02*
X9187572Y-15063526D01*
X9187572Y-15063526D02*
X9216144Y-15063526D01*
X9216144Y-15063526D02*
X9235191Y-15073050D01*
X9235191Y-15073050D02*
X9244715Y-15092098D01*
X9244715Y-15092098D02*
X9244715Y-15196860D01*
X9635191Y-14987336D02*
X9463763Y-15244479D01*
X9892334Y-14996860D02*
X9911382Y-14996860D01*
X9911382Y-14996860D02*
X9930429Y-15006384D01*
X9930429Y-15006384D02*
X9939953Y-15015907D01*
X9939953Y-15015907D02*
X9949477Y-15034955D01*
X9949477Y-15034955D02*
X9959001Y-15073050D01*
X9959001Y-15073050D02*
X9959001Y-15120669D01*
X9959001Y-15120669D02*
X9949477Y-15158764D01*
X9949477Y-15158764D02*
X9939953Y-15177812D01*
X9939953Y-15177812D02*
X9930429Y-15187336D01*
X9930429Y-15187336D02*
X9911382Y-15196860D01*
X9911382Y-15196860D02*
X9892334Y-15196860D01*
X9892334Y-15196860D02*
X9873287Y-15187336D01*
X9873287Y-15187336D02*
X9863763Y-15177812D01*
X9863763Y-15177812D02*
X9854239Y-15158764D01*
X9854239Y-15158764D02*
X9844715Y-15120669D01*
X9844715Y-15120669D02*
X9844715Y-15073050D01*
X9844715Y-15073050D02*
X9854239Y-15034955D01*
X9854239Y-15034955D02*
X9863763Y-15015907D01*
X9863763Y-15015907D02*
X9873287Y-15006384D01*
X9873287Y-15006384D02*
X9892334Y-14996860D01*
X10044715Y-15177812D02*
X10054239Y-15187336D01*
X10054239Y-15187336D02*
X10044715Y-15196860D01*
X10044715Y-15196860D02*
X10035191Y-15187336D01*
X10035191Y-15187336D02*
X10044715Y-15177812D01*
X10044715Y-15177812D02*
X10044715Y-15196860D01*
X10178048Y-14996860D02*
X10197096Y-14996860D01*
X10197096Y-14996860D02*
X10216144Y-15006384D01*
X10216144Y-15006384D02*
X10225668Y-15015907D01*
X10225668Y-15015907D02*
X10235191Y-15034955D01*
X10235191Y-15034955D02*
X10244715Y-15073050D01*
X10244715Y-15073050D02*
X10244715Y-15120669D01*
X10244715Y-15120669D02*
X10235191Y-15158764D01*
X10235191Y-15158764D02*
X10225668Y-15177812D01*
X10225668Y-15177812D02*
X10216144Y-15187336D01*
X10216144Y-15187336D02*
X10197096Y-15196860D01*
X10197096Y-15196860D02*
X10178048Y-15196860D01*
X10178048Y-15196860D02*
X10159001Y-15187336D01*
X10159001Y-15187336D02*
X10149477Y-15177812D01*
X10149477Y-15177812D02*
X10139953Y-15158764D01*
X10139953Y-15158764D02*
X10130429Y-15120669D01*
X10130429Y-15120669D02*
X10130429Y-15073050D01*
X10130429Y-15073050D02*
X10139953Y-15034955D01*
X10139953Y-15034955D02*
X10149477Y-15015907D01*
X10149477Y-15015907D02*
X10159001Y-15006384D01*
X10159001Y-15006384D02*
X10178048Y-14996860D01*
X10359001Y-15082574D02*
X10339953Y-15073050D01*
X10339953Y-15073050D02*
X10330429Y-15063526D01*
X10330429Y-15063526D02*
X10320906Y-15044479D01*
X10320906Y-15044479D02*
X10320906Y-15034955D01*
X10320906Y-15034955D02*
X10330429Y-15015907D01*
X10330429Y-15015907D02*
X10339953Y-15006384D01*
X10339953Y-15006384D02*
X10359001Y-14996860D01*
X10359001Y-14996860D02*
X10397096Y-14996860D01*
X10397096Y-14996860D02*
X10416144Y-15006384D01*
X10416144Y-15006384D02*
X10425668Y-15015907D01*
X10425668Y-15015907D02*
X10435191Y-15034955D01*
X10435191Y-15034955D02*
X10435191Y-15044479D01*
X10435191Y-15044479D02*
X10425668Y-15063526D01*
X10425668Y-15063526D02*
X10416144Y-15073050D01*
X10416144Y-15073050D02*
X10397096Y-15082574D01*
X10397096Y-15082574D02*
X10359001Y-15082574D01*
X10359001Y-15082574D02*
X10339953Y-15092098D01*
X10339953Y-15092098D02*
X10330429Y-15101622D01*
X10330429Y-15101622D02*
X10320906Y-15120669D01*
X10320906Y-15120669D02*
X10320906Y-15158764D01*
X10320906Y-15158764D02*
X10330429Y-15177812D01*
X10330429Y-15177812D02*
X10339953Y-15187336D01*
X10339953Y-15187336D02*
X10359001Y-15196860D01*
X10359001Y-15196860D02*
X10397096Y-15196860D01*
X10397096Y-15196860D02*
X10416144Y-15187336D01*
X10416144Y-15187336D02*
X10425668Y-15177812D01*
X10425668Y-15177812D02*
X10435191Y-15158764D01*
X10435191Y-15158764D02*
X10435191Y-15120669D01*
X10435191Y-15120669D02*
X10425668Y-15101622D01*
X10425668Y-15101622D02*
X10416144Y-15092098D01*
X10416144Y-15092098D02*
X10397096Y-15082574D01*
X10606620Y-14996860D02*
X10568525Y-14996860D01*
X10568525Y-14996860D02*
X10549477Y-15006384D01*
X10549477Y-15006384D02*
X10539953Y-15015907D01*
X10539953Y-15015907D02*
X10520906Y-15044479D01*
X10520906Y-15044479D02*
X10511382Y-15082574D01*
X10511382Y-15082574D02*
X10511382Y-15158764D01*
X10511382Y-15158764D02*
X10520906Y-15177812D01*
X10520906Y-15177812D02*
X10530429Y-15187336D01*
X10530429Y-15187336D02*
X10549477Y-15196860D01*
X10549477Y-15196860D02*
X10587572Y-15196860D01*
X10587572Y-15196860D02*
X10606620Y-15187336D01*
X10606620Y-15187336D02*
X10616144Y-15177812D01*
X10616144Y-15177812D02*
X10625668Y-15158764D01*
X10625668Y-15158764D02*
X10625668Y-15111145D01*
X10625668Y-15111145D02*
X10616144Y-15092098D01*
X10616144Y-15092098D02*
X10606620Y-15082574D01*
X10606620Y-15082574D02*
X10587572Y-15073050D01*
X10587572Y-15073050D02*
X10549477Y-15073050D01*
X10549477Y-15073050D02*
X10530429Y-15082574D01*
X10530429Y-15082574D02*
X10520906Y-15092098D01*
X10520906Y-15092098D02*
X10511382Y-15111145D01*
X10797096Y-14996860D02*
X10759001Y-14996860D01*
X10759001Y-14996860D02*
X10739953Y-15006384D01*
X10739953Y-15006384D02*
X10730429Y-15015907D01*
X10730429Y-15015907D02*
X10711382Y-15044479D01*
X10711382Y-15044479D02*
X10701858Y-15082574D01*
X10701858Y-15082574D02*
X10701858Y-15158764D01*
X10701858Y-15158764D02*
X10711382Y-15177812D01*
X10711382Y-15177812D02*
X10720906Y-15187336D01*
X10720906Y-15187336D02*
X10739953Y-15196860D01*
X10739953Y-15196860D02*
X10778049Y-15196860D01*
X10778049Y-15196860D02*
X10797096Y-15187336D01*
X10797096Y-15187336D02*
X10806620Y-15177812D01*
X10806620Y-15177812D02*
X10816144Y-15158764D01*
X10816144Y-15158764D02*
X10816144Y-15111145D01*
X10816144Y-15111145D02*
X10806620Y-15092098D01*
X10806620Y-15092098D02*
X10797096Y-15082574D01*
X10797096Y-15082574D02*
X10778049Y-15073050D01*
X10778049Y-15073050D02*
X10739953Y-15073050D01*
X10739953Y-15073050D02*
X10720906Y-15082574D01*
X10720906Y-15082574D02*
X10711382Y-15092098D01*
X10711382Y-15092098D02*
X10701858Y-15111145D01*
X10892334Y-14996860D02*
X10892334Y-15034955D01*
X10968525Y-14996860D02*
X10968525Y-15034955D01*
X11263763Y-15273050D02*
X11254239Y-15263526D01*
X11254239Y-15263526D02*
X11235191Y-15234955D01*
X11235191Y-15234955D02*
X11225668Y-15215907D01*
X11225668Y-15215907D02*
X11216144Y-15187336D01*
X11216144Y-15187336D02*
X11206620Y-15139717D01*
X11206620Y-15139717D02*
X11206620Y-15101622D01*
X11206620Y-15101622D02*
X11216144Y-15054003D01*
X11216144Y-15054003D02*
X11225668Y-15025431D01*
X11225668Y-15025431D02*
X11235191Y-15006384D01*
X11235191Y-15006384D02*
X11254239Y-14977812D01*
X11254239Y-14977812D02*
X11263763Y-14968288D01*
X11320906Y-14996860D02*
X11454239Y-14996860D01*
X11454239Y-14996860D02*
X11368525Y-15196860D01*
X11682810Y-15196860D02*
X11682810Y-14996860D01*
X11768525Y-15196860D02*
X11768525Y-15092098D01*
X11768525Y-15092098D02*
X11759001Y-15073050D01*
X11759001Y-15073050D02*
X11739953Y-15063526D01*
X11739953Y-15063526D02*
X11711382Y-15063526D01*
X11711382Y-15063526D02*
X11692334Y-15073050D01*
X11692334Y-15073050D02*
X11682810Y-15082574D01*
X11892334Y-15196860D02*
X11873287Y-15187336D01*
X11873287Y-15187336D02*
X11863763Y-15177812D01*
X11863763Y-15177812D02*
X11854239Y-15158764D01*
X11854239Y-15158764D02*
X11854239Y-15101622D01*
X11854239Y-15101622D02*
X11863763Y-15082574D01*
X11863763Y-15082574D02*
X11873287Y-15073050D01*
X11873287Y-15073050D02*
X11892334Y-15063526D01*
X11892334Y-15063526D02*
X11920906Y-15063526D01*
X11920906Y-15063526D02*
X11939953Y-15073050D01*
X11939953Y-15073050D02*
X11949477Y-15082574D01*
X11949477Y-15082574D02*
X11959001Y-15101622D01*
X11959001Y-15101622D02*
X11959001Y-15158764D01*
X11959001Y-15158764D02*
X11949477Y-15177812D01*
X11949477Y-15177812D02*
X11939953Y-15187336D01*
X11939953Y-15187336D02*
X11920906Y-15196860D01*
X11920906Y-15196860D02*
X11892334Y-15196860D01*
X12073287Y-15196860D02*
X12054239Y-15187336D01*
X12054239Y-15187336D02*
X12044715Y-15168288D01*
X12044715Y-15168288D02*
X12044715Y-14996860D01*
X12225668Y-15187336D02*
X12206620Y-15196860D01*
X12206620Y-15196860D02*
X12168525Y-15196860D01*
X12168525Y-15196860D02*
X12149477Y-15187336D01*
X12149477Y-15187336D02*
X12139953Y-15168288D01*
X12139953Y-15168288D02*
X12139953Y-15092098D01*
X12139953Y-15092098D02*
X12149477Y-15073050D01*
X12149477Y-15073050D02*
X12168525Y-15063526D01*
X12168525Y-15063526D02*
X12206620Y-15063526D01*
X12206620Y-15063526D02*
X12225668Y-15073050D01*
X12225668Y-15073050D02*
X12235191Y-15092098D01*
X12235191Y-15092098D02*
X12235191Y-15111145D01*
X12235191Y-15111145D02*
X12139953Y-15130193D01*
X12311382Y-15187336D02*
X12330430Y-15196860D01*
X12330430Y-15196860D02*
X12368525Y-15196860D01*
X12368525Y-15196860D02*
X12387572Y-15187336D01*
X12387572Y-15187336D02*
X12397096Y-15168288D01*
X12397096Y-15168288D02*
X12397096Y-15158764D01*
X12397096Y-15158764D02*
X12387572Y-15139717D01*
X12387572Y-15139717D02*
X12368525Y-15130193D01*
X12368525Y-15130193D02*
X12339953Y-15130193D01*
X12339953Y-15130193D02*
X12320906Y-15120669D01*
X12320906Y-15120669D02*
X12311382Y-15101622D01*
X12311382Y-15101622D02*
X12311382Y-15092098D01*
X12311382Y-15092098D02*
X12320906Y-15073050D01*
X12320906Y-15073050D02*
X12339953Y-15063526D01*
X12339953Y-15063526D02*
X12368525Y-15063526D01*
X12368525Y-15063526D02*
X12387572Y-15073050D01*
X12463763Y-15273050D02*
X12473287Y-15263526D01*
X12473287Y-15263526D02*
X12492334Y-15234955D01*
X12492334Y-15234955D02*
X12501858Y-15215907D01*
X12501858Y-15215907D02*
X12511382Y-15187336D01*
X12511382Y-15187336D02*
X12520906Y-15139717D01*
X12520906Y-15139717D02*
X12520906Y-15101622D01*
X12520906Y-15101622D02*
X12511382Y-15054003D01*
X12511382Y-15054003D02*
X12501858Y-15025431D01*
X12501858Y-15025431D02*
X12492334Y-15006384D01*
X12492334Y-15006384D02*
X12473287Y-14977812D01*
X12473287Y-14977812D02*
X12463763Y-14968288D01*
M02*
