M48
; DRILL file {KiCad 8.0.6} date 2024-11-01T11:01:26+0100
; FORMAT={-:-/ absolute / inch / decimal}
; #@! TF.CreationDate,2024-11-01T11:01:26+01:00
; #@! TF.GenerationSoftware,Kicad,Pcbnew,8.0.6
; #@! TF.FileFunction,Plated,1,2,PTH
FMAT,2
INCH
; #@! TA.AperFunction,Plated,PTH,ComponentDrill
T1C0.0120
; #@! TA.AperFunction,Plated,PTH,ViaDrill
T2C0.0157
; #@! TA.AperFunction,Plated,PTH,ComponentDrill
T3C0.0394
; #@! TA.AperFunction,Plated,PTH,ComponentDrill
T4C0.0433
; #@! TA.AperFunction,Plated,PTH,ComponentDrill
T5C0.0866
%
G90
G05
T1
X6.9734Y-2.4728
X7.06Y-2.4728
T2
X3.06Y-2.47
X3.2533Y-3.0059
X3.2533Y-3.6752
X3.2533Y-4.3445
X3.53Y-3.325
X3.63Y-4.37
X3.632Y-3.696
X3.696Y-3.882
X3.7081Y-2.9193
X3.7081Y-3.5886
X3.7081Y-4.2579
X3.724Y-3.692
X3.962Y-2.5335
X3.962Y-3.2028
X3.962Y-3.872
X4.21Y-3.64
X4.376Y-2.062
X4.382Y-3.41
X4.4Y-2.764
X4.4167Y-2.4469
X4.4167Y-3.1161
X4.4167Y-3.7854
X4.43Y-3.93
X4.65Y-2.71
X4.6646Y-3.7927
X4.6707Y-2.2972
X4.6707Y-2.9665
X4.6707Y-3.6358
X4.794Y-2.576
X4.93Y-3.39
X4.9502Y-4.3008
X5.082Y-3.184
X5.094Y-1.824
X5.098Y-2.506
X5.1254Y-2.2106
X5.1254Y-2.8799
X5.1254Y-3.5492
X5.18Y-2.56
X5.26Y-3.92
X5.3793Y-2.5579
X5.3793Y-3.2272
X5.3793Y-3.8967
X5.4049Y-4.2142
X5.454Y-2.864
X5.7889Y-4.3235
X5.796Y-3.976
X5.82Y-2.03
X5.826Y-4.242
X5.828Y-2.104
X5.832Y-3.428
X5.8341Y-2.4713
X5.8341Y-3.1406
X5.8341Y-3.81
X5.88Y-4.01
X6.088Y-2.6516
X6.088Y-3.3209
X6.088Y-3.9902
X6.17Y-2.99
X6.191Y-4.539
X6.2505Y-4.3575
X6.34Y-3.09
X6.5Y-3.09
X6.532Y-3.52
X6.54Y-2.186
X6.54Y-2.83
X6.54Y-2.908
X6.5427Y-2.565
X6.5427Y-3.2343
X6.5427Y-3.9035
X6.5681Y-4.114
X6.584Y-2.67
X6.6Y-2.32
X6.62Y-3.03
X6.738Y-4.448
X6.78Y-3.65
X6.86Y-2.52
X6.86Y-2.6
X6.86Y-2.67
X6.86Y-2.77
X6.86Y-2.87
X6.86Y-2.92
X6.86Y-2.97
X6.86Y-3.02
X6.86Y-3.07
X6.86Y-3.17
X6.86Y-3.22
X6.86Y-3.27
X6.86Y-3.37
X6.86Y-3.63
X6.8845Y-4.5195
X6.89Y-2.56
X6.89Y-2.72
X6.91Y-2.3
X6.9114Y-4.3208
X6.9185Y-2.82
X6.98Y-3.63
X7.01Y-3.4685
X7.03Y-3.83
X7.03Y-3.97
X7.15Y-3.44
X7.16Y-3.4003
X7.16Y-2.25
X7.16Y-2.34
X7.16Y-2.4
X7.16Y-2.52
X7.16Y-2.57
X7.16Y-2.72
X7.16Y-2.82
X7.16Y-2.92
X7.16Y-3.02
X7.16Y-3.12
X7.16Y-3.22
X7.16Y-3.32
X7.265Y-3.815
X7.27Y-3.92
X7.27Y-3.99
X7.35Y-2.35
T3
X3.2412Y-3.198
X3.2412Y-3.868
X3.2452Y-2.532
X3.5228Y-3.198
X3.5228Y-3.868
X3.5268Y-2.532
X3.9492Y-2.73
X3.9532Y-3.398
X3.9572Y-2.058
X4.2308Y-2.73
X4.2348Y-3.398
X4.2388Y-2.058
X4.6612Y-2.494
X4.6612Y-3.162
X4.6652Y-1.82
X4.9428Y-2.494
X4.9428Y-3.162
X4.9468Y-1.82
X5.1332Y-4.688
X5.3692Y-2.752
X5.3712Y-2.098
X5.3732Y-3.424
X5.4148Y-4.688
X5.6508Y-2.752
X5.6528Y-2.098
X5.6548Y-3.424
X5.8685Y-4.7455
X6.0792Y-2.182
X6.0832Y-3.518
X6.0912Y-2.854
X6.1405Y-4.8184
X6.3608Y-2.182
X6.3648Y-3.518
X6.3728Y-2.854
X7.0146Y-4.921
X7.1554Y-4.6771
T4
X6.71Y-2.3
X6.71Y-2.4
X6.71Y-2.5
X6.71Y-2.6
X6.71Y-2.7
X6.71Y-2.8
X6.71Y-2.9
X6.71Y-3.0
X6.71Y-3.1
X6.71Y-3.2
X6.71Y-3.3
X6.71Y-3.4
X6.81Y-3.58
X6.91Y-3.58
X7.01Y-3.58
X7.11Y-3.58
X7.21Y-3.58
X7.31Y-2.3
X7.31Y-2.4
X7.31Y-2.5
X7.31Y-2.6
X7.31Y-2.7
X7.31Y-2.8
X7.31Y-2.9
X7.31Y-3.0
X7.31Y-3.1
X7.31Y-3.2
X7.31Y-3.3
X7.31Y-3.4
T5
X3.7402Y-2.63
X3.7402Y-3.3
X4.88Y-4.1
X5.865Y-2.75
X6.575Y-4.345
X6.745Y-3.815
X7.3Y-4.19
M30
