G04 #@! TF.GenerationSoftware,KiCad,Pcbnew,8.0.6*
G04 #@! TF.CreationDate,2024-11-01T11:01:02+01:00*
G04 #@! TF.ProjectId,temper,74656d70-6572-42e6-9b69-6361645f7063,1.0*
G04 #@! TF.SameCoordinates,Original*
G04 #@! TF.FileFunction,Legend,Bot*
G04 #@! TF.FilePolarity,Positive*
%FSLAX46Y46*%
G04 Gerber Fmt 4.6, Leading zero omitted, Abs format (unit mm)*
G04 Created by KiCad (PCBNEW 8.0.6) date 2024-11-01 11:01:02*
%MOMM*%
%LPD*%
G01*
G04 APERTURE LIST*
G04 Aperture macros list*
%AMRoundRect*
0 Rectangle with rounded corners*
0 $1 Rounding radius*
0 $2 $3 $4 $5 $6 $7 $8 $9 X,Y pos of 4 corners*
0 Add a 4 corners polygon primitive as box body*
4,1,4,$2,$3,$4,$5,$6,$7,$8,$9,$2,$3,0*
0 Add four circle primitives for the rounded corners*
1,1,$1+$1,$2,$3*
1,1,$1+$1,$4,$5*
1,1,$1+$1,$6,$7*
1,1,$1+$1,$8,$9*
0 Add four rect primitives between the rounded corners*
20,1,$1+$1,$2,$3,$4,$5,0*
20,1,$1+$1,$4,$5,$6,$7,0*
20,1,$1+$1,$6,$7,$8,$9,0*
20,1,$1+$1,$8,$9,$2,$3,0*%
%AMFreePoly0*
4,1,22,0.086777,1.480194,0.141421,1.441421,1.441421,0.141421,1.488777,0.066056,1.500000,0.000000,1.500000,-1.300000,1.480194,-1.386777,1.424698,-1.456366,1.344504,-1.494986,1.300000,-1.500000,-1.300000,-1.500000,-1.386777,-1.480194,-1.456366,-1.424698,-1.494986,-1.344504,-1.500000,-1.300000,-1.500000,1.300000,-1.480194,1.386777,-1.424698,1.456366,-1.344504,1.494986,-1.300000,1.500000,
0.000000,1.500000,0.086777,1.480194,0.086777,1.480194,$1*%
%AMFreePoly1*
4,1,22,0.686777,0.580194,0.756366,0.524698,0.794986,0.444504,0.800000,0.400000,0.800000,0.200000,0.780194,0.113223,0.741421,0.058579,0.141421,-0.541421,0.066056,-0.588777,-0.022393,-0.598742,-0.106406,-0.569345,-0.141421,-0.541421,-0.741421,0.058579,-0.788777,0.133944,-0.800000,0.200000,-0.800000,0.400000,-0.780194,0.486777,-0.724698,0.556366,-0.644504,0.594986,-0.600000,0.600000,
0.600000,0.600000,0.686777,0.580194,0.686777,0.580194,$1*%
%AMFreePoly2*
4,1,26,0.706406,1.169345,0.769345,1.106406,0.798742,1.022393,0.800000,1.000000,0.800000,-0.250000,0.780194,-0.336777,0.724698,-0.406366,0.644504,-0.444986,0.600000,-0.450000,-0.600000,-0.450000,-0.686777,-0.430194,-0.756366,-0.374698,-0.794986,-0.294504,-0.800000,-0.250000,-0.800000,1.000000,-0.780194,1.086777,-0.724698,1.156366,-0.644504,1.194986,-0.555496,1.194986,-0.475302,1.156366,
-0.458579,1.141421,0.000000,0.682842,0.458579,1.141421,0.533944,1.188777,0.622393,1.198742,0.706406,1.169345,0.706406,1.169345,$1*%
G04 Aperture macros list end*
%ADD10C,0.100000*%
%ADD11C,0.300000*%
%ADD12C,0.150000*%
%ADD13C,0.080000*%
%ADD14C,0.120000*%
%ADD15RoundRect,0.200000X0.800000X0.800000X-0.800000X0.800000X-0.800000X-0.800000X0.800000X-0.800000X0*%
%ADD16C,2.000000*%
%ADD17RoundRect,0.200000X0.979796X0.565685X-0.565685X0.979796X-0.979796X-0.565685X0.565685X-0.979796X0*%
%ADD18RoundRect,0.200000X-0.292820X1.092820X-1.092820X-0.292820X0.292820X-1.092820X1.092820X0.292820X0*%
%ADD19C,2.101800*%
%ADD20C,1.390600*%
%ADD21C,3.400000*%
%ADD22C,3.829000*%
%ADD23FreePoly0,0.000000*%
%ADD24RoundRect,0.200000X-0.800000X-1.300000X0.800000X-1.300000X0.800000X1.300000X-0.800000X1.300000X0*%
%ADD25RoundRect,0.200000X-1.300000X-1.300000X1.300000X-1.300000X1.300000X1.300000X-1.300000X1.300000X0*%
%ADD26FreePoly0,180.000000*%
%ADD27RoundRect,0.200000X1.300000X1.300000X-1.300000X1.300000X-1.300000X-1.300000X1.300000X-1.300000X0*%
%ADD28FreePoly0,165.000000*%
%ADD29RoundRect,0.200000X1.592168X0.919239X-0.919239X1.592168X-1.592168X-0.919239X0.919239X-1.592168X0*%
%ADD30FreePoly0,240.000000*%
%ADD31RoundRect,0.200000X-0.475833X1.775833X-1.775833X-0.475833X0.475833X-1.775833X1.775833X0.475833X0*%
%ADD32C,4.400000*%
%ADD33C,1.300000*%
%ADD34FreePoly1,90.000000*%
%ADD35FreePoly1,270.000000*%
%ADD36FreePoly2,90.000000*%
%ADD37FreePoly2,270.000000*%
%ADD38C,1.150000*%
%ADD39RoundRect,0.200000X-0.500000X0.775000X-0.500000X-0.775000X0.500000X-0.775000X0.500000X0.775000X0*%
%ADD40FreePoly1,180.000000*%
%ADD41FreePoly2,180.000000*%
G04 APERTURE END LIST*
D10*
X180549236Y-86699561D02*
X180549236Y-87232895D01*
X180549236Y-86775752D02*
X180511141Y-86737657D01*
X180511141Y-86737657D02*
X180434951Y-86699561D01*
X180434951Y-86699561D02*
X180320665Y-86699561D01*
X180320665Y-86699561D02*
X180244474Y-86737657D01*
X180244474Y-86737657D02*
X180206379Y-86813847D01*
X180206379Y-86813847D02*
X180206379Y-87232895D01*
X179825426Y-87232895D02*
X179825426Y-86699561D01*
X179825426Y-86432895D02*
X179863522Y-86470990D01*
X179863522Y-86470990D02*
X179825426Y-86509085D01*
X179825426Y-86509085D02*
X179787331Y-86470990D01*
X179787331Y-86470990D02*
X179825426Y-86432895D01*
X179825426Y-86432895D02*
X179825426Y-86509085D01*
X179101617Y-87194800D02*
X179177808Y-87232895D01*
X179177808Y-87232895D02*
X179330189Y-87232895D01*
X179330189Y-87232895D02*
X179406379Y-87194800D01*
X179406379Y-87194800D02*
X179444474Y-87156704D01*
X179444474Y-87156704D02*
X179482570Y-87080514D01*
X179482570Y-87080514D02*
X179482570Y-86851942D01*
X179482570Y-86851942D02*
X179444474Y-86775752D01*
X179444474Y-86775752D02*
X179406379Y-86737657D01*
X179406379Y-86737657D02*
X179330189Y-86699561D01*
X179330189Y-86699561D02*
X179177808Y-86699561D01*
X179177808Y-86699561D02*
X179101617Y-86737657D01*
X178453998Y-87194800D02*
X178530189Y-87232895D01*
X178530189Y-87232895D02*
X178682570Y-87232895D01*
X178682570Y-87232895D02*
X178758760Y-87194800D01*
X178758760Y-87194800D02*
X178796856Y-87118609D01*
X178796856Y-87118609D02*
X178796856Y-86813847D01*
X178796856Y-86813847D02*
X178758760Y-86737657D01*
X178758760Y-86737657D02*
X178682570Y-86699561D01*
X178682570Y-86699561D02*
X178530189Y-86699561D01*
X178530189Y-86699561D02*
X178453998Y-86737657D01*
X178453998Y-86737657D02*
X178415903Y-86813847D01*
X178415903Y-86813847D02*
X178415903Y-86890038D01*
X178415903Y-86890038D02*
X178796856Y-86966228D01*
X178073046Y-87156704D02*
X178034951Y-87194800D01*
X178034951Y-87194800D02*
X178073046Y-87232895D01*
X178073046Y-87232895D02*
X178111142Y-87194800D01*
X178111142Y-87194800D02*
X178073046Y-87156704D01*
X178073046Y-87156704D02*
X178073046Y-87232895D01*
X178073046Y-86928133D02*
X178111142Y-86470990D01*
X178111142Y-86470990D02*
X178073046Y-86432895D01*
X178073046Y-86432895D02*
X178034951Y-86470990D01*
X178034951Y-86470990D02*
X178073046Y-86928133D01*
X178073046Y-86928133D02*
X178073046Y-86432895D01*
X177768285Y-86699561D02*
X177577809Y-87232895D01*
X177577809Y-87232895D02*
X177387332Y-86699561D01*
X177082570Y-87232895D02*
X177082570Y-86699561D01*
X177082570Y-86432895D02*
X177120666Y-86470990D01*
X177120666Y-86470990D02*
X177082570Y-86509085D01*
X177082570Y-86509085D02*
X177044475Y-86470990D01*
X177044475Y-86470990D02*
X177082570Y-86432895D01*
X177082570Y-86432895D02*
X177082570Y-86509085D01*
X176396856Y-87194800D02*
X176473047Y-87232895D01*
X176473047Y-87232895D02*
X176625428Y-87232895D01*
X176625428Y-87232895D02*
X176701618Y-87194800D01*
X176701618Y-87194800D02*
X176739714Y-87118609D01*
X176739714Y-87118609D02*
X176739714Y-86813847D01*
X176739714Y-86813847D02*
X176701618Y-86737657D01*
X176701618Y-86737657D02*
X176625428Y-86699561D01*
X176625428Y-86699561D02*
X176473047Y-86699561D01*
X176473047Y-86699561D02*
X176396856Y-86737657D01*
X176396856Y-86737657D02*
X176358761Y-86813847D01*
X176358761Y-86813847D02*
X176358761Y-86890038D01*
X176358761Y-86890038D02*
X176739714Y-86966228D01*
X176092095Y-86699561D02*
X175939714Y-87232895D01*
X175939714Y-87232895D02*
X175787333Y-86851942D01*
X175787333Y-86851942D02*
X175634952Y-87232895D01*
X175634952Y-87232895D02*
X175482571Y-86699561D01*
X180485714Y-56219561D02*
X180485714Y-56752895D01*
X180485714Y-56295752D02*
X180447619Y-56257657D01*
X180447619Y-56257657D02*
X180371429Y-56219561D01*
X180371429Y-56219561D02*
X180257143Y-56219561D01*
X180257143Y-56219561D02*
X180180952Y-56257657D01*
X180180952Y-56257657D02*
X180142857Y-56333847D01*
X180142857Y-56333847D02*
X180142857Y-56752895D01*
X179761904Y-56752895D02*
X179761904Y-56219561D01*
X179761904Y-55952895D02*
X179800000Y-55990990D01*
X179800000Y-55990990D02*
X179761904Y-56029085D01*
X179761904Y-56029085D02*
X179723809Y-55990990D01*
X179723809Y-55990990D02*
X179761904Y-55952895D01*
X179761904Y-55952895D02*
X179761904Y-56029085D01*
X179038095Y-56714800D02*
X179114286Y-56752895D01*
X179114286Y-56752895D02*
X179266667Y-56752895D01*
X179266667Y-56752895D02*
X179342857Y-56714800D01*
X179342857Y-56714800D02*
X179380952Y-56676704D01*
X179380952Y-56676704D02*
X179419048Y-56600514D01*
X179419048Y-56600514D02*
X179419048Y-56371942D01*
X179419048Y-56371942D02*
X179380952Y-56295752D01*
X179380952Y-56295752D02*
X179342857Y-56257657D01*
X179342857Y-56257657D02*
X179266667Y-56219561D01*
X179266667Y-56219561D02*
X179114286Y-56219561D01*
X179114286Y-56219561D02*
X179038095Y-56257657D01*
X178390476Y-56714800D02*
X178466667Y-56752895D01*
X178466667Y-56752895D02*
X178619048Y-56752895D01*
X178619048Y-56752895D02*
X178695238Y-56714800D01*
X178695238Y-56714800D02*
X178733334Y-56638609D01*
X178733334Y-56638609D02*
X178733334Y-56333847D01*
X178733334Y-56333847D02*
X178695238Y-56257657D01*
X178695238Y-56257657D02*
X178619048Y-56219561D01*
X178619048Y-56219561D02*
X178466667Y-56219561D01*
X178466667Y-56219561D02*
X178390476Y-56257657D01*
X178390476Y-56257657D02*
X178352381Y-56333847D01*
X178352381Y-56333847D02*
X178352381Y-56410038D01*
X178352381Y-56410038D02*
X178733334Y-56486228D01*
X178009524Y-56676704D02*
X177971429Y-56714800D01*
X177971429Y-56714800D02*
X178009524Y-56752895D01*
X178009524Y-56752895D02*
X178047620Y-56714800D01*
X178047620Y-56714800D02*
X178009524Y-56676704D01*
X178009524Y-56676704D02*
X178009524Y-56752895D01*
X178009524Y-56448133D02*
X178047620Y-55990990D01*
X178047620Y-55990990D02*
X178009524Y-55952895D01*
X178009524Y-55952895D02*
X177971429Y-55990990D01*
X177971429Y-55990990D02*
X178009524Y-56448133D01*
X178009524Y-56448133D02*
X178009524Y-55952895D01*
X177628572Y-56219561D02*
X177628572Y-56752895D01*
X177628572Y-56295752D02*
X177590477Y-56257657D01*
X177590477Y-56257657D02*
X177514287Y-56219561D01*
X177514287Y-56219561D02*
X177400001Y-56219561D01*
X177400001Y-56219561D02*
X177323810Y-56257657D01*
X177323810Y-56257657D02*
X177285715Y-56333847D01*
X177285715Y-56333847D02*
X177285715Y-56752895D01*
X176561905Y-56752895D02*
X176561905Y-56333847D01*
X176561905Y-56333847D02*
X176600000Y-56257657D01*
X176600000Y-56257657D02*
X176676191Y-56219561D01*
X176676191Y-56219561D02*
X176828572Y-56219561D01*
X176828572Y-56219561D02*
X176904762Y-56257657D01*
X176561905Y-56714800D02*
X176638096Y-56752895D01*
X176638096Y-56752895D02*
X176828572Y-56752895D01*
X176828572Y-56752895D02*
X176904762Y-56714800D01*
X176904762Y-56714800D02*
X176942858Y-56638609D01*
X176942858Y-56638609D02*
X176942858Y-56562419D01*
X176942858Y-56562419D02*
X176904762Y-56486228D01*
X176904762Y-56486228D02*
X176828572Y-56448133D01*
X176828572Y-56448133D02*
X176638096Y-56448133D01*
X176638096Y-56448133D02*
X176561905Y-56410038D01*
X176180952Y-56219561D02*
X176180952Y-56752895D01*
X176180952Y-56295752D02*
X176142857Y-56257657D01*
X176142857Y-56257657D02*
X176066667Y-56219561D01*
X176066667Y-56219561D02*
X175952381Y-56219561D01*
X175952381Y-56219561D02*
X175876190Y-56257657D01*
X175876190Y-56257657D02*
X175838095Y-56333847D01*
X175838095Y-56333847D02*
X175838095Y-56752895D01*
X175342857Y-56752895D02*
X175419047Y-56714800D01*
X175419047Y-56714800D02*
X175457142Y-56676704D01*
X175457142Y-56676704D02*
X175495238Y-56600514D01*
X175495238Y-56600514D02*
X175495238Y-56371942D01*
X175495238Y-56371942D02*
X175457142Y-56295752D01*
X175457142Y-56295752D02*
X175419047Y-56257657D01*
X175419047Y-56257657D02*
X175342857Y-56219561D01*
X175342857Y-56219561D02*
X175228571Y-56219561D01*
X175228571Y-56219561D02*
X175152380Y-56257657D01*
X175152380Y-56257657D02*
X175114285Y-56295752D01*
X175114285Y-56295752D02*
X175076190Y-56371942D01*
X175076190Y-56371942D02*
X175076190Y-56600514D01*
X175076190Y-56600514D02*
X175114285Y-56676704D01*
X175114285Y-56676704D02*
X175152380Y-56714800D01*
X175152380Y-56714800D02*
X175228571Y-56752895D01*
X175228571Y-56752895D02*
X175342857Y-56752895D01*
D11*
X126789774Y-97220870D02*
X126218346Y-97220870D01*
X126575489Y-96720870D02*
X126575489Y-98006584D01*
X126575489Y-98006584D02*
X126504060Y-98149442D01*
X126504060Y-98149442D02*
X126361203Y-98220870D01*
X126361203Y-98220870D02*
X126218346Y-98220870D01*
X125146917Y-98149442D02*
X125289774Y-98220870D01*
X125289774Y-98220870D02*
X125575489Y-98220870D01*
X125575489Y-98220870D02*
X125718346Y-98149442D01*
X125718346Y-98149442D02*
X125789774Y-98006584D01*
X125789774Y-98006584D02*
X125789774Y-97435156D01*
X125789774Y-97435156D02*
X125718346Y-97292299D01*
X125718346Y-97292299D02*
X125575489Y-97220870D01*
X125575489Y-97220870D02*
X125289774Y-97220870D01*
X125289774Y-97220870D02*
X125146917Y-97292299D01*
X125146917Y-97292299D02*
X125075489Y-97435156D01*
X125075489Y-97435156D02*
X125075489Y-97578013D01*
X125075489Y-97578013D02*
X125789774Y-97720870D01*
X124432632Y-98220870D02*
X124432632Y-97220870D01*
X124432632Y-97363727D02*
X124361203Y-97292299D01*
X124361203Y-97292299D02*
X124218346Y-97220870D01*
X124218346Y-97220870D02*
X124004060Y-97220870D01*
X124004060Y-97220870D02*
X123861203Y-97292299D01*
X123861203Y-97292299D02*
X123789775Y-97435156D01*
X123789775Y-97435156D02*
X123789775Y-98220870D01*
X123789775Y-97435156D02*
X123718346Y-97292299D01*
X123718346Y-97292299D02*
X123575489Y-97220870D01*
X123575489Y-97220870D02*
X123361203Y-97220870D01*
X123361203Y-97220870D02*
X123218346Y-97292299D01*
X123218346Y-97292299D02*
X123146917Y-97435156D01*
X123146917Y-97435156D02*
X123146917Y-98220870D01*
X122432632Y-97220870D02*
X122432632Y-98720870D01*
X122432632Y-97292299D02*
X122289775Y-97220870D01*
X122289775Y-97220870D02*
X122004060Y-97220870D01*
X122004060Y-97220870D02*
X121861203Y-97292299D01*
X121861203Y-97292299D02*
X121789775Y-97363727D01*
X121789775Y-97363727D02*
X121718346Y-97506584D01*
X121718346Y-97506584D02*
X121718346Y-97935156D01*
X121718346Y-97935156D02*
X121789775Y-98078013D01*
X121789775Y-98078013D02*
X121861203Y-98149442D01*
X121861203Y-98149442D02*
X122004060Y-98220870D01*
X122004060Y-98220870D02*
X122289775Y-98220870D01*
X122289775Y-98220870D02*
X122432632Y-98149442D01*
X120504060Y-98149442D02*
X120646917Y-98220870D01*
X120646917Y-98220870D02*
X120932632Y-98220870D01*
X120932632Y-98220870D02*
X121075489Y-98149442D01*
X121075489Y-98149442D02*
X121146917Y-98006584D01*
X121146917Y-98006584D02*
X121146917Y-97435156D01*
X121146917Y-97435156D02*
X121075489Y-97292299D01*
X121075489Y-97292299D02*
X120932632Y-97220870D01*
X120932632Y-97220870D02*
X120646917Y-97220870D01*
X120646917Y-97220870D02*
X120504060Y-97292299D01*
X120504060Y-97292299D02*
X120432632Y-97435156D01*
X120432632Y-97435156D02*
X120432632Y-97578013D01*
X120432632Y-97578013D02*
X121146917Y-97720870D01*
X119789775Y-98220870D02*
X119789775Y-97220870D01*
X119789775Y-97506584D02*
X119718346Y-97363727D01*
X119718346Y-97363727D02*
X119646918Y-97292299D01*
X119646918Y-97292299D02*
X119504060Y-97220870D01*
X119504060Y-97220870D02*
X119361203Y-97220870D01*
X125646917Y-99921500D02*
X125718346Y-99850072D01*
X125718346Y-99850072D02*
X125861203Y-99778643D01*
X125861203Y-99778643D02*
X126004060Y-99778643D01*
X126004060Y-99778643D02*
X126146917Y-99850072D01*
X126146917Y-99850072D02*
X126218346Y-99921500D01*
X126218346Y-99921500D02*
X126289774Y-100064358D01*
X126289774Y-100064358D02*
X126289774Y-100207215D01*
X126289774Y-100207215D02*
X126218346Y-100350072D01*
X126218346Y-100350072D02*
X126146917Y-100421500D01*
X126146917Y-100421500D02*
X126004060Y-100492929D01*
X126004060Y-100492929D02*
X125861203Y-100492929D01*
X125861203Y-100492929D02*
X125718346Y-100421500D01*
X125718346Y-100421500D02*
X125646917Y-100350072D01*
X125646917Y-99778643D02*
X125646917Y-100350072D01*
X125646917Y-100350072D02*
X125575489Y-100421500D01*
X125575489Y-100421500D02*
X125504060Y-100421500D01*
X125504060Y-100421500D02*
X125361203Y-100350072D01*
X125361203Y-100350072D02*
X125289774Y-100207215D01*
X125289774Y-100207215D02*
X125289774Y-99850072D01*
X125289774Y-99850072D02*
X125432632Y-99635786D01*
X125432632Y-99635786D02*
X125646917Y-99492929D01*
X125646917Y-99492929D02*
X125932632Y-99421500D01*
X125932632Y-99421500D02*
X126218346Y-99492929D01*
X126218346Y-99492929D02*
X126432632Y-99635786D01*
X126432632Y-99635786D02*
X126575489Y-99850072D01*
X126575489Y-99850072D02*
X126646917Y-100135786D01*
X126646917Y-100135786D02*
X126575489Y-100421500D01*
X126575489Y-100421500D02*
X126432632Y-100635786D01*
X126432632Y-100635786D02*
X126218346Y-100778643D01*
X126218346Y-100778643D02*
X125932632Y-100850072D01*
X125932632Y-100850072D02*
X125646917Y-100778643D01*
X125646917Y-100778643D02*
X125432632Y-100635786D01*
X124646918Y-100635786D02*
X124646918Y-99135786D01*
X124004061Y-100635786D02*
X124004061Y-99850072D01*
X124004061Y-99850072D02*
X124075489Y-99707215D01*
X124075489Y-99707215D02*
X124218346Y-99635786D01*
X124218346Y-99635786D02*
X124432632Y-99635786D01*
X124432632Y-99635786D02*
X124575489Y-99707215D01*
X124575489Y-99707215D02*
X124646918Y-99778643D01*
X123289775Y-100635786D02*
X123289775Y-99635786D01*
X123289775Y-99921500D02*
X123218346Y-99778643D01*
X123218346Y-99778643D02*
X123146918Y-99707215D01*
X123146918Y-99707215D02*
X123004060Y-99635786D01*
X123004060Y-99635786D02*
X122861203Y-99635786D01*
X122575489Y-99635786D02*
X122004061Y-99635786D01*
X122361204Y-100635786D02*
X122361204Y-99350072D01*
X122361204Y-99350072D02*
X122289775Y-99207215D01*
X122289775Y-99207215D02*
X122146918Y-99135786D01*
X122146918Y-99135786D02*
X122004061Y-99135786D01*
X121504061Y-100635786D02*
X121504061Y-99635786D01*
X121504061Y-99778643D02*
X121432632Y-99707215D01*
X121432632Y-99707215D02*
X121289775Y-99635786D01*
X121289775Y-99635786D02*
X121075489Y-99635786D01*
X121075489Y-99635786D02*
X120932632Y-99707215D01*
X120932632Y-99707215D02*
X120861204Y-99850072D01*
X120861204Y-99850072D02*
X120861204Y-100635786D01*
X120861204Y-99850072D02*
X120789775Y-99707215D01*
X120789775Y-99707215D02*
X120646918Y-99635786D01*
X120646918Y-99635786D02*
X120432632Y-99635786D01*
X120432632Y-99635786D02*
X120289775Y-99707215D01*
X120289775Y-99707215D02*
X120218346Y-99850072D01*
X120218346Y-99850072D02*
X120218346Y-100635786D01*
X118861204Y-100635786D02*
X118861204Y-99850072D01*
X118861204Y-99850072D02*
X118932632Y-99707215D01*
X118932632Y-99707215D02*
X119075489Y-99635786D01*
X119075489Y-99635786D02*
X119361204Y-99635786D01*
X119361204Y-99635786D02*
X119504061Y-99707215D01*
X118861204Y-100564358D02*
X119004061Y-100635786D01*
X119004061Y-100635786D02*
X119361204Y-100635786D01*
X119361204Y-100635786D02*
X119504061Y-100564358D01*
X119504061Y-100564358D02*
X119575489Y-100421500D01*
X119575489Y-100421500D02*
X119575489Y-100278643D01*
X119575489Y-100278643D02*
X119504061Y-100135786D01*
X119504061Y-100135786D02*
X119361204Y-100064358D01*
X119361204Y-100064358D02*
X119004061Y-100064358D01*
X119004061Y-100064358D02*
X118861204Y-99992929D01*
X118146918Y-100635786D02*
X118146918Y-99635786D01*
X118146918Y-99921500D02*
X118075489Y-99778643D01*
X118075489Y-99778643D02*
X118004061Y-99707215D01*
X118004061Y-99707215D02*
X117861203Y-99635786D01*
X117861203Y-99635786D02*
X117718346Y-99635786D01*
X117432632Y-99635786D02*
X116861204Y-99635786D01*
X117218347Y-99135786D02*
X117218347Y-100421500D01*
X117218347Y-100421500D02*
X117146918Y-100564358D01*
X117146918Y-100564358D02*
X117004061Y-100635786D01*
X117004061Y-100635786D02*
X116861204Y-100635786D01*
X116361204Y-100635786D02*
X116361204Y-99635786D01*
X116361204Y-99135786D02*
X116432632Y-99207215D01*
X116432632Y-99207215D02*
X116361204Y-99278643D01*
X116361204Y-99278643D02*
X116289775Y-99207215D01*
X116289775Y-99207215D02*
X116361204Y-99135786D01*
X116361204Y-99135786D02*
X116361204Y-99278643D01*
X115646918Y-99635786D02*
X115646918Y-100635786D01*
X115646918Y-99778643D02*
X115575489Y-99707215D01*
X115575489Y-99707215D02*
X115432632Y-99635786D01*
X115432632Y-99635786D02*
X115218346Y-99635786D01*
X115218346Y-99635786D02*
X115075489Y-99707215D01*
X115075489Y-99707215D02*
X115004061Y-99850072D01*
X115004061Y-99850072D02*
X115004061Y-100635786D01*
X114361203Y-100564358D02*
X114218346Y-100635786D01*
X114218346Y-100635786D02*
X113932632Y-100635786D01*
X113932632Y-100635786D02*
X113789775Y-100564358D01*
X113789775Y-100564358D02*
X113718346Y-100421500D01*
X113718346Y-100421500D02*
X113718346Y-100350072D01*
X113718346Y-100350072D02*
X113789775Y-100207215D01*
X113789775Y-100207215D02*
X113932632Y-100135786D01*
X113932632Y-100135786D02*
X114146918Y-100135786D01*
X114146918Y-100135786D02*
X114289775Y-100064358D01*
X114289775Y-100064358D02*
X114361203Y-99921500D01*
X114361203Y-99921500D02*
X114361203Y-99850072D01*
X114361203Y-99850072D02*
X114289775Y-99707215D01*
X114289775Y-99707215D02*
X114146918Y-99635786D01*
X114146918Y-99635786D02*
X113932632Y-99635786D01*
X113932632Y-99635786D02*
X113789775Y-99707215D01*
D12*
X82798332Y-68902200D02*
X82655475Y-68949819D01*
X82655475Y-68949819D02*
X82417380Y-68949819D01*
X82417380Y-68949819D02*
X82322142Y-68902200D01*
X82322142Y-68902200D02*
X82274523Y-68854580D01*
X82274523Y-68854580D02*
X82226904Y-68759342D01*
X82226904Y-68759342D02*
X82226904Y-68664104D01*
X82226904Y-68664104D02*
X82274523Y-68568866D01*
X82274523Y-68568866D02*
X82322142Y-68521247D01*
X82322142Y-68521247D02*
X82417380Y-68473628D01*
X82417380Y-68473628D02*
X82607856Y-68426009D01*
X82607856Y-68426009D02*
X82703094Y-68378390D01*
X82703094Y-68378390D02*
X82750713Y-68330771D01*
X82750713Y-68330771D02*
X82798332Y-68235533D01*
X82798332Y-68235533D02*
X82798332Y-68140295D01*
X82798332Y-68140295D02*
X82750713Y-68045057D01*
X82750713Y-68045057D02*
X82703094Y-67997438D01*
X82703094Y-67997438D02*
X82607856Y-67949819D01*
X82607856Y-67949819D02*
X82369761Y-67949819D01*
X82369761Y-67949819D02*
X82226904Y-67997438D01*
X81893570Y-67949819D02*
X81655475Y-68949819D01*
X81655475Y-68949819D02*
X81464999Y-68235533D01*
X81464999Y-68235533D02*
X81274523Y-68949819D01*
X81274523Y-68949819D02*
X81036428Y-67949819D01*
X80131666Y-68949819D02*
X80703094Y-68949819D01*
X80417380Y-68949819D02*
X80417380Y-67949819D01*
X80417380Y-67949819D02*
X80512618Y-68092676D01*
X80512618Y-68092676D02*
X80607856Y-68187914D01*
X80607856Y-68187914D02*
X80703094Y-68235533D01*
X100798332Y-56902200D02*
X100655475Y-56949819D01*
X100655475Y-56949819D02*
X100417380Y-56949819D01*
X100417380Y-56949819D02*
X100322142Y-56902200D01*
X100322142Y-56902200D02*
X100274523Y-56854580D01*
X100274523Y-56854580D02*
X100226904Y-56759342D01*
X100226904Y-56759342D02*
X100226904Y-56664104D01*
X100226904Y-56664104D02*
X100274523Y-56568866D01*
X100274523Y-56568866D02*
X100322142Y-56521247D01*
X100322142Y-56521247D02*
X100417380Y-56473628D01*
X100417380Y-56473628D02*
X100607856Y-56426009D01*
X100607856Y-56426009D02*
X100703094Y-56378390D01*
X100703094Y-56378390D02*
X100750713Y-56330771D01*
X100750713Y-56330771D02*
X100798332Y-56235533D01*
X100798332Y-56235533D02*
X100798332Y-56140295D01*
X100798332Y-56140295D02*
X100750713Y-56045057D01*
X100750713Y-56045057D02*
X100703094Y-55997438D01*
X100703094Y-55997438D02*
X100607856Y-55949819D01*
X100607856Y-55949819D02*
X100369761Y-55949819D01*
X100369761Y-55949819D02*
X100226904Y-55997438D01*
X99893570Y-55949819D02*
X99655475Y-56949819D01*
X99655475Y-56949819D02*
X99464999Y-56235533D01*
X99464999Y-56235533D02*
X99274523Y-56949819D01*
X99274523Y-56949819D02*
X99036428Y-55949819D01*
X98703094Y-56045057D02*
X98655475Y-55997438D01*
X98655475Y-55997438D02*
X98560237Y-55949819D01*
X98560237Y-55949819D02*
X98322142Y-55949819D01*
X98322142Y-55949819D02*
X98226904Y-55997438D01*
X98226904Y-55997438D02*
X98179285Y-56045057D01*
X98179285Y-56045057D02*
X98131666Y-56140295D01*
X98131666Y-56140295D02*
X98131666Y-56235533D01*
X98131666Y-56235533D02*
X98179285Y-56378390D01*
X98179285Y-56378390D02*
X98750713Y-56949819D01*
X98750713Y-56949819D02*
X98131666Y-56949819D01*
X118798332Y-50902200D02*
X118655475Y-50949819D01*
X118655475Y-50949819D02*
X118417380Y-50949819D01*
X118417380Y-50949819D02*
X118322142Y-50902200D01*
X118322142Y-50902200D02*
X118274523Y-50854580D01*
X118274523Y-50854580D02*
X118226904Y-50759342D01*
X118226904Y-50759342D02*
X118226904Y-50664104D01*
X118226904Y-50664104D02*
X118274523Y-50568866D01*
X118274523Y-50568866D02*
X118322142Y-50521247D01*
X118322142Y-50521247D02*
X118417380Y-50473628D01*
X118417380Y-50473628D02*
X118607856Y-50426009D01*
X118607856Y-50426009D02*
X118703094Y-50378390D01*
X118703094Y-50378390D02*
X118750713Y-50330771D01*
X118750713Y-50330771D02*
X118798332Y-50235533D01*
X118798332Y-50235533D02*
X118798332Y-50140295D01*
X118798332Y-50140295D02*
X118750713Y-50045057D01*
X118750713Y-50045057D02*
X118703094Y-49997438D01*
X118703094Y-49997438D02*
X118607856Y-49949819D01*
X118607856Y-49949819D02*
X118369761Y-49949819D01*
X118369761Y-49949819D02*
X118226904Y-49997438D01*
X117893570Y-49949819D02*
X117655475Y-50949819D01*
X117655475Y-50949819D02*
X117464999Y-50235533D01*
X117464999Y-50235533D02*
X117274523Y-50949819D01*
X117274523Y-50949819D02*
X117036428Y-49949819D01*
X116750713Y-49949819D02*
X116131666Y-49949819D01*
X116131666Y-49949819D02*
X116464999Y-50330771D01*
X116464999Y-50330771D02*
X116322142Y-50330771D01*
X116322142Y-50330771D02*
X116226904Y-50378390D01*
X116226904Y-50378390D02*
X116179285Y-50426009D01*
X116179285Y-50426009D02*
X116131666Y-50521247D01*
X116131666Y-50521247D02*
X116131666Y-50759342D01*
X116131666Y-50759342D02*
X116179285Y-50854580D01*
X116179285Y-50854580D02*
X116226904Y-50902200D01*
X116226904Y-50902200D02*
X116322142Y-50949819D01*
X116322142Y-50949819D02*
X116607856Y-50949819D01*
X116607856Y-50949819D02*
X116703094Y-50902200D01*
X116703094Y-50902200D02*
X116750713Y-50854580D01*
X136798332Y-57522200D02*
X136655475Y-57569819D01*
X136655475Y-57569819D02*
X136417380Y-57569819D01*
X136417380Y-57569819D02*
X136322142Y-57522200D01*
X136322142Y-57522200D02*
X136274523Y-57474580D01*
X136274523Y-57474580D02*
X136226904Y-57379342D01*
X136226904Y-57379342D02*
X136226904Y-57284104D01*
X136226904Y-57284104D02*
X136274523Y-57188866D01*
X136274523Y-57188866D02*
X136322142Y-57141247D01*
X136322142Y-57141247D02*
X136417380Y-57093628D01*
X136417380Y-57093628D02*
X136607856Y-57046009D01*
X136607856Y-57046009D02*
X136703094Y-56998390D01*
X136703094Y-56998390D02*
X136750713Y-56950771D01*
X136750713Y-56950771D02*
X136798332Y-56855533D01*
X136798332Y-56855533D02*
X136798332Y-56760295D01*
X136798332Y-56760295D02*
X136750713Y-56665057D01*
X136750713Y-56665057D02*
X136703094Y-56617438D01*
X136703094Y-56617438D02*
X136607856Y-56569819D01*
X136607856Y-56569819D02*
X136369761Y-56569819D01*
X136369761Y-56569819D02*
X136226904Y-56617438D01*
X135893570Y-56569819D02*
X135655475Y-57569819D01*
X135655475Y-57569819D02*
X135464999Y-56855533D01*
X135464999Y-56855533D02*
X135274523Y-57569819D01*
X135274523Y-57569819D02*
X135036428Y-56569819D01*
X134226904Y-56903152D02*
X134226904Y-57569819D01*
X134464999Y-56522200D02*
X134703094Y-57236485D01*
X134703094Y-57236485D02*
X134084047Y-57236485D01*
X154798332Y-59902200D02*
X154655475Y-59949819D01*
X154655475Y-59949819D02*
X154417380Y-59949819D01*
X154417380Y-59949819D02*
X154322142Y-59902200D01*
X154322142Y-59902200D02*
X154274523Y-59854580D01*
X154274523Y-59854580D02*
X154226904Y-59759342D01*
X154226904Y-59759342D02*
X154226904Y-59664104D01*
X154226904Y-59664104D02*
X154274523Y-59568866D01*
X154274523Y-59568866D02*
X154322142Y-59521247D01*
X154322142Y-59521247D02*
X154417380Y-59473628D01*
X154417380Y-59473628D02*
X154607856Y-59426009D01*
X154607856Y-59426009D02*
X154703094Y-59378390D01*
X154703094Y-59378390D02*
X154750713Y-59330771D01*
X154750713Y-59330771D02*
X154798332Y-59235533D01*
X154798332Y-59235533D02*
X154798332Y-59140295D01*
X154798332Y-59140295D02*
X154750713Y-59045057D01*
X154750713Y-59045057D02*
X154703094Y-58997438D01*
X154703094Y-58997438D02*
X154607856Y-58949819D01*
X154607856Y-58949819D02*
X154369761Y-58949819D01*
X154369761Y-58949819D02*
X154226904Y-58997438D01*
X153893570Y-58949819D02*
X153655475Y-59949819D01*
X153655475Y-59949819D02*
X153464999Y-59235533D01*
X153464999Y-59235533D02*
X153274523Y-59949819D01*
X153274523Y-59949819D02*
X153036428Y-58949819D01*
X152179285Y-58949819D02*
X152655475Y-58949819D01*
X152655475Y-58949819D02*
X152703094Y-59426009D01*
X152703094Y-59426009D02*
X152655475Y-59378390D01*
X152655475Y-59378390D02*
X152560237Y-59330771D01*
X152560237Y-59330771D02*
X152322142Y-59330771D01*
X152322142Y-59330771D02*
X152226904Y-59378390D01*
X152226904Y-59378390D02*
X152179285Y-59426009D01*
X152179285Y-59426009D02*
X152131666Y-59521247D01*
X152131666Y-59521247D02*
X152131666Y-59759342D01*
X152131666Y-59759342D02*
X152179285Y-59854580D01*
X152179285Y-59854580D02*
X152226904Y-59902200D01*
X152226904Y-59902200D02*
X152322142Y-59949819D01*
X152322142Y-59949819D02*
X152560237Y-59949819D01*
X152560237Y-59949819D02*
X152655475Y-59902200D01*
X152655475Y-59902200D02*
X152703094Y-59854580D01*
X82798332Y-85902200D02*
X82655475Y-85949819D01*
X82655475Y-85949819D02*
X82417380Y-85949819D01*
X82417380Y-85949819D02*
X82322142Y-85902200D01*
X82322142Y-85902200D02*
X82274523Y-85854580D01*
X82274523Y-85854580D02*
X82226904Y-85759342D01*
X82226904Y-85759342D02*
X82226904Y-85664104D01*
X82226904Y-85664104D02*
X82274523Y-85568866D01*
X82274523Y-85568866D02*
X82322142Y-85521247D01*
X82322142Y-85521247D02*
X82417380Y-85473628D01*
X82417380Y-85473628D02*
X82607856Y-85426009D01*
X82607856Y-85426009D02*
X82703094Y-85378390D01*
X82703094Y-85378390D02*
X82750713Y-85330771D01*
X82750713Y-85330771D02*
X82798332Y-85235533D01*
X82798332Y-85235533D02*
X82798332Y-85140295D01*
X82798332Y-85140295D02*
X82750713Y-85045057D01*
X82750713Y-85045057D02*
X82703094Y-84997438D01*
X82703094Y-84997438D02*
X82607856Y-84949819D01*
X82607856Y-84949819D02*
X82369761Y-84949819D01*
X82369761Y-84949819D02*
X82226904Y-84997438D01*
X81893570Y-84949819D02*
X81655475Y-85949819D01*
X81655475Y-85949819D02*
X81464999Y-85235533D01*
X81464999Y-85235533D02*
X81274523Y-85949819D01*
X81274523Y-85949819D02*
X81036428Y-84949819D01*
X80226904Y-84949819D02*
X80417380Y-84949819D01*
X80417380Y-84949819D02*
X80512618Y-84997438D01*
X80512618Y-84997438D02*
X80560237Y-85045057D01*
X80560237Y-85045057D02*
X80655475Y-85187914D01*
X80655475Y-85187914D02*
X80703094Y-85378390D01*
X80703094Y-85378390D02*
X80703094Y-85759342D01*
X80703094Y-85759342D02*
X80655475Y-85854580D01*
X80655475Y-85854580D02*
X80607856Y-85902200D01*
X80607856Y-85902200D02*
X80512618Y-85949819D01*
X80512618Y-85949819D02*
X80322142Y-85949819D01*
X80322142Y-85949819D02*
X80226904Y-85902200D01*
X80226904Y-85902200D02*
X80179285Y-85854580D01*
X80179285Y-85854580D02*
X80131666Y-85759342D01*
X80131666Y-85759342D02*
X80131666Y-85521247D01*
X80131666Y-85521247D02*
X80179285Y-85426009D01*
X80179285Y-85426009D02*
X80226904Y-85378390D01*
X80226904Y-85378390D02*
X80322142Y-85330771D01*
X80322142Y-85330771D02*
X80512618Y-85330771D01*
X80512618Y-85330771D02*
X80607856Y-85378390D01*
X80607856Y-85378390D02*
X80655475Y-85426009D01*
X80655475Y-85426009D02*
X80703094Y-85521247D01*
X100798332Y-73902200D02*
X100655475Y-73949819D01*
X100655475Y-73949819D02*
X100417380Y-73949819D01*
X100417380Y-73949819D02*
X100322142Y-73902200D01*
X100322142Y-73902200D02*
X100274523Y-73854580D01*
X100274523Y-73854580D02*
X100226904Y-73759342D01*
X100226904Y-73759342D02*
X100226904Y-73664104D01*
X100226904Y-73664104D02*
X100274523Y-73568866D01*
X100274523Y-73568866D02*
X100322142Y-73521247D01*
X100322142Y-73521247D02*
X100417380Y-73473628D01*
X100417380Y-73473628D02*
X100607856Y-73426009D01*
X100607856Y-73426009D02*
X100703094Y-73378390D01*
X100703094Y-73378390D02*
X100750713Y-73330771D01*
X100750713Y-73330771D02*
X100798332Y-73235533D01*
X100798332Y-73235533D02*
X100798332Y-73140295D01*
X100798332Y-73140295D02*
X100750713Y-73045057D01*
X100750713Y-73045057D02*
X100703094Y-72997438D01*
X100703094Y-72997438D02*
X100607856Y-72949819D01*
X100607856Y-72949819D02*
X100369761Y-72949819D01*
X100369761Y-72949819D02*
X100226904Y-72997438D01*
X99893570Y-72949819D02*
X99655475Y-73949819D01*
X99655475Y-73949819D02*
X99464999Y-73235533D01*
X99464999Y-73235533D02*
X99274523Y-73949819D01*
X99274523Y-73949819D02*
X99036428Y-72949819D01*
X98750713Y-72949819D02*
X98084047Y-72949819D01*
X98084047Y-72949819D02*
X98512618Y-73949819D01*
X118798332Y-67902200D02*
X118655475Y-67949819D01*
X118655475Y-67949819D02*
X118417380Y-67949819D01*
X118417380Y-67949819D02*
X118322142Y-67902200D01*
X118322142Y-67902200D02*
X118274523Y-67854580D01*
X118274523Y-67854580D02*
X118226904Y-67759342D01*
X118226904Y-67759342D02*
X118226904Y-67664104D01*
X118226904Y-67664104D02*
X118274523Y-67568866D01*
X118274523Y-67568866D02*
X118322142Y-67521247D01*
X118322142Y-67521247D02*
X118417380Y-67473628D01*
X118417380Y-67473628D02*
X118607856Y-67426009D01*
X118607856Y-67426009D02*
X118703094Y-67378390D01*
X118703094Y-67378390D02*
X118750713Y-67330771D01*
X118750713Y-67330771D02*
X118798332Y-67235533D01*
X118798332Y-67235533D02*
X118798332Y-67140295D01*
X118798332Y-67140295D02*
X118750713Y-67045057D01*
X118750713Y-67045057D02*
X118703094Y-66997438D01*
X118703094Y-66997438D02*
X118607856Y-66949819D01*
X118607856Y-66949819D02*
X118369761Y-66949819D01*
X118369761Y-66949819D02*
X118226904Y-66997438D01*
X117893570Y-66949819D02*
X117655475Y-67949819D01*
X117655475Y-67949819D02*
X117464999Y-67235533D01*
X117464999Y-67235533D02*
X117274523Y-67949819D01*
X117274523Y-67949819D02*
X117036428Y-66949819D01*
X116512618Y-67378390D02*
X116607856Y-67330771D01*
X116607856Y-67330771D02*
X116655475Y-67283152D01*
X116655475Y-67283152D02*
X116703094Y-67187914D01*
X116703094Y-67187914D02*
X116703094Y-67140295D01*
X116703094Y-67140295D02*
X116655475Y-67045057D01*
X116655475Y-67045057D02*
X116607856Y-66997438D01*
X116607856Y-66997438D02*
X116512618Y-66949819D01*
X116512618Y-66949819D02*
X116322142Y-66949819D01*
X116322142Y-66949819D02*
X116226904Y-66997438D01*
X116226904Y-66997438D02*
X116179285Y-67045057D01*
X116179285Y-67045057D02*
X116131666Y-67140295D01*
X116131666Y-67140295D02*
X116131666Y-67187914D01*
X116131666Y-67187914D02*
X116179285Y-67283152D01*
X116179285Y-67283152D02*
X116226904Y-67330771D01*
X116226904Y-67330771D02*
X116322142Y-67378390D01*
X116322142Y-67378390D02*
X116512618Y-67378390D01*
X116512618Y-67378390D02*
X116607856Y-67426009D01*
X116607856Y-67426009D02*
X116655475Y-67473628D01*
X116655475Y-67473628D02*
X116703094Y-67568866D01*
X116703094Y-67568866D02*
X116703094Y-67759342D01*
X116703094Y-67759342D02*
X116655475Y-67854580D01*
X116655475Y-67854580D02*
X116607856Y-67902200D01*
X116607856Y-67902200D02*
X116512618Y-67949819D01*
X116512618Y-67949819D02*
X116322142Y-67949819D01*
X116322142Y-67949819D02*
X116226904Y-67902200D01*
X116226904Y-67902200D02*
X116179285Y-67854580D01*
X116179285Y-67854580D02*
X116131666Y-67759342D01*
X116131666Y-67759342D02*
X116131666Y-67568866D01*
X116131666Y-67568866D02*
X116179285Y-67473628D01*
X116179285Y-67473628D02*
X116226904Y-67426009D01*
X116226904Y-67426009D02*
X116322142Y-67378390D01*
X136798332Y-74522200D02*
X136655475Y-74569819D01*
X136655475Y-74569819D02*
X136417380Y-74569819D01*
X136417380Y-74569819D02*
X136322142Y-74522200D01*
X136322142Y-74522200D02*
X136274523Y-74474580D01*
X136274523Y-74474580D02*
X136226904Y-74379342D01*
X136226904Y-74379342D02*
X136226904Y-74284104D01*
X136226904Y-74284104D02*
X136274523Y-74188866D01*
X136274523Y-74188866D02*
X136322142Y-74141247D01*
X136322142Y-74141247D02*
X136417380Y-74093628D01*
X136417380Y-74093628D02*
X136607856Y-74046009D01*
X136607856Y-74046009D02*
X136703094Y-73998390D01*
X136703094Y-73998390D02*
X136750713Y-73950771D01*
X136750713Y-73950771D02*
X136798332Y-73855533D01*
X136798332Y-73855533D02*
X136798332Y-73760295D01*
X136798332Y-73760295D02*
X136750713Y-73665057D01*
X136750713Y-73665057D02*
X136703094Y-73617438D01*
X136703094Y-73617438D02*
X136607856Y-73569819D01*
X136607856Y-73569819D02*
X136369761Y-73569819D01*
X136369761Y-73569819D02*
X136226904Y-73617438D01*
X135893570Y-73569819D02*
X135655475Y-74569819D01*
X135655475Y-74569819D02*
X135464999Y-73855533D01*
X135464999Y-73855533D02*
X135274523Y-74569819D01*
X135274523Y-74569819D02*
X135036428Y-73569819D01*
X134607856Y-74569819D02*
X134417380Y-74569819D01*
X134417380Y-74569819D02*
X134322142Y-74522200D01*
X134322142Y-74522200D02*
X134274523Y-74474580D01*
X134274523Y-74474580D02*
X134179285Y-74331723D01*
X134179285Y-74331723D02*
X134131666Y-74141247D01*
X134131666Y-74141247D02*
X134131666Y-73760295D01*
X134131666Y-73760295D02*
X134179285Y-73665057D01*
X134179285Y-73665057D02*
X134226904Y-73617438D01*
X134226904Y-73617438D02*
X134322142Y-73569819D01*
X134322142Y-73569819D02*
X134512618Y-73569819D01*
X134512618Y-73569819D02*
X134607856Y-73617438D01*
X134607856Y-73617438D02*
X134655475Y-73665057D01*
X134655475Y-73665057D02*
X134703094Y-73760295D01*
X134703094Y-73760295D02*
X134703094Y-73998390D01*
X134703094Y-73998390D02*
X134655475Y-74093628D01*
X134655475Y-74093628D02*
X134607856Y-74141247D01*
X134607856Y-74141247D02*
X134512618Y-74188866D01*
X134512618Y-74188866D02*
X134322142Y-74188866D01*
X134322142Y-74188866D02*
X134226904Y-74141247D01*
X134226904Y-74141247D02*
X134179285Y-74093628D01*
X134179285Y-74093628D02*
X134131666Y-73998390D01*
X155274523Y-76902200D02*
X155131666Y-76949819D01*
X155131666Y-76949819D02*
X154893571Y-76949819D01*
X154893571Y-76949819D02*
X154798333Y-76902200D01*
X154798333Y-76902200D02*
X154750714Y-76854580D01*
X154750714Y-76854580D02*
X154703095Y-76759342D01*
X154703095Y-76759342D02*
X154703095Y-76664104D01*
X154703095Y-76664104D02*
X154750714Y-76568866D01*
X154750714Y-76568866D02*
X154798333Y-76521247D01*
X154798333Y-76521247D02*
X154893571Y-76473628D01*
X154893571Y-76473628D02*
X155084047Y-76426009D01*
X155084047Y-76426009D02*
X155179285Y-76378390D01*
X155179285Y-76378390D02*
X155226904Y-76330771D01*
X155226904Y-76330771D02*
X155274523Y-76235533D01*
X155274523Y-76235533D02*
X155274523Y-76140295D01*
X155274523Y-76140295D02*
X155226904Y-76045057D01*
X155226904Y-76045057D02*
X155179285Y-75997438D01*
X155179285Y-75997438D02*
X155084047Y-75949819D01*
X155084047Y-75949819D02*
X154845952Y-75949819D01*
X154845952Y-75949819D02*
X154703095Y-75997438D01*
X154369761Y-75949819D02*
X154131666Y-76949819D01*
X154131666Y-76949819D02*
X153941190Y-76235533D01*
X153941190Y-76235533D02*
X153750714Y-76949819D01*
X153750714Y-76949819D02*
X153512619Y-75949819D01*
X152607857Y-76949819D02*
X153179285Y-76949819D01*
X152893571Y-76949819D02*
X152893571Y-75949819D01*
X152893571Y-75949819D02*
X152988809Y-76092676D01*
X152988809Y-76092676D02*
X153084047Y-76187914D01*
X153084047Y-76187914D02*
X153179285Y-76235533D01*
X151988809Y-75949819D02*
X151893571Y-75949819D01*
X151893571Y-75949819D02*
X151798333Y-75997438D01*
X151798333Y-75997438D02*
X151750714Y-76045057D01*
X151750714Y-76045057D02*
X151703095Y-76140295D01*
X151703095Y-76140295D02*
X151655476Y-76330771D01*
X151655476Y-76330771D02*
X151655476Y-76568866D01*
X151655476Y-76568866D02*
X151703095Y-76759342D01*
X151703095Y-76759342D02*
X151750714Y-76854580D01*
X151750714Y-76854580D02*
X151798333Y-76902200D01*
X151798333Y-76902200D02*
X151893571Y-76949819D01*
X151893571Y-76949819D02*
X151988809Y-76949819D01*
X151988809Y-76949819D02*
X152084047Y-76902200D01*
X152084047Y-76902200D02*
X152131666Y-76854580D01*
X152131666Y-76854580D02*
X152179285Y-76759342D01*
X152179285Y-76759342D02*
X152226904Y-76568866D01*
X152226904Y-76568866D02*
X152226904Y-76330771D01*
X152226904Y-76330771D02*
X152179285Y-76140295D01*
X152179285Y-76140295D02*
X152131666Y-76045057D01*
X152131666Y-76045057D02*
X152084047Y-75997438D01*
X152084047Y-75997438D02*
X151988809Y-75949819D01*
X83274523Y-102902200D02*
X83131666Y-102949819D01*
X83131666Y-102949819D02*
X82893571Y-102949819D01*
X82893571Y-102949819D02*
X82798333Y-102902200D01*
X82798333Y-102902200D02*
X82750714Y-102854580D01*
X82750714Y-102854580D02*
X82703095Y-102759342D01*
X82703095Y-102759342D02*
X82703095Y-102664104D01*
X82703095Y-102664104D02*
X82750714Y-102568866D01*
X82750714Y-102568866D02*
X82798333Y-102521247D01*
X82798333Y-102521247D02*
X82893571Y-102473628D01*
X82893571Y-102473628D02*
X83084047Y-102426009D01*
X83084047Y-102426009D02*
X83179285Y-102378390D01*
X83179285Y-102378390D02*
X83226904Y-102330771D01*
X83226904Y-102330771D02*
X83274523Y-102235533D01*
X83274523Y-102235533D02*
X83274523Y-102140295D01*
X83274523Y-102140295D02*
X83226904Y-102045057D01*
X83226904Y-102045057D02*
X83179285Y-101997438D01*
X83179285Y-101997438D02*
X83084047Y-101949819D01*
X83084047Y-101949819D02*
X82845952Y-101949819D01*
X82845952Y-101949819D02*
X82703095Y-101997438D01*
X82369761Y-101949819D02*
X82131666Y-102949819D01*
X82131666Y-102949819D02*
X81941190Y-102235533D01*
X81941190Y-102235533D02*
X81750714Y-102949819D01*
X81750714Y-102949819D02*
X81512619Y-101949819D01*
X80607857Y-102949819D02*
X81179285Y-102949819D01*
X80893571Y-102949819D02*
X80893571Y-101949819D01*
X80893571Y-101949819D02*
X80988809Y-102092676D01*
X80988809Y-102092676D02*
X81084047Y-102187914D01*
X81084047Y-102187914D02*
X81179285Y-102235533D01*
X79655476Y-102949819D02*
X80226904Y-102949819D01*
X79941190Y-102949819D02*
X79941190Y-101949819D01*
X79941190Y-101949819D02*
X80036428Y-102092676D01*
X80036428Y-102092676D02*
X80131666Y-102187914D01*
X80131666Y-102187914D02*
X80226904Y-102235533D01*
X101274523Y-90902200D02*
X101131666Y-90949819D01*
X101131666Y-90949819D02*
X100893571Y-90949819D01*
X100893571Y-90949819D02*
X100798333Y-90902200D01*
X100798333Y-90902200D02*
X100750714Y-90854580D01*
X100750714Y-90854580D02*
X100703095Y-90759342D01*
X100703095Y-90759342D02*
X100703095Y-90664104D01*
X100703095Y-90664104D02*
X100750714Y-90568866D01*
X100750714Y-90568866D02*
X100798333Y-90521247D01*
X100798333Y-90521247D02*
X100893571Y-90473628D01*
X100893571Y-90473628D02*
X101084047Y-90426009D01*
X101084047Y-90426009D02*
X101179285Y-90378390D01*
X101179285Y-90378390D02*
X101226904Y-90330771D01*
X101226904Y-90330771D02*
X101274523Y-90235533D01*
X101274523Y-90235533D02*
X101274523Y-90140295D01*
X101274523Y-90140295D02*
X101226904Y-90045057D01*
X101226904Y-90045057D02*
X101179285Y-89997438D01*
X101179285Y-89997438D02*
X101084047Y-89949819D01*
X101084047Y-89949819D02*
X100845952Y-89949819D01*
X100845952Y-89949819D02*
X100703095Y-89997438D01*
X100369761Y-89949819D02*
X100131666Y-90949819D01*
X100131666Y-90949819D02*
X99941190Y-90235533D01*
X99941190Y-90235533D02*
X99750714Y-90949819D01*
X99750714Y-90949819D02*
X99512619Y-89949819D01*
X98607857Y-90949819D02*
X99179285Y-90949819D01*
X98893571Y-90949819D02*
X98893571Y-89949819D01*
X98893571Y-89949819D02*
X98988809Y-90092676D01*
X98988809Y-90092676D02*
X99084047Y-90187914D01*
X99084047Y-90187914D02*
X99179285Y-90235533D01*
X98226904Y-90045057D02*
X98179285Y-89997438D01*
X98179285Y-89997438D02*
X98084047Y-89949819D01*
X98084047Y-89949819D02*
X97845952Y-89949819D01*
X97845952Y-89949819D02*
X97750714Y-89997438D01*
X97750714Y-89997438D02*
X97703095Y-90045057D01*
X97703095Y-90045057D02*
X97655476Y-90140295D01*
X97655476Y-90140295D02*
X97655476Y-90235533D01*
X97655476Y-90235533D02*
X97703095Y-90378390D01*
X97703095Y-90378390D02*
X98274523Y-90949819D01*
X98274523Y-90949819D02*
X97655476Y-90949819D01*
X119274523Y-84902200D02*
X119131666Y-84949819D01*
X119131666Y-84949819D02*
X118893571Y-84949819D01*
X118893571Y-84949819D02*
X118798333Y-84902200D01*
X118798333Y-84902200D02*
X118750714Y-84854580D01*
X118750714Y-84854580D02*
X118703095Y-84759342D01*
X118703095Y-84759342D02*
X118703095Y-84664104D01*
X118703095Y-84664104D02*
X118750714Y-84568866D01*
X118750714Y-84568866D02*
X118798333Y-84521247D01*
X118798333Y-84521247D02*
X118893571Y-84473628D01*
X118893571Y-84473628D02*
X119084047Y-84426009D01*
X119084047Y-84426009D02*
X119179285Y-84378390D01*
X119179285Y-84378390D02*
X119226904Y-84330771D01*
X119226904Y-84330771D02*
X119274523Y-84235533D01*
X119274523Y-84235533D02*
X119274523Y-84140295D01*
X119274523Y-84140295D02*
X119226904Y-84045057D01*
X119226904Y-84045057D02*
X119179285Y-83997438D01*
X119179285Y-83997438D02*
X119084047Y-83949819D01*
X119084047Y-83949819D02*
X118845952Y-83949819D01*
X118845952Y-83949819D02*
X118703095Y-83997438D01*
X118369761Y-83949819D02*
X118131666Y-84949819D01*
X118131666Y-84949819D02*
X117941190Y-84235533D01*
X117941190Y-84235533D02*
X117750714Y-84949819D01*
X117750714Y-84949819D02*
X117512619Y-83949819D01*
X116607857Y-84949819D02*
X117179285Y-84949819D01*
X116893571Y-84949819D02*
X116893571Y-83949819D01*
X116893571Y-83949819D02*
X116988809Y-84092676D01*
X116988809Y-84092676D02*
X117084047Y-84187914D01*
X117084047Y-84187914D02*
X117179285Y-84235533D01*
X116274523Y-83949819D02*
X115655476Y-83949819D01*
X115655476Y-83949819D02*
X115988809Y-84330771D01*
X115988809Y-84330771D02*
X115845952Y-84330771D01*
X115845952Y-84330771D02*
X115750714Y-84378390D01*
X115750714Y-84378390D02*
X115703095Y-84426009D01*
X115703095Y-84426009D02*
X115655476Y-84521247D01*
X115655476Y-84521247D02*
X115655476Y-84759342D01*
X115655476Y-84759342D02*
X115703095Y-84854580D01*
X115703095Y-84854580D02*
X115750714Y-84902200D01*
X115750714Y-84902200D02*
X115845952Y-84949819D01*
X115845952Y-84949819D02*
X116131666Y-84949819D01*
X116131666Y-84949819D02*
X116226904Y-84902200D01*
X116226904Y-84902200D02*
X116274523Y-84854580D01*
X137274523Y-91527200D02*
X137131666Y-91574819D01*
X137131666Y-91574819D02*
X136893571Y-91574819D01*
X136893571Y-91574819D02*
X136798333Y-91527200D01*
X136798333Y-91527200D02*
X136750714Y-91479580D01*
X136750714Y-91479580D02*
X136703095Y-91384342D01*
X136703095Y-91384342D02*
X136703095Y-91289104D01*
X136703095Y-91289104D02*
X136750714Y-91193866D01*
X136750714Y-91193866D02*
X136798333Y-91146247D01*
X136798333Y-91146247D02*
X136893571Y-91098628D01*
X136893571Y-91098628D02*
X137084047Y-91051009D01*
X137084047Y-91051009D02*
X137179285Y-91003390D01*
X137179285Y-91003390D02*
X137226904Y-90955771D01*
X137226904Y-90955771D02*
X137274523Y-90860533D01*
X137274523Y-90860533D02*
X137274523Y-90765295D01*
X137274523Y-90765295D02*
X137226904Y-90670057D01*
X137226904Y-90670057D02*
X137179285Y-90622438D01*
X137179285Y-90622438D02*
X137084047Y-90574819D01*
X137084047Y-90574819D02*
X136845952Y-90574819D01*
X136845952Y-90574819D02*
X136703095Y-90622438D01*
X136369761Y-90574819D02*
X136131666Y-91574819D01*
X136131666Y-91574819D02*
X135941190Y-90860533D01*
X135941190Y-90860533D02*
X135750714Y-91574819D01*
X135750714Y-91574819D02*
X135512619Y-90574819D01*
X134607857Y-91574819D02*
X135179285Y-91574819D01*
X134893571Y-91574819D02*
X134893571Y-90574819D01*
X134893571Y-90574819D02*
X134988809Y-90717676D01*
X134988809Y-90717676D02*
X135084047Y-90812914D01*
X135084047Y-90812914D02*
X135179285Y-90860533D01*
X133750714Y-90908152D02*
X133750714Y-91574819D01*
X133988809Y-90527200D02*
X134226904Y-91241485D01*
X134226904Y-91241485D02*
X133607857Y-91241485D01*
X155274523Y-93902200D02*
X155131666Y-93949819D01*
X155131666Y-93949819D02*
X154893571Y-93949819D01*
X154893571Y-93949819D02*
X154798333Y-93902200D01*
X154798333Y-93902200D02*
X154750714Y-93854580D01*
X154750714Y-93854580D02*
X154703095Y-93759342D01*
X154703095Y-93759342D02*
X154703095Y-93664104D01*
X154703095Y-93664104D02*
X154750714Y-93568866D01*
X154750714Y-93568866D02*
X154798333Y-93521247D01*
X154798333Y-93521247D02*
X154893571Y-93473628D01*
X154893571Y-93473628D02*
X155084047Y-93426009D01*
X155084047Y-93426009D02*
X155179285Y-93378390D01*
X155179285Y-93378390D02*
X155226904Y-93330771D01*
X155226904Y-93330771D02*
X155274523Y-93235533D01*
X155274523Y-93235533D02*
X155274523Y-93140295D01*
X155274523Y-93140295D02*
X155226904Y-93045057D01*
X155226904Y-93045057D02*
X155179285Y-92997438D01*
X155179285Y-92997438D02*
X155084047Y-92949819D01*
X155084047Y-92949819D02*
X154845952Y-92949819D01*
X154845952Y-92949819D02*
X154703095Y-92997438D01*
X154369761Y-92949819D02*
X154131666Y-93949819D01*
X154131666Y-93949819D02*
X153941190Y-93235533D01*
X153941190Y-93235533D02*
X153750714Y-93949819D01*
X153750714Y-93949819D02*
X153512619Y-92949819D01*
X152607857Y-93949819D02*
X153179285Y-93949819D01*
X152893571Y-93949819D02*
X152893571Y-92949819D01*
X152893571Y-92949819D02*
X152988809Y-93092676D01*
X152988809Y-93092676D02*
X153084047Y-93187914D01*
X153084047Y-93187914D02*
X153179285Y-93235533D01*
X151703095Y-92949819D02*
X152179285Y-92949819D01*
X152179285Y-92949819D02*
X152226904Y-93426009D01*
X152226904Y-93426009D02*
X152179285Y-93378390D01*
X152179285Y-93378390D02*
X152084047Y-93330771D01*
X152084047Y-93330771D02*
X151845952Y-93330771D01*
X151845952Y-93330771D02*
X151750714Y-93378390D01*
X151750714Y-93378390D02*
X151703095Y-93426009D01*
X151703095Y-93426009D02*
X151655476Y-93521247D01*
X151655476Y-93521247D02*
X151655476Y-93759342D01*
X151655476Y-93759342D02*
X151703095Y-93854580D01*
X151703095Y-93854580D02*
X151750714Y-93902200D01*
X151750714Y-93902200D02*
X151845952Y-93949819D01*
X151845952Y-93949819D02*
X152084047Y-93949819D01*
X152084047Y-93949819D02*
X152179285Y-93902200D01*
X152179285Y-93902200D02*
X152226904Y-93854580D01*
X140264523Y-115302200D02*
X140121666Y-115349819D01*
X140121666Y-115349819D02*
X139883571Y-115349819D01*
X139883571Y-115349819D02*
X139788333Y-115302200D01*
X139788333Y-115302200D02*
X139740714Y-115254580D01*
X139740714Y-115254580D02*
X139693095Y-115159342D01*
X139693095Y-115159342D02*
X139693095Y-115064104D01*
X139693095Y-115064104D02*
X139740714Y-114968866D01*
X139740714Y-114968866D02*
X139788333Y-114921247D01*
X139788333Y-114921247D02*
X139883571Y-114873628D01*
X139883571Y-114873628D02*
X140074047Y-114826009D01*
X140074047Y-114826009D02*
X140169285Y-114778390D01*
X140169285Y-114778390D02*
X140216904Y-114730771D01*
X140216904Y-114730771D02*
X140264523Y-114635533D01*
X140264523Y-114635533D02*
X140264523Y-114540295D01*
X140264523Y-114540295D02*
X140216904Y-114445057D01*
X140216904Y-114445057D02*
X140169285Y-114397438D01*
X140169285Y-114397438D02*
X140074047Y-114349819D01*
X140074047Y-114349819D02*
X139835952Y-114349819D01*
X139835952Y-114349819D02*
X139693095Y-114397438D01*
X139359761Y-114349819D02*
X139121666Y-115349819D01*
X139121666Y-115349819D02*
X138931190Y-114635533D01*
X138931190Y-114635533D02*
X138740714Y-115349819D01*
X138740714Y-115349819D02*
X138502619Y-114349819D01*
X137597857Y-115349819D02*
X138169285Y-115349819D01*
X137883571Y-115349819D02*
X137883571Y-114349819D01*
X137883571Y-114349819D02*
X137978809Y-114492676D01*
X137978809Y-114492676D02*
X138074047Y-114587914D01*
X138074047Y-114587914D02*
X138169285Y-114635533D01*
X136740714Y-114349819D02*
X136931190Y-114349819D01*
X136931190Y-114349819D02*
X137026428Y-114397438D01*
X137026428Y-114397438D02*
X137074047Y-114445057D01*
X137074047Y-114445057D02*
X137169285Y-114587914D01*
X137169285Y-114587914D02*
X137216904Y-114778390D01*
X137216904Y-114778390D02*
X137216904Y-115159342D01*
X137216904Y-115159342D02*
X137169285Y-115254580D01*
X137169285Y-115254580D02*
X137121666Y-115302200D01*
X137121666Y-115302200D02*
X137026428Y-115349819D01*
X137026428Y-115349819D02*
X136835952Y-115349819D01*
X136835952Y-115349819D02*
X136740714Y-115302200D01*
X136740714Y-115302200D02*
X136693095Y-115254580D01*
X136693095Y-115254580D02*
X136645476Y-115159342D01*
X136645476Y-115159342D02*
X136645476Y-114921247D01*
X136645476Y-114921247D02*
X136693095Y-114826009D01*
X136693095Y-114826009D02*
X136740714Y-114778390D01*
X136740714Y-114778390D02*
X136835952Y-114730771D01*
X136835952Y-114730771D02*
X137026428Y-114730771D01*
X137026428Y-114730771D02*
X137121666Y-114778390D01*
X137121666Y-114778390D02*
X137169285Y-114826009D01*
X137169285Y-114826009D02*
X137216904Y-114921247D01*
X159502964Y-119432203D02*
X159352650Y-119441225D01*
X159352650Y-119441225D02*
X159122668Y-119379601D01*
X159122668Y-119379601D02*
X159042999Y-119308956D01*
X159042999Y-119308956D02*
X159009328Y-119250634D01*
X159009328Y-119250634D02*
X158987981Y-119146317D01*
X158987981Y-119146317D02*
X159012630Y-119054324D01*
X159012630Y-119054324D02*
X159083276Y-118974656D01*
X159083276Y-118974656D02*
X159141597Y-118940984D01*
X159141597Y-118940984D02*
X159245915Y-118919637D01*
X159245915Y-118919637D02*
X159442225Y-118922939D01*
X159442225Y-118922939D02*
X159546543Y-118901592D01*
X159546543Y-118901592D02*
X159604864Y-118867920D01*
X159604864Y-118867920D02*
X159675510Y-118788252D01*
X159675510Y-118788252D02*
X159700160Y-118696259D01*
X159700160Y-118696259D02*
X159678813Y-118591942D01*
X159678813Y-118591942D02*
X159645141Y-118533620D01*
X159645141Y-118533620D02*
X159565473Y-118462974D01*
X159565473Y-118462974D02*
X159335490Y-118401351D01*
X159335490Y-118401351D02*
X159185176Y-118410373D01*
X158875526Y-118278104D02*
X158386724Y-119182406D01*
X158386724Y-119182406D02*
X158387609Y-118443160D01*
X158387609Y-118443160D02*
X158018752Y-119083808D01*
X158018752Y-119083808D02*
X158047589Y-118056259D01*
X156914837Y-118788015D02*
X157466795Y-118935912D01*
X157190816Y-118861963D02*
X157449635Y-117896038D01*
X157449635Y-117896038D02*
X157504654Y-118058676D01*
X157504654Y-118058676D02*
X157571997Y-118175319D01*
X157571997Y-118175319D02*
X157651666Y-118245965D01*
X156851681Y-117735816D02*
X156207731Y-117563270D01*
X156207731Y-117563270D02*
X156362880Y-118640118D01*
X179789685Y-114529523D02*
X179759496Y-114677050D01*
X179759496Y-114677050D02*
X179640448Y-114883247D01*
X179640448Y-114883247D02*
X179551590Y-114941916D01*
X179551590Y-114941916D02*
X179486541Y-114959346D01*
X179486541Y-114959346D02*
X179380253Y-114952966D01*
X179380253Y-114952966D02*
X179297774Y-114905347D01*
X179297774Y-114905347D02*
X179239105Y-114816489D01*
X179239105Y-114816489D02*
X179221675Y-114751440D01*
X179221675Y-114751440D02*
X179228055Y-114645152D01*
X179228055Y-114645152D02*
X179282054Y-114456385D01*
X179282054Y-114456385D02*
X179288434Y-114350097D01*
X179288434Y-114350097D02*
X179271004Y-114285048D01*
X179271004Y-114285048D02*
X179212335Y-114196190D01*
X179212335Y-114196190D02*
X179129856Y-114148571D01*
X179129856Y-114148571D02*
X179023568Y-114142191D01*
X179023568Y-114142191D02*
X178958519Y-114159621D01*
X178958519Y-114159621D02*
X178869661Y-114218290D01*
X178869661Y-114218290D02*
X178750613Y-114424486D01*
X178750613Y-114424486D02*
X178720424Y-114572014D01*
X178512518Y-114836879D02*
X179259496Y-115543076D01*
X179259496Y-115543076D02*
X178545668Y-115350890D01*
X178545668Y-115350890D02*
X179069019Y-115872990D01*
X179069019Y-115872990D02*
X178083946Y-115579187D01*
X178497591Y-116862733D02*
X178783305Y-116367862D01*
X178640448Y-116615298D02*
X177774423Y-116115298D01*
X177774423Y-116115298D02*
X177945760Y-116104248D01*
X177945760Y-116104248D02*
X178075857Y-116069388D01*
X178075857Y-116069388D02*
X178164716Y-116010719D01*
X177717005Y-117071891D02*
X177723385Y-116965603D01*
X177723385Y-116965603D02*
X177705955Y-116900554D01*
X177705955Y-116900554D02*
X177647286Y-116811696D01*
X177647286Y-116811696D02*
X177606047Y-116787886D01*
X177606047Y-116787886D02*
X177499758Y-116781506D01*
X177499758Y-116781506D02*
X177434710Y-116798936D01*
X177434710Y-116798936D02*
X177345851Y-116857605D01*
X177345851Y-116857605D02*
X177250613Y-117022562D01*
X177250613Y-117022562D02*
X177244233Y-117128850D01*
X177244233Y-117128850D02*
X177261663Y-117193899D01*
X177261663Y-117193899D02*
X177320332Y-117282758D01*
X177320332Y-117282758D02*
X177361572Y-117306567D01*
X177361572Y-117306567D02*
X177467860Y-117312947D01*
X177467860Y-117312947D02*
X177532909Y-117295517D01*
X177532909Y-117295517D02*
X177621767Y-117236848D01*
X177621767Y-117236848D02*
X177717005Y-117071891D01*
X177717005Y-117071891D02*
X177805863Y-117013222D01*
X177805863Y-117013222D02*
X177870912Y-116995792D01*
X177870912Y-116995792D02*
X177977200Y-117002172D01*
X177977200Y-117002172D02*
X178142158Y-117097410D01*
X178142158Y-117097410D02*
X178200827Y-117186268D01*
X178200827Y-117186268D02*
X178218256Y-117251317D01*
X178218256Y-117251317D02*
X178211877Y-117357605D01*
X178211877Y-117357605D02*
X178116639Y-117522562D01*
X178116639Y-117522562D02*
X178027780Y-117581231D01*
X178027780Y-117581231D02*
X177962731Y-117598661D01*
X177962731Y-117598661D02*
X177856443Y-117592281D01*
X177856443Y-117592281D02*
X177691486Y-117497043D01*
X177691486Y-117497043D02*
X177632817Y-117408185D01*
X177632817Y-117408185D02*
X177615387Y-117343136D01*
X177615387Y-117343136D02*
X177621767Y-117236848D01*
D13*
X174283230Y-86090931D02*
X174311802Y-86176645D01*
X174311802Y-86176645D02*
X174340373Y-86205216D01*
X174340373Y-86205216D02*
X174397516Y-86233788D01*
X174397516Y-86233788D02*
X174483230Y-86233788D01*
X174483230Y-86233788D02*
X174540373Y-86205216D01*
X174540373Y-86205216D02*
X174568945Y-86176645D01*
X174568945Y-86176645D02*
X174597516Y-86119502D01*
X174597516Y-86119502D02*
X174597516Y-85890931D01*
X174597516Y-85890931D02*
X173997516Y-85890931D01*
X173997516Y-85890931D02*
X173997516Y-86090931D01*
X173997516Y-86090931D02*
X174026087Y-86148074D01*
X174026087Y-86148074D02*
X174054659Y-86176645D01*
X174054659Y-86176645D02*
X174111802Y-86205216D01*
X174111802Y-86205216D02*
X174168945Y-86205216D01*
X174168945Y-86205216D02*
X174226087Y-86176645D01*
X174226087Y-86176645D02*
X174254659Y-86148074D01*
X174254659Y-86148074D02*
X174283230Y-86090931D01*
X174283230Y-86090931D02*
X174283230Y-85890931D01*
X173997516Y-86776645D02*
X173997516Y-86490931D01*
X173997516Y-86490931D02*
X174283230Y-86462359D01*
X174283230Y-86462359D02*
X174254659Y-86490931D01*
X174254659Y-86490931D02*
X174226087Y-86548074D01*
X174226087Y-86548074D02*
X174226087Y-86690931D01*
X174226087Y-86690931D02*
X174254659Y-86748074D01*
X174254659Y-86748074D02*
X174283230Y-86776645D01*
X174283230Y-86776645D02*
X174340373Y-86805216D01*
X174340373Y-86805216D02*
X174483230Y-86805216D01*
X174483230Y-86805216D02*
X174540373Y-86776645D01*
X174540373Y-86776645D02*
X174568945Y-86748074D01*
X174568945Y-86748074D02*
X174597516Y-86690931D01*
X174597516Y-86690931D02*
X174597516Y-86548074D01*
X174597516Y-86548074D02*
X174568945Y-86490931D01*
X174568945Y-86490931D02*
X174540373Y-86462359D01*
X181808189Y-78474509D02*
X181836761Y-78560223D01*
X181836761Y-78560223D02*
X181865332Y-78588794D01*
X181865332Y-78588794D02*
X181922475Y-78617366D01*
X181922475Y-78617366D02*
X182008189Y-78617366D01*
X182008189Y-78617366D02*
X182065332Y-78588794D01*
X182065332Y-78588794D02*
X182093904Y-78560223D01*
X182093904Y-78560223D02*
X182122475Y-78503080D01*
X182122475Y-78503080D02*
X182122475Y-78274509D01*
X182122475Y-78274509D02*
X181522475Y-78274509D01*
X181522475Y-78274509D02*
X181522475Y-78474509D01*
X181522475Y-78474509D02*
X181551046Y-78531652D01*
X181551046Y-78531652D02*
X181579618Y-78560223D01*
X181579618Y-78560223D02*
X181636761Y-78588794D01*
X181636761Y-78588794D02*
X181693904Y-78588794D01*
X181693904Y-78588794D02*
X181751046Y-78560223D01*
X181751046Y-78560223D02*
X181779618Y-78531652D01*
X181779618Y-78531652D02*
X181808189Y-78474509D01*
X181808189Y-78474509D02*
X181808189Y-78274509D01*
X182122475Y-79188794D02*
X182122475Y-78845937D01*
X182122475Y-79017366D02*
X181522475Y-79017366D01*
X181522475Y-79017366D02*
X181608189Y-78960223D01*
X181608189Y-78960223D02*
X181665332Y-78903080D01*
X181665332Y-78903080D02*
X181693904Y-78845937D01*
X181801395Y-86089404D02*
X181829967Y-86175118D01*
X181829967Y-86175118D02*
X181858538Y-86203689D01*
X181858538Y-86203689D02*
X181915681Y-86232261D01*
X181915681Y-86232261D02*
X182001395Y-86232261D01*
X182001395Y-86232261D02*
X182058538Y-86203689D01*
X182058538Y-86203689D02*
X182087110Y-86175118D01*
X182087110Y-86175118D02*
X182115681Y-86117975D01*
X182115681Y-86117975D02*
X182115681Y-85889404D01*
X182115681Y-85889404D02*
X181515681Y-85889404D01*
X181515681Y-85889404D02*
X181515681Y-86089404D01*
X181515681Y-86089404D02*
X181544252Y-86146547D01*
X181544252Y-86146547D02*
X181572824Y-86175118D01*
X181572824Y-86175118D02*
X181629967Y-86203689D01*
X181629967Y-86203689D02*
X181687110Y-86203689D01*
X181687110Y-86203689D02*
X181744252Y-86175118D01*
X181744252Y-86175118D02*
X181772824Y-86146547D01*
X181772824Y-86146547D02*
X181801395Y-86089404D01*
X181801395Y-86089404D02*
X181801395Y-85889404D01*
X181515681Y-86746547D02*
X181515681Y-86632261D01*
X181515681Y-86632261D02*
X181544252Y-86575118D01*
X181544252Y-86575118D02*
X181572824Y-86546547D01*
X181572824Y-86546547D02*
X181658538Y-86489404D01*
X181658538Y-86489404D02*
X181772824Y-86460832D01*
X181772824Y-86460832D02*
X182001395Y-86460832D01*
X182001395Y-86460832D02*
X182058538Y-86489404D01*
X182058538Y-86489404D02*
X182087110Y-86517975D01*
X182087110Y-86517975D02*
X182115681Y-86575118D01*
X182115681Y-86575118D02*
X182115681Y-86689404D01*
X182115681Y-86689404D02*
X182087110Y-86746547D01*
X182087110Y-86746547D02*
X182058538Y-86775118D01*
X182058538Y-86775118D02*
X182001395Y-86803689D01*
X182001395Y-86803689D02*
X181858538Y-86803689D01*
X181858538Y-86803689D02*
X181801395Y-86775118D01*
X181801395Y-86775118D02*
X181772824Y-86746547D01*
X181772824Y-86746547D02*
X181744252Y-86689404D01*
X181744252Y-86689404D02*
X181744252Y-86575118D01*
X181744252Y-86575118D02*
X181772824Y-86517975D01*
X181772824Y-86517975D02*
X181801395Y-86489404D01*
X181801395Y-86489404D02*
X181858538Y-86460832D01*
X181805382Y-70896273D02*
X181805382Y-70696273D01*
X182119668Y-70696273D02*
X181519668Y-70696273D01*
X181519668Y-70696273D02*
X181519668Y-70981987D01*
X181519668Y-71496273D02*
X181519668Y-71210559D01*
X181519668Y-71210559D02*
X181805382Y-71181987D01*
X181805382Y-71181987D02*
X181776811Y-71210559D01*
X181776811Y-71210559D02*
X181748239Y-71267702D01*
X181748239Y-71267702D02*
X181748239Y-71410559D01*
X181748239Y-71410559D02*
X181776811Y-71467702D01*
X181776811Y-71467702D02*
X181805382Y-71496273D01*
X181805382Y-71496273D02*
X181862525Y-71524844D01*
X181862525Y-71524844D02*
X182005382Y-71524844D01*
X182005382Y-71524844D02*
X182062525Y-71496273D01*
X182062525Y-71496273D02*
X182091097Y-71467702D01*
X182091097Y-71467702D02*
X182119668Y-71410559D01*
X182119668Y-71410559D02*
X182119668Y-71267702D01*
X182119668Y-71267702D02*
X182091097Y-71210559D01*
X182091097Y-71210559D02*
X182062525Y-71181987D01*
X174604310Y-78276036D02*
X174004310Y-78276036D01*
X174004310Y-78276036D02*
X174004310Y-78418893D01*
X174004310Y-78418893D02*
X174032881Y-78504607D01*
X174032881Y-78504607D02*
X174090024Y-78561750D01*
X174090024Y-78561750D02*
X174147167Y-78590321D01*
X174147167Y-78590321D02*
X174261453Y-78618893D01*
X174261453Y-78618893D02*
X174347167Y-78618893D01*
X174347167Y-78618893D02*
X174461453Y-78590321D01*
X174461453Y-78590321D02*
X174518596Y-78561750D01*
X174518596Y-78561750D02*
X174575739Y-78504607D01*
X174575739Y-78504607D02*
X174604310Y-78418893D01*
X174604310Y-78418893D02*
X174604310Y-78276036D01*
X174004310Y-78818893D02*
X174004310Y-79218893D01*
X174004310Y-79218893D02*
X174604310Y-78961750D01*
X182153411Y-63171428D02*
X181867697Y-62971428D01*
X182153411Y-62828571D02*
X181553411Y-62828571D01*
X181553411Y-62828571D02*
X181553411Y-63057142D01*
X181553411Y-63057142D02*
X181581982Y-63114285D01*
X181581982Y-63114285D02*
X181610554Y-63142856D01*
X181610554Y-63142856D02*
X181667697Y-63171428D01*
X181667697Y-63171428D02*
X181753411Y-63171428D01*
X181753411Y-63171428D02*
X181810554Y-63142856D01*
X181810554Y-63142856D02*
X181839125Y-63114285D01*
X181839125Y-63114285D02*
X181867697Y-63057142D01*
X181867697Y-63057142D02*
X181867697Y-62828571D01*
X182124840Y-63399999D02*
X182153411Y-63485714D01*
X182153411Y-63485714D02*
X182153411Y-63628571D01*
X182153411Y-63628571D02*
X182124840Y-63685714D01*
X182124840Y-63685714D02*
X182096268Y-63714285D01*
X182096268Y-63714285D02*
X182039125Y-63742856D01*
X182039125Y-63742856D02*
X181981982Y-63742856D01*
X181981982Y-63742856D02*
X181924840Y-63714285D01*
X181924840Y-63714285D02*
X181896268Y-63685714D01*
X181896268Y-63685714D02*
X181867697Y-63628571D01*
X181867697Y-63628571D02*
X181839125Y-63514285D01*
X181839125Y-63514285D02*
X181810554Y-63457142D01*
X181810554Y-63457142D02*
X181781982Y-63428571D01*
X181781982Y-63428571D02*
X181724840Y-63399999D01*
X181724840Y-63399999D02*
X181667697Y-63399999D01*
X181667697Y-63399999D02*
X181610554Y-63428571D01*
X181610554Y-63428571D02*
X181581982Y-63457142D01*
X181581982Y-63457142D02*
X181553411Y-63514285D01*
X181553411Y-63514285D02*
X181553411Y-63657142D01*
X181553411Y-63657142D02*
X181581982Y-63742856D01*
X181553411Y-63914285D02*
X181553411Y-64257143D01*
X182153411Y-64085714D02*
X181553411Y-64085714D01*
X174063817Y-63044384D02*
X174035246Y-62987242D01*
X174035246Y-62987242D02*
X174035246Y-62901527D01*
X174035246Y-62901527D02*
X174063817Y-62815813D01*
X174063817Y-62815813D02*
X174120960Y-62758670D01*
X174120960Y-62758670D02*
X174178103Y-62730099D01*
X174178103Y-62730099D02*
X174292389Y-62701527D01*
X174292389Y-62701527D02*
X174378103Y-62701527D01*
X174378103Y-62701527D02*
X174492389Y-62730099D01*
X174492389Y-62730099D02*
X174549532Y-62758670D01*
X174549532Y-62758670D02*
X174606675Y-62815813D01*
X174606675Y-62815813D02*
X174635246Y-62901527D01*
X174635246Y-62901527D02*
X174635246Y-62958670D01*
X174635246Y-62958670D02*
X174606675Y-63044384D01*
X174606675Y-63044384D02*
X174578103Y-63072956D01*
X174578103Y-63072956D02*
X174378103Y-63072956D01*
X174378103Y-63072956D02*
X174378103Y-62958670D01*
X174635246Y-63330099D02*
X174035246Y-63330099D01*
X174035246Y-63330099D02*
X174635246Y-63672956D01*
X174635246Y-63672956D02*
X174035246Y-63672956D01*
X174635246Y-63958670D02*
X174035246Y-63958670D01*
X174035246Y-63958670D02*
X174035246Y-64101527D01*
X174035246Y-64101527D02*
X174063817Y-64187241D01*
X174063817Y-64187241D02*
X174120960Y-64244384D01*
X174120960Y-64244384D02*
X174178103Y-64272955D01*
X174178103Y-64272955D02*
X174292389Y-64301527D01*
X174292389Y-64301527D02*
X174378103Y-64301527D01*
X174378103Y-64301527D02*
X174492389Y-64272955D01*
X174492389Y-64272955D02*
X174549532Y-64244384D01*
X174549532Y-64244384D02*
X174606675Y-64187241D01*
X174606675Y-64187241D02*
X174635246Y-64101527D01*
X174635246Y-64101527D02*
X174635246Y-63958670D01*
X181526462Y-65221377D02*
X182126462Y-65421377D01*
X182126462Y-65421377D02*
X181526462Y-65621377D01*
X182069319Y-66164235D02*
X182097891Y-66135663D01*
X182097891Y-66135663D02*
X182126462Y-66049949D01*
X182126462Y-66049949D02*
X182126462Y-65992806D01*
X182126462Y-65992806D02*
X182097891Y-65907092D01*
X182097891Y-65907092D02*
X182040748Y-65849949D01*
X182040748Y-65849949D02*
X181983605Y-65821378D01*
X181983605Y-65821378D02*
X181869319Y-65792806D01*
X181869319Y-65792806D02*
X181783605Y-65792806D01*
X181783605Y-65792806D02*
X181669319Y-65821378D01*
X181669319Y-65821378D02*
X181612176Y-65849949D01*
X181612176Y-65849949D02*
X181555033Y-65907092D01*
X181555033Y-65907092D02*
X181526462Y-65992806D01*
X181526462Y-65992806D02*
X181526462Y-66049949D01*
X181526462Y-66049949D02*
X181555033Y-66135663D01*
X181555033Y-66135663D02*
X181583605Y-66164235D01*
X182069319Y-66764235D02*
X182097891Y-66735663D01*
X182097891Y-66735663D02*
X182126462Y-66649949D01*
X182126462Y-66649949D02*
X182126462Y-66592806D01*
X182126462Y-66592806D02*
X182097891Y-66507092D01*
X182097891Y-66507092D02*
X182040748Y-66449949D01*
X182040748Y-66449949D02*
X181983605Y-66421378D01*
X181983605Y-66421378D02*
X181869319Y-66392806D01*
X181869319Y-66392806D02*
X181783605Y-66392806D01*
X181783605Y-66392806D02*
X181669319Y-66421378D01*
X181669319Y-66421378D02*
X181612176Y-66449949D01*
X181612176Y-66449949D02*
X181555033Y-66507092D01*
X181555033Y-66507092D02*
X181526462Y-66592806D01*
X181526462Y-66592806D02*
X181526462Y-66649949D01*
X181526462Y-66649949D02*
X181555033Y-66735663D01*
X181555033Y-66735663D02*
X181583605Y-66764235D01*
X174290024Y-80844607D02*
X174290024Y-81044607D01*
X174604310Y-81130321D02*
X174604310Y-80844607D01*
X174604310Y-80844607D02*
X174004310Y-80844607D01*
X174004310Y-80844607D02*
X174004310Y-81130321D01*
X174004310Y-81644607D02*
X174004310Y-81530321D01*
X174004310Y-81530321D02*
X174032881Y-81473178D01*
X174032881Y-81473178D02*
X174061453Y-81444607D01*
X174061453Y-81444607D02*
X174147167Y-81387464D01*
X174147167Y-81387464D02*
X174261453Y-81358892D01*
X174261453Y-81358892D02*
X174490024Y-81358892D01*
X174490024Y-81358892D02*
X174547167Y-81387464D01*
X174547167Y-81387464D02*
X174575739Y-81416035D01*
X174575739Y-81416035D02*
X174604310Y-81473178D01*
X174604310Y-81473178D02*
X174604310Y-81587464D01*
X174604310Y-81587464D02*
X174575739Y-81644607D01*
X174575739Y-81644607D02*
X174547167Y-81673178D01*
X174547167Y-81673178D02*
X174490024Y-81701749D01*
X174490024Y-81701749D02*
X174347167Y-81701749D01*
X174347167Y-81701749D02*
X174290024Y-81673178D01*
X174290024Y-81673178D02*
X174261453Y-81644607D01*
X174261453Y-81644607D02*
X174232881Y-81587464D01*
X174232881Y-81587464D02*
X174232881Y-81473178D01*
X174232881Y-81473178D02*
X174261453Y-81416035D01*
X174261453Y-81416035D02*
X174290024Y-81387464D01*
X174290024Y-81387464D02*
X174347167Y-81358892D01*
X181812176Y-68361378D02*
X181812176Y-68161378D01*
X182126462Y-68161378D02*
X181526462Y-68161378D01*
X181526462Y-68161378D02*
X181526462Y-68447092D01*
X181726462Y-68932807D02*
X182126462Y-68932807D01*
X181497891Y-68789949D02*
X181926462Y-68647092D01*
X181926462Y-68647092D02*
X181926462Y-69018521D01*
X181805382Y-73436273D02*
X181805382Y-73236273D01*
X182119668Y-73236273D02*
X181519668Y-73236273D01*
X181519668Y-73236273D02*
X181519668Y-73521987D01*
X181519668Y-74007702D02*
X181519668Y-73893416D01*
X181519668Y-73893416D02*
X181548239Y-73836273D01*
X181548239Y-73836273D02*
X181576811Y-73807702D01*
X181576811Y-73807702D02*
X181662525Y-73750559D01*
X181662525Y-73750559D02*
X181776811Y-73721987D01*
X181776811Y-73721987D02*
X182005382Y-73721987D01*
X182005382Y-73721987D02*
X182062525Y-73750559D01*
X182062525Y-73750559D02*
X182091097Y-73779130D01*
X182091097Y-73779130D02*
X182119668Y-73836273D01*
X182119668Y-73836273D02*
X182119668Y-73950559D01*
X182119668Y-73950559D02*
X182091097Y-74007702D01*
X182091097Y-74007702D02*
X182062525Y-74036273D01*
X182062525Y-74036273D02*
X182005382Y-74064844D01*
X182005382Y-74064844D02*
X181862525Y-74064844D01*
X181862525Y-74064844D02*
X181805382Y-74036273D01*
X181805382Y-74036273D02*
X181776811Y-74007702D01*
X181776811Y-74007702D02*
X181748239Y-73950559D01*
X181748239Y-73950559D02*
X181748239Y-73836273D01*
X181748239Y-73836273D02*
X181776811Y-73779130D01*
X181776811Y-73779130D02*
X181805382Y-73750559D01*
X181805382Y-73750559D02*
X181862525Y-73721987D01*
X174028411Y-57962856D02*
X174028411Y-58305714D01*
X174628411Y-58134285D02*
X174028411Y-58134285D01*
X174028411Y-58448571D02*
X174628411Y-58848571D01*
X174028411Y-58848571D02*
X174628411Y-58448571D01*
X181826382Y-75986848D02*
X181826382Y-75786848D01*
X182140668Y-75786848D02*
X181540668Y-75786848D01*
X181540668Y-75786848D02*
X181540668Y-76072562D01*
X181540668Y-76243991D02*
X181540668Y-76643991D01*
X181540668Y-76643991D02*
X182140668Y-76386848D01*
X174565360Y-76088375D02*
X174593932Y-76059803D01*
X174593932Y-76059803D02*
X174622503Y-75974089D01*
X174622503Y-75974089D02*
X174622503Y-75916946D01*
X174622503Y-75916946D02*
X174593932Y-75831232D01*
X174593932Y-75831232D02*
X174536789Y-75774089D01*
X174536789Y-75774089D02*
X174479646Y-75745518D01*
X174479646Y-75745518D02*
X174365360Y-75716946D01*
X174365360Y-75716946D02*
X174279646Y-75716946D01*
X174279646Y-75716946D02*
X174165360Y-75745518D01*
X174165360Y-75745518D02*
X174108217Y-75774089D01*
X174108217Y-75774089D02*
X174051074Y-75831232D01*
X174051074Y-75831232D02*
X174022503Y-75916946D01*
X174022503Y-75916946D02*
X174022503Y-75974089D01*
X174022503Y-75974089D02*
X174051074Y-76059803D01*
X174051074Y-76059803D02*
X174079646Y-76088375D01*
X174022503Y-76602661D02*
X174022503Y-76488375D01*
X174022503Y-76488375D02*
X174051074Y-76431232D01*
X174051074Y-76431232D02*
X174079646Y-76402661D01*
X174079646Y-76402661D02*
X174165360Y-76345518D01*
X174165360Y-76345518D02*
X174279646Y-76316946D01*
X174279646Y-76316946D02*
X174508217Y-76316946D01*
X174508217Y-76316946D02*
X174565360Y-76345518D01*
X174565360Y-76345518D02*
X174593932Y-76374089D01*
X174593932Y-76374089D02*
X174622503Y-76431232D01*
X174622503Y-76431232D02*
X174622503Y-76545518D01*
X174622503Y-76545518D02*
X174593932Y-76602661D01*
X174593932Y-76602661D02*
X174565360Y-76631232D01*
X174565360Y-76631232D02*
X174508217Y-76659803D01*
X174508217Y-76659803D02*
X174365360Y-76659803D01*
X174365360Y-76659803D02*
X174308217Y-76631232D01*
X174308217Y-76631232D02*
X174279646Y-76602661D01*
X174279646Y-76602661D02*
X174251074Y-76545518D01*
X174251074Y-76545518D02*
X174251074Y-76431232D01*
X174251074Y-76431232D02*
X174279646Y-76374089D01*
X174279646Y-76374089D02*
X174308217Y-76345518D01*
X174308217Y-76345518D02*
X174365360Y-76316946D01*
X181581982Y-60502857D02*
X181553411Y-60445715D01*
X181553411Y-60445715D02*
X181553411Y-60360000D01*
X181553411Y-60360000D02*
X181581982Y-60274286D01*
X181581982Y-60274286D02*
X181639125Y-60217143D01*
X181639125Y-60217143D02*
X181696268Y-60188572D01*
X181696268Y-60188572D02*
X181810554Y-60160000D01*
X181810554Y-60160000D02*
X181896268Y-60160000D01*
X181896268Y-60160000D02*
X182010554Y-60188572D01*
X182010554Y-60188572D02*
X182067697Y-60217143D01*
X182067697Y-60217143D02*
X182124840Y-60274286D01*
X182124840Y-60274286D02*
X182153411Y-60360000D01*
X182153411Y-60360000D02*
X182153411Y-60417143D01*
X182153411Y-60417143D02*
X182124840Y-60502857D01*
X182124840Y-60502857D02*
X182096268Y-60531429D01*
X182096268Y-60531429D02*
X181896268Y-60531429D01*
X181896268Y-60531429D02*
X181896268Y-60417143D01*
X182153411Y-60788572D02*
X181553411Y-60788572D01*
X181553411Y-60788572D02*
X182153411Y-61131429D01*
X182153411Y-61131429D02*
X181553411Y-61131429D01*
X182153411Y-61417143D02*
X181553411Y-61417143D01*
X181553411Y-61417143D02*
X181553411Y-61560000D01*
X181553411Y-61560000D02*
X181581982Y-61645714D01*
X181581982Y-61645714D02*
X181639125Y-61702857D01*
X181639125Y-61702857D02*
X181696268Y-61731428D01*
X181696268Y-61731428D02*
X181810554Y-61760000D01*
X181810554Y-61760000D02*
X181896268Y-61760000D01*
X181896268Y-61760000D02*
X182010554Y-61731428D01*
X182010554Y-61731428D02*
X182067697Y-61702857D01*
X182067697Y-61702857D02*
X182124840Y-61645714D01*
X182124840Y-61645714D02*
X182153411Y-61560000D01*
X182153411Y-61560000D02*
X182153411Y-61417143D01*
X174635246Y-60861527D02*
X174349532Y-60661527D01*
X174635246Y-60518670D02*
X174035246Y-60518670D01*
X174035246Y-60518670D02*
X174035246Y-60747241D01*
X174035246Y-60747241D02*
X174063817Y-60804384D01*
X174063817Y-60804384D02*
X174092389Y-60832955D01*
X174092389Y-60832955D02*
X174149532Y-60861527D01*
X174149532Y-60861527D02*
X174235246Y-60861527D01*
X174235246Y-60861527D02*
X174292389Y-60832955D01*
X174292389Y-60832955D02*
X174320960Y-60804384D01*
X174320960Y-60804384D02*
X174349532Y-60747241D01*
X174349532Y-60747241D02*
X174349532Y-60518670D01*
X174035246Y-61061527D02*
X174635246Y-61461527D01*
X174035246Y-61461527D02*
X174635246Y-61061527D01*
X174283230Y-83550931D02*
X174311802Y-83636645D01*
X174311802Y-83636645D02*
X174340373Y-83665216D01*
X174340373Y-83665216D02*
X174397516Y-83693788D01*
X174397516Y-83693788D02*
X174483230Y-83693788D01*
X174483230Y-83693788D02*
X174540373Y-83665216D01*
X174540373Y-83665216D02*
X174568945Y-83636645D01*
X174568945Y-83636645D02*
X174597516Y-83579502D01*
X174597516Y-83579502D02*
X174597516Y-83350931D01*
X174597516Y-83350931D02*
X173997516Y-83350931D01*
X173997516Y-83350931D02*
X173997516Y-83550931D01*
X173997516Y-83550931D02*
X174026087Y-83608074D01*
X174026087Y-83608074D02*
X174054659Y-83636645D01*
X174054659Y-83636645D02*
X174111802Y-83665216D01*
X174111802Y-83665216D02*
X174168945Y-83665216D01*
X174168945Y-83665216D02*
X174226087Y-83636645D01*
X174226087Y-83636645D02*
X174254659Y-83608074D01*
X174254659Y-83608074D02*
X174283230Y-83550931D01*
X174283230Y-83550931D02*
X174283230Y-83350931D01*
X174197516Y-84208074D02*
X174597516Y-84208074D01*
X173968945Y-84065216D02*
X174397516Y-83922359D01*
X174397516Y-83922359D02*
X174397516Y-84293788D01*
X181801395Y-83549404D02*
X181829967Y-83635118D01*
X181829967Y-83635118D02*
X181858538Y-83663689D01*
X181858538Y-83663689D02*
X181915681Y-83692261D01*
X181915681Y-83692261D02*
X182001395Y-83692261D01*
X182001395Y-83692261D02*
X182058538Y-83663689D01*
X182058538Y-83663689D02*
X182087110Y-83635118D01*
X182087110Y-83635118D02*
X182115681Y-83577975D01*
X182115681Y-83577975D02*
X182115681Y-83349404D01*
X182115681Y-83349404D02*
X181515681Y-83349404D01*
X181515681Y-83349404D02*
X181515681Y-83549404D01*
X181515681Y-83549404D02*
X181544252Y-83606547D01*
X181544252Y-83606547D02*
X181572824Y-83635118D01*
X181572824Y-83635118D02*
X181629967Y-83663689D01*
X181629967Y-83663689D02*
X181687110Y-83663689D01*
X181687110Y-83663689D02*
X181744252Y-83635118D01*
X181744252Y-83635118D02*
X181772824Y-83606547D01*
X181772824Y-83606547D02*
X181801395Y-83549404D01*
X181801395Y-83549404D02*
X181801395Y-83349404D01*
X181572824Y-83920832D02*
X181544252Y-83949404D01*
X181544252Y-83949404D02*
X181515681Y-84006547D01*
X181515681Y-84006547D02*
X181515681Y-84149404D01*
X181515681Y-84149404D02*
X181544252Y-84206547D01*
X181544252Y-84206547D02*
X181572824Y-84235118D01*
X181572824Y-84235118D02*
X181629967Y-84263689D01*
X181629967Y-84263689D02*
X181687110Y-84263689D01*
X181687110Y-84263689D02*
X181772824Y-84235118D01*
X181772824Y-84235118D02*
X182115681Y-83892261D01*
X182115681Y-83892261D02*
X182115681Y-84263689D01*
X174036868Y-65565762D02*
X174008297Y-65508620D01*
X174008297Y-65508620D02*
X174008297Y-65422905D01*
X174008297Y-65422905D02*
X174036868Y-65337191D01*
X174036868Y-65337191D02*
X174094011Y-65280048D01*
X174094011Y-65280048D02*
X174151154Y-65251477D01*
X174151154Y-65251477D02*
X174265440Y-65222905D01*
X174265440Y-65222905D02*
X174351154Y-65222905D01*
X174351154Y-65222905D02*
X174465440Y-65251477D01*
X174465440Y-65251477D02*
X174522583Y-65280048D01*
X174522583Y-65280048D02*
X174579726Y-65337191D01*
X174579726Y-65337191D02*
X174608297Y-65422905D01*
X174608297Y-65422905D02*
X174608297Y-65480048D01*
X174608297Y-65480048D02*
X174579726Y-65565762D01*
X174579726Y-65565762D02*
X174551154Y-65594334D01*
X174551154Y-65594334D02*
X174351154Y-65594334D01*
X174351154Y-65594334D02*
X174351154Y-65480048D01*
X174608297Y-65851477D02*
X174008297Y-65851477D01*
X174008297Y-65851477D02*
X174608297Y-66194334D01*
X174608297Y-66194334D02*
X174008297Y-66194334D01*
X174608297Y-66480048D02*
X174008297Y-66480048D01*
X174008297Y-66480048D02*
X174008297Y-66622905D01*
X174008297Y-66622905D02*
X174036868Y-66708619D01*
X174036868Y-66708619D02*
X174094011Y-66765762D01*
X174094011Y-66765762D02*
X174151154Y-66794333D01*
X174151154Y-66794333D02*
X174265440Y-66822905D01*
X174265440Y-66822905D02*
X174351154Y-66822905D01*
X174351154Y-66822905D02*
X174465440Y-66794333D01*
X174465440Y-66794333D02*
X174522583Y-66765762D01*
X174522583Y-66765762D02*
X174579726Y-66708619D01*
X174579726Y-66708619D02*
X174608297Y-66622905D01*
X174608297Y-66622905D02*
X174608297Y-66480048D01*
X174601503Y-73194943D02*
X174001503Y-73194943D01*
X174001503Y-73194943D02*
X174001503Y-73337800D01*
X174001503Y-73337800D02*
X174030074Y-73423514D01*
X174030074Y-73423514D02*
X174087217Y-73480657D01*
X174087217Y-73480657D02*
X174144360Y-73509228D01*
X174144360Y-73509228D02*
X174258646Y-73537800D01*
X174258646Y-73537800D02*
X174344360Y-73537800D01*
X174344360Y-73537800D02*
X174458646Y-73509228D01*
X174458646Y-73509228D02*
X174515789Y-73480657D01*
X174515789Y-73480657D02*
X174572932Y-73423514D01*
X174572932Y-73423514D02*
X174601503Y-73337800D01*
X174601503Y-73337800D02*
X174601503Y-73194943D01*
X174201503Y-74052086D02*
X174601503Y-74052086D01*
X173972932Y-73909228D02*
X174401503Y-73766371D01*
X174401503Y-73766371D02*
X174401503Y-74137800D01*
X182153411Y-58205714D02*
X181867697Y-58005714D01*
X182153411Y-57862857D02*
X181553411Y-57862857D01*
X181553411Y-57862857D02*
X181553411Y-58091428D01*
X181553411Y-58091428D02*
X181581982Y-58148571D01*
X181581982Y-58148571D02*
X181610554Y-58177142D01*
X181610554Y-58177142D02*
X181667697Y-58205714D01*
X181667697Y-58205714D02*
X181753411Y-58205714D01*
X181753411Y-58205714D02*
X181810554Y-58177142D01*
X181810554Y-58177142D02*
X181839125Y-58148571D01*
X181839125Y-58148571D02*
X181867697Y-58091428D01*
X181867697Y-58091428D02*
X181867697Y-57862857D01*
X181981982Y-58434285D02*
X181981982Y-58720000D01*
X182153411Y-58377142D02*
X181553411Y-58577142D01*
X181553411Y-58577142D02*
X182153411Y-58777142D01*
X181553411Y-58920000D02*
X182153411Y-59062857D01*
X182153411Y-59062857D02*
X181724840Y-59177143D01*
X181724840Y-59177143D02*
X182153411Y-59291428D01*
X182153411Y-59291428D02*
X181553411Y-59434286D01*
X174572932Y-70383514D02*
X174601503Y-70469229D01*
X174601503Y-70469229D02*
X174601503Y-70612086D01*
X174601503Y-70612086D02*
X174572932Y-70669229D01*
X174572932Y-70669229D02*
X174544360Y-70697800D01*
X174544360Y-70697800D02*
X174487217Y-70726371D01*
X174487217Y-70726371D02*
X174430074Y-70726371D01*
X174430074Y-70726371D02*
X174372932Y-70697800D01*
X174372932Y-70697800D02*
X174344360Y-70669229D01*
X174344360Y-70669229D02*
X174315789Y-70612086D01*
X174315789Y-70612086D02*
X174287217Y-70497800D01*
X174287217Y-70497800D02*
X174258646Y-70440657D01*
X174258646Y-70440657D02*
X174230074Y-70412086D01*
X174230074Y-70412086D02*
X174172932Y-70383514D01*
X174172932Y-70383514D02*
X174115789Y-70383514D01*
X174115789Y-70383514D02*
X174058646Y-70412086D01*
X174058646Y-70412086D02*
X174030074Y-70440657D01*
X174030074Y-70440657D02*
X174001503Y-70497800D01*
X174001503Y-70497800D02*
X174001503Y-70640657D01*
X174001503Y-70640657D02*
X174030074Y-70726371D01*
X174544360Y-71326372D02*
X174572932Y-71297800D01*
X174572932Y-71297800D02*
X174601503Y-71212086D01*
X174601503Y-71212086D02*
X174601503Y-71154943D01*
X174601503Y-71154943D02*
X174572932Y-71069229D01*
X174572932Y-71069229D02*
X174515789Y-71012086D01*
X174515789Y-71012086D02*
X174458646Y-70983515D01*
X174458646Y-70983515D02*
X174344360Y-70954943D01*
X174344360Y-70954943D02*
X174258646Y-70954943D01*
X174258646Y-70954943D02*
X174144360Y-70983515D01*
X174144360Y-70983515D02*
X174087217Y-71012086D01*
X174087217Y-71012086D02*
X174030074Y-71069229D01*
X174030074Y-71069229D02*
X174001503Y-71154943D01*
X174001503Y-71154943D02*
X174001503Y-71212086D01*
X174001503Y-71212086D02*
X174030074Y-71297800D01*
X174030074Y-71297800D02*
X174058646Y-71326372D01*
X174601503Y-71869229D02*
X174601503Y-71583515D01*
X174601503Y-71583515D02*
X174001503Y-71583515D01*
X181808189Y-81014509D02*
X181836761Y-81100223D01*
X181836761Y-81100223D02*
X181865332Y-81128794D01*
X181865332Y-81128794D02*
X181922475Y-81157366D01*
X181922475Y-81157366D02*
X182008189Y-81157366D01*
X182008189Y-81157366D02*
X182065332Y-81128794D01*
X182065332Y-81128794D02*
X182093904Y-81100223D01*
X182093904Y-81100223D02*
X182122475Y-81043080D01*
X182122475Y-81043080D02*
X182122475Y-80814509D01*
X182122475Y-80814509D02*
X181522475Y-80814509D01*
X181522475Y-80814509D02*
X181522475Y-81014509D01*
X181522475Y-81014509D02*
X181551046Y-81071652D01*
X181551046Y-81071652D02*
X181579618Y-81100223D01*
X181579618Y-81100223D02*
X181636761Y-81128794D01*
X181636761Y-81128794D02*
X181693904Y-81128794D01*
X181693904Y-81128794D02*
X181751046Y-81100223D01*
X181751046Y-81100223D02*
X181779618Y-81071652D01*
X181779618Y-81071652D02*
X181808189Y-81014509D01*
X181808189Y-81014509D02*
X181808189Y-80814509D01*
X181522475Y-81357366D02*
X181522475Y-81728794D01*
X181522475Y-81728794D02*
X181751046Y-81528794D01*
X181751046Y-81528794D02*
X181751046Y-81614509D01*
X181751046Y-81614509D02*
X181779618Y-81671652D01*
X181779618Y-81671652D02*
X181808189Y-81700223D01*
X181808189Y-81700223D02*
X181865332Y-81728794D01*
X181865332Y-81728794D02*
X182008189Y-81728794D01*
X182008189Y-81728794D02*
X182065332Y-81700223D01*
X182065332Y-81700223D02*
X182093904Y-81671652D01*
X182093904Y-81671652D02*
X182122475Y-81614509D01*
X182122475Y-81614509D02*
X182122475Y-81443080D01*
X182122475Y-81443080D02*
X182093904Y-81385937D01*
X182093904Y-81385937D02*
X182065332Y-81357366D01*
X174579726Y-67834333D02*
X174608297Y-67920048D01*
X174608297Y-67920048D02*
X174608297Y-68062905D01*
X174608297Y-68062905D02*
X174579726Y-68120048D01*
X174579726Y-68120048D02*
X174551154Y-68148619D01*
X174551154Y-68148619D02*
X174494011Y-68177190D01*
X174494011Y-68177190D02*
X174436868Y-68177190D01*
X174436868Y-68177190D02*
X174379726Y-68148619D01*
X174379726Y-68148619D02*
X174351154Y-68120048D01*
X174351154Y-68120048D02*
X174322583Y-68062905D01*
X174322583Y-68062905D02*
X174294011Y-67948619D01*
X174294011Y-67948619D02*
X174265440Y-67891476D01*
X174265440Y-67891476D02*
X174236868Y-67862905D01*
X174236868Y-67862905D02*
X174179726Y-67834333D01*
X174179726Y-67834333D02*
X174122583Y-67834333D01*
X174122583Y-67834333D02*
X174065440Y-67862905D01*
X174065440Y-67862905D02*
X174036868Y-67891476D01*
X174036868Y-67891476D02*
X174008297Y-67948619D01*
X174008297Y-67948619D02*
X174008297Y-68091476D01*
X174008297Y-68091476D02*
X174036868Y-68177190D01*
X174608297Y-68434334D02*
X174008297Y-68434334D01*
X174008297Y-68434334D02*
X174008297Y-68577191D01*
X174008297Y-68577191D02*
X174036868Y-68662905D01*
X174036868Y-68662905D02*
X174094011Y-68720048D01*
X174094011Y-68720048D02*
X174151154Y-68748619D01*
X174151154Y-68748619D02*
X174265440Y-68777191D01*
X174265440Y-68777191D02*
X174351154Y-68777191D01*
X174351154Y-68777191D02*
X174465440Y-68748619D01*
X174465440Y-68748619D02*
X174522583Y-68720048D01*
X174522583Y-68720048D02*
X174579726Y-68662905D01*
X174579726Y-68662905D02*
X174608297Y-68577191D01*
X174608297Y-68577191D02*
X174608297Y-68434334D01*
X174436868Y-69005762D02*
X174436868Y-69291477D01*
X174608297Y-68948619D02*
X174008297Y-69148619D01*
X174008297Y-69148619D02*
X174608297Y-69348619D01*
D10*
X180549236Y-86803561D02*
X180549236Y-87336895D01*
X180549236Y-86879752D02*
X180511141Y-86841657D01*
X180511141Y-86841657D02*
X180434951Y-86803561D01*
X180434951Y-86803561D02*
X180320665Y-86803561D01*
X180320665Y-86803561D02*
X180244474Y-86841657D01*
X180244474Y-86841657D02*
X180206379Y-86917847D01*
X180206379Y-86917847D02*
X180206379Y-87336895D01*
X179825426Y-87336895D02*
X179825426Y-86803561D01*
X179825426Y-86536895D02*
X179863522Y-86574990D01*
X179863522Y-86574990D02*
X179825426Y-86613085D01*
X179825426Y-86613085D02*
X179787331Y-86574990D01*
X179787331Y-86574990D02*
X179825426Y-86536895D01*
X179825426Y-86536895D02*
X179825426Y-86613085D01*
X179101617Y-87298800D02*
X179177808Y-87336895D01*
X179177808Y-87336895D02*
X179330189Y-87336895D01*
X179330189Y-87336895D02*
X179406379Y-87298800D01*
X179406379Y-87298800D02*
X179444474Y-87260704D01*
X179444474Y-87260704D02*
X179482570Y-87184514D01*
X179482570Y-87184514D02*
X179482570Y-86955942D01*
X179482570Y-86955942D02*
X179444474Y-86879752D01*
X179444474Y-86879752D02*
X179406379Y-86841657D01*
X179406379Y-86841657D02*
X179330189Y-86803561D01*
X179330189Y-86803561D02*
X179177808Y-86803561D01*
X179177808Y-86803561D02*
X179101617Y-86841657D01*
X178453998Y-87298800D02*
X178530189Y-87336895D01*
X178530189Y-87336895D02*
X178682570Y-87336895D01*
X178682570Y-87336895D02*
X178758760Y-87298800D01*
X178758760Y-87298800D02*
X178796856Y-87222609D01*
X178796856Y-87222609D02*
X178796856Y-86917847D01*
X178796856Y-86917847D02*
X178758760Y-86841657D01*
X178758760Y-86841657D02*
X178682570Y-86803561D01*
X178682570Y-86803561D02*
X178530189Y-86803561D01*
X178530189Y-86803561D02*
X178453998Y-86841657D01*
X178453998Y-86841657D02*
X178415903Y-86917847D01*
X178415903Y-86917847D02*
X178415903Y-86994038D01*
X178415903Y-86994038D02*
X178796856Y-87070228D01*
X178073046Y-87260704D02*
X178034951Y-87298800D01*
X178034951Y-87298800D02*
X178073046Y-87336895D01*
X178073046Y-87336895D02*
X178111142Y-87298800D01*
X178111142Y-87298800D02*
X178073046Y-87260704D01*
X178073046Y-87260704D02*
X178073046Y-87336895D01*
X178073046Y-87032133D02*
X178111142Y-86574990D01*
X178111142Y-86574990D02*
X178073046Y-86536895D01*
X178073046Y-86536895D02*
X178034951Y-86574990D01*
X178034951Y-86574990D02*
X178073046Y-87032133D01*
X178073046Y-87032133D02*
X178073046Y-86536895D01*
X177768285Y-86803561D02*
X177577809Y-87336895D01*
X177577809Y-87336895D02*
X177387332Y-86803561D01*
X177082570Y-87336895D02*
X177082570Y-86803561D01*
X177082570Y-86536895D02*
X177120666Y-86574990D01*
X177120666Y-86574990D02*
X177082570Y-86613085D01*
X177082570Y-86613085D02*
X177044475Y-86574990D01*
X177044475Y-86574990D02*
X177082570Y-86536895D01*
X177082570Y-86536895D02*
X177082570Y-86613085D01*
X176396856Y-87298800D02*
X176473047Y-87336895D01*
X176473047Y-87336895D02*
X176625428Y-87336895D01*
X176625428Y-87336895D02*
X176701618Y-87298800D01*
X176701618Y-87298800D02*
X176739714Y-87222609D01*
X176739714Y-87222609D02*
X176739714Y-86917847D01*
X176739714Y-86917847D02*
X176701618Y-86841657D01*
X176701618Y-86841657D02*
X176625428Y-86803561D01*
X176625428Y-86803561D02*
X176473047Y-86803561D01*
X176473047Y-86803561D02*
X176396856Y-86841657D01*
X176396856Y-86841657D02*
X176358761Y-86917847D01*
X176358761Y-86917847D02*
X176358761Y-86994038D01*
X176358761Y-86994038D02*
X176739714Y-87070228D01*
X176092095Y-86803561D02*
X175939714Y-87336895D01*
X175939714Y-87336895D02*
X175787333Y-86955942D01*
X175787333Y-86955942D02*
X175634952Y-87336895D01*
X175634952Y-87336895D02*
X175482571Y-86803561D01*
X179881143Y-58413847D02*
X179766857Y-58451942D01*
X179766857Y-58451942D02*
X179728762Y-58490038D01*
X179728762Y-58490038D02*
X179690666Y-58566228D01*
X179690666Y-58566228D02*
X179690666Y-58680514D01*
X179690666Y-58680514D02*
X179728762Y-58756704D01*
X179728762Y-58756704D02*
X179766857Y-58794800D01*
X179766857Y-58794800D02*
X179843047Y-58832895D01*
X179843047Y-58832895D02*
X180147809Y-58832895D01*
X180147809Y-58832895D02*
X180147809Y-58032895D01*
X180147809Y-58032895D02*
X179881143Y-58032895D01*
X179881143Y-58032895D02*
X179804952Y-58070990D01*
X179804952Y-58070990D02*
X179766857Y-58109085D01*
X179766857Y-58109085D02*
X179728762Y-58185276D01*
X179728762Y-58185276D02*
X179728762Y-58261466D01*
X179728762Y-58261466D02*
X179766857Y-58337657D01*
X179766857Y-58337657D02*
X179804952Y-58375752D01*
X179804952Y-58375752D02*
X179881143Y-58413847D01*
X179881143Y-58413847D02*
X180147809Y-58413847D01*
X179004952Y-58832895D02*
X179004952Y-58413847D01*
X179004952Y-58413847D02*
X179043047Y-58337657D01*
X179043047Y-58337657D02*
X179119238Y-58299561D01*
X179119238Y-58299561D02*
X179271619Y-58299561D01*
X179271619Y-58299561D02*
X179347809Y-58337657D01*
X179004952Y-58794800D02*
X179081143Y-58832895D01*
X179081143Y-58832895D02*
X179271619Y-58832895D01*
X179271619Y-58832895D02*
X179347809Y-58794800D01*
X179347809Y-58794800D02*
X179385905Y-58718609D01*
X179385905Y-58718609D02*
X179385905Y-58642419D01*
X179385905Y-58642419D02*
X179347809Y-58566228D01*
X179347809Y-58566228D02*
X179271619Y-58528133D01*
X179271619Y-58528133D02*
X179081143Y-58528133D01*
X179081143Y-58528133D02*
X179004952Y-58490038D01*
X178738285Y-58299561D02*
X178433523Y-58299561D01*
X178623999Y-58032895D02*
X178623999Y-58718609D01*
X178623999Y-58718609D02*
X178585904Y-58794800D01*
X178585904Y-58794800D02*
X178509714Y-58832895D01*
X178509714Y-58832895D02*
X178433523Y-58832895D01*
X178281142Y-58299561D02*
X177976380Y-58299561D01*
X178166856Y-58032895D02*
X178166856Y-58718609D01*
X178166856Y-58718609D02*
X178128761Y-58794800D01*
X178128761Y-58794800D02*
X178052571Y-58832895D01*
X178052571Y-58832895D02*
X177976380Y-58832895D01*
X177404951Y-58794800D02*
X177481142Y-58832895D01*
X177481142Y-58832895D02*
X177633523Y-58832895D01*
X177633523Y-58832895D02*
X177709713Y-58794800D01*
X177709713Y-58794800D02*
X177747809Y-58718609D01*
X177747809Y-58718609D02*
X177747809Y-58413847D01*
X177747809Y-58413847D02*
X177709713Y-58337657D01*
X177709713Y-58337657D02*
X177633523Y-58299561D01*
X177633523Y-58299561D02*
X177481142Y-58299561D01*
X177481142Y-58299561D02*
X177404951Y-58337657D01*
X177404951Y-58337657D02*
X177366856Y-58413847D01*
X177366856Y-58413847D02*
X177366856Y-58490038D01*
X177366856Y-58490038D02*
X177747809Y-58566228D01*
X177023999Y-58832895D02*
X177023999Y-58299561D01*
X177023999Y-58451942D02*
X176985904Y-58375752D01*
X176985904Y-58375752D02*
X176947809Y-58337657D01*
X176947809Y-58337657D02*
X176871618Y-58299561D01*
X176871618Y-58299561D02*
X176795428Y-58299561D01*
X176604952Y-58299561D02*
X176414476Y-58832895D01*
X176223999Y-58299561D02*
X176414476Y-58832895D01*
X176414476Y-58832895D02*
X176490666Y-59023371D01*
X176490666Y-59023371D02*
X176528761Y-59061466D01*
X176528761Y-59061466D02*
X176604952Y-59099561D01*
D13*
X180038285Y-59755840D02*
X179581143Y-59755840D01*
X179809714Y-59984411D02*
X179809714Y-59527268D01*
X179352571Y-59584411D02*
X179209714Y-59984411D01*
X179209714Y-59984411D02*
X179066857Y-59584411D01*
X178609714Y-59955840D02*
X178666857Y-59984411D01*
X178666857Y-59984411D02*
X178781143Y-59984411D01*
X178781143Y-59984411D02*
X178838285Y-59955840D01*
X178838285Y-59955840D02*
X178866857Y-59898697D01*
X178866857Y-59898697D02*
X178866857Y-59670125D01*
X178866857Y-59670125D02*
X178838285Y-59612982D01*
X178838285Y-59612982D02*
X178781143Y-59584411D01*
X178781143Y-59584411D02*
X178666857Y-59584411D01*
X178666857Y-59584411D02*
X178609714Y-59612982D01*
X178609714Y-59612982D02*
X178581143Y-59670125D01*
X178581143Y-59670125D02*
X178581143Y-59727268D01*
X178581143Y-59727268D02*
X178866857Y-59784411D01*
X177838285Y-59755840D02*
X177381143Y-59755840D01*
X177152571Y-59584411D02*
X177009714Y-59984411D01*
X177009714Y-59984411D02*
X176866857Y-59584411D01*
X176409714Y-59955840D02*
X176466857Y-59984411D01*
X176466857Y-59984411D02*
X176581143Y-59984411D01*
X176581143Y-59984411D02*
X176638285Y-59955840D01*
X176638285Y-59955840D02*
X176666857Y-59898697D01*
X176666857Y-59898697D02*
X176666857Y-59670125D01*
X176666857Y-59670125D02*
X176638285Y-59612982D01*
X176638285Y-59612982D02*
X176581143Y-59584411D01*
X176581143Y-59584411D02*
X176466857Y-59584411D01*
X176466857Y-59584411D02*
X176409714Y-59612982D01*
X176409714Y-59612982D02*
X176381143Y-59670125D01*
X176381143Y-59670125D02*
X176381143Y-59727268D01*
X176381143Y-59727268D02*
X176666857Y-59784411D01*
D12*
X85504400Y-64812800D02*
X85504400Y-63812800D01*
X85604400Y-64312800D02*
X86504400Y-64812800D01*
X86504400Y-63812800D02*
X85604400Y-64312800D01*
X86504400Y-64812800D02*
X86504400Y-63812800D01*
X103589200Y-52773200D02*
X103589200Y-51773200D01*
X103689200Y-52273200D02*
X104589200Y-52773200D01*
X104589200Y-51773200D02*
X103689200Y-52273200D01*
X104589200Y-52773200D02*
X104589200Y-51773200D01*
X121572400Y-46728000D02*
X121572400Y-45728000D01*
X121672400Y-46228000D02*
X122572400Y-46728000D01*
X122572400Y-45728000D02*
X121672400Y-46228000D01*
X122572400Y-46728000D02*
X122572400Y-45728000D01*
X139504800Y-53789200D02*
X139504800Y-52789200D01*
X139604800Y-53289200D02*
X140504800Y-53789200D01*
X140504800Y-52789200D02*
X139604800Y-53289200D01*
X140504800Y-53789200D02*
X140504800Y-52789200D01*
X157488000Y-55922800D02*
X157488000Y-54922800D01*
X157588000Y-55422800D02*
X158488000Y-55922800D01*
X158488000Y-54922800D02*
X157588000Y-55422800D01*
X158488000Y-55922800D02*
X158488000Y-54922800D01*
X85402800Y-81729200D02*
X85402800Y-80729200D01*
X85502800Y-81229200D02*
X86402800Y-81729200D01*
X86402800Y-80729200D02*
X85502800Y-81229200D01*
X86402800Y-81729200D02*
X86402800Y-80729200D01*
X103386000Y-69842000D02*
X103386000Y-68842000D01*
X103486000Y-69342000D02*
X104386000Y-69842000D01*
X104386000Y-68842000D02*
X103486000Y-69342000D01*
X104386000Y-69842000D02*
X104386000Y-68842000D01*
X121470800Y-63847600D02*
X121470800Y-62847600D01*
X121570800Y-63347600D02*
X122470800Y-63847600D01*
X122470800Y-62847600D02*
X121570800Y-63347600D01*
X122470800Y-63847600D02*
X122470800Y-62847600D01*
X139454000Y-70400800D02*
X139454000Y-69400800D01*
X139554000Y-69900800D02*
X140454000Y-70400800D01*
X140454000Y-69400800D02*
X139554000Y-69900800D01*
X140454000Y-70400800D02*
X140454000Y-69400800D01*
X157792800Y-72991600D02*
X157792800Y-71991600D01*
X157892800Y-72491600D02*
X158792800Y-72991600D01*
X158792800Y-71991600D02*
X157892800Y-72491600D01*
X158792800Y-72991600D02*
X158792800Y-71991600D01*
X85402800Y-98747200D02*
X85402800Y-97747200D01*
X85502800Y-98247200D02*
X86402800Y-98747200D01*
X86402800Y-97747200D02*
X85502800Y-98247200D01*
X86402800Y-98747200D02*
X86402800Y-97747200D01*
X103487600Y-86809200D02*
X103487600Y-85809200D01*
X103587600Y-86309200D02*
X104487600Y-86809200D01*
X104487600Y-85809200D02*
X103587600Y-86309200D01*
X104487600Y-86809200D02*
X104487600Y-85809200D01*
X121470800Y-80814800D02*
X121470800Y-79814800D01*
X121570800Y-80314800D02*
X122470800Y-80814800D01*
X122470800Y-79814800D02*
X121570800Y-80314800D01*
X122470800Y-80814800D02*
X122470800Y-79814800D01*
X139555600Y-87469600D02*
X139555600Y-86469600D01*
X139655600Y-86969600D02*
X140555600Y-87469600D01*
X140555600Y-86469600D02*
X139655600Y-86969600D01*
X140555600Y-87469600D02*
X140555600Y-86469600D01*
X157589600Y-89857200D02*
X157589600Y-88857200D01*
X157689600Y-89357200D02*
X158589600Y-89857200D01*
X158589600Y-88857200D02*
X157689600Y-89357200D01*
X158589600Y-89857200D02*
X158589600Y-88857200D01*
X133459600Y-119575200D02*
X133459600Y-118575200D01*
X133559600Y-119075200D02*
X134459600Y-119575200D01*
X134459600Y-118575200D02*
X133559600Y-119075200D01*
X134459600Y-119575200D02*
X134459600Y-118575200D01*
X151901910Y-121814149D02*
X152160729Y-120848224D01*
X152127912Y-121357068D02*
X152867835Y-122072968D01*
X153126654Y-121107043D02*
X152127912Y-121357068D01*
X152867835Y-122072968D02*
X153126654Y-121107043D01*
X180141179Y-122578448D02*
X179275153Y-122078448D01*
X179758166Y-122241845D02*
X180641179Y-121712422D01*
X179775153Y-121212422D02*
X179758166Y-122241845D01*
X180641179Y-121712422D02*
X179775153Y-121212422D01*
X78910000Y-63400000D02*
X79910000Y-63400000D01*
X78910000Y-64400000D02*
X78910000Y-63400000D01*
X78910000Y-71900000D02*
X78910000Y-72400000D01*
X78910000Y-76000000D02*
X78910000Y-76600000D01*
X78910000Y-76600000D02*
X83410000Y-76600000D01*
X78910000Y-77400000D02*
X78910000Y-76400000D01*
X79910000Y-77400000D02*
X78910000Y-77400000D01*
X83410000Y-71900000D02*
X78910000Y-71900000D01*
X83410000Y-72600000D02*
X83410000Y-71900000D01*
X83910000Y-77100000D02*
X83910000Y-78100000D01*
X84410000Y-78600000D02*
X83910000Y-78100000D01*
X87410000Y-74100000D02*
X84910000Y-74100000D01*
X87410000Y-78600000D02*
X84410000Y-78600000D01*
X87910000Y-74600000D02*
X87410000Y-74100000D01*
X87910000Y-78100000D02*
X87410000Y-78600000D01*
X91910000Y-63400000D02*
X92910000Y-63400000D01*
X92910000Y-63400000D02*
X92910000Y-64400000D01*
X92910000Y-76400000D02*
X92910000Y-77400000D01*
X92910000Y-77400000D02*
X91910000Y-77400000D01*
X83410000Y-76600000D02*
G75*
G02*
X83910000Y-77100000I-1J-500001D01*
G01*
X84910000Y-74100000D02*
G75*
G02*
X83410000Y-72600000I1J1500001D01*
G01*
X96910000Y-51400000D02*
X97910000Y-51400000D01*
X96910000Y-52400000D02*
X96910000Y-51400000D01*
X96910000Y-59900000D02*
X96910000Y-60400000D01*
X96910000Y-64000000D02*
X96910000Y-64600000D01*
X96910000Y-64600000D02*
X101410000Y-64600000D01*
X96910000Y-65400000D02*
X96910000Y-64400000D01*
X97910000Y-65400000D02*
X96910000Y-65400000D01*
X101410000Y-59900000D02*
X96910000Y-59900000D01*
X101410000Y-60600000D02*
X101410000Y-59900000D01*
X101910000Y-65100000D02*
X101910000Y-66100000D01*
X102410000Y-66600000D02*
X101910000Y-66100000D01*
X105410000Y-62100000D02*
X102910000Y-62100000D01*
X105410000Y-66600000D02*
X102410000Y-66600000D01*
X105910000Y-62600000D02*
X105410000Y-62100000D01*
X105910000Y-66100000D02*
X105410000Y-66600000D01*
X109910000Y-51400000D02*
X110910000Y-51400000D01*
X110910000Y-51400000D02*
X110910000Y-52400000D01*
X110910000Y-64400000D02*
X110910000Y-65400000D01*
X110910000Y-65400000D02*
X109910000Y-65400000D01*
X101410000Y-64600000D02*
G75*
G02*
X101910000Y-65100000I-1J-500001D01*
G01*
X102910000Y-62100000D02*
G75*
G02*
X101410000Y-60600000I1J1500001D01*
G01*
X114910000Y-45400000D02*
X115910000Y-45400000D01*
X114910000Y-46400000D02*
X114910000Y-45400000D01*
X114910000Y-53900000D02*
X114910000Y-54400000D01*
X114910000Y-58000000D02*
X114910000Y-58600000D01*
X114910000Y-58600000D02*
X119410000Y-58600000D01*
X114910000Y-59400000D02*
X114910000Y-58400000D01*
X115910000Y-59400000D02*
X114910000Y-59400000D01*
X119410000Y-53900000D02*
X114910000Y-53900000D01*
X119410000Y-54600000D02*
X119410000Y-53900000D01*
X119910000Y-59100000D02*
X119910000Y-60100000D01*
X120410000Y-60600000D02*
X119910000Y-60100000D01*
X123410000Y-56100000D02*
X120910000Y-56100000D01*
X123410000Y-60600000D02*
X120410000Y-60600000D01*
X123910000Y-56600000D02*
X123410000Y-56100000D01*
X123910000Y-60100000D02*
X123410000Y-60600000D01*
X127910000Y-45400000D02*
X128910000Y-45400000D01*
X128910000Y-45400000D02*
X128910000Y-46400000D01*
X128910000Y-58400000D02*
X128910000Y-59400000D01*
X128910000Y-59400000D02*
X127910000Y-59400000D01*
X119410000Y-58600000D02*
G75*
G02*
X119910000Y-59100000I-1J-500001D01*
G01*
X120910000Y-56100000D02*
G75*
G02*
X119410000Y-54600000I1J1500001D01*
G01*
X132910000Y-52020000D02*
X133910000Y-52020000D01*
X132910000Y-53020000D02*
X132910000Y-52020000D01*
X132910000Y-60520000D02*
X132910000Y-61020000D01*
X132910000Y-64620000D02*
X132910000Y-65220000D01*
X132910000Y-65220000D02*
X137410000Y-65220000D01*
X132910000Y-66020000D02*
X132910000Y-65020000D01*
X133910000Y-66020000D02*
X132910000Y-66020000D01*
X137410000Y-60520000D02*
X132910000Y-60520000D01*
X137410000Y-61220000D02*
X137410000Y-60520000D01*
X137910000Y-65720000D02*
X137910000Y-66720000D01*
X138410000Y-67220000D02*
X137910000Y-66720000D01*
X141410000Y-62720000D02*
X138910000Y-62720000D01*
X141410000Y-67220000D02*
X138410000Y-67220000D01*
X141910000Y-63220000D02*
X141410000Y-62720000D01*
X141910000Y-66720000D02*
X141410000Y-67220000D01*
X145910000Y-52020000D02*
X146910000Y-52020000D01*
X146910000Y-52020000D02*
X146910000Y-53020000D01*
X146910000Y-65020000D02*
X146910000Y-66020000D01*
X146910000Y-66020000D02*
X145910000Y-66020000D01*
X137410000Y-65220000D02*
G75*
G02*
X137910000Y-65720000I-1J-500001D01*
G01*
X138910000Y-62720000D02*
G75*
G02*
X137410000Y-61220000I1J1500001D01*
G01*
X150910000Y-54400000D02*
X151910000Y-54400000D01*
X150910000Y-55400000D02*
X150910000Y-54400000D01*
X150910000Y-62900000D02*
X150910000Y-63400000D01*
X150910000Y-67000000D02*
X150910000Y-67600000D01*
X150910000Y-67600000D02*
X155410000Y-67600000D01*
X150910000Y-68400000D02*
X150910000Y-67400000D01*
X151910000Y-68400000D02*
X150910000Y-68400000D01*
X155410000Y-62900000D02*
X150910000Y-62900000D01*
X155410000Y-63600000D02*
X155410000Y-62900000D01*
X155910000Y-68100000D02*
X155910000Y-69100000D01*
X156410000Y-69600000D02*
X155910000Y-69100000D01*
X159410000Y-65100000D02*
X156910000Y-65100000D01*
X159410000Y-69600000D02*
X156410000Y-69600000D01*
X159910000Y-65600000D02*
X159410000Y-65100000D01*
X159910000Y-69100000D02*
X159410000Y-69600000D01*
X163910000Y-54400000D02*
X164910000Y-54400000D01*
X164910000Y-54400000D02*
X164910000Y-55400000D01*
X164910000Y-67400000D02*
X164910000Y-68400000D01*
X164910000Y-68400000D02*
X163910000Y-68400000D01*
X155410000Y-67600000D02*
G75*
G02*
X155910000Y-68100000I-1J-500001D01*
G01*
X156910000Y-65100000D02*
G75*
G02*
X155410000Y-63600000I1J1500001D01*
G01*
X78910000Y-80400000D02*
X79910000Y-80400000D01*
X78910000Y-81400000D02*
X78910000Y-80400000D01*
X78910000Y-88900000D02*
X78910000Y-89400000D01*
X78910000Y-93000000D02*
X78910000Y-93600000D01*
X78910000Y-93600000D02*
X83410000Y-93600000D01*
X78910000Y-94400000D02*
X78910000Y-93400000D01*
X79910000Y-94400000D02*
X78910000Y-94400000D01*
X83410000Y-88900000D02*
X78910000Y-88900000D01*
X83410000Y-89600000D02*
X83410000Y-88900000D01*
X83910000Y-94100000D02*
X83910000Y-95100000D01*
X84410000Y-95600000D02*
X83910000Y-95100000D01*
X87410000Y-91100000D02*
X84910000Y-91100000D01*
X87410000Y-95600000D02*
X84410000Y-95600000D01*
X87910000Y-91600000D02*
X87410000Y-91100000D01*
X87910000Y-95100000D02*
X87410000Y-95600000D01*
X91910000Y-80400000D02*
X92910000Y-80400000D01*
X92910000Y-80400000D02*
X92910000Y-81400000D01*
X92910000Y-93400000D02*
X92910000Y-94400000D01*
X92910000Y-94400000D02*
X91910000Y-94400000D01*
X83410000Y-93600000D02*
G75*
G02*
X83910000Y-94100000I-1J-500001D01*
G01*
X84910000Y-91100000D02*
G75*
G02*
X83410000Y-89600000I1J1500001D01*
G01*
X96910000Y-68400000D02*
X97910000Y-68400000D01*
X96910000Y-69400000D02*
X96910000Y-68400000D01*
X96910000Y-76900000D02*
X96910000Y-77400000D01*
X96910000Y-81000000D02*
X96910000Y-81600000D01*
X96910000Y-81600000D02*
X101410000Y-81600000D01*
X96910000Y-82400000D02*
X96910000Y-81400000D01*
X97910000Y-82400000D02*
X96910000Y-82400000D01*
X101410000Y-76900000D02*
X96910000Y-76900000D01*
X101410000Y-77600000D02*
X101410000Y-76900000D01*
X101910000Y-82100000D02*
X101910000Y-83100000D01*
X102410000Y-83600000D02*
X101910000Y-83100000D01*
X105410000Y-79100000D02*
X102910000Y-79100000D01*
X105410000Y-83600000D02*
X102410000Y-83600000D01*
X105910000Y-79600000D02*
X105410000Y-79100000D01*
X105910000Y-83100000D02*
X105410000Y-83600000D01*
X109910000Y-68400000D02*
X110910000Y-68400000D01*
X110910000Y-68400000D02*
X110910000Y-69400000D01*
X110910000Y-81400000D02*
X110910000Y-82400000D01*
X110910000Y-82400000D02*
X109910000Y-82400000D01*
X101410000Y-81600000D02*
G75*
G02*
X101910000Y-82100000I-1J-500001D01*
G01*
X102910000Y-79100000D02*
G75*
G02*
X101410000Y-77600000I1J1500001D01*
G01*
X114910000Y-62400000D02*
X115910000Y-62400000D01*
X114910000Y-63400000D02*
X114910000Y-62400000D01*
X114910000Y-70900000D02*
X114910000Y-71400000D01*
X114910000Y-75000000D02*
X114910000Y-75600000D01*
X114910000Y-75600000D02*
X119410000Y-75600000D01*
X114910000Y-76400000D02*
X114910000Y-75400000D01*
X115910000Y-76400000D02*
X114910000Y-76400000D01*
X119410000Y-70900000D02*
X114910000Y-70900000D01*
X119410000Y-71600000D02*
X119410000Y-70900000D01*
X119910000Y-76100000D02*
X119910000Y-77100000D01*
X120410000Y-77600000D02*
X119910000Y-77100000D01*
X123410000Y-73100000D02*
X120910000Y-73100000D01*
X123410000Y-77600000D02*
X120410000Y-77600000D01*
X123910000Y-73600000D02*
X123410000Y-73100000D01*
X123910000Y-77100000D02*
X123410000Y-77600000D01*
X127910000Y-62400000D02*
X128910000Y-62400000D01*
X128910000Y-62400000D02*
X128910000Y-63400000D01*
X128910000Y-75400000D02*
X128910000Y-76400000D01*
X128910000Y-76400000D02*
X127910000Y-76400000D01*
X119410000Y-75600000D02*
G75*
G02*
X119910000Y-76100000I-1J-500001D01*
G01*
X120910000Y-73100000D02*
G75*
G02*
X119410000Y-71600000I1J1500001D01*
G01*
X132910000Y-69020000D02*
X133910000Y-69020000D01*
X132910000Y-70020000D02*
X132910000Y-69020000D01*
X132910000Y-77520000D02*
X132910000Y-78020000D01*
X132910000Y-81620000D02*
X132910000Y-82220000D01*
X132910000Y-82220000D02*
X137410000Y-82220000D01*
X132910000Y-83020000D02*
X132910000Y-82020000D01*
X133910000Y-83020000D02*
X132910000Y-83020000D01*
X137410000Y-77520000D02*
X132910000Y-77520000D01*
X137410000Y-78220000D02*
X137410000Y-77520000D01*
X137910000Y-82720000D02*
X137910000Y-83720000D01*
X138410000Y-84220000D02*
X137910000Y-83720000D01*
X141410000Y-79720000D02*
X138910000Y-79720000D01*
X141410000Y-84220000D02*
X138410000Y-84220000D01*
X141910000Y-80220000D02*
X141410000Y-79720000D01*
X141910000Y-83720000D02*
X141410000Y-84220000D01*
X145910000Y-69020000D02*
X146910000Y-69020000D01*
X146910000Y-69020000D02*
X146910000Y-70020000D01*
X146910000Y-82020000D02*
X146910000Y-83020000D01*
X146910000Y-83020000D02*
X145910000Y-83020000D01*
X137410000Y-82220000D02*
G75*
G02*
X137910000Y-82720000I-1J-500001D01*
G01*
X138910000Y-79720000D02*
G75*
G02*
X137410000Y-78220000I1J1500001D01*
G01*
X150910000Y-71400000D02*
X151910000Y-71400000D01*
X150910000Y-72400000D02*
X150910000Y-71400000D01*
X150910000Y-79900000D02*
X150910000Y-80400000D01*
X150910000Y-84000000D02*
X150910000Y-84600000D01*
X150910000Y-84600000D02*
X155410000Y-84600000D01*
X150910000Y-85400000D02*
X150910000Y-84400000D01*
X151910000Y-85400000D02*
X150910000Y-85400000D01*
X155410000Y-79900000D02*
X150910000Y-79900000D01*
X155410000Y-80600000D02*
X155410000Y-79900000D01*
X155910000Y-85100000D02*
X155910000Y-86100000D01*
X156410000Y-86600000D02*
X155910000Y-86100000D01*
X159410000Y-82100000D02*
X156910000Y-82100000D01*
X159410000Y-86600000D02*
X156410000Y-86600000D01*
X159910000Y-82600000D02*
X159410000Y-82100000D01*
X159910000Y-86100000D02*
X159410000Y-86600000D01*
X163910000Y-71400000D02*
X164910000Y-71400000D01*
X164910000Y-71400000D02*
X164910000Y-72400000D01*
X164910000Y-84400000D02*
X164910000Y-85400000D01*
X164910000Y-85400000D02*
X163910000Y-85400000D01*
X155410000Y-84600000D02*
G75*
G02*
X155910000Y-85100000I-1J-500001D01*
G01*
X156910000Y-82100000D02*
G75*
G02*
X155410000Y-80600000I1J1500001D01*
G01*
X78910000Y-97400000D02*
X79910000Y-97400000D01*
X78910000Y-98400000D02*
X78910000Y-97400000D01*
X78910000Y-105900000D02*
X78910000Y-106400000D01*
X78910000Y-110000000D02*
X78910000Y-110600000D01*
X78910000Y-110600000D02*
X83410000Y-110600000D01*
X78910000Y-111400000D02*
X78910000Y-110400000D01*
X79910000Y-111400000D02*
X78910000Y-111400000D01*
X83410000Y-105900000D02*
X78910000Y-105900000D01*
X83410000Y-106600000D02*
X83410000Y-105900000D01*
X83910000Y-111100000D02*
X83910000Y-112100000D01*
X84410000Y-112600000D02*
X83910000Y-112100000D01*
X87410000Y-108100000D02*
X84910000Y-108100000D01*
X87410000Y-112600000D02*
X84410000Y-112600000D01*
X87910000Y-108600000D02*
X87410000Y-108100000D01*
X87910000Y-112100000D02*
X87410000Y-112600000D01*
X91910000Y-97400000D02*
X92910000Y-97400000D01*
X92910000Y-97400000D02*
X92910000Y-98400000D01*
X92910000Y-110400000D02*
X92910000Y-111400000D01*
X92910000Y-111400000D02*
X91910000Y-111400000D01*
X83410000Y-110600000D02*
G75*
G02*
X83910000Y-111100000I-1J-500001D01*
G01*
X84910000Y-108100000D02*
G75*
G02*
X83410000Y-106600000I1J1500001D01*
G01*
X96910000Y-85400000D02*
X97910000Y-85400000D01*
X96910000Y-86400000D02*
X96910000Y-85400000D01*
X96910000Y-93900000D02*
X96910000Y-94400000D01*
X96910000Y-98000000D02*
X96910000Y-98600000D01*
X96910000Y-98600000D02*
X101410000Y-98600000D01*
X96910000Y-99400000D02*
X96910000Y-98400000D01*
X97910000Y-99400000D02*
X96910000Y-99400000D01*
X101410000Y-93900000D02*
X96910000Y-93900000D01*
X101410000Y-94600000D02*
X101410000Y-93900000D01*
X101910000Y-99100000D02*
X101910000Y-100100000D01*
X102410000Y-100600000D02*
X101910000Y-100100000D01*
X105410000Y-96100000D02*
X102910000Y-96100000D01*
X105410000Y-100600000D02*
X102410000Y-100600000D01*
X105910000Y-96600000D02*
X105410000Y-96100000D01*
X105910000Y-100100000D02*
X105410000Y-100600000D01*
X109910000Y-85400000D02*
X110910000Y-85400000D01*
X110910000Y-85400000D02*
X110910000Y-86400000D01*
X110910000Y-98400000D02*
X110910000Y-99400000D01*
X110910000Y-99400000D02*
X109910000Y-99400000D01*
X101410000Y-98600000D02*
G75*
G02*
X101910000Y-99100000I-1J-500001D01*
G01*
X102910000Y-96100000D02*
G75*
G02*
X101410000Y-94600000I1J1500001D01*
G01*
X114910000Y-79400000D02*
X115910000Y-79400000D01*
X114910000Y-80400000D02*
X114910000Y-79400000D01*
X114910000Y-87900000D02*
X114910000Y-88400000D01*
X114910000Y-92000000D02*
X114910000Y-92600000D01*
X114910000Y-92600000D02*
X119410000Y-92600000D01*
X114910000Y-93400000D02*
X114910000Y-92400000D01*
X115910000Y-93400000D02*
X114910000Y-93400000D01*
X119410000Y-87900000D02*
X114910000Y-87900000D01*
X119410000Y-88600000D02*
X119410000Y-87900000D01*
X119910000Y-93100000D02*
X119910000Y-94100000D01*
X120410000Y-94600000D02*
X119910000Y-94100000D01*
X123410000Y-90100000D02*
X120910000Y-90100000D01*
X123410000Y-94600000D02*
X120410000Y-94600000D01*
X123910000Y-90600000D02*
X123410000Y-90100000D01*
X123910000Y-94100000D02*
X123410000Y-94600000D01*
X127910000Y-79400000D02*
X128910000Y-79400000D01*
X128910000Y-79400000D02*
X128910000Y-80400000D01*
X128910000Y-92400000D02*
X128910000Y-93400000D01*
X128910000Y-93400000D02*
X127910000Y-93400000D01*
X119410000Y-92600000D02*
G75*
G02*
X119910000Y-93100000I-1J-500001D01*
G01*
X120910000Y-90100000D02*
G75*
G02*
X119410000Y-88600000I1J1500001D01*
G01*
X132910000Y-86025000D02*
X133910000Y-86025000D01*
X132910000Y-87025000D02*
X132910000Y-86025000D01*
X132910000Y-94525000D02*
X132910000Y-95025000D01*
X132910000Y-98625000D02*
X132910000Y-99225000D01*
X132910000Y-99225000D02*
X137410000Y-99225000D01*
X132910000Y-100025000D02*
X132910000Y-99025000D01*
X133910000Y-100025000D02*
X132910000Y-100025000D01*
X137410000Y-94525000D02*
X132910000Y-94525000D01*
X137410000Y-95225000D02*
X137410000Y-94525000D01*
X137910000Y-99725000D02*
X137910000Y-100725000D01*
X138410000Y-101225000D02*
X137910000Y-100725000D01*
X141410000Y-96725000D02*
X138910000Y-96725000D01*
X141410000Y-101225000D02*
X138410000Y-101225000D01*
X141910000Y-97225000D02*
X141410000Y-96725000D01*
X141910000Y-100725000D02*
X141410000Y-101225000D01*
X145910000Y-86025000D02*
X146910000Y-86025000D01*
X146910000Y-86025000D02*
X146910000Y-87025000D01*
X146910000Y-99025000D02*
X146910000Y-100025000D01*
X146910000Y-100025000D02*
X145910000Y-100025000D01*
X137410000Y-99225000D02*
G75*
G02*
X137910000Y-99725000I-1J-500001D01*
G01*
X138910000Y-96725000D02*
G75*
G02*
X137410000Y-95225000I1J1500001D01*
G01*
X150910000Y-88400000D02*
X151910000Y-88400000D01*
X150910000Y-89400000D02*
X150910000Y-88400000D01*
X150910000Y-96900000D02*
X150910000Y-97400000D01*
X150910000Y-101000000D02*
X150910000Y-101600000D01*
X150910000Y-101600000D02*
X155410000Y-101600000D01*
X150910000Y-102400000D02*
X150910000Y-101400000D01*
X151910000Y-102400000D02*
X150910000Y-102400000D01*
X155410000Y-96900000D02*
X150910000Y-96900000D01*
X155410000Y-97600000D02*
X155410000Y-96900000D01*
X155910000Y-102100000D02*
X155910000Y-103100000D01*
X156410000Y-103600000D02*
X155910000Y-103100000D01*
X159410000Y-99100000D02*
X156910000Y-99100000D01*
X159410000Y-103600000D02*
X156410000Y-103600000D01*
X159910000Y-99600000D02*
X159410000Y-99100000D01*
X159910000Y-103100000D02*
X159410000Y-103600000D01*
X163910000Y-88400000D02*
X164910000Y-88400000D01*
X164910000Y-88400000D02*
X164910000Y-89400000D01*
X164910000Y-101400000D02*
X164910000Y-102400000D01*
X164910000Y-102400000D02*
X163910000Y-102400000D01*
X155410000Y-101600000D02*
G75*
G02*
X155910000Y-102100000I-1J-500001D01*
G01*
X156910000Y-99100000D02*
G75*
G02*
X155410000Y-97600000I1J1500001D01*
G01*
X141010000Y-119990000D02*
X140010000Y-119990000D01*
X141010000Y-118990000D02*
X141010000Y-119990000D01*
X141010000Y-111490000D02*
X141010000Y-110990000D01*
X141010000Y-107390000D02*
X141010000Y-106790000D01*
X141010000Y-106790000D02*
X136510000Y-106790000D01*
X141010000Y-105990000D02*
X141010000Y-106990000D01*
X140010000Y-105990000D02*
X141010000Y-105990000D01*
X136510000Y-111490000D02*
X141010000Y-111490000D01*
X136510000Y-110790000D02*
X136510000Y-111490000D01*
X136010000Y-106290000D02*
X136010000Y-105290000D01*
X135510000Y-104790000D02*
X136010000Y-105290000D01*
X132510000Y-109290000D02*
X135010000Y-109290000D01*
X132510000Y-104790000D02*
X135510000Y-104790000D01*
X132010000Y-108790000D02*
X132510000Y-109290000D01*
X132010000Y-105290000D02*
X132510000Y-104790000D01*
X128010000Y-119990000D02*
X127010000Y-119990000D01*
X127010000Y-119990000D02*
X127010000Y-118990000D01*
X127010000Y-106990000D02*
X127010000Y-105990000D01*
X127010000Y-105990000D02*
X128010000Y-105990000D01*
X136510000Y-106790000D02*
G75*
G02*
X136010000Y-106290000I1J500001D01*
G01*
X135010000Y-109290000D02*
G75*
G02*
X136510000Y-110790000I-1J-1500001D01*
G01*
X159009747Y-124153214D02*
X158043822Y-123894395D01*
X159268567Y-123187288D02*
X159009747Y-124153214D01*
X161209709Y-115942845D02*
X161339119Y-115459882D01*
X162270867Y-111982549D02*
X162426159Y-111402993D01*
X162426159Y-111402993D02*
X158079493Y-110238307D01*
X162633214Y-110630253D02*
X162374395Y-111596178D01*
X161667288Y-110371433D02*
X162633214Y-110630253D01*
X156863043Y-114778159D02*
X161209709Y-115942845D01*
X157044216Y-114102011D02*
X156863043Y-114778159D01*
X157725939Y-109625935D02*
X157984758Y-108660009D01*
X157631205Y-108047637D02*
X157984758Y-108660009D01*
X153568742Y-111617846D02*
X155983556Y-112264893D01*
X154733427Y-107271180D02*
X157631205Y-108047637D01*
X153215188Y-111005473D02*
X153568742Y-111617846D01*
X154121055Y-107624733D02*
X154733427Y-107271180D01*
X146452712Y-120788567D02*
X145486786Y-120529747D01*
X145486786Y-120529747D02*
X145745605Y-119563822D01*
X148851433Y-107972712D02*
X149110253Y-107006786D01*
X149110253Y-107006786D02*
X150076178Y-107265605D01*
X158079493Y-110238307D02*
G75*
G02*
X157725940Y-109625935I129410J482963D01*
G01*
X155983556Y-112264893D02*
G75*
G02*
X157044217Y-114102011I-388231J-1448891D01*
G01*
X184222178Y-116227822D02*
X183722178Y-117093848D01*
X183356152Y-115727822D02*
X184222178Y-116227822D01*
X176860962Y-111977822D02*
X176427949Y-111727822D01*
X173310258Y-109927822D02*
X172790642Y-109627822D01*
X172790642Y-109627822D02*
X170540642Y-113524936D01*
X172097822Y-109227822D02*
X172963848Y-109727822D01*
X171597822Y-110093848D02*
X172097822Y-109227822D01*
X174610962Y-115874936D02*
X176860962Y-111977822D01*
X174004744Y-115524936D02*
X174610962Y-115874936D01*
X169857630Y-113707949D02*
X168991604Y-113207949D01*
X168308592Y-113390962D02*
X168991604Y-113207949D01*
X170705706Y-118239038D02*
X171955706Y-116073975D01*
X166808592Y-115989038D02*
X168308592Y-113390962D01*
X170022693Y-118422051D02*
X170705706Y-118239038D01*
X166991604Y-116672051D02*
X166808592Y-115989038D01*
X177722178Y-127486152D02*
X177222178Y-128352178D01*
X177222178Y-128352178D02*
X176356152Y-127852178D01*
X165963848Y-121852178D02*
X165097822Y-121352178D01*
X165097822Y-121352178D02*
X165597822Y-120486152D01*
X170540642Y-113524936D02*
G75*
G02*
X169857630Y-113707949I-433013J250001D01*
G01*
X171955706Y-116073975D02*
G75*
G02*
X174004743Y-115524937I1299038J-750001D01*
G01*
X169164000Y-57150000D02*
X169164000Y-87630000D01*
X169164000Y-57150000D02*
X171704000Y-57150000D01*
X171704000Y-57150000D02*
X171704000Y-87630000D01*
X171704000Y-87630000D02*
X169164000Y-87630000D01*
X184404000Y-57150000D02*
X184404000Y-87630000D01*
X184404000Y-57150000D02*
X186944000Y-57150000D01*
X184404000Y-87630000D02*
X186944000Y-87630000D01*
X186944000Y-57150000D02*
X186944000Y-87630000D01*
D14*
X179704000Y-101510000D02*
X179154000Y-101510000D01*
X177579000Y-101410000D02*
X177579000Y-100485000D01*
X181279000Y-101410000D02*
X181279000Y-96710000D01*
X177579000Y-97635000D02*
X177579000Y-96710000D01*
X179704000Y-96610000D02*
X179154000Y-96610000D01*
D12*
X171704000Y-89782000D02*
X184404000Y-89782000D01*
X171704000Y-92082000D02*
X171704000Y-89782000D01*
X184404000Y-89782000D02*
X184404000Y-92082000D01*
X184404000Y-92082000D02*
X171704000Y-92082000D01*
%LPC*%
D10*
X84829400Y-64737800D02*
X83629400Y-64737800D01*
X83629400Y-63887800D01*
X84829400Y-63887800D01*
X84829400Y-64737800D01*
G36*
X84829400Y-64737800D02*
G01*
X83629400Y-64737800D01*
X83629400Y-63887800D01*
X84829400Y-63887800D01*
X84829400Y-64737800D01*
G37*
X88379400Y-64737800D02*
X87179400Y-64737800D01*
X87179400Y-63887800D01*
X88379400Y-63887800D01*
X88379400Y-64737800D01*
G36*
X88379400Y-64737800D02*
G01*
X87179400Y-64737800D01*
X87179400Y-63887800D01*
X88379400Y-63887800D01*
X88379400Y-64737800D01*
G37*
X102914200Y-52698200D02*
X101714200Y-52698200D01*
X101714200Y-51848200D01*
X102914200Y-51848200D01*
X102914200Y-52698200D01*
G36*
X102914200Y-52698200D02*
G01*
X101714200Y-52698200D01*
X101714200Y-51848200D01*
X102914200Y-51848200D01*
X102914200Y-52698200D01*
G37*
X106464200Y-52698200D02*
X105264200Y-52698200D01*
X105264200Y-51848200D01*
X106464200Y-51848200D01*
X106464200Y-52698200D01*
G36*
X106464200Y-52698200D02*
G01*
X105264200Y-52698200D01*
X105264200Y-51848200D01*
X106464200Y-51848200D01*
X106464200Y-52698200D01*
G37*
X120897400Y-46653000D02*
X119697400Y-46653000D01*
X119697400Y-45803000D01*
X120897400Y-45803000D01*
X120897400Y-46653000D01*
G36*
X120897400Y-46653000D02*
G01*
X119697400Y-46653000D01*
X119697400Y-45803000D01*
X120897400Y-45803000D01*
X120897400Y-46653000D01*
G37*
X124447400Y-46653000D02*
X123247400Y-46653000D01*
X123247400Y-45803000D01*
X124447400Y-45803000D01*
X124447400Y-46653000D01*
G36*
X124447400Y-46653000D02*
G01*
X123247400Y-46653000D01*
X123247400Y-45803000D01*
X124447400Y-45803000D01*
X124447400Y-46653000D01*
G37*
X138829800Y-53714200D02*
X137629800Y-53714200D01*
X137629800Y-52864200D01*
X138829800Y-52864200D01*
X138829800Y-53714200D01*
G36*
X138829800Y-53714200D02*
G01*
X137629800Y-53714200D01*
X137629800Y-52864200D01*
X138829800Y-52864200D01*
X138829800Y-53714200D01*
G37*
X142379800Y-53714200D02*
X141179800Y-53714200D01*
X141179800Y-52864200D01*
X142379800Y-52864200D01*
X142379800Y-53714200D01*
G36*
X142379800Y-53714200D02*
G01*
X141179800Y-53714200D01*
X141179800Y-52864200D01*
X142379800Y-52864200D01*
X142379800Y-53714200D01*
G37*
X156813000Y-55847800D02*
X155613000Y-55847800D01*
X155613000Y-54997800D01*
X156813000Y-54997800D01*
X156813000Y-55847800D01*
G36*
X156813000Y-55847800D02*
G01*
X155613000Y-55847800D01*
X155613000Y-54997800D01*
X156813000Y-54997800D01*
X156813000Y-55847800D01*
G37*
X160363000Y-55847800D02*
X159163000Y-55847800D01*
X159163000Y-54997800D01*
X160363000Y-54997800D01*
X160363000Y-55847800D01*
G36*
X160363000Y-55847800D02*
G01*
X159163000Y-55847800D01*
X159163000Y-54997800D01*
X160363000Y-54997800D01*
X160363000Y-55847800D01*
G37*
X84727800Y-81654200D02*
X83527800Y-81654200D01*
X83527800Y-80804200D01*
X84727800Y-80804200D01*
X84727800Y-81654200D01*
G36*
X84727800Y-81654200D02*
G01*
X83527800Y-81654200D01*
X83527800Y-80804200D01*
X84727800Y-80804200D01*
X84727800Y-81654200D01*
G37*
X88277800Y-81654200D02*
X87077800Y-81654200D01*
X87077800Y-80804200D01*
X88277800Y-80804200D01*
X88277800Y-81654200D01*
G36*
X88277800Y-81654200D02*
G01*
X87077800Y-81654200D01*
X87077800Y-80804200D01*
X88277800Y-80804200D01*
X88277800Y-81654200D01*
G37*
X102711000Y-69767000D02*
X101511000Y-69767000D01*
X101511000Y-68917000D01*
X102711000Y-68917000D01*
X102711000Y-69767000D01*
G36*
X102711000Y-69767000D02*
G01*
X101511000Y-69767000D01*
X101511000Y-68917000D01*
X102711000Y-68917000D01*
X102711000Y-69767000D01*
G37*
X106261000Y-69767000D02*
X105061000Y-69767000D01*
X105061000Y-68917000D01*
X106261000Y-68917000D01*
X106261000Y-69767000D01*
G36*
X106261000Y-69767000D02*
G01*
X105061000Y-69767000D01*
X105061000Y-68917000D01*
X106261000Y-68917000D01*
X106261000Y-69767000D01*
G37*
X120795800Y-63772600D02*
X119595800Y-63772600D01*
X119595800Y-62922600D01*
X120795800Y-62922600D01*
X120795800Y-63772600D01*
G36*
X120795800Y-63772600D02*
G01*
X119595800Y-63772600D01*
X119595800Y-62922600D01*
X120795800Y-62922600D01*
X120795800Y-63772600D01*
G37*
X124345800Y-63772600D02*
X123145800Y-63772600D01*
X123145800Y-62922600D01*
X124345800Y-62922600D01*
X124345800Y-63772600D01*
G36*
X124345800Y-63772600D02*
G01*
X123145800Y-63772600D01*
X123145800Y-62922600D01*
X124345800Y-62922600D01*
X124345800Y-63772600D01*
G37*
X138779000Y-70325800D02*
X137579000Y-70325800D01*
X137579000Y-69475800D01*
X138779000Y-69475800D01*
X138779000Y-70325800D01*
G36*
X138779000Y-70325800D02*
G01*
X137579000Y-70325800D01*
X137579000Y-69475800D01*
X138779000Y-69475800D01*
X138779000Y-70325800D01*
G37*
X142329000Y-70325800D02*
X141129000Y-70325800D01*
X141129000Y-69475800D01*
X142329000Y-69475800D01*
X142329000Y-70325800D01*
G36*
X142329000Y-70325800D02*
G01*
X141129000Y-70325800D01*
X141129000Y-69475800D01*
X142329000Y-69475800D01*
X142329000Y-70325800D01*
G37*
X157117800Y-72916600D02*
X155917800Y-72916600D01*
X155917800Y-72066600D01*
X157117800Y-72066600D01*
X157117800Y-72916600D01*
G36*
X157117800Y-72916600D02*
G01*
X155917800Y-72916600D01*
X155917800Y-72066600D01*
X157117800Y-72066600D01*
X157117800Y-72916600D01*
G37*
X160667800Y-72916600D02*
X159467800Y-72916600D01*
X159467800Y-72066600D01*
X160667800Y-72066600D01*
X160667800Y-72916600D01*
G36*
X160667800Y-72916600D02*
G01*
X159467800Y-72916600D01*
X159467800Y-72066600D01*
X160667800Y-72066600D01*
X160667800Y-72916600D01*
G37*
X84727800Y-98672200D02*
X83527800Y-98672200D01*
X83527800Y-97822200D01*
X84727800Y-97822200D01*
X84727800Y-98672200D01*
G36*
X84727800Y-98672200D02*
G01*
X83527800Y-98672200D01*
X83527800Y-97822200D01*
X84727800Y-97822200D01*
X84727800Y-98672200D01*
G37*
X88277800Y-98672200D02*
X87077800Y-98672200D01*
X87077800Y-97822200D01*
X88277800Y-97822200D01*
X88277800Y-98672200D01*
G36*
X88277800Y-98672200D02*
G01*
X87077800Y-98672200D01*
X87077800Y-97822200D01*
X88277800Y-97822200D01*
X88277800Y-98672200D01*
G37*
X102812600Y-86734200D02*
X101612600Y-86734200D01*
X101612600Y-85884200D01*
X102812600Y-85884200D01*
X102812600Y-86734200D01*
G36*
X102812600Y-86734200D02*
G01*
X101612600Y-86734200D01*
X101612600Y-85884200D01*
X102812600Y-85884200D01*
X102812600Y-86734200D01*
G37*
X106362600Y-86734200D02*
X105162600Y-86734200D01*
X105162600Y-85884200D01*
X106362600Y-85884200D01*
X106362600Y-86734200D01*
G36*
X106362600Y-86734200D02*
G01*
X105162600Y-86734200D01*
X105162600Y-85884200D01*
X106362600Y-85884200D01*
X106362600Y-86734200D01*
G37*
X120795800Y-80739800D02*
X119595800Y-80739800D01*
X119595800Y-79889800D01*
X120795800Y-79889800D01*
X120795800Y-80739800D01*
G36*
X120795800Y-80739800D02*
G01*
X119595800Y-80739800D01*
X119595800Y-79889800D01*
X120795800Y-79889800D01*
X120795800Y-80739800D01*
G37*
X124345800Y-80739800D02*
X123145800Y-80739800D01*
X123145800Y-79889800D01*
X124345800Y-79889800D01*
X124345800Y-80739800D01*
G36*
X124345800Y-80739800D02*
G01*
X123145800Y-80739800D01*
X123145800Y-79889800D01*
X124345800Y-79889800D01*
X124345800Y-80739800D01*
G37*
X138880600Y-87394600D02*
X137680600Y-87394600D01*
X137680600Y-86544600D01*
X138880600Y-86544600D01*
X138880600Y-87394600D01*
G36*
X138880600Y-87394600D02*
G01*
X137680600Y-87394600D01*
X137680600Y-86544600D01*
X138880600Y-86544600D01*
X138880600Y-87394600D01*
G37*
X142430600Y-87394600D02*
X141230600Y-87394600D01*
X141230600Y-86544600D01*
X142430600Y-86544600D01*
X142430600Y-87394600D01*
G36*
X142430600Y-87394600D02*
G01*
X141230600Y-87394600D01*
X141230600Y-86544600D01*
X142430600Y-86544600D01*
X142430600Y-87394600D01*
G37*
X156914600Y-89782200D02*
X155714600Y-89782200D01*
X155714600Y-88932200D01*
X156914600Y-88932200D01*
X156914600Y-89782200D01*
G36*
X156914600Y-89782200D02*
G01*
X155714600Y-89782200D01*
X155714600Y-88932200D01*
X156914600Y-88932200D01*
X156914600Y-89782200D01*
G37*
X160464600Y-89782200D02*
X159264600Y-89782200D01*
X159264600Y-88932200D01*
X160464600Y-88932200D01*
X160464600Y-89782200D01*
G36*
X160464600Y-89782200D02*
G01*
X159264600Y-89782200D01*
X159264600Y-88932200D01*
X160464600Y-88932200D01*
X160464600Y-89782200D01*
G37*
X132784600Y-119500200D02*
X131584600Y-119500200D01*
X131584600Y-118650200D01*
X132784600Y-118650200D01*
X132784600Y-119500200D01*
G36*
X132784600Y-119500200D02*
G01*
X131584600Y-119500200D01*
X131584600Y-118650200D01*
X132784600Y-118650200D01*
X132784600Y-119500200D01*
G37*
X136334600Y-119500200D02*
X135134600Y-119500200D01*
X135134600Y-118650200D01*
X136334600Y-118650200D01*
X136334600Y-119500200D01*
G36*
X136334600Y-119500200D02*
G01*
X135134600Y-119500200D01*
X135134600Y-118650200D01*
X136334600Y-118650200D01*
X136334600Y-119500200D01*
G37*
X151489317Y-120745965D02*
X151269321Y-121567002D01*
X150110210Y-121256419D01*
X150330206Y-120435382D01*
X151489317Y-120745965D01*
G36*
X151489317Y-120745965D02*
G01*
X151269321Y-121567002D01*
X150110210Y-121256419D01*
X150330206Y-120435382D01*
X151489317Y-120745965D01*
G37*
X154918354Y-121664773D02*
X154698358Y-122485810D01*
X153539247Y-122175227D01*
X153759243Y-121354190D01*
X154918354Y-121664773D01*
G36*
X154918354Y-121664773D02*
G01*
X154698358Y-122485810D01*
X153539247Y-122175227D01*
X153759243Y-121354190D01*
X154918354Y-121664773D01*
G37*
X179738727Y-123125515D02*
X179138727Y-124164745D01*
X178402605Y-123739745D01*
X179002605Y-122700515D01*
X179738727Y-123125515D01*
G36*
X179738727Y-123125515D02*
G01*
X179138727Y-124164745D01*
X178402605Y-123739745D01*
X179002605Y-122700515D01*
X179738727Y-123125515D01*
G37*
X181513727Y-120051125D02*
X180913727Y-121090355D01*
X180177605Y-120665355D01*
X180777605Y-119626125D01*
X181513727Y-120051125D01*
G36*
X181513727Y-120051125D02*
G01*
X180913727Y-121090355D01*
X180177605Y-120665355D01*
X180777605Y-119626125D01*
X181513727Y-120051125D01*
G37*
X185602000Y-103254000D02*
X184902000Y-103254000D01*
X184902000Y-102354000D01*
X185602000Y-102354000D01*
X185602000Y-103254000D01*
G36*
X185602000Y-103254000D02*
G01*
X184902000Y-103254000D01*
X184902000Y-102354000D01*
X185602000Y-102354000D01*
X185602000Y-103254000D01*
G37*
X187802000Y-103254000D02*
X187102000Y-103254000D01*
X187102000Y-102354000D01*
X187802000Y-102354000D01*
X187802000Y-103254000D01*
G36*
X187802000Y-103254000D02*
G01*
X187102000Y-103254000D01*
X187102000Y-102354000D01*
X187802000Y-102354000D01*
X187802000Y-103254000D01*
G37*
X185302000Y-101704000D02*
X183902000Y-101704000D01*
X183902000Y-101104000D01*
X185302000Y-101104000D01*
X185302000Y-101704000D01*
G36*
X185302000Y-101704000D02*
G01*
X183902000Y-101704000D01*
X183902000Y-101104000D01*
X185302000Y-101104000D01*
X185302000Y-101704000D01*
G37*
X185302000Y-100204000D02*
X183902000Y-100204000D01*
X183902000Y-99604000D01*
X185302000Y-99604000D01*
X185302000Y-100204000D01*
G36*
X185302000Y-100204000D02*
G01*
X183902000Y-100204000D01*
X183902000Y-99604000D01*
X185302000Y-99604000D01*
X185302000Y-100204000D01*
G37*
X185302000Y-97204000D02*
X183902000Y-97204000D01*
X183902000Y-96604000D01*
X185302000Y-96604000D01*
X185302000Y-97204000D01*
G36*
X185302000Y-97204000D02*
G01*
X183902000Y-97204000D01*
X183902000Y-96604000D01*
X185302000Y-96604000D01*
X185302000Y-97204000D01*
G37*
X185602000Y-95954000D02*
X184902000Y-95954000D01*
X184902000Y-95054000D01*
X185602000Y-95054000D01*
X185602000Y-95954000D01*
G36*
X185602000Y-95954000D02*
G01*
X184902000Y-95954000D01*
X184902000Y-95054000D01*
X185602000Y-95054000D01*
X185602000Y-95954000D01*
G37*
X187802000Y-95954000D02*
X187102000Y-95954000D01*
X187102000Y-95054000D01*
X187802000Y-95054000D01*
X187802000Y-95954000D01*
G36*
X187802000Y-95954000D02*
G01*
X187102000Y-95954000D01*
X187102000Y-95054000D01*
X187802000Y-95054000D01*
X187802000Y-95954000D01*
G37*
X172974000Y-58928000D02*
X171958000Y-58928000D01*
X171958000Y-57912000D01*
X172974000Y-57912000D01*
X172974000Y-58928000D01*
G36*
X172974000Y-58928000D02*
G01*
X171958000Y-58928000D01*
X171958000Y-57912000D01*
X172974000Y-57912000D01*
X172974000Y-58928000D01*
G37*
X172974000Y-61468000D02*
X171958000Y-61468000D01*
X171958000Y-60452000D01*
X172974000Y-60452000D01*
X172974000Y-61468000D01*
G36*
X172974000Y-61468000D02*
G01*
X171958000Y-61468000D01*
X171958000Y-60452000D01*
X172974000Y-60452000D01*
X172974000Y-61468000D01*
G37*
X172974000Y-64008000D02*
X171958000Y-64008000D01*
X171958000Y-62992000D01*
X172974000Y-62992000D01*
X172974000Y-64008000D01*
G36*
X172974000Y-64008000D02*
G01*
X171958000Y-64008000D01*
X171958000Y-62992000D01*
X172974000Y-62992000D01*
X172974000Y-64008000D01*
G37*
X172974000Y-66548000D02*
X171958000Y-66548000D01*
X171958000Y-65532000D01*
X172974000Y-65532000D01*
X172974000Y-66548000D01*
G36*
X172974000Y-66548000D02*
G01*
X171958000Y-66548000D01*
X171958000Y-65532000D01*
X172974000Y-65532000D01*
X172974000Y-66548000D01*
G37*
X172974000Y-69088000D02*
X171958000Y-69088000D01*
X171958000Y-68072000D01*
X172974000Y-68072000D01*
X172974000Y-69088000D01*
G36*
X172974000Y-69088000D02*
G01*
X171958000Y-69088000D01*
X171958000Y-68072000D01*
X172974000Y-68072000D01*
X172974000Y-69088000D01*
G37*
X172974000Y-71628000D02*
X171958000Y-71628000D01*
X171958000Y-70612000D01*
X172974000Y-70612000D01*
X172974000Y-71628000D01*
G36*
X172974000Y-71628000D02*
G01*
X171958000Y-71628000D01*
X171958000Y-70612000D01*
X172974000Y-70612000D01*
X172974000Y-71628000D01*
G37*
X172974000Y-74168000D02*
X171958000Y-74168000D01*
X171958000Y-73152000D01*
X172974000Y-73152000D01*
X172974000Y-74168000D01*
G36*
X172974000Y-74168000D02*
G01*
X171958000Y-74168000D01*
X171958000Y-73152000D01*
X172974000Y-73152000D01*
X172974000Y-74168000D01*
G37*
X172974000Y-76708000D02*
X171958000Y-76708000D01*
X171958000Y-75692000D01*
X172974000Y-75692000D01*
X172974000Y-76708000D01*
G36*
X172974000Y-76708000D02*
G01*
X171958000Y-76708000D01*
X171958000Y-75692000D01*
X172974000Y-75692000D01*
X172974000Y-76708000D01*
G37*
X172974000Y-79248000D02*
X171958000Y-79248000D01*
X171958000Y-78232000D01*
X172974000Y-78232000D01*
X172974000Y-79248000D01*
G36*
X172974000Y-79248000D02*
G01*
X171958000Y-79248000D01*
X171958000Y-78232000D01*
X172974000Y-78232000D01*
X172974000Y-79248000D01*
G37*
X172974000Y-81788000D02*
X171958000Y-81788000D01*
X171958000Y-80772000D01*
X172974000Y-80772000D01*
X172974000Y-81788000D01*
G36*
X172974000Y-81788000D02*
G01*
X171958000Y-81788000D01*
X171958000Y-80772000D01*
X172974000Y-80772000D01*
X172974000Y-81788000D01*
G37*
X172974000Y-84328000D02*
X171958000Y-84328000D01*
X171958000Y-83312000D01*
X172974000Y-83312000D01*
X172974000Y-84328000D01*
G36*
X172974000Y-84328000D02*
G01*
X171958000Y-84328000D01*
X171958000Y-83312000D01*
X172974000Y-83312000D01*
X172974000Y-84328000D01*
G37*
X172974000Y-86868000D02*
X171958000Y-86868000D01*
X171958000Y-85852000D01*
X172974000Y-85852000D01*
X172974000Y-86868000D01*
G36*
X172974000Y-86868000D02*
G01*
X171958000Y-86868000D01*
X171958000Y-85852000D01*
X172974000Y-85852000D01*
X172974000Y-86868000D01*
G37*
X184150000Y-58928000D02*
X183134000Y-58928000D01*
X183134000Y-57912000D01*
X184150000Y-57912000D01*
X184150000Y-58928000D01*
G36*
X184150000Y-58928000D02*
G01*
X183134000Y-58928000D01*
X183134000Y-57912000D01*
X184150000Y-57912000D01*
X184150000Y-58928000D01*
G37*
X184150000Y-61468000D02*
X183134000Y-61468000D01*
X183134000Y-60452000D01*
X184150000Y-60452000D01*
X184150000Y-61468000D01*
G36*
X184150000Y-61468000D02*
G01*
X183134000Y-61468000D01*
X183134000Y-60452000D01*
X184150000Y-60452000D01*
X184150000Y-61468000D01*
G37*
X184150000Y-64008000D02*
X183134000Y-64008000D01*
X183134000Y-62992000D01*
X184150000Y-62992000D01*
X184150000Y-64008000D01*
G36*
X184150000Y-64008000D02*
G01*
X183134000Y-64008000D01*
X183134000Y-62992000D01*
X184150000Y-62992000D01*
X184150000Y-64008000D01*
G37*
X184150000Y-66548000D02*
X183134000Y-66548000D01*
X183134000Y-65532000D01*
X184150000Y-65532000D01*
X184150000Y-66548000D01*
G36*
X184150000Y-66548000D02*
G01*
X183134000Y-66548000D01*
X183134000Y-65532000D01*
X184150000Y-65532000D01*
X184150000Y-66548000D01*
G37*
X184150000Y-69088000D02*
X183134000Y-69088000D01*
X183134000Y-68072000D01*
X184150000Y-68072000D01*
X184150000Y-69088000D01*
G36*
X184150000Y-69088000D02*
G01*
X183134000Y-69088000D01*
X183134000Y-68072000D01*
X184150000Y-68072000D01*
X184150000Y-69088000D01*
G37*
X184150000Y-71628000D02*
X183134000Y-71628000D01*
X183134000Y-70612000D01*
X184150000Y-70612000D01*
X184150000Y-71628000D01*
G36*
X184150000Y-71628000D02*
G01*
X183134000Y-71628000D01*
X183134000Y-70612000D01*
X184150000Y-70612000D01*
X184150000Y-71628000D01*
G37*
X184150000Y-74168000D02*
X183134000Y-74168000D01*
X183134000Y-73152000D01*
X184150000Y-73152000D01*
X184150000Y-74168000D01*
G36*
X184150000Y-74168000D02*
G01*
X183134000Y-74168000D01*
X183134000Y-73152000D01*
X184150000Y-73152000D01*
X184150000Y-74168000D01*
G37*
X184150000Y-76708000D02*
X183134000Y-76708000D01*
X183134000Y-75692000D01*
X184150000Y-75692000D01*
X184150000Y-76708000D01*
G36*
X184150000Y-76708000D02*
G01*
X183134000Y-76708000D01*
X183134000Y-75692000D01*
X184150000Y-75692000D01*
X184150000Y-76708000D01*
G37*
X184150000Y-79248000D02*
X183134000Y-79248000D01*
X183134000Y-78232000D01*
X184150000Y-78232000D01*
X184150000Y-79248000D01*
G36*
X184150000Y-79248000D02*
G01*
X183134000Y-79248000D01*
X183134000Y-78232000D01*
X184150000Y-78232000D01*
X184150000Y-79248000D01*
G37*
X184150000Y-81788000D02*
X183134000Y-81788000D01*
X183134000Y-80772000D01*
X184150000Y-80772000D01*
X184150000Y-81788000D01*
G36*
X184150000Y-81788000D02*
G01*
X183134000Y-81788000D01*
X183134000Y-80772000D01*
X184150000Y-80772000D01*
X184150000Y-81788000D01*
G37*
X184150000Y-84328000D02*
X183134000Y-84328000D01*
X183134000Y-83312000D01*
X184150000Y-83312000D01*
X184150000Y-84328000D01*
G36*
X184150000Y-84328000D02*
G01*
X183134000Y-84328000D01*
X183134000Y-83312000D01*
X184150000Y-83312000D01*
X184150000Y-84328000D01*
G37*
X184150000Y-86868000D02*
X183134000Y-86868000D01*
X183134000Y-85852000D01*
X184150000Y-85852000D01*
X184150000Y-86868000D01*
G36*
X184150000Y-86868000D02*
G01*
X183134000Y-86868000D01*
X183134000Y-85852000D01*
X184150000Y-85852000D01*
X184150000Y-86868000D01*
G37*
X173482000Y-89528000D02*
X172466000Y-89528000D01*
X172466000Y-88512000D01*
X173482000Y-88512000D01*
X173482000Y-89528000D01*
G36*
X173482000Y-89528000D02*
G01*
X172466000Y-89528000D01*
X172466000Y-88512000D01*
X173482000Y-88512000D01*
X173482000Y-89528000D01*
G37*
X176022000Y-89528000D02*
X175006000Y-89528000D01*
X175006000Y-88512000D01*
X176022000Y-88512000D01*
X176022000Y-89528000D01*
G36*
X176022000Y-89528000D02*
G01*
X175006000Y-89528000D01*
X175006000Y-88512000D01*
X176022000Y-88512000D01*
X176022000Y-89528000D01*
G37*
X178562000Y-89528000D02*
X177546000Y-89528000D01*
X177546000Y-88512000D01*
X178562000Y-88512000D01*
X178562000Y-89528000D01*
G36*
X178562000Y-89528000D02*
G01*
X177546000Y-89528000D01*
X177546000Y-88512000D01*
X178562000Y-88512000D01*
X178562000Y-89528000D01*
G37*
X181102000Y-89528000D02*
X180086000Y-89528000D01*
X180086000Y-88512000D01*
X181102000Y-88512000D01*
X181102000Y-89528000D01*
G36*
X181102000Y-89528000D02*
G01*
X180086000Y-89528000D01*
X180086000Y-88512000D01*
X181102000Y-88512000D01*
X181102000Y-89528000D01*
G37*
X183642000Y-89528000D02*
X182626000Y-89528000D01*
X182626000Y-88512000D01*
X183642000Y-88512000D01*
X183642000Y-89528000D01*
G36*
X183642000Y-89528000D02*
G01*
X182626000Y-89528000D01*
X182626000Y-88512000D01*
X183642000Y-88512000D01*
X183642000Y-89528000D01*
G37*
X180024000Y-62468000D02*
X178624000Y-62468000D01*
X178624000Y-60468000D01*
X180024000Y-60468000D01*
X180024000Y-62468000D01*
G36*
X180024000Y-62468000D02*
G01*
X178624000Y-62468000D01*
X178624000Y-60468000D01*
X180024000Y-60468000D01*
X180024000Y-62468000D01*
G37*
X177824000Y-62468000D02*
X176424000Y-62468000D01*
X176424000Y-60468000D01*
X177824000Y-60468000D01*
X177824000Y-62468000D01*
G36*
X177824000Y-62468000D02*
G01*
X176424000Y-62468000D01*
X176424000Y-60468000D01*
X177824000Y-60468000D01*
X177824000Y-62468000D01*
G37*
D15*
X82428400Y-64312800D03*
D16*
X89580400Y-64312800D03*
D15*
X100513200Y-52273200D03*
D16*
X107665200Y-52273200D03*
D15*
X118496400Y-46228000D03*
D16*
X125648400Y-46228000D03*
D15*
X136428800Y-53289200D03*
D16*
X143580800Y-53289200D03*
D15*
X154412000Y-55422800D03*
D16*
X161564000Y-55422800D03*
D15*
X82326800Y-81229200D03*
D16*
X89478800Y-81229200D03*
D15*
X100310000Y-69342000D03*
D16*
X107462000Y-69342000D03*
D15*
X118394800Y-63347600D03*
D16*
X125546800Y-63347600D03*
D15*
X136378000Y-69900800D03*
D16*
X143530000Y-69900800D03*
D15*
X154716800Y-72491600D03*
D16*
X161868800Y-72491600D03*
D15*
X82326800Y-98247200D03*
D16*
X89478800Y-98247200D03*
D15*
X100411600Y-86309200D03*
D16*
X107563600Y-86309200D03*
D15*
X118394800Y-80314800D03*
D16*
X125546800Y-80314800D03*
D15*
X136479600Y-86969600D03*
D16*
X143631600Y-86969600D03*
D15*
X154513600Y-89357200D03*
D16*
X161665600Y-89357200D03*
D15*
X130383600Y-119075200D03*
D16*
X137535600Y-119075200D03*
D17*
X149060131Y-120535059D03*
D16*
X155968433Y-122386133D03*
D18*
X178170166Y-124992342D03*
D16*
X181746166Y-118798528D03*
D19*
X80410000Y-70400000D03*
D20*
X80690000Y-66200000D03*
D21*
X80910000Y-74150000D03*
D22*
X85910000Y-70400000D03*
D21*
X85910000Y-76350000D03*
X90910000Y-74150000D03*
D20*
X91130000Y-66200000D03*
D19*
X91410000Y-70400000D03*
D23*
X89185000Y-76350000D03*
D24*
X78135000Y-74150000D03*
D19*
X98410000Y-58400000D03*
D20*
X98690000Y-54200000D03*
D21*
X98910000Y-62150000D03*
D22*
X103910000Y-58400000D03*
D21*
X103910000Y-64350000D03*
X108910000Y-62150000D03*
D20*
X109130000Y-54200000D03*
D19*
X109410000Y-58400000D03*
D23*
X107185000Y-64350000D03*
D24*
X96135000Y-62150000D03*
D19*
X116410000Y-52400000D03*
D20*
X116690000Y-48200000D03*
D21*
X116910000Y-56150000D03*
D22*
X121910000Y-52400000D03*
D21*
X121910000Y-58350000D03*
X126910000Y-56150000D03*
D20*
X127130000Y-48200000D03*
D19*
X127410000Y-52400000D03*
D23*
X125185000Y-58350000D03*
D25*
X113635000Y-56150000D03*
D19*
X134410000Y-59020000D03*
D20*
X134690000Y-54820000D03*
D21*
X134910000Y-62770000D03*
D22*
X139910000Y-59020000D03*
D21*
X139910000Y-64970000D03*
X144910000Y-62770000D03*
D20*
X145130000Y-54820000D03*
D19*
X145410000Y-59020000D03*
D23*
X143185000Y-64970000D03*
D25*
X131635000Y-62770000D03*
D19*
X152410000Y-61400000D03*
D20*
X152690000Y-57200000D03*
D21*
X152910000Y-65150000D03*
D22*
X157910000Y-61400000D03*
D21*
X157910000Y-67350000D03*
X162910000Y-65150000D03*
D20*
X163130000Y-57200000D03*
D19*
X163410000Y-61400000D03*
D23*
X161185000Y-67350000D03*
D25*
X149635000Y-65150000D03*
D19*
X80410000Y-87400000D03*
D20*
X80690000Y-83200000D03*
D21*
X80910000Y-91150000D03*
D22*
X85910000Y-87400000D03*
D21*
X85910000Y-93350000D03*
X90910000Y-91150000D03*
D20*
X91130000Y-83200000D03*
D19*
X91410000Y-87400000D03*
D23*
X89185000Y-93350000D03*
D24*
X78135000Y-91150000D03*
D19*
X98410000Y-75400000D03*
D20*
X98690000Y-71200000D03*
D21*
X98910000Y-79150000D03*
D22*
X103910000Y-75400000D03*
D21*
X103910000Y-81350000D03*
X108910000Y-79150000D03*
D20*
X109130000Y-71200000D03*
D19*
X109410000Y-75400000D03*
D23*
X107185000Y-81350000D03*
D25*
X95635000Y-79150000D03*
D19*
X116410000Y-69400000D03*
D20*
X116690000Y-65200000D03*
D21*
X116910000Y-73150000D03*
D22*
X121910000Y-69400000D03*
D21*
X121910000Y-75350000D03*
X126910000Y-73150000D03*
D20*
X127130000Y-65200000D03*
D19*
X127410000Y-69400000D03*
D23*
X125185000Y-75350000D03*
D25*
X113635000Y-73150000D03*
D19*
X134410000Y-76020000D03*
D20*
X134690000Y-71820000D03*
D21*
X134910000Y-79770000D03*
D22*
X139910000Y-76020000D03*
D21*
X139910000Y-81970000D03*
X144910000Y-79770000D03*
D20*
X145130000Y-71820000D03*
D19*
X145410000Y-76020000D03*
D23*
X143185000Y-81970000D03*
D25*
X131635000Y-79770000D03*
D19*
X152410000Y-78400000D03*
D20*
X152690000Y-74200000D03*
D21*
X152910000Y-82150000D03*
D22*
X157910000Y-78400000D03*
D21*
X157910000Y-84350000D03*
X162910000Y-82150000D03*
D20*
X163130000Y-74200000D03*
D19*
X163410000Y-78400000D03*
D23*
X161185000Y-84350000D03*
D25*
X149635000Y-82150000D03*
D19*
X80410000Y-104400000D03*
D20*
X80690000Y-100200000D03*
D21*
X80910000Y-108150000D03*
D22*
X85910000Y-104400000D03*
D21*
X85910000Y-110350000D03*
X90910000Y-108150000D03*
D20*
X91130000Y-100200000D03*
D19*
X91410000Y-104400000D03*
D23*
X89185000Y-110350000D03*
D24*
X78135000Y-108150000D03*
D19*
X98410000Y-92400000D03*
D20*
X98690000Y-88200000D03*
D21*
X98910000Y-96150000D03*
D22*
X103910000Y-92400000D03*
D21*
X103910000Y-98350000D03*
X108910000Y-96150000D03*
D20*
X109130000Y-88200000D03*
D19*
X109410000Y-92400000D03*
D23*
X107185000Y-98350000D03*
D25*
X95635000Y-96150000D03*
D19*
X116410000Y-86400000D03*
D20*
X116690000Y-82200000D03*
D21*
X116910000Y-90150000D03*
D22*
X121910000Y-86400000D03*
D21*
X121910000Y-92350000D03*
X126910000Y-90150000D03*
D20*
X127130000Y-82200000D03*
D19*
X127410000Y-86400000D03*
D23*
X125185000Y-92350000D03*
D25*
X113635000Y-90150000D03*
D19*
X134410000Y-93025000D03*
D20*
X134690000Y-88825000D03*
D21*
X134910000Y-96775000D03*
D22*
X139910000Y-93025000D03*
D21*
X139910000Y-98975000D03*
X144910000Y-96775000D03*
D20*
X145130000Y-88825000D03*
D19*
X145410000Y-93025000D03*
D23*
X143185000Y-98975000D03*
D25*
X131635000Y-96775000D03*
D19*
X152410000Y-95400000D03*
D20*
X152690000Y-91200000D03*
D21*
X152910000Y-99150000D03*
D22*
X157910000Y-95400000D03*
D21*
X157910000Y-101350000D03*
X162910000Y-99150000D03*
D20*
X163130000Y-91200000D03*
D19*
X163410000Y-95400000D03*
D23*
X161185000Y-101350000D03*
D25*
X149635000Y-99150000D03*
D19*
X139510000Y-112990000D03*
D20*
X139230000Y-117190000D03*
D21*
X139010000Y-109240000D03*
D22*
X134010000Y-112990000D03*
D21*
X134010000Y-107040000D03*
X129010000Y-109240000D03*
D20*
X128790000Y-117190000D03*
D19*
X128510000Y-112990000D03*
D26*
X130735000Y-107040000D03*
D27*
X142285000Y-109240000D03*
D19*
X159372592Y-117003505D03*
D20*
X158015093Y-120987924D03*
D21*
X159860201Y-113251873D03*
D22*
X154060000Y-115580000D03*
D21*
X155599973Y-109832741D03*
X150200942Y-110663683D03*
D20*
X147930827Y-118285853D03*
D19*
X148747408Y-114156495D03*
D28*
X152436566Y-108985109D03*
D29*
X163023608Y-114099506D03*
D19*
X177410000Y-114026860D03*
D20*
X180907307Y-116369347D03*
D21*
X173912405Y-112584873D03*
D22*
X174660000Y-118790000D03*
D21*
X169507149Y-115815000D03*
X168912405Y-121245127D03*
D20*
X175687307Y-125410653D03*
D19*
X171910000Y-123553140D03*
D30*
X167869649Y-118651233D03*
D31*
X175549905Y-109748640D03*
D32*
X171323000Y-96901000D03*
X185420000Y-106426000D03*
X95000000Y-66802000D03*
X148971000Y-69850000D03*
X123952000Y-104140000D03*
X167005000Y-110363000D03*
X95000000Y-83820000D03*
D33*
X186352000Y-100654000D03*
X186352000Y-97654000D03*
D16*
X170434000Y-58420000D03*
X170434000Y-60960000D03*
X170434000Y-63500000D03*
X170434000Y-66040000D03*
X170434000Y-68580000D03*
X170434000Y-71120000D03*
X170434000Y-73660000D03*
X170434000Y-76200000D03*
X170434000Y-78740000D03*
X170434000Y-81280000D03*
X170434000Y-83820000D03*
X170434000Y-86360000D03*
D34*
X172212000Y-58420000D03*
X172212000Y-60960000D03*
X172212000Y-63500000D03*
X172212000Y-66040000D03*
X172212000Y-68580000D03*
X172212000Y-71120000D03*
X172212000Y-73660000D03*
X172212000Y-76200000D03*
X172212000Y-78740000D03*
X172212000Y-81280000D03*
X172212000Y-83820000D03*
X172212000Y-86360000D03*
D35*
X183896000Y-58420000D03*
X183896000Y-60960000D03*
X183896000Y-63500000D03*
X183896000Y-66040000D03*
X183896000Y-68580000D03*
X183896000Y-71120000D03*
X183896000Y-73660000D03*
X183896000Y-76200000D03*
X183896000Y-78740000D03*
X183896000Y-81280000D03*
X183896000Y-83820000D03*
X183896000Y-86360000D03*
D16*
X185674000Y-58420000D03*
X185674000Y-60960000D03*
X185674000Y-63500000D03*
X185674000Y-66040000D03*
X185674000Y-68580000D03*
X185674000Y-71120000D03*
X185674000Y-73660000D03*
X185674000Y-76200000D03*
X185674000Y-78740000D03*
X185674000Y-81280000D03*
X185674000Y-83820000D03*
X185674000Y-86360000D03*
D36*
X173355000Y-58420000D03*
X173355000Y-60960000D03*
X173355000Y-63500000D03*
X173355000Y-66040000D03*
X173355000Y-68580000D03*
X173355000Y-71120000D03*
X173355000Y-73660000D03*
X173355000Y-76200000D03*
X173355000Y-78740000D03*
X173355000Y-81280000D03*
X173355000Y-83820000D03*
X173355000Y-86360000D03*
D37*
X182753000Y-86360000D03*
X182753000Y-83820000D03*
X182753000Y-81280000D03*
X182753000Y-78740000D03*
X182753000Y-76200000D03*
X182753000Y-73660000D03*
X182753000Y-71120000D03*
X182753000Y-68580000D03*
X182753000Y-66040000D03*
X182753000Y-63500000D03*
X182753000Y-60960000D03*
X182753000Y-58420000D03*
D38*
X178054000Y-99060000D03*
X180804000Y-99060000D03*
D39*
X178579000Y-101685000D03*
X178579000Y-96435000D03*
X180279000Y-101685000D03*
X180279000Y-96435000D03*
D40*
X172974000Y-89274000D03*
D16*
X172974000Y-90932000D03*
D40*
X175514000Y-89274000D03*
D16*
X175514000Y-90932000D03*
D40*
X178054000Y-89274000D03*
D16*
X178054000Y-90932000D03*
D40*
X180594000Y-89274000D03*
D16*
X180594000Y-90932000D03*
D40*
X183134000Y-89274000D03*
D16*
X183134000Y-90932000D03*
D41*
X183134000Y-88132000D03*
X180594000Y-88132000D03*
X178054000Y-88132000D03*
X175514000Y-88132000D03*
X172974000Y-88132000D03*
%LPD*%
M02*
